<?xml version="1.0" encoding="UTF-8" standalone="no"?>
<svg
   xmlns:dc="http://purl.org/dc/elements/1.1/"
   xmlns:cc="http://creativecommons.org/ns#"
   xmlns:rdf="http://www.w3.org/1999/02/22-rdf-syntax-ns#"
   xmlns:svg="http://www.w3.org/2000/svg"
   xmlns="http://www.w3.org/2000/svg"
   xmlns:sodipodi="http://sodipodi.sourceforge.net/DTD/sodipodi-0.dtd"
   xmlns:inkscape="http://www.inkscape.org/namespaces/inkscape"
   width="1500mm"
   height="710mm"
   id="svg2"
   version="1.1"
   inkscape:version="0.91 r13725"
   sodipodi:docname="1.svg">
  <metadata
     id="metadata912">
    <rdf:RDF>
      <cc:Work
         rdf:about="">
        <dc:format>image/svg+xml</dc:format>
        <dc:type
           rdf:resource="http://purl.org/dc/dcmitype/StillImage" />
        <dc:title></dc:title>
      </cc:Work>
    </rdf:RDF>
  </metadata>
  <sodipodi:namedview
     pagecolor="#ffffff"
     bordercolor="#666666"
     borderopacity="1"
     objecttolerance="10"
     gridtolerance="10"
     guidetolerance="10"
     inkscape:pageopacity="0"
     inkscape:pageshadow="2"
     inkscape:window-width="1920"
     inkscape:window-height="1012"
     id="namedview910"
     showgrid="false"
     inkscape:document-units="mm"
     units="mm"
     inkscape:zoom="0.1121287"
     inkscape:cx="253.30643"
     inkscape:cy="1057.828"
     inkscape:window-x="0"
     inkscape:window-y="0"
     inkscape:window-maximized="1"
     inkscape:current-layer="g22" />
  <desc
     id="desc4">/home/data/chair/1.dxf - scale = 1.000000, origin = (0.000000, 0.000000), auto = False</desc>
  <defs
     id="defs6">
    <marker
       id="DistanceX"
       orient="auto"
       refX="0"
       refY="0"
       style="overflow:visible">
      <path
         d="M 3,-3 -3,3 M 0,-5 0,5"
         style="stroke:#000000;stroke-width:0.5"
         id="path9"
         inkscape:connector-curvature="0" />
    </marker>
    <pattern
       height="8"
       id="Hatch"
       patternUnits="userSpaceOnUse"
       width="8"
       x="0"
       y="0">
      <path
         d="M8 4 l-4,4"
         linecap="square"
         stroke="#000000"
         stroke-width="0.25"
         id="path12" />
      <path
         d="M6 2 l-4,4"
         linecap="square"
         stroke="#000000"
         stroke-width="0.25"
         id="path14" />
      <path
         d="M4 0 l-4,4"
         linecap="square"
         stroke="#000000"
         stroke-width="0.25"
         id="path16" />
    </pattern>
    <symbol
       id="$MODEL_SPACE" />
    <symbol
       id="$PAPER_SPACE" />
  </defs>
  <g
     inkscape:groupmode="layer"
     inkscape:label="0"
     id="g20"
     transform="translate(0,1463.3858)" />
  <g
     inkscape:groupmode="layer"
     inkscape:label="DEFAULT"
     id="g22"
     transform="translate(0,1463.3858)">
    <path
       id="path908"
       style="fill:none;stroke:#00ff00;stroke-width:10.00000858;stroke-opacity:1"
       d="m 181.69174,270.55195 143.94672,-2.0926 m 0,0 396.48495,525.27923 m 202.84046,16.12432 6.76621,-6.02231 m -13.52021,11.68531 6.754,-5.663 m -13.49561,10.96171 6.74161,-5.29871 m -10.10771,7.80991 3.3661,-2.5112 m -6.7291,4.9295 3.363,-2.4183 m -6.72271,4.7431 3.35971,-2.3248 m -6.71621,4.5554 3.3565,-2.2306 m -6.7098,4.36651 3.3533,-2.13591 m -6.7034,4.17631 3.3501,-2.0404 m -6.69681,3.9848 3.34671,-1.9444 m -6.69021,3.7921 3.3435,-1.8477 m -6.6837,3.5982 3.3402,-1.7505 m -6.67701,3.4031 3.33681,-1.6526 m -6.67021,3.2068 3.3334,-1.5542 m -6.6635,3.00911 3.3301,-1.45491 m -6.6568,2.81021 3.3267,-1.3553 m -6.65001,2.6102 3.32331,-1.2549 m -6.64311,2.4087 3.3198,-1.1538 m -6.6361,2.2061 3.3163,-1.0523 m -6.62921,2.0024 3.31291,-0.95 m -6.62231,1.7972 3.3094,-0.847 m -6.6152,1.5908 3.3058,-0.744 m -6.6081,1.3836 3.3023,-0.64 m -6.60101,1.175 3.29871,-0.535 m -6.59391,0.965 3.2952,-0.43 m -6.5867,0.754 3.2915,-0.324 m -6.5794,0.541 3.2879,-0.217 m -6.57211,0.327 3.28421,-0.11 m -6.56481,0.112 3.2806,-0.002 m -6.5574,-0.104 3.2768,0.106 m -6.55,-0.321 3.2732,0.215 m -6.54261,-0.54 3.26941,0.325 m -6.53501,-0.76 3.2656,0.435 m -6.5275,-0.981 3.2619,0.546 m -6.51991,-1.2037 3.25801,0.658 m -6.51231,-1.4279 3.2543,0.77 m -6.5047,-1.6527 3.2504,0.883 m -6.4969,-1.8791 3.2465,0.996 m -6.48911,-2.106 3.24261,1.11 m -6.48141,-2.3347 3.2388,1.2247 m -6.4736,-2.5647 3.2348,1.34 m -6.4656,-2.7958 3.2308,1.4558 m -6.45771,-3.02811 3.22691,1.57231 m -6.44981,-3.26171 3.2229,1.6894 m -6.4418,-3.4965 3.2189,1.8071 m -6.4337,-3.7326 3.2148,1.9255 m -6.42561,-3.97 3.21081,2.0445 m -6.41751,-4.2086 3.2067,2.1641 m -6.4093,-4.44841 3.2026,2.28431 m -6.40111,-4.68941 3.19851,2.4051 m -6.39291,-4.9316 3.1944,2.5265 m -6.3846,-5.1752 3.1902,2.6487 m -6.3762,-5.42 3.186,2.7713 m -6.36781,-5.66591 3.18181,2.89461 m -6.35931,-5.91321 3.1775,3.0186 m -6.3509,-6.1618 3.1734,3.1432 m -6.3424,-6.4115 3.169,3.2683 m -6.33381,-6.66241 3.16481,3.39411 m -6.32531,-6.91461 3.1605,3.5205 m -6.3166,-7.1681 3.1561,3.6476 m -6.3079,-7.42281 3.1518,3.77521 m 4275.40509,-2195.96119 186.007,0.14 m 0,0 0.311,2363.76942 m 0,0 -5005.30656,0 m 0,0 0,-694.91167 m 4799.30116,-1558.45575 19.6874,-110.5421 m -31.2868,169.1298 11.5994,-58.5877 m -18.4315,88.1207 6.8321,-29.533 m -14.5783,59.0004 7.7462,-29.4674 m -12.0152,44.1239 4.269,-14.6565 m -8.8301,29.2334 4.5611,-14.5769 m -9.4354,29.0532 4.8743,-14.4763 m -10.0832,28.8307 5.2089,-14.3544 m -10.7736,28.5661 5.5647,-14.2117 m -11.5062,28.2596 5.9415,-14.0479 m -12.281,27.9107 6.3395,-13.8628 m -13.0984,27.5196 6.7589,-13.6568 m -13.9582,27.0864 7.1993,-13.4296 m -10.9707,20.0527 3.7714,-6.6231 m -7.661,13.1815 3.8896,-6.5584 m -7.8998,13.0494 4.0102,-6.491 m -8.1439,12.9122 4.1337,-6.4212 m -8.3933,12.7697 4.2596,-6.3485 m -8.6478,12.6218 4.3882,-6.2733 m -8.9078,12.46868 4.5196,-6.19538 m -9.1731,12.31038 4.6535,-6.115 m -9.4436,12.1468 4.7901,-6.0318 m -9.7195,11.9779 4.9294,-5.9461 m -10.0006,11.8039 5.0712,-5.8578 m -10.2871,11.6244 5.2159,-5.7666 m -10.5789,11.4396 5.363,-5.673 m -10.8759,11.2497 5.5129,-5.5767 m -22.2494,18.1679 16.7365,-12.5912 m -32.6653,25.0664 15.9288,-12.4752 m -31.0709,24.838 15.1421,-12.3628 m -29.5185,24.617 14.3764,-12.2542 m -28.0083,24.4032 13.6319,-12.149 m -26.5402,24.1966 12.9083,-12.0476 m -25.1142,23.9973 12.2059,-11.9497 m -23.7304,23.8052 11.5245,-11.8555 m -22.3887,23.6206 10.8642,-11.7651 m -21.0891,23.443 10.2249,-11.6779 m -19.8318,23.2725 9.6069,-11.5946 m -18.6166,23.1095 9.0097,-11.5149 m -17.4435,22.9537 8.4338,-11.4388 m -16.3126,22.8051 7.8788,-11.3663 m -15.2237,22.6637 7.3449,-11.2974 m -14.177,22.5297 6.8321,-11.2323 m -13.1725,22.403 6.3404,-11.1707 m -12.2103,22.2833 5.8699,-11.1126 m -11.2901,22.171 5.4202,-11.0584 m -10.4119,22.0661 4.9917,-11.0077 m -9.5759,21.9682 4.5842,-10.9605 m -8.7821,21.87758 4.1979,-10.91708 m -8.0305,21.79428 3.8326,-10.8772 m -7.321,21.71821 3.4884,-10.84101 m -6.6536,21.64942 3.1652,-10.80841 m -6.0284,21.58792 2.8632,-10.77951 m -5.4453,21.53362 2.5821,-10.75411 m -4.9043,21.48642 2.3222,-10.73231 m -4.4056,21.44662 2.0834,-10.71431 m -3.9489,21.41412 1.8655,-10.69981 m -5.0276,32.07052 3.1621,-21.37071 m -5.7059,42.72703 2.5438,-21.35632 m -4.6378,42.72734 2.094,-21.37102 m -5.6073,64.27275 3.5133,-42.90173 m -7.2505,86.21007 3.7372,-43.30834 m -6.1113,65.18746 2.3741,-21.87912 m -5.3099,43.94684 2.9358,-22.06772 m -6.602,44.35303 3.6662,-22.28531 m -5.8258,33.51862 2.1596,-11.23331 m -4.565,22.53192 2.4054,-11.29861 m -5.0776,22.66612 2.6722,-11.36751 m -5.6324,22.80762 2.9602,-11.44011 m -6.2294,22.95632 3.2692,-11.51621 m -6.8685,23.11222 3.5993,-11.59601 m -7.5498,23.27542 3.9505,-11.67941 m -8.2731,23.44582 4.3226,-11.76641 m -9.0386,23.62352 4.716,-11.85711 m -9.8463,23.80842 5.1303,-11.95131 m -10.696,24.00062 5.5657,-12.04931 m -11.588,24.20012 6.0223,-12.15081 m -12.5222,24.40672 6.4999,-12.25591 m -13.4984,24.62062 6.9985,-12.36471 m -19.163,36.57963 12.1645,-24.21492 m -25.464,49.08404 13.2995,-24.86912 m -20.4561,37.50853 7.1566,-12.63941 m -14.6945,25.39372 7.5379,-12.75431 m -15.4896,25.60732 7.9517,-12.85301 m -16.3497,25.78862 8.398,-12.93561 m -17.2747,25.93752 8.8767,-13.00191 m -18.2647,26.05402 9.388,-13.05211 m -19.3199,26.138118 9.9319,-13.086008 m -20.44,26.189818 10.5081,-13.10381 m -21.6251,26.20903 11.117,-13.10522 m -22.8754,26.19593 11.7584,-13.09071 m -24.1905,26.15042 12.4321,-13.05971 m -25.5705,26.07242 13.1384,-13.01271 m -27.0157,25.96222 13.8773,-12.94951 m -28.526,25.81942 14.6487,-12.86991 m -30.1012,25.64422 15.4525,-12.77431 m -31.7413,25.43682 16.2888,-12.66251 m -33.4466,25.19692 17.1578,-12.53441 m -35.217,24.92452 18.0592,-12.39011 m -37.0522,24.61982 18.993,-12.22971 m -38.9523,24.28272 19.9593,-12.05301 m -40.9176,23.91312 20.9583,-11.86011 m -42.948,23.51122 21.9897,-11.65111 m -45.0433,23.076922 23.0536,-11.425812 m -47.2037,22.610122 24.1501,-11.18431 m -49.429,22.11102 25.2789,-10.92671 m -51.7192,21.57952 26.4403,-10.65281 m -54.0746,21.01551 27.6343,-10.3627 m -56.4951,20.41921 28.8608,-10.05651 m -93.0328,38.84804 64.172,-28.79153 m -123.3344,57.28155 59.1624,-28.49002 m -113.6088,56.62724 54.4464,-28.13722 m -104.4702,55.87064 50.0238,-27.73342 m -95.9187,55.01185 45.8949,-27.27843 m -87.9545,54.05055 42.0596,-26.77212 m -80.5775,52.98694 38.5179,-26.21482 m -73.7877,51.82114 35.2698,-25.60632 m -67.5849,50.55304 32.3151,-24.94672 m -61.9692,49.18254 29.6541,-24.23582 m -56.9407,47.70974 27.2866,-23.47392 m -52.4996,46.13464 25.213,-22.66072 m -111.1974,104.14939 85.9844,-81.48867 m -105.2318,99.31648 19.2474,-17.82781 m -38.1824,34.53563 18.935,-16.70782 m -28.3771,24.62562 9.4421,-7.9178 m -18.9162,15.53651 9.4741,-7.61871 m -19.0168,14.93171 9.5427,-7.313 m -19.1909,14.31411 9.6482,-7.00111 m -19.4385,13.68382 9.7903,-6.68271 m -19.7593,13.04061 9.969,-6.3579 m -20.1536,12.38471 10.1846,-6.02681 m -15.3691,8.91401 5.1845,-2.8872 m -10.4367,5.6891 5.2522,-2.8019 m -10.5766,5.5179 5.3244,-2.716 m -10.7256,5.34531 5.4012,-2.62931 m -10.8838,5.17091 5.4826,-2.5416 m -11.0512,4.9948 5.5686,-2.4532 m -11.2278,4.8173 5.6592,-2.3641 m -11.4136,4.6382 5.7544,-2.2741 m -11.6084,4.45741 5.854,-2.18331 m -11.8124,4.27491 5.9584,-2.0916 m -12.0257,4.091 6.0673,-1.9994 m -12.2482,3.9055 6.1809,-1.9061 m -12.4798,3.7182 6.2989,-1.8121 m -12.7205,3.5295 6.4216,-1.7174 m -12.9704,3.3392 6.5488,-1.6218 m -13.2295,3.14721 6.6807,-1.52541 m -13.4979,2.95361 6.8172,-1.4282 m -13.7753,2.7585 6.9581,-1.3303 m -21.3159,3.6936 14.3578,-2.3633 m -29.3348,4.3251 14.977,-1.9618 m -30.6098,3.5158 15.6328,-1.554 m -31.9582,2.6936 16.3254,-1.1396 m -33.38,1.8586 17.0546,-0.719 m -34.8752,1.0108 17.8206,-0.292 m -36.4438,0.15 18.6232,0.142 m -38.0857,-0.724 19.4625,0.581 m -39.8011,-1.6088 20.3386,1.0278 m -41.5901,-2.5082 21.2515,1.4804 m -66.6392,-5.8249 45.3877,4.3445 M 2674.2434,548.77568 a 602.19523,602.19523 0 0 0 343.452,128.51401 m -454.8497,-235.8814 111.3977,107.36739 m -141.5403,-136.36341 30.1426,28.99602 m -52.353,-51.29864 22.2104,22.30262 m -32.4749,-33.23263 10.2645,10.93001 m -21.1068,-22.93322 10.8423,12.00321 m -37.6744,-42.89093 26.8321,30.88772 m -124.9878,-145.82222 98.1557,114.9345 m -107.089,-122.1446 8.9333,7.2101 m -17.8071,-14.09341 8.8738,6.88331 m -17.6874,-13.44521 8.8136,6.5619 m -17.5666,-12.80781 8.753,6.24591 m -17.4446,-12.18121 8.6916,5.9353 m -17.3213,-11.56551 8.6297,5.63021 m -17.1968,-10.96051 8.5671,5.3303 m -17.0711,-10.36641 8.504,5.03611 m -16.9442,-9.78321 8.4402,4.7471 m -16.8161,-9.2106 8.3759,4.4635 m -16.6868,-8.64901 8.3109,4.18551 m -16.5563,-8.09831 8.2454,3.9128 m -16.4246,-7.5583 8.1792,3.6455 m -16.2916,-7.02911 8.1124,3.38361 m -16.1575,-6.51081 8.0451,3.1272 m -16.0222,-6.0034 7.9771,2.8762 m -15.8856,-5.5067 7.9085,2.6305 m -15.7479,-5.02081 7.8394,2.39031 m -15.6091,-4.54581 7.7697,2.1555 m -15.4689,-4.0816 7.6992,1.9261 m -15.3275,-3.6283 7.6283,1.7022 m -15.1849,-3.1858 7.5566,1.4836 m -15.0411,-2.7541 7.4845,1.2705 m -14.8961,-2.3332 7.4116,1.0627 m -14.7499,-1.9231 7.3383,0.86 m -14.6026,-1.5236 7.2643,0.664 m -14.454,-1.13601 7.1897,0.47201 m -14.3041,-0.75801 7.1144,0.286 m -14.1531,-0.391 7.0387,0.105 m -14.0009,-0.03 6.9622,-0.07 m -13.8475,0.31 6.8853,-0.24 m -13.6929,0.64401 6.8076,-0.40401 m -13.537,0.96701 6.7294,-0.563 m -13.38,1.2798 6.6506,-0.717 m -13.2218,1.582 6.5712,-0.865 m -13.0624,1.8727 6.4912,-1.0077 m -12.9017,2.1528 6.4105,-1.1451 m -12.7397,2.4221 6.3292,-1.277 m -12.5767,2.6805 6.2475,-1.4035 m -12.4124,2.9282 6.1649,-1.5247 m -12.2469,3.1651 6.082,-1.6404 m -12.0803,3.391 5.9983,-1.7506 m -11.9123,3.60611 5.914,-1.85551 m -11.7432,3.81041 5.8292,-1.9549 m -11.573,4.0039 5.7438,-2.049 m -11.4014,4.1866 5.6576,-2.1376 m -11.2287,4.3585 5.5711,-2.2209 m -11.0548,4.51951 5.4837,-2.29861 m -16.187,7.10761 10.7033,-4.809 m -21.0503,9.8643 10.347,-5.0553 m -20.3329,10.31351 9.9859,-5.25821 m -19.6058,10.67591 9.6199,-5.4177 m -18.8692,10.95191 9.2493,-5.53421 m -18.1229,11.14131 8.8736,-5.6071 m -17.3667,11.24391 8.4931,-5.63681 m -16.6011,11.26001 8.108,-5.6232 m -47.7502,33.06672 39.6422,-27.44352 m -75.4723,51.00504 35.8301,-23.56152 m -68.0567,43.46844 32.2266,-19.90692 m -47.0536,28.56082 14.827,-8.6539 m -28.8312,16.47951 14.0042,-7.82561 m -27.2118,14.85122 13.2076,-7.02561 m -25.6445,13.27971 12.4369,-6.2541 m -24.1293,11.76511 11.6924,-5.51101 m -22.6663,10.30731 10.9739,-4.7963 m -21.2553,8.9063 10.2814,-4.11 m -15.1706,5.9165 4.8892,-1.8065 m -9.6151,3.45221 4.7259,-1.64571 m -9.2917,3.13401 4.5658,-1.4883 m -8.9748,2.8228 4.409,-1.3345 m -8.6644,2.5187 4.2554,-1.1842 m -8.3605,2.2218 4.1051,-1.0376 m -8.0631,1.932 3.958,-0.894 m -7.7722,1.6488 3.8142,-0.755 m -7.4879,1.3739 3.6737,-0.619 m -7.2101,1.1053 3.5364,-0.486 m -6.9388,0.843 3.4024,-0.357 m -6.674,0.589 3.2716,-0.232 m -4.8594,0.302 1.5878,-0.07 m -3.1442,0.11 1.5564,-0.04 m -3.0816,0.05 1.5252,-0.01 m -3.0198,-0.009 1.4946,0.02 m -2.959,-0.07 1.4644,0.05 m -2.8989,-0.126 1.4345,0.08 m -2.8396,-0.183 1.4051,0.103 m -2.7812,-0.234 1.3761,0.131 m -2.7235,-0.288 1.3474,0.157 m -2.6666,-0.341 1.3192,0.184 m -2.6106,-0.394 1.2914,0.21 m -2.5555,-0.446 1.2641,0.236 m -2.5011,-0.497 1.237,0.261 m -2.4475,-0.546 1.2105,0.285 m -2.3947,-0.595 1.1842,0.31 m -2.3427,-0.643 1.1585,0.333 m -2.2917,-0.69 1.1332,0.357 m -2.2414,-0.737 1.1082,0.38 m -2.1918,-0.782 1.0836,0.402 m -2.1431,-0.826 1.0595,0.424 m -2.0953,-0.87 1.0358,0.446 m -2.0482,-0.913 1.0124,0.467 m -2.0019,-0.955 0.99,0.488 m -1.9571,-0.996 0.967,0.508 m -1.9119,-1.0356 0.945,0.528 m -1.8682,-1.0749 0.923,0.547 m -1.8249,-1.1128 0.902,0.566 m -1.783,-1.1503 0.881,0.584 m -1.7416,-1.1863 0.861,0.602 m -1.7015,-1.2218 0.84,0.62 m -1.6608,-1.257 0.821,0.637 m -1.6226,-1.29071 0.802,0.65401 m -1.5847,-1.32391 0.783,0.67 m -1.5473,-1.3557 0.764,0.686 m -1.5103,-1.3871 0.746,0.701 m -1.4746,-1.417 0.729,0.716 m -1.4404,-1.4464 0.711,0.73 m -1.4056,-1.4745 0.695,0.745 m -1.3732,-1.5031 0.678,0.758 m -1.3402,-1.5292 0.662,0.771 m -1.3086,-1.5548 0.647,0.784 m -1.2785,-1.5801 0.632,0.796 m -1.2486,-1.6039 0.617,0.808 m -1.2193,-1.6273 0.602,0.819 m -1.7651,-2.4898 1.1631,1.6708 m -2.2736,-3.38171 1.1105,1.71091 m -2.1717,-3.45841 1.0612,1.7475 m -2.0763,-3.5279 1.0151,1.7804 m -1.9874,-3.5903 0.972,1.8099 m -1.9047,-3.6457 0.933,1.8358 m -1.8295,-3.6939 0.897,1.8581 m -1.7604,-3.7349 0.863,1.8768 m -2.5037,-5.67271 1.6407,3.79591 m -3.1883,-7.62411 1.5476,3.8282 m -7.3285,-18.89741 5.7809,15.06921 m -7.2541,-18.63342 1.4732,3.56421 m -2.2318,-5.29621 0.759,1.732 m -1.5368,-3.426 0.778,1.694 m -1.5781,-3.3464 0.8,1.6524 m -1.6256,-3.2596 0.826,1.6072 m -1.6806,-3.1656 0.855,1.5584 m -1.7416,-3.0645 0.887,1.5061 m -1.3434,-2.2385 0.456,0.732 m -0.922,-1.44991 0.466,0.71801 m -0.941,-1.42111 0.475,0.703 m -0.96,-1.3908 0.485,0.688 m -0.981,-1.3601 0.496,0.672 m -1.0027,-1.3279 0.507,0.656 m -1.025,-1.2952 0.518,0.639 m -1.0476,-1.2612 0.53,0.622 m -1.0718,-1.2267 0.542,0.605 m -1.0963,-1.1917 0.554,0.587 m -1.1211,-1.1553 0.567,0.568 m -1.1475,-1.1175 0.58,0.549 m -1.1743,-1.0792 0.594,0.53 m -1.2023,-1.0404 0.608,0.51 m -1.2309,-1.0003 0.623,0.49 m -1.2609,-0.96 0.638,0.47 m -1.2912,-0.919 0.653,0.449 m -1.322,-0.876 0.669,0.427 m -1.3541,-0.832 0.685,0.405 m -1.3867,-0.788 0.702,0.383 m -1.4207,-0.743 0.719,0.36 m -1.4551,-0.696 0.736,0.336 m -1.4899,-0.649 0.754,0.313 m -1.5261,-0.602 0.772,0.289 m -1.5627,-0.553 0.791,0.264 m -1.6008,-0.503 0.81,0.239 m -1.6391,-0.45201 0.829,0.21301 m -1.678,-0.40101 0.849,0.188 m -1.7183,-0.349 0.869,0.161 m -1.7588,-0.295 0.89,0.134 m -1.801,-0.241 0.911,0.107 m -1.8434,-0.186 0.932,0.08 m -1.8864,-0.131 0.9541,0.05 m -1.9306,-0.07 0.977,0.02 m -1.9763,-0.01 0.999,-0.007 m -2.0213,0.04 1.0223,-0.04 m -2.0681,0.106 1.0458,-0.07 m -2.1156,0.166 1.0698,-0.1 m -2.1638,0.227 1.094,-0.127 m -2.2128,0.285 1.1188,-0.159 m -2.2627,0.349 1.1439,-0.19 m -2.3134,0.41201 1.1695,-0.22201 m -2.3648,0.47701 1.1953,-0.255 m -2.4171,0.543 1.2218,-0.288 m -2.4703,0.61 1.2485,-0.322 m -2.5241,0.678 1.2756,-0.356 m -2.5788,0.746 1.3032,-0.39 m -2.6344,0.815 1.3312,-0.425 m -4.0792,1.381 2.748,-0.956 m -5.6128,2.0566 2.8648,-1.1006 m -5.8496,2.3495 2.9848,-1.2489 m -6.093,2.6496 3.1082,-1.4007 m -6.3429,2.9567 3.2347,-1.556 m -6.5992,3.2709 3.3645,-1.7149 m -6.8622,3.5922 3.4977,-1.8773 m -7.1316,3.92061 3.6339,-2.04331 m -11.324,6.64221 7.6901,-4.5989 m -15.9645,9.9044 8.2744,-5.3055 m -17.1595,11.34611 8.8851,-6.04061 m -18.4067,12.84462 9.5216,-6.80401 m -186.1837,141.09652 176.6621,-134.29251 m -243.346,187.16985 66.6839,-52.87734 m -97.1735,78.16706 30.4896,-25.28972 m -60.0528,50.73474 29.5632,-25.44502 m -58.931,51.73624 29.3678,-26.29122 m -59.2716,54.11965 29.9038,-27.82843 m -94.2445,90.86078 64.3407,-63.03235 M 931.73008,803.84039 1099.0187,628.92805"
       inkscape:connector-curvature="0" />
  </g>
</svg>
