<?xml version="1.0" encoding="UTF-8" standalone="no"?>
<svg
   xmlns:dc="http://purl.org/dc/elements/1.1/"
   xmlns:cc="http://creativecommons.org/ns#"
   xmlns:rdf="http://www.w3.org/1999/02/22-rdf-syntax-ns#"
   xmlns:svg="http://www.w3.org/2000/svg"
   xmlns="http://www.w3.org/2000/svg"
   xmlns:sodipodi="http://sodipodi.sourceforge.net/DTD/sodipodi-0.dtd"
   xmlns:inkscape="http://www.inkscape.org/namespaces/inkscape"
   width="1500mm"
   height="500mm"
   id="svg2"
   version="1.1"
   inkscape:version="0.91 r13725"
   sodipodi:docname="2.svg">
  <metadata
     id="metadata946">
    <rdf:RDF>
      <cc:Work
         rdf:about="">
        <dc:format>image/svg+xml</dc:format>
        <dc:type
           rdf:resource="http://purl.org/dc/dcmitype/StillImage" />
        <dc:title></dc:title>
      </cc:Work>
    </rdf:RDF>
  </metadata>
  <sodipodi:namedview
     pagecolor="#ffffff"
     bordercolor="#666666"
     borderopacity="1"
     objecttolerance="10"
     gridtolerance="10"
     guidetolerance="10"
     inkscape:pageopacity="0"
     inkscape:pageshadow="2"
     inkscape:window-width="1920"
     inkscape:window-height="1012"
     id="namedview944"
     showgrid="false"
     units="mm"
     inkscape:document-units="mm"
     inkscape:zoom="0.1121287"
     inkscape:cx="676.77563"
     inkscape:cy="560.65899"
     inkscape:window-x="0"
     inkscape:window-y="0"
     inkscape:window-maximized="1"
     inkscape:current-layer="g22" />
  <desc
     id="desc4">/home/data/chair/2.dxf - scale = 1.000000, origin = (0.000000, 0.000000), auto = False</desc>
  <defs
     id="defs6">
    <marker
       id="DistanceX"
       orient="auto"
       refX="0"
       refY="0"
       style="overflow:visible">
      <path
         d="M 3,-3 -3,3 M 0,-5 0,5"
         style="stroke:#000000;stroke-width:0.5"
         id="path9"
         inkscape:connector-curvature="0" />
    </marker>
    <pattern
       height="8"
       id="Hatch"
       patternUnits="userSpaceOnUse"
       width="8"
       x="0"
       y="0">
      <path
         d="M8 4 l-4,4"
         linecap="square"
         stroke="#000000"
         stroke-width="0.25"
         id="path12" />
      <path
         d="M6 2 l-4,4"
         linecap="square"
         stroke="#000000"
         stroke-width="0.25"
         id="path14" />
      <path
         d="M4 0 l-4,4"
         linecap="square"
         stroke="#000000"
         stroke-width="0.25"
         id="path16" />
    </pattern>
    <symbol
       id="$MODEL_SPACE" />
    <symbol
       id="$PAPER_SPACE" />
  </defs>
  <g
     inkscape:groupmode="layer"
     inkscape:label="0"
     id="g20"
     transform="translate(0,719.29132)" />
  <g
     inkscape:groupmode="layer"
     inkscape:label="DEFAULT"
     id="g22"
     transform="translate(0,719.29132)">
    <path
       id="path942"
       style="fill:none;stroke:#00ff00;stroke-width:9.99998569;stroke-opacity:1"
       d="m 4026.3307,1020.6942 a 70.866037,70.866037 0 0 0 56.3179,-29.08393 M 361.96503,669.30371 a 70.866037,70.866037 0 0 0 79.30689,23.49596 M 361.96503,669.30371 189.47298,446.87703 m 2.242,-89.60287 a 70.866037,70.866037 0 0 0 -2.242,89.60287 m 1101.56272,-44.07894 11.032,20.20497 m -22.451,-39.86694 11.419,19.66197 m -23.217,-38.77894 11.798,19.11697 m -23.965,-37.68394 12.167,18.56697 m -24.6939,-36.58195 12.5269,18.01498 m -25.4049,-35.47395 12.878,17.45897 m -26.098,-34.35995 13.22,16.90098 m -26.773,-33.23995 13.553,16.33897 m -27.431,-32.11195 13.878,15.77298 m -28.0699,-30.97796 14.1919,15.20498 m -28.6899,-29.83796 14.498,14.63298 m -29.293,-28.69196 14.795,14.05898 m -29.877,-27.53996 15.082,13.48098 m -30.444,-26.38096 15.362,12.89998 m -30.9929,-25.21496 15.6309,12.31498 m -31.5239,-24.04296 15.893,11.72798 M 1068,155.50745 l 16.143,11.13699 m -32.53,-21.67997 16.387,10.54298 m -33.0069,-20.48897 16.6199,9.94599 m -33.4649,-19.29097 16.845,9.34498 m -33.906,-18.08697 17.061,8.74199 m -34.32797,-16.87798 17.26697,8.13599 m -34.73095,-15.66098 17.46398,7.52499 m -35.11695,-14.437981 17.65297,6.912991 m -35.48595,-13.208981 17.83298,6.29599 m -35.83595,-11.97298 18.00297,5.67699 m -36.16694,-10.73098 18.16397,5.05399 m -36.48095,-9.48199 18.31698,4.428 m -36.77695,-8.22699 18.45997,3.79899 m -37.05394,-6.96599 18.59397,3.167 m -37.31395,-5.69799 18.71998,2.53099 m -37.55495,-4.42399 18.83497,1.893 m -37.77794,-3.143 18.94297,1.25 m -37.98494,-1.856 19.04197,0.61 m -38.17194,-0.56 19.12997,0 m -38.33995,0.74 19.20998,-0.69 m -38.49195,2.043 19.28197,-1.349 m -38.62494,3.355 19.34297,-2.006 m -38.73994,4.67299 19.39697,-2.66699 m -38.83694,5.99899 19.43997,-3.332 m -38.91595,7.33099 19.47598,-3.99899 m -38.97695,8.66799 19.50097,-4.669 m -39.01894,10.01299 19.51797,-5.34399 m -39.04394,11.36398 19.52597,-6.01999 m -39.05094,12.72098 19.52497,-6.70099 m -39.03994,14.084981 19.51497,-7.383991 m -39.00995,15.453981 19.49498,-8.06999 m -38.96195,16.82997 19.46697,-8.75998 m -38.89694,18.21397 19.42997,-9.45399 m -38.81294,19.60298 19.38297,-10.14899 m -38.71094,20.99797 19.32797,-10.84898 m -38.59094,22.39996 19.26297,-11.55098 m -38.45395,23.80796 19.19098,-12.25698 m -38.29795,25.22297 19.10697,-12.96599 m -38.12294,26.64397 19.01597,-13.67798 m -37.93194,28.07195 18.91597,-14.39397 m -37.72195,29.50595 18.80598,-15.11198 m -37.49325,30.94596 18.68727,-15.83398 m -37.24624,32.39196 18.55897,-16.55798 m -36.98194,33.84495 18.42297,-17.28697 m -36.69995,35.30494 18.27698,-18.01797 m -36.39995,36.77095 18.12297,-18.75298 m -36.08095,38.24295 17.95798,-19.48997 m -35.74395,39.72094 17.78597,-20.23097 M 5179.039,-699.7433 l -119.5788,-2.414 m 175.3908,115.04183 A 70.866037,70.866037 0 0 0 5179.039,-699.7433 M 4082.6486,991.66827 5234.851,-587.11547 m -1463.9299,597.176129 161.1518,-92.79686 m -295.2406,173.38175 134.0888,-80.58489 M 3525.6094,160.55745 3636.8323,90.645549 m -203.7747,130.690811 92.5518,-60.77891 m -300.1315,203.7067 207.5797,-142.92779 m -267.3996,182.56573 59.8199,-39.63794 m -90.6679,58.85591 30.848,-19.21797 m -46.647,28.41996 15.799,-9.20199 m -31.9299,17.98798 16.1309,-8.78599 m -24.3399,12.98998 8.209,-4.20399 m -16.524,8.26299 8.315,-4.059 m -16.743,7.96099 8.428,-3.90199 m -16.979,7.63198 8.551,-3.72999 m -17.23,7.27599 8.679,-3.546 m -17.495,6.89399 8.816,-3.34799 m -17.777,6.48299 8.961,-3.135 m -18.0729,6.046 9.1119,-2.911 m -18.3849,5.58299 9.273,-2.67199 m -18.713,5.09199 9.44,-2.42 m -19.056,4.57399 9.616,-2.15399 m -19.414,4.02899 9.798,-1.875 m -19.787,3.457 9.989,-1.582 m -20.177,2.859 10.188,-1.277 m -20.5809,2.233 10.3929,-0.96 m -20.9999,1.58 10.607,-0.62 m -21.436,0.9 10.829,-0.28 m -21.886,0.19 11.057,0.1 m -22.352,-0.54 11.295,0.46 m -22.834,-1.299 11.539,0.84 m -23.3299,-2.087 11.7909,1.244 m -23.8419,-2.901 12.051,1.657 m -24.369,-3.742 12.318,2.085 m -24.912,-4.61099 12.594,2.52599 m -25.47,-5.50599 12.876,2.98 m -26.0429,-6.42799 13.1669,3.44799 m -26.6329,-7.37699 13.466,3.929 m -27.237,-8.35299 13.771,4.42399 m -27.857,-9.35698 14.086,4.93299 m -28.492,-10.38699 14.406,5.454 m -29.1419,-11.44299 14.7359,5.98899 m -29.8079,-12.52698 15.072,6.53799 m -30.489,-13.63798 15.417,7.09999 m -31.186,-14.77598 15.769,7.67599 m -31.898,-15.94097 16.129,8.26498 m -32.6249,-17.13297 16.4959,8.86799 m -33.3679,-18.35198 16.872,9.48399 m -34.126,-19.59797 17.254,10.11398 m -52.9419,-32.28395 35.6879,22.16997 m -73.0009,-47.01993 37.313,24.84996 m -76.3099,-52.48792 38.9969,27.63796 m -79.7419,-58.17192 40.745,30.53396 m -83.2979,-64.07191 42.5529,33.53795 m -86.9758,-70.1879 44.4229,36.64995 m -90.7779,-76.51889 46.355,39.86894 m -145.1038,-129.696811 98.7488,89.827871 m -98.7488,-89.827871 a 66.572553,66.572553 0 1 0 -91.0259,96.552861 m 108.4919,102.99285 -108.4919,-102.99285 m 159.3348,148.79278 -50.8429,-45.79993 m 99.5088,87.96687 -48.6659,-42.16694 m 95.2258,80.82089 -46.5599,-38.65395 m 91.0829,73.9169 -44.523,-35.26295 m 87.0769,67.2579 -42.5539,-31.99495 m 83.2109,60.84291 -40.657,-28.84796 m 79.4849,54.67092 -38.8279,-25.82296 m 75.8968,48.74293 -37.0689,-22.91997 m 54.9659,33.32895 -17.897,-10.40898 m 35.38,20.13897 -17.483,-9.72999 m 34.561,18.79397 -17.078,-9.06398 m 33.7599,17.47897 -16.6819,-8.41499 m 32.9759,16.19598 -16.294,-7.78099 m 32.209,14.94198 -15.915,-7.16099 m 31.46,13.71898 -15.545,-6.55799 m 30.728,12.52698 -15.183,-5.96899 m 30.0129,11.36498 -14.8299,-5.39599 m 29.3169,10.23299 -14.487,-4.837 m 28.637,9.13199 -14.15,-4.29499 m 27.975,8.06099 -13.825,-3.766 m 27.3309,7.02099 -13.5059,-3.25499 m 26.7019,6.01199 -13.196,-2.757 m 26.092,5.03199 -12.896,-2.27499 m 25.5,4.08299 -12.604,-1.808 m 24.924,3.165 -12.32,-1.357 m 24.366,2.278 -12.046,-0.92 m 23.8259,1.421 -11.7799,-0.5 m 23.3029,0.59 -11.523,-0.1 m 22.797,-0.2 -11.274,0.3 m 22.309,-0.97 -11.035,0.67 m 21.838,-1.704 -10.803,1.032 m 21.384,-2.409 -10.581,1.377 m 20.9469,-3.084 -10.3659,1.707 m 20.5279,-3.72799 -10.162,2.02099 m 20.128,-4.34099 -9.966,2.32 m 19.743,-4.924 -9.777,2.604 m 19.376,-5.47699 -9.599,2.87299 m 19.027,-5.99999 -9.428,3.127 m 18.695,-6.49099 -9.267,3.36399 m 18.3809,-6.95199 -9.1139,3.588 m 18.0829,-7.38299 -8.969,3.79499 m 17.803,-7.78299 -8.834,3.988 m 17.542,-8.15299 -8.708,4.16499 m 17.296,-8.49198 -8.588,4.32699 m 25.446,-13.40598 -16.858,9.07899 m 33.3479,-18.62398 -16.4899,9.54499 m 48.6419,-29.54196 -32.152,19.99697 m 95.1699,-61.81291 -63.0179,41.81594 m 285.7386,-194.81071 -222.7207,152.99477 m 324.5205,-219.16868 -101.7998,66.17391 m 225.5477,-142.9338 -123.7479,76.75989 M 3806.952,141.20947 3656.3543,230.35134 M 3989.2998,37.884619 3806.952,141.20947 M 3989.2998,37.884619 a 66.752814,66.752814 0 0 0 -57.2269,-120.61782 M 2290.2602,1043.4142 4026.3307,1020.7552 M 370.57102,859.31147 2290.2602,1043.4142 M 320.06109,830.50147 a 70.866037,70.866037 0 0 0 50.50993,28.81 M 42.961182,450.20302 320.06109,830.50147 M 45.770182,363.13315 a 70.866037,70.866037 0 0 0 -2.809,87.06987 m 26.66898,-115.10283 -23.85998,28.03296 m 47.95294,-55.09692 -24.09296,27.06396 m 48.408928,-53.16292 -24.315968,26.09896 m 48.841928,-51.23692 -24.52596,25.13796 m 49.25293,-49.31993 -24.72697,24.18197 m 49.64093,-47.40994 -24.91396,23.22797 m 50.00592,-45.50793 -25.09196,22.27996 m 50.34893,-43.61493 -25.25697,21.33497 m 50.66793,-41.72894 -25.41096,20.39397 m 50.96492,-39.85094 -25.55396,19.45697 m 51.23922,-37.98095 -25.68526,18.52398 m 51.49123,-36.119951 -25.80597,17.595971 m 51.71993,-34.266951 -25.91396,16.67098 m 51.92592,-32.42095 -26.01196,15.74997 m 52.10892,-30.58395 -26.09696,14.83398 m 52.26993,-28.75496 -26.17297,13.92098 m 52.40793,-26.93296 -26.23496,13.01198 M 501.72883,3.5076691 475.44187,15.615659 m 52.61492,-23.3149699 -26.32796,11.20698 m 52.68492,-21.5169601 -26.35696,10.3099801 m 52.73192,-19.7279701 -26.37496,9.41799 m 52.75693,-17.94698 -26.38197,8.52899 m 52.75793,-16.17398 -26.37596,7.64499 m 52.73592,-14.40998 -26.35996,6.76499 m 52.69192,-12.65198 -26.33196,5.88699 m 52.62592,-10.90298 -26.29396,5.01599 m 52.53692,-9.16299 -26.24296,4.147 m 52.42393,-7.42899 -26.18097,3.28199 m 52.28893,-5.70399 -26.10796,2.422 m 52.13192,-3.98799 -26.02396,1.56599 m 51.95192,-2.27899 -25.92796,0.71 m 51.74792,-0.58 -25.81996,-0.14 m 51.52193,1.11399 -25.70197,-0.97999 m 51.27393,2.79899 -25.57196,-1.82 m 51.00292,4.476 -25.43096,-2.656 m 50.70893,6.14399 -25.27797,-3.48799 m 50.39193,7.80499 -25.11396,-4.317 m 50.05195,9.45699 -24.93799,-5.13999 m 49.68989,11.10098 -24.7519,-5.96099 m 49.3049,12.73798 -24.553,-6.77699 m 48.897,14.36698 -24.344,-7.58999 m 48.4679,15.98698 -24.1239,-8.39699 m 48.0149,17.59897 -23.891,-9.20198 m 47.538,19.2029701 -23.647,-10.0009901 m 47.0389,20.7989701 -23.3919,-10.79798 m 46.5179,22.3879699 -23.126,-11.5899899 m 45.975,23.9679699 -22.849,-12.37798 m 45.4079,25.53996 -22.5589,-13.16198 m 44.8179,27.10396 -22.259,-13.94198 m 44.206,28.65996 -21.947,-14.71798 m 43.5709,30.20796 -21.6239,-15.48998 m 42.9129,31.747951 -21.289,-16.257971 m 42.233,33.278951 -20.944,-17.02098 m 41.5299,34.80295 -20.5859,-17.78197 m 40.8039,36.31994 -20.218,-18.53797 m 40.055,37.82695 -19.837,-19.28898 m 39.283,39.32695 -19.446,-20.03797 m 38.4899,40.81894 -19.0439,-20.78097 m 37.6729,42.30194 -18.629,-21.52097 m 36.833,43.77693 -18.204,-22.25596 m 35.972,45.24493 -17.768,-22.98897 m 35.0869,46.70493 -17.3189,-23.71596 m 34.1779,48.15593 -16.859,-24.43997 m 33.248,49.59993 -16.389,-25.15996 m 130.1798,1.893 -113.7908,23.26696 m 166.8247,-32.76195 -53.0339,9.49499 m 103.4919,-17.56398 -50.458,8.06899 m 98.3419,-14.71198 -47.8839,6.64299 m 93.1918,-11.85998 -45.3079,5.21699 m 88.0419,-9.00798 -42.734,3.79099 m 82.8929,-6.15699 -40.1589,2.366 m 59.2729,-3.014 -19.114,0.65 m 37.584,-0.94 -18.47,0.29 m 36.2969,-0.23 -17.8269,-0.1 m 35.0089,0.49 -17.182,-0.42 m 33.721,1.199 -16.539,-0.78 m 32.435,1.913 -15.896,-1.135 m 31.1469,2.62499 -15.2509,-1.48999 m 29.8589,3.33799 -14.608,-1.848 m 28.572,4.052 -13.964,-2.204 m 27.285,4.76399 -13.321,-2.55999 m 19.739,3.97399 -6.418,-1.414 m 12.676,2.917 -6.258,-1.503 m 12.355,3.095 -6.097,-1.592 m 12.0329,3.273 -5.9359,-1.681 m 11.7109,3.45099 -5.775,-1.76999 m 11.389,3.62999 -5.614,-1.86 m 11.068,3.808 -5.454,-1.948 m 10.746,3.98599 -5.292,-2.03799 m 10.423,4.16399 -5.131,-2.126 m 10.102,4.342 -4.971,-2.216 m 9.78,4.52099 -4.809,-2.30499 m 9.458,4.69899 -4.649,-2.394 M 2516.3799,640.69175 2192.4124,328.4442 m 334.4385,320.99653 -10.471,-8.74898 m 20.909,17.78497 -10.438,-9.03599 m 31.249,27.82296 -20.811,-18.78697 m 104.4268,98.01285 -83.6158,-79.22588 m 104.9508,98.57188 -21.335,-19.346 m 42.977,37.915 -21.642,-18.569 m 32.599,27.4699 -10.957,-8.9009 m 22.0159,17.4969 -11.0589,-8.596 m 22.2279,16.85 -11.169,-8.254 m 22.457,16.128 -11.288,-7.874 m 22.704,15.332 -11.416,-7.458 m 17.174,11.019 -5.758,-3.561 m 11.552,7.005 -5.794,-3.444 m 11.623,6.765 -5.829,-3.321 m 11.695,6.515 -5.866,-3.194 m 11.7709,6.255 -5.9049,-3.061 m 11.8489,5.987 -5.944,-2.926 m 11.928,5.71 -5.984,-2.784 m 12.009,5.423 -6.025,-2.639 m 12.093,5.127 -6.068,-2.488 m 12.179,4.8219 -6.111,-2.3339 m 12.267,4.5069 -6.156,-2.173 m 12.357,4.183 -6.201,-2.01 m 12.448,3.851 -6.247,-1.841 m 12.543,3.508 -6.296,-1.667 m 12.64,3.156 -6.344,-1.489 m 12.7379,2.795 -6.3939,-1.306 m 12.8379,2.425 -6.444,-1.119 m 12.941,2.046 -6.497,-0.93 m 13.046,1.658 -6.549,-0.73 m 13.153,1.26 -6.604,-0.53 m 13.262,0.85 -6.658,-0.32 m 13.372,0.44 -6.714,-0.11 m 12.728,0.15 -6.014,0 m 11.958,-0.1 -5.944,0.1 m 11.822,-0.32 -5.878,0.22 m 11.692,-0.58 -5.814,0.35 m 11.5659,-0.83 -5.7519,0.48 m 11.4449,-1.083 -5.693,0.6 m 11.329,-1.334 -5.636,0.73 m 11.218,-1.582 -5.582,0.85 m 11.112,-1.827 -5.53,0.98 m 11.011,-2.071 -5.481,1.096 m 10.915,-2.313 -5.434,1.217 m 10.823,-2.552 -5.389,1.335 m 10.737,-2.787 -5.348,1.452 m 10.657,-3.021 -5.309,1.569 m 10.58,-3.253 -5.271,1.684 m 10.508,-3.4829 -5.237,1.7989 m 10.442,-3.7099 -5.205,1.911 m 10.3809,-3.935 -5.1759,2.024 m 10.3239,-4.157 -5.148,2.133 m 10.272,-4.377 -5.124,2.244 m 10.226,-4.595 -5.102,2.351 m 10.184,-4.81 -5.082,2.459 m 10.148,-5.024 -5.066,2.565 m 10.116,-5.234 -5.05,2.669 m 15.117,-8.318 -10.067,5.649 m 20.105,-11.703 -10.038,6.054 m 20.067,-12.503 -10.029,6.449 m 20.0689,-13.286 -10.0399,6.837 m 20.1109,-14.05 -10.071,7.213 m 20.191,-14.794 -10.12,7.581 m 30.591,-23.8099 -20.471,16.2289 m 41.381,-33.8169 -20.91,17.588 m 192.8687,-172.49279 -171.9587,154.90479 m 234.0666,-207.14071 -62.1079,52.23592 m 96.1159,-79.30988 -34.008,27.07396 m 70.1969,-54.68592 -36.1889,27.61196 m 74.7179,-55.68792 -38.529,28.07596 m 79.5549,-56.53992 -41.0259,28.46396 m 84.7088,-57.24092 -43.6829,28.77696 m 90.1789,-57.79492 -46.496,29.01796 m 95.9659,-58.19892 -49.4699,29.18096 m 102.0708,-58.45291 -52.6009,29.27195 m 108.4908,-58.55791 -55.8899,29.28596 m 115.2288,-58.51292 -59.3389,29.22696 m 122.2839,-58.31992 -62.945,29.09296 m 129.6539,-57.97791 -66.7089,28.88495 m 174.7237,-67.2079 -108.0148,38.32295 m 155.8967,-56.21392 -47.8819,17.89097 m 92.3729,-35.57295 -44.491,17.68198 m 86.1079,-35.63495 -41.6169,17.95297 m 61.5109,-27.18096 -19.894,9.22799 m 39.2639,-18.70297 -19.3699,9.47498 m 38.2809,-19.25697 -18.911,9.78199 m 37.429,-19.931971 -18.518,10.149981 m 36.706,-20.725971 -18.188,10.57599 m 36.1119,-21.63997 -17.9239,11.06398 m 35.6489,-22.67397 -17.725,11.60999 m 35.315,-23.82697 -17.59,12.21698 m 35.11,-25.09996 -17.52,12.88298 m 35.0359,-26.49296 -17.5159,13.60998 m 35.0919,-28.0059599 -17.576,14.3959799 m 35.276,-29.63896 -17.7,15.2429801 m 35.59,-31.3909501 -17.89,16.14797 m 36.0349,-33.26295 -18.1449,17.11498 m 36.6099,-35.25495 -18.465,18.13997 m 37.313,-37.36594 -18.848,19.22597 m 57.9579,-61.174909 -39.1099,41.948939 m 80.5349,-88.959869 -41.425,47.01093 m 85.6839,-99.56286 -44.2589,52.55193 m 44.7429,-53.69493 -0.48,1.143 m 0.99,-2.27699 -0.5,1.13399 m 1.571,-3.37599 -1.067,2.242 m 2.212,-4.452 -1.145,2.21 m 2.368,-4.38899 -1.223,2.17899 m 2.523,-4.32799 -1.3,2.149 m 2.676,-4.27 -1.376,2.121 m 2.827,-4.214 -1.451,2.093 m 2.975,-4.16099 -1.524,2.06799 m 3.123,-4.11099 -1.599,2.043 m 3.269,-4.063 -1.67,2.02 m 3.412,-4.01899 -1.742,1.99899 m 3.554,-3.97699 -1.812,1.978 m 3.695,-3.938 -1.883,1.96 m 3.834,-3.90099 -1.951,1.94099 m 3.97,-3.86699 -2.019,1.926 m 4.105,-3.837 -2.086,1.911 m 4.238,-3.808 -2.152,1.897 m 4.369,-3.78199 -2.217,1.88499 m 6.845,-5.62399 -4.628,3.739 m 9.5059,-7.44599 -4.8779,3.70699 m 9.9989,-7.39199 -5.121,3.685 m 10.48,-7.35999 -5.359,3.67499 m 10.946,-7.34999 -5.587,3.675 m 17.423,-11.06999 -11.836,7.39499 m 66.9469,-39.16394 -55.1109,31.76895 m 86.5389,-50.18492 -31.428,18.41597 m 47.913,-28.56196 -16.485,10.14599 m 33.4079,-21.03297 -16.9229,10.88698 m 34.2279,-22.60097 -17.305,11.71399 m 34.936,-24.34397 -17.631,12.62998 m 35.532,-26.26196 -17.901,13.63198 m 36.0139,-28.35296 -18.1129,14.72098 m 36.3829,-30.61795 -18.27,15.89697 m 27.446,-24.31296 -9.176,8.41599 m 18.37,-17.15998 -9.194,8.74399 m 18.399,-17.82397 -9.205,9.07998 m 18.4139,-18.50997 -9.2089,9.42999 m 18.4139,-19.21798 -9.205,9.78799 m 18.401,-19.94697 -9.196,10.15898 m 18.374,-20.69897 -9.178,10.53999 m 18.332,-21.47097 -9.154,10.93098 m 18.277,-22.26596 -9.123,11.33498 m 18.207,-23.08297 -9.084,11.74799 m 18.122,-23.91997 -9.038,12.17198 m 18.0239,-24.77996 -8.9859,12.60798 m 17.9129,-25.66296 -8.927,13.05498 m 17.787,-26.56596 -8.86,13.51098 m 17.646,-27.49096 -8.786,13.97998 m 17.492,-28.43796 -8.706,14.45798 m 17.324,-29.40596 -8.618,14.94798 m 17.141,-30.39696 -8.523,15.44898 m 16.9439,-31.40995 -8.4209,15.96097 m 16.7339,-32.44395 -8.313,16.48298 m 16.509,-33.49895 -8.196,17.01597 m 16.269,-34.57595 -8.073,17.55998 M 1301.2367,421.42607 a 12997.46,12997.46 0 0 0 -859.95478,271.3826"
       inkscape:connector-curvature="0" />
  </g>
</svg>
