<?xml version="1.0" encoding="UTF-8" standalone="no"?>
<svg
   xmlns:dc="http://purl.org/dc/elements/1.1/"
   xmlns:cc="http://creativecommons.org/ns#"
   xmlns:rdf="http://www.w3.org/1999/02/22-rdf-syntax-ns#"
   xmlns:svg="http://www.w3.org/2000/svg"
   xmlns="http://www.w3.org/2000/svg"
   xmlns:sodipodi="http://sodipodi.sourceforge.net/DTD/sodipodi-0.dtd"
   xmlns:inkscape="http://www.inkscape.org/namespaces/inkscape"
   width="976.37549mm"
   height="836.33191mm"
   id="svg2"
   version="1.1"
   inkscape:version="0.91 r13725"
   sodipodi:docname="4.svg">
  <metadata
     id="metadata2530">
    <rdf:RDF>
      <cc:Work
         rdf:about="">
        <dc:format>image/svg+xml</dc:format>
        <dc:type
           rdf:resource="http://purl.org/dc/dcmitype/StillImage" />
        <dc:title></dc:title>
      </cc:Work>
    </rdf:RDF>
  </metadata>
  <sodipodi:namedview
     pagecolor="#ffffff"
     bordercolor="#666666"
     borderopacity="1"
     objecttolerance="10"
     gridtolerance="10"
     guidetolerance="10"
     inkscape:pageopacity="0"
     inkscape:pageshadow="2"
     inkscape:window-width="1920"
     inkscape:window-height="1012"
     id="namedview2528"
     showgrid="false"
     units="mm"
     fit-margin-top="0"
     fit-margin-left="0"
     fit-margin-right="0"
     fit-margin-bottom="0"
     inkscape:zoom="0.22425739"
     inkscape:cx="334.10518"
     inkscape:cy="913.21346"
     inkscape:window-x="0"
     inkscape:window-y="0"
     inkscape:window-maximized="1"
     inkscape:current-layer="g2226" />
  <desc
     id="desc4">/home/data/chair/4.dxf - scale = 1.000000, origin = (0.000000, 0.000000), auto = False</desc>
  <defs
     id="defs6">
    <marker
       id="DistanceX"
       orient="auto"
       refX="0"
       refY="0"
       style="overflow:visible">
      <path
         d="M 3,-3 -3,3 M 0,-5 0,5"
         style="stroke:#000000;stroke-width:0.5"
         id="path9"
         inkscape:connector-curvature="0" />
    </marker>
    <pattern
       height="8"
       id="Hatch"
       patternUnits="userSpaceOnUse"
       width="8"
       x="0"
       y="0">
      <path
         d="M8 4 l-4,4"
         linecap="square"
         stroke="#000000"
         stroke-width="0.25"
         id="path12" />
      <path
         d="M6 2 l-4,4"
         linecap="square"
         stroke="#000000"
         stroke-width="0.25"
         id="path14" />
      <path
         d="M4 0 l-4,4"
         linecap="square"
         stroke="#000000"
         stroke-width="0.25"
         id="path16" />
    </pattern>
    <symbol
       id="$MODEL_SPACE" />
    <symbol
       id="$PAPER_SPACE" />
  </defs>
  <g
     inkscape:groupmode="layer"
     inkscape:label="0"
     id="g20"
     transform="translate(-78.074522,1880.7191)" />
  <g
     inkscape:groupmode="layer"
     inkscape:label="DEFAULT"
     id="g22"
     transform="translate(-78.074522,1880.7191)" />
  <g
     inkscape:groupmode="layer"
     inkscape:label="LEG"
     id="g2226"
     transform="translate(-78.074522,1880.7191)">
    <path
       id="path2526"
       style="fill:none;stroke:#00ff00;stroke-width:9.99997139;stroke-opacity:1"
       d="m 1006.416,-20.924513 17.4771,28.8958565 m -6.8654,-35.3153685 -10.6117,6.419512 m -5.8918,-33.706344 16.5035,27.286832 m -45.30678,-9.865602 28.80328,-17.42123 m -37.89876,22.922105 9.09548,-5.500875 m -18.19098,11.001749 9.0955,-5.500874 M 924.72699,-8.7866283 953.52994,-26.207878 M 941.23051,18.500203 924.72699,-8.7866283 m 27.11512,20.8685403 -10.6116,6.418291 M 969.26274,40.884829 951.84211,12.081912 M 3013.9086,-1490.0546 l 30.0413,15.4254 m -24.3771,-26.4588 -5.6642,11.0334 m -22.704,-25.6 28.3682,14.5666 m -43.744,15.3785 15.3758,-29.9451 m -20.2314,39.4009 4.8556,-9.4558 m -9.7112,18.9115 4.8556,-9.4557 m -20.2312,39.4007 15.3756,-29.945 m 12.9926,44.5116 -28.3682,-14.5666 m 34.0329,3.5343 -5.6647,11.0323 m 35.6091,4.3436 -29.9444,-15.3759 m -104.816,146.8083 23.8483,23.9098 m -15.068,-32.669 -8.7803,8.7592 m -13.7397,-31.3377 22.52,22.5785 m -46.3531,1.1935 23.8331,-23.772 m -31.3592,31.2784 7.5261,-7.5064 m -15.0522,15.0127 7.5261,-7.5063 m -31.3589,31.2783 23.8328,-23.772 m -1.3128,46.3505 -22.52,-22.5785 m 31.3005,13.8204 -8.7805,8.7581 m 32.5518,15.0749 -23.7713,-23.833 m -149.0994,103.7944 16.4615,29.4862 m -5.633,-35.5328 -10.8285,6.0466 m -4.716,-33.8909 15.5445,27.8443 m -44.9362,-11.4354 29.3917,-16.4089 m -38.673,21.5902 9.2813,-5.1813 m -18.5626,10.3625 9.2813,-5.1812 m -38.6728,21.5902 29.3915,-16.409 m -13.8469,44.2533 -15.5446,-27.8443 m 26.373,21.7989 -10.8284,6.0454 m 27.2368,23.346 -16.4084,-29.3914 m -142.2222,140.40352 24.8762,22.83846 m -16.4894,-31.97515 -8.3868,9.13669 m -15.1038,-30.7035 23.4906,21.56681 m -46.2558,3.22981 22.7652,-24.79662 m -29.9541,32.62652 7.1889,-7.8299 m -14.3778,15.6598 7.1889,-7.8299 m -29.9538,32.62645 22.7649,-24.79655 m 0.7257,46.36336 -23.4906,-21.56681 m 31.8777,12.4313 -8.3871,9.13551 m 33.183,13.62953 -24.7959,-22.76504 m -135.5485,124.29151 19.4525,27.60466 m -9.3151,-34.74963 -10.1374,7.14497 m -8.2316,-33.21252 18.369,26.06755 m -45.8852,-6.67719 27.5162,-19.39036 m -36.2053,25.51305 8.6891,-6.12269 m -17.3782,12.24539 8.6891,-6.1227 m -36.2049,25.51306 27.5158,-19.39036 m -9.1468,45.45793 -18.369,-26.06757 m 28.5064,18.92381 -10.1374,7.14376 m 29.5271,20.37213 -19.3897,-27.51589 m -163.5009,81.18221 11.9515,31.58449 m -0.3522,-35.97476 -11.5993,4.39027 m 0.3137,-34.21598 11.2856,29.82571 m -42.7689,-17.91237 31.4833,-11.91334 m -41.4251,15.67494 9.9418,-3.7616 m -19.8835,7.5232 9.9417,-3.7616 m -41.4247,15.675 31.483,-11.9134 m -20.1974,41.73911 -11.2856,-29.82571 m 22.8846,25.43661 -11.599,4.3891 m 23.5118,27.09378 -11.9128,-31.48288 m -181.584,65.19437 13.4899,30.95868 m -2.1205,-35.91395 -11.3694,4.95527 m -1.3689,-34.19002 12.7383,29.23475 m -43.5979,-15.78791 30.8596,-13.44684 m -40.6043,17.69269 9.7447,-4.24585 m -19.4895,8.49171 9.7448,-4.24586 m -40.604,17.69276 30.8592,-13.4469 m -18.1208,42.68165 -12.7384,-29.23475 m 24.1076,24.28069 -11.3692,4.95406 m 24.8155,25.90504 -13.4463,-30.8591 m -174.752,85.64716 16.4677,29.48276 m -5.6404,-35.53159 -10.8273,6.04883 m -4.7231,-33.88987 15.5504,27.84104 m -44.9387,-11.42594 29.3883,-16.4151 m -38.6685,21.59827 9.2802,-5.18317 m -18.5604,10.36633 9.2802,-5.18316 m -38.6682,21.59829 29.388,-16.41513 m -13.8376,44.25617 -15.5504,-27.84104 m 26.3775,21.79343 -10.8271,6.04761 m 27.2416,23.34032 -16.4145,-29.38793 m -164.9415,104.43121 19.8011,27.35574 m -9.7551,-34.62871 -10.046,7.27297 m -8.6521,-33.10546 18.6981,25.83249 m -45.9662,-6.09471 27.2681,-19.73778 m -35.8788,25.97017 8.6107,-6.23239 m -17.2214,12.46479 8.6107,-6.2324 m -35.8785,25.97018 27.2678,-19.73778 m -8.5697,45.57027 -18.6981,-25.83249 m 28.7441,18.56075 -10.046,7.27174 m 29.7832,19.99603 -19.7372,-27.26777 m -151.2086,122.53098 22.4073,25.2652 m -13.1291,-33.49527 -9.2782,8.23007 m -11.8811,-32.08847 21.1593,23.8584 m -46.3435,-1.5227 25.1842,-22.3357 m -33.1369,29.38847 7.9527,-7.05277 m -15.9055,14.10555 7.9528,-7.05278 m -33.1367,29.38843 25.1839,-22.33565 m -4.0246,46.19405 -21.1593,-23.8584 m 30.4376,15.62954 -9.2783,8.22886 m 31.6133,16.95511 -22.335,-25.18397 M 797.24072,27.336798 783.44207,58.159089 M 808.56091,32.403473 797.24072,27.336798 M 821.59138,3.297727 808.56091,32.403473 m -17.69323,-42.860066 30.7237,13.75432 m -40.4253,-18.097888 9.7016,4.343568 m -19.4032,-8.687126 9.7016,4.343558 m -40.42515,-18.097618 30.72355,13.75406 M 727.71046,-3.7920327 740.74093,-32.897779 M 739.0296,1.2752728 727.71046,-3.7920327 M 725.27523,31.998294 739.0296,1.2752728 M 602.22236,-114.38785 l -23.5452,24.208256 m 32.43665,-15.561876 -8.89145,-8.64638 m 31.12565,-14.21358 -22.2342,22.85996 m -1.8967,-46.32967 24.1309,23.46971 m -31.75057,-30.88107 7.61967,7.41136 m -15.23933,-14.82271 7.61966,7.41135 m -31.75049,-30.88076 24.13083,23.46941 m -46.36504,-0.60944 22.23421,-22.85997 m -13.34397,31.50658 -8.89024,-8.64661 m -14.57928,32.77685 23.46952,-24.13024 m -138.25948,-131.93693 -23.67855,24.07785 m 32.52211,-15.38248 -8.84356,-8.69537 m 31.20368,-14.04144 -22.36012,22.73681 m -1.64077,-46.33944 24.00089,23.60263 m -31.57951,-31.05596 7.57862,7.45333 m -15.15724,-14.90666 7.57862,7.45333 m -31.57946,-31.05566 24.00084,23.60233 m -46.36096,-0.86552 22.36012,-22.73681 m -13.51778,31.43239 -8.84234,-8.69558 m -14.7601,32.69582 23.60244,-24.00024 m -135.28567,-135.19897 -23.73286,24.02432 m 32.55675,-15.30901 -8.82389,-8.71531 m 31.2353,-13.97095 -22.41141,22.68626 m -1.53613,-46.34302 23.94754,23.65676 m -31.50931,-31.12719 7.56177,7.47043 m -15.12355,-14.94085 7.56178,7.47042 m -31.50926,-31.12688 23.94748,23.65646 m -46.35888,-0.9702 22.4114,-22.68626 m -13.58871,31.40179 -8.82269,-8.71553 m -14.83388,32.66242 23.65657,-23.94689 m -0.0459,318.8515 -23.61071,23.99211 m 14.77136,-32.69074 8.83935,8.69863 m 13.52861,-31.42773 -22.36796,22.7291 m 46.36066,0.88149 -23.9927,-23.61059 m 31.56875,31.06654 -7.57605,-7.45595 m 15.1521,14.91189 -7.57605,-7.45594 m 31.5688,31.06684 -23.99275,-23.6109 m 1.6248,46.34001 22.36795,-22.72911 m -31.20851,14.03069 8.84056,8.69842 m -32.52741,15.37126 23.68685,-24.06968 M 344.14908,2.3796496 213.83772,-127.87896 M 367.77689,-21.595611 344.14908,2.3796496 m 14.79466,-32.6801956 8.83315,8.704935 m 13.55103,-31.41808 -22.38418,22.713145 m 46.36003,0.914567 -23.97585,-23.627712 m 31.54658,31.08905 -7.57073,-7.461338 m 15.14146,14.922687 -7.57073,-7.461349 M 444.42114,9.1647201 420.44523,-14.463292 m 1.59174,46.341147 22.38417,-22.7131349 m -31.21851,14.0084199 8.83434,8.704715 M 389.49861,47.225921 413.20263,23.17314 M 488.32106,143.75501 389.49861,47.225921 M 522.7294,174.43868 488.32106,143.75501 m 57.76402,6.44324 -23.35568,24.24043 m 14.42484,-32.8451 8.93084,8.60467 m 13.19553,-31.56903 -22.12637,22.96436 m 46.3674,0.39121 -24.24103,-23.35557 m 31.89549,30.73098 -7.65446,-7.37541 m 15.30893,14.75082 -7.65447,-7.37541 m 31.89556,30.73128 -24.24109,-23.35587 m 2.11474,46.32023 22.12635,-22.96436 m -31.0584,14.35992 8.93205,8.60444 m -32.36305,15.71438 23.431,-24.31882 m -23.431,24.31882 a 974.96963,974.96963 0 0 0 138.6419,120.8989 m 15.87002,-29.68551 -15.87002,29.68551 m 4.93311,-35.53227 10.93691,5.84676 m 4.09783,-33.9696 -15.03474,28.12284 m 44.7208,-12.25311 -29.68606,-15.86973 m 39.06002,20.88136 -9.37396,-5.01163 m 18.74792,10.02326 -9.37396,-5.01163 m 39.06016,20.88163 -29.6862,-15.87 m 14.65145,43.99284 15.03475,-28.12284 m -25.97274,22.27664 10.93799,5.8462 m -26.85911,23.93524 15.92112,-29.78144 m -15.92112,29.78144 a 243.818,243.818 0 0 0 179.85887,1.2442 m -15.15894,-30.05483 15.15894,30.05483 m -26.23178,-24.4698 11.07284,-5.58503 m -25.43373,-22.88781 14.36089,28.47284 m 15.69402,-43.63239 -30.05491,15.15955 m 39.54572,-19.94623 -9.49081,4.78668 m 18.98161,-9.57336 -9.4908,4.78668 m 39.54602,-19.94618 -30.05522,15.1595 m 44.41611,13.31333 -14.36089,-28.47283 m 3.28788,34.05908 11.07301,-5.58625 m 4.14744,35.7582 -15.22045,-30.17195 m 15.22045,30.17195 a 1092.603,1092.603 0 0 0 143.4482,-115.09292 m -22.4656,-25.06751 22.4656,25.06751 m -31.701,-16.79052 9.2354,-8.27699 m -30.5184,-15.47107 21.283,23.74806 m 3.7844,-46.21435 -25.0674,22.46629 m 32.9834,-29.56032 -7.916,7.09403 m 15.8319,-14.18805 -7.9159,7.09402 m 32.9836,-29.56034 -25.0677,22.46632 m 46.3508,1.28175 -21.2831,-23.74807 m 12.0479,32.02627 9.2352,-8.2782 m 13.3031,33.42655 -22.5383,-25.14835 M 1332.6093,66.711505 A 2739.9236,2739.9236 0 0 0 1191.302,184.89772 m 121.0288,-145.053808 20.2785,26.867593 m -30.1771,-19.396385 9.8986,-7.471208 m -29.1096,-17.982168 19.211,25.453376 m 7.6566,-45.7325381 -26.8676,20.2791621 m 35.3519,-26.6825237 -8.4843,6.4033616 m 16.9687,-12.8067229 -8.4844,6.4033613 m 35.3523,-26.6825433 -26.8679,20.279182 m 46.0789,5.1742048 -19.211,-25.4533868 m 9.3125,32.9258154 9.8985,-7.4724286 M 1383.582,28.376745 1363.2379,1.4224924 M 1537.0083,-73.539932 A 2125.8791,2125.8791 0 0 0 1383.582,28.376745 m 136.3805,-130.943005 17.0458,29.026328 m -27.7397,-22.746145 10.6939,-6.280183 m -26.8423,-21.2183 16.1484,27.498483 m 12.8779,-44.544873 -29.0263,17.04639 m 38.1924,-22.4289 -9.1661,5.38251 m 18.3321,-10.76502 -9.166,5.38251 m 38.1927,-22.42888 -29.0267,17.04637 m 45.1751,10.45211 -16.1484,-27.49848 m 5.4544,33.77988 10.694,-6.2814 m 6.4069,35.4014 -17.1009,-29.12 m 180.735,-55.47409 a 2475.9261,2475.9261 0 0 0 -163.6341,84.59409 m 149.5725,-115.17772 14.0616,30.58363 m -25.3292,-25.40288 11.2676,-5.18075 m -24.5889,-23.79304 13.3213,28.97379 m 17.2624,-43.03599 -30.5837,14.0622 m 40.2415,-18.50235 -9.6578,4.44015 m 19.3156,-8.8803 -9.6578,4.44015 m 40.2418,-18.50229 -30.584,14.06214 m 43.9053,14.91165 -13.3213,-28.97379 m 2.0534,34.15574 11.2679,-5.18195 m 2.8393,35.86428 -14.1072,-30.68233 m 107.6333,-8.90926 -93.5261,39.59159 m 171.8612,-66.05453 -78.3351,26.46294 m 67.1399,-58.20808 11.1952,31.74514 m -22.8908,-27.62043 11.6956,-4.12471 m -22.3014,-25.94945 10.6058,30.07416 m 21.1395,-41.26995 -31.7453,11.19579 m 41.7699,-14.73079 -10.0246,3.535 m 20.0491,-7.06999 -10.0245,3.53499 m 41.7701,-14.73071 -31.7456,11.19572 m 42.3514,18.87844 -10.6058,-30.07416 m -1.0901,34.20004 11.6959,-4.12588 m -0.4644,35.9735 -11.2315,-31.84762 m 11.2315,31.84762 a 1328.7327,1328.7327 0 0 0 169.411,-72.06731 m -16.8609,-29.13412 16.8609,29.13412 m -27.5945,-22.92205 10.7336,-6.21207 m -26.7069,-21.38852 15.9733,27.60059 m 13.1609,-44.4621 -29.1342,16.86151 m 38.3342,-22.18563 -9.2,5.32412 m 18.4001,-10.64825 -9.2001,5.32413 m 38.3346,-22.18561 -29.1345,16.86148 m 45.1077,10.73912 -15.9732,-27.6006 m 5.2395,33.81388 10.7337,-6.21328 m 6.1818,35.44141 -16.9155,-29.22813 m 16.9155,29.22813 a 912.61247,912.61247 0 0 0 144.0771,-114.32535 m -23.8003,-23.80403 23.8003,23.80403 m -32.5702,-15.03534 8.7699,-8.76869 m -31.3173,-13.7824 22.5474,22.55109 m 1.2566,-46.35202 -23.804,23.80093 m 31.3209,-31.3164 -7.5169,7.51547 m 15.0339,-15.03096 -7.517,7.51549 m 31.3212,-31.31646 -23.8042,23.80097 m 46.3516,-1.24987 -22.5474,-22.5511 m 13.7778,31.321 8.7696,-8.7699 m 15.1077,32.65069 -23.8773,-23.88079 m 23.8773,23.88079 a 2654.5776,2654.5776 0 0 0 111.875,-124.75716 m 8.223,-14.43607 -8.223,14.43607 m -13.5333,-40.12172 21.7563,25.68565 m -31.2194,-17.67003 9.4631,-8.01562 m -30.074,-16.31804 20.6109,24.33366 m 5.0747,-46.09052 -25.6856,21.75686 m 33.7967,-28.62686 -8.1111,6.87 m 16.2223,-13.73999 -8.1112,6.86999 m 33.7971,-28.62689 -25.6859,21.7569 m 46.2968,2.57677 -20.6109,-24.33367 m 11.1479,32.3505 9.463,-8.01683 m 12.3636,33.78533 -21.8266,-25.7685 m 21.8266,25.7685 a 2448.384,2448.384 0 0 0 158.0245,-93.80204 m -20.4703,-26.7218 20.4703,26.7218 m -30.3152,-19.17996 9.8449,-7.54184 m -29.2375,-17.77343 19.3926,25.31527 m 7.3291,-45.78616 -26.7217,20.47089 m 35.1601,-26.93479 -8.4384,6.4639 m 16.8767,-12.92781 -8.4383,6.46391 m 35.1604,-26.93482 -26.7221,20.47091 m 46.1147,4.84436 -19.3926,-25.31527 m 9.5478,32.85833 9.8448,-7.54306 m 10.6917,34.35106 -20.5365,-26.808 m 20.5365,26.808 a 722.19073,722.19073 0 0 0 124.5627,-135.0655 m -28.1331,-18.4829 28.1331,18.4829 m -34.9425,-8.118 6.8094,-10.3649 m -33.4615,-7.1452 26.6521,17.5101 m -8.1694,-45.6437 -18.4827,28.1336 m 24.3194,-37.0173 -5.8367,8.8837 m 11.6734,-17.7674 -5.8367,8.8837 m 24.3197,-37.0175 -18.483,28.1338 m 45.1351,-10.6237 -26.6521,-17.5101 m 19.8431,27.8762 6.809,-10.3661 m 21.4233,28.9136 -28.2323,-18.5475 m 28.2323,18.5475 a 989.05488,989.05488 0 0 0 51.8095,-97.3908 m -466.4516,459.33449 a 2.5,2.5 0 1 0 -5,0 2.5,2.5 0 0 0 5,0 z m 26.9114,-66.90694 a 2.5,2.5 0 1 0 -5,0 2.5,2.5 0 0 0 5,0 z m -43.1988,49.95602 a 8.76945,8.76945 0 1 0 -17.5389,0 8.76945,8.76945 0 0 0 17.5389,0 z m 13.741,16.22222 a 8.76945,8.76945 0 1 0 -17.5389,0 8.76945,8.76945 0 0 0 17.5389,0 z m 44.4601,-65.3775 a 8.76945,8.76945 0 1 0 -17.5389,0 8.76945,8.76945 0 0 0 17.5389,0 z m 13.741,16.22223 a 8.76945,8.76945 0 1 0 -17.5389,0 8.76945,8.76945 0 0 0 17.5389,0 z M 231.37538,-128.02611 a 8.769445,8.769445 0 1 0 -17.53889,0 8.769445,8.769445 0 0 0 17.53889,0 z m 14.91173,-15.15309 a 8.769445,8.769445 0 1 0 -17.53889,0 8.769445,8.769445 0 0 0 17.53889,0 z m -69.1338,-38.35923 a 8.769445,8.769445 0 1 0 -17.53889,0 8.769445,8.769445 0 0 0 17.53889,0 z m 14.91172,-15.1531 a 8.7694448,8.7694448 0 1 0 -17.53888,0 8.7694448,8.7694448 0 1 0 17.53888,0 z m 47.95953,44.74289 a 2.4999928,2.4999928 0 1 0 -4.99998,0 2.4999928,2.4999928 0 0 0 4.99998,0 z m -69.06836,-20.74423 a 2.4999928,2.4999928 0 1 0 -4.99998,0 2.4999928,2.4999928 0 0 0 4.99998,0 z M 407.03637,47.085021 a 8.769445,8.769445 0 1 0 -17.53889,0 8.769445,8.769445 0 0 0 17.53889,0 z M 421.9589,31.942575 a 8.769445,8.769445 0 1 0 -17.53889,0 8.769445,8.769445 0 0 0 17.53889,0 z m -69.10642,-38.40854 a 8.7694448,8.7694448 0 1 0 -17.53888,0 8.7694448,8.7694448 0 1 0 17.53888,0 z m 14.92254,-15.142456 a 8.769445,8.769445 0 1 0 -17.53889,0 8.769445,8.769445 0 0 0 17.53889,0 z m 47.9276,44.781561 a 2.499995,2.499995 0 1 0 -4.99999,0 2.499995,2.499995 0 0 0 4.99999,0 z M 346.64907,2.3796496 a 2.499995,2.499995 0 1 0 -4.99999,0 2.499995,2.499995 0 0 0 4.99999,0 z M 525.22939,174.43868 a 2.4999928,2.4999928 0 1 0 -4.99998,0 2.4999928,2.4999928 0 0 0 4.99998,0 z m 69.28387,20.01272 a 2.499995,2.499995 0 1 0 -4.99999,0 2.499995,2.499995 0 0 0 4.99999,0 z m -48.42964,-44.16695 a 8.769445,8.769445 0 1 0 -17.53889,0 8.769445,8.769445 0 0 0 17.53889,0 z m -14.75065,15.30993 a 8.769445,8.769445 0 1 0 -17.53889,0 8.769445,8.769445 0 0 0 17.53889,0 z m 69.53556,37.62604 a 8.769445,8.769445 0 1 0 -17.53889,0 8.769445,8.769445 0 0 0 17.53889,0 z m -14.75066,15.30993 a 8.769445,8.769445 0 1 0 -17.53889,0 8.769445,8.769445 0 0 0 17.53889,0 z m 123.60628,121.13877 a 2.4999928,2.4999928 0 1 0 -4.99998,0 2.4999928,2.4999928 0 0 0 4.99998,0 z m 72.1153,0.38452 a 2.499995,2.499995 0 1 0 -4.99999,0 2.499995,2.499995 0 0 0 4.99999,0 z m -58.39163,-27.59808 a 8.7694448,8.7694448 0 1 0 -17.53888,0 8.7694448,8.7694448 0 0 0 17.53888,0 z M 713.425,331.20439 a 8.769445,8.769445 0 1 0 -17.53889,0 8.769445,8.769445 0 0 0 17.53889,0 z m 77.15497,17.26333 a 8.769445,8.769445 0 1 0 -17.53889,0 8.769445,8.769445 0 0 0 17.53889,0 z m -10.02282,18.74885 a 8.769445,8.769445 0 1 0 -17.53889,0 8.769445,8.769445 0 0 0 17.53889,0 z m 231.15535,-33.11424 a 8.7694448,8.7694448 0 1 0 -17.53885,0 8.7694448,8.7694448 0 0 0 17.53885,0 z m -9.5743,-18.98178 a 8.76945,8.76945 0 1 0 -17.5389,0 8.76945,8.76945 0 0 0 17.5389,0 z m -58.49366,53.19217 a 8.769445,8.769445 0 1 0 -17.53889,0 8.769445,8.769445 0 0 0 17.53889,0 z m -9.57434,-18.98178 a 8.769445,8.769445 0 1 0 -17.53889,0 8.769445,8.769445 0 0 0 17.53889,0 z m 53.49395,-37.02763 a 2.499995,2.499995 0 1 0 -4.99999,0 2.499995,2.499995 0 0 0 4.99999,0 z m -41.78695,58.77597 a 2.499995,2.499995 0 1 0 -4.99999,0 2.499995,2.499995 0 0 0 4.99999,0 z m 254.6967,-194.94176 a 8.7694448,8.7694448 0 1 0 -17.5388,0 8.7694448,8.7694448 0 1 0 17.5388,0 z m -14.189,-15.83181 a 8.76945,8.76945 0 1 0 -17.5389,0 8.76945,8.76945 0 0 0 17.5389,0 z m -42.6154,66.59463 a 8.7694448,8.7694448 0 1 0 -17.5388,0 8.7694448,8.7694448 0 1 0 17.5388,0 z m -14.189,-15.83182 a 8.76945,8.76945 0 1 0 -17.5389,0 8.76945,8.76945 0 0 0 17.5389,0 z m 41.7832,-51.31915 a 2.5,2.5 0 1 0 -5,0 2.5,2.5 0 0 0 5,0 z m -25.0309,67.63297 a 2.5,2.5 0 1 0 -5,0 2.5,2.5 0 0 0 5,0 z M 1393.4891,19.6814 a 8.76945,8.76945 0 1 0 -17.5389,0 8.76945,8.76945 0 0 0 17.5389,0 z M 1380.6813,2.7126686 a 8.76945,8.76945 0 1 0 -17.5389,0 8.76945,8.76945 0 0 0 17.5389,0 z m -48.0635,62.7759094 a 8.7694448,8.7694448 0 1 0 -17.5388,0 8.7694448,8.7694448 0 0 0 17.5388,0 z m -12.8077,-16.968731 a 8.76945,8.76945 0 1 0 -17.5389,0 8.76945,8.76945 0 0 0 17.5389,0 z m 45.9278,-47.0973546 a 2.5,2.5 0 1 0 -5,0 2.5,2.5 0 0 0 5,0 z m -30.6286,65.2890126 a 2.5,2.5 0 1 0 -5,0 2.5,2.5 0 0 0 5,0 z m 267.8533,-180.960185 a 8.76945,8.76945 0 1 0 -17.5389,0 8.76945,8.76945 0 0 0 17.5389,0 z m -10.766,-18.33217 a 8.76945,8.76945 0 1 0 -17.5389,0 8.76945,8.76945 0 0 0 17.5389,0 z m -54.9804,56.816114 a 8.76945,8.76945 0 1 0 -17.5389,0 8.76945,8.76945 0 0 0 17.5389,0 z m -10.766,-18.332177 a 8.76945,8.76945 0 1 0 -17.5389,0 8.76945,8.76945 0 0 0 17.5389,0 z m 51.0095,-40.765547 a 2.5,2.5 0 1 0 -5,0 2.5,2.5 0 0 0 5,0 z m -37.9515,61.322528 a 2.4999928,2.4999928 0 1 0 -4.9999,0 2.4999928,2.4999928 0 0 0 4.9999,0 z m 448.5411,-209.394388 a 2.5,2.5 0 1 0 -5,0 2.5,2.5 0 0 0 5,0 z m 48.9533,-52.95605 a 2.5,2.5 0 1 0 -5,0 2.5,2.5 0 0 0 5,0 z m -57.7346,29.08941 a 8.76945,8.76945 0 1 0 -17.5389,0 8.76945,8.76945 0 0 0 17.5389,0 z m 7.0709,20.04937 a 8.7694448,8.7694448 0 1 0 -17.5388,0 8.7694448,8.7694448 0 1 0 17.5388,0 z m 64.8098,-45.2837 a 8.76945,8.76945 0 1 0 -17.5389,0 8.76945,8.76945 0 0 0 17.5389,0 z m 7.0709,20.04938 a 8.76945,8.76945 0 1 0 -17.5389,0 8.76945,8.76945 0 0 0 17.5389,0 z m 159.4255,-64.12415 a 2.5,2.5 0 1 0 -5,0 2.5,2.5 0 0 0 5,0 z m 38.3405,-61.08 a 2.5,2.5 0 1 0 -5,0 2.5,2.5 0 0 0 5,0 z m -51.2675,40.40056 a 8.76945,8.76945 0 1 0 -17.5389,0 8.76945,8.76945 0 0 0 17.5389,0 z m 10.6492,18.40024 a 8.76945,8.76945 0 1 0 -17.5389,0 8.76945,8.76945 0 0 0 17.5389,0 z m 55.3405,-56.4654 a 8.76945,8.76945 0 1 0 -17.5389,0 8.76945,8.76945 0 0 0 17.5389,0 z m 10.6493,18.40025 a 8.76945,8.76945 0 1 0 -17.5389,0 8.76945,8.76945 0 0 0 17.5389,0 z M 2468.351,-576.0739 a 8.76945,8.76945 0 1 0 -17.5389,0 8.76945,8.76945 0 0 0 17.5389,0 z m -15.0319,-15.03382 a 8.76945,8.76945 0 1 0 -17.5389,0 8.76945,8.76945 0 0 0 17.5389,0 z m -38.9173,68.82122 a 8.76945,8.76945 0 1 0 -17.5389,0 8.76945,8.76945 0 0 0 17.5389,0 z m -15.032,-15.03382 a 8.76945,8.76945 0 1 0 -17.5389,0 8.76945,8.76945 0 0 0 17.5389,0 z m 38.9107,-53.86525 a 2.5,2.5 0 1 0 -5,0 2.5,2.5 0 0 0 5,0 z m -21.3023,68.89829 a 2.5,2.5 0 1 0 -5,0 2.5,2.5 0 0 0 5,0 z m 430.0819,-366.55299 a 8.7694448,8.7694448 0 1 0 -17.5388,0 8.7694448,8.7694448 0 0 0 17.5388,0 z m -12.9288,-16.87665 a 8.76945,8.76945 0 1 0 -17.5389,0 8.76945,8.76945 0 0 0 17.5389,0 z m -47.613,63.11823 a 8.76945,8.76945 0 1 0 -17.5389,0 8.76945,8.76945 0 0 0 17.5389,0 z m -12.9289,-16.87665 a 8.76945,8.76945 0 1 0 -17.5389,0 8.76945,8.76945 0 0 0 17.5389,0 z m 45.5894,-47.46966 a 2.5,2.5 0 1 0 -5,0 2.5,2.5 0 0 0 5,0 z m -30.1606,65.50651 a 2.4999928,2.4999928 0 1 0 -4.9999,0 2.4999928,2.4999928 0 0 0 4.9999,0 z m 175.2598,-173.76401 a 2.5,2.5 0 1 0 -5,0 2.5,2.5 0 0 0 5,0 z m 6.8876,-71.7867 a 2.5,2.5 0 1 0 -5,0 2.5,2.5 0 0 0 5,0 z m -27.0484,61.9082 a 8.76945,8.76945 0 1 0 -17.5389,0 8.76945,8.76945 0 0 0 17.5389,0 z m 17.7683,11.6731 a 8.7694448,8.7694448 0 1 0 -17.5388,0 8.7694448,8.7694448 0 0 0 17.5388,0 z m 24.1522,-75.2834 a 8.7694448,8.7694448 0 1 0 -17.5388,0 8.7694448,8.7694448 0 1 0 17.5388,0 z m 17.7684,11.6731 a 8.76945,8.76945 0 1 0 -17.5389,0 8.76945,8.76945 0 0 0 17.5389,0 z m -1178.3772,851.88771 a 8.76945,8.76945 0 1 0 -17.5389,0 8.76945,8.76945 0 0 0 17.5389,0 z m -8.8813,-19.31576 a 8.76945,8.76945 0 1 0 -17.5389,0 8.76945,8.76945 0 0 0 17.5389,0 z m -60.3799,51.04094 a 8.76945,8.76945 0 1 0 -17.5389,0 8.76945,8.76945 0 0 0 17.5389,0 z m -8.8813,-19.31575 a 8.76945,8.76945 0 1 0 -17.5389,0 8.76945,8.76945 0 0 0 17.5389,0 z m 54.7945,-34.84106 a 2.5,2.5 0 1 0 -5,0 2.5,2.5 0 0 0 5,0 z m -43.8862,57.22557 a 2.5,2.5 0 1 0 -5,0 2.5,2.5 0 0 0 5,0 z M 168.45621,-491.58959 a 36020.794,36020.794 0 0 0 319.86485,316.44789 m 10.35563,8.88517 -10.35563,-8.88517 m 20.67468,18.05703 -10.31905,-9.17186 m 30.88306,28.22796 -20.56401,-19.0561 m 103.13932,99.366302 -82.57531,-80.310202 m 103.65546,99.932936 -21.08015,-19.622734 m 42.47743,38.47305 -21.39728,-18.850316 m 32.23712,27.89355 -10.83984,-9.043234 M 676.3982,-1.4626794 665.45233,-10.202084 M 687.45899,6.9359965 676.3982,-1.4626794 M 698.64363,14.957033 687.45899,6.9359965 m 22.50203,15.6275255 -11.31739,-7.606489 m 17.02866,11.242748 -5.71127,-3.636259 m 11.45906,7.155039 -5.74779,-3.51878 m 11.53323,6.91548 -5.78544,-3.3967 m 11.60965,6.666691 -5.82421,-3.269991 m 11.68829,6.408662 -5.86408,-3.138671 m 11.76914,6.141422 -5.90506,-3.002751 m 11.85223,5.864953 -5.94717,-2.862202 m 11.93755,5.579254 -5.99038,-2.717052 m 12.02508,5.284335 -6.0347,-2.567283 m 12.11485,4.980176 -6.08015,-2.412893 m 12.20687,4.666796 -6.12672,-2.253903 m 12.3011,4.344197 -6.17438,-2.090294 m 12.39755,4.012369 -6.22317,-1.922075 m 12.49624,3.67131 -6.27307,-1.749235 m 12.59715,3.32103 -6.32408,-1.571795 m 12.7003,2.961521 -6.37622,-1.389726 m 12.80567,2.592773 -6.42945,-1.203047 m 12.91326,2.214814 -6.48381,-1.011767 m 13.02309,1.827625 -6.53928,-0.815858 m 13.13515,1.431206 -6.59587,-0.615348 m 13.24943,1.025567 -6.65356,-0.410219 m 13.36593,0.610698 -6.71237,-0.200479 m 12.72492,0.314969 -6.01255,-0.11449 m 11.95771,0.09762 -5.94516,0.01687 m 11.8254,-0.16389 -5.88024,0.14702 m 11.69802,-0.422999 -5.81778,0.275979 m 11.57555,-0.679718 -5.75777,0.403739 m 11.45799,-0.934027 -5.70022,0.530288 m 11.34537,-1.185946 -5.64515,0.655658 m 11.23766,-1.435476 -5.59251,0.779818 m 11.13485,-1.682596 -5.54234,0.902778 m 11.03699,-1.927325 -5.49465,1.024547 m 10.94404,-2.169653 -5.44939,1.145106 m 10.85599,-2.409573 -5.4066,1.264467 m 10.77287,-2.647103 -5.36627,1.382636 m 10.69467,-2.882241 -5.3284,1.499605 m 10.62139,-3.114981 -5.29299,1.615376 m 10.55303,-3.345311 -5.26004,1.729935 m 10.48958,-3.57325 -5.22954,1.843315 m 10.43105,-3.798799 -5.20151,1.955484 m 10.37744,-4.021938 -5.17593,2.066454 m 10.32875,-4.242678 -5.15282,2.176224 m 10.28498,-4.461027 -5.13216,2.284803 m 10.24613,-4.676976 -5.11397,2.392173 m 10.21219,-4.890526 -5.09822,2.498353 m 10.18317,-5.101686 -5.08495,2.603333 m 15.22485,-8.120127 -10.1399,5.516794 M 996.7006,25.801272 986.58431,31.723585 M 1006.813,19.48303 996.7006,25.801272 m 20.2405,-13.022812 -10.1281,6.70457 m 20.2916,-13.7858899 -10.1635,7.0813199 m 20.3821,-14.5297985 -10.2186,7.4484786 m 30.8998,-23.4085031 -20.6812,15.9600245 m 41.8189,-33.2735645 -21.1377,17.31354 m 195.103,-169.960487 -173.9653,152.646947 m 236.749,-204.067917 -62.7837,51.42097 m 97.1425,-78.04903 -34.3588,26.62806 m 70.9053,-53.76552 -36.5465,27.13746 m 75.4381,-54.70758 -38.8916,27.57012 m 80.2858,-55.49618 -41.3942,27.92606 m 85.4483,-56.13131 -44.0541,28.20525 m 90.9256,-56.61297 -46.8715,28.40772 m 96.7176,-56.94115 -49.8461,28.53343 m 102.8244,-57.11584 -52.9783,28.58241 m 109.246,-57.13707 -56.2677,28.55466 m 115.9824,-57.00483 -59.7147,28.45017 m 123.0336,-56.71912 -63.3189,28.26895 m 130.3996,-56.27994 -67.0807,28.01099 m 175.5859,-64.92115 -108.5052,36.91016 m 156.6167,-54.17448 -48.1115,17.26432 m 92.8289,-34.36452 -44.7174,17.1002 m 86.5658,-34.50858 -41.8484,17.40838 m 61.8608,-26.37573 -20.0124,8.96735 m 39.5044,-18.18885 -19.492,9.2215 m 38.5293,-18.75619 -19.0373,9.53469 m 37.6855,-19.44162 -18.6482,9.90693 m 36.9728,-20.24511 -18.3246,10.33818 m 36.3915,-21.16667 -18.0669,10.82849 m 35.9415,-22.2063 -17.8746,11.37781 m 35.6226,-23.364 -17.748,11.98619 m 35.4351,-24.63979 -17.6871,12.6536 m 35.3788,-26.03365 -17.6917,13.38005 m 35.4537,-27.54558 -17.762,14.16553 m 35.6599,-29.17559 -17.8979,15.01006 m 35.9974,-30.92366 -18.0995,15.9136 m 36.4662,-32.78981 -18.3667,16.87621 m 37.0661,-34.77403 -18.6994,17.89782 m 37.7973,-36.87632 -19.0979,18.9785 m 58.7516,-60.41363 -39.6537,41.43513 m 81.6886,-87.90137 -42.0349,46.46624 m 86.9762,-98.4359 -44.9413,51.96966 m 45.4399,-53.10576 -0.4986,1.1361 m 1.0171,-2.2633 -0.5185,1.1272 m 1.6147,-3.3556 -1.0962,2.2284 m 2.2704,-4.4233 -1.1742,2.1949 m 2.4256,-4.3576 -1.2514,2.1627 m 2.5792,-4.2945 -1.3278,2.1318 m 2.7311,-4.2342 -1.4033,2.1024 m 2.8812,-4.1767 -1.4779,2.0743 m 3.0296,-4.1219 -1.5517,2.0476 m 3.1763,-4.0699 -1.6246,2.0223 m 3.3212,-4.0206 -1.6966,1.9983 m 3.4644,-3.974 -1.7678,1.9757 m 3.606,-3.9302 -1.8382,1.9545 m 3.7458,-3.8891 -1.9076,1.9346 m 3.8838,-3.8507 -1.9762,1.9161 m 4.0201,-3.8151 -2.0439,1.899 m 4.1547,-3.7823 -2.1108,1.8833 m 4.2876,-3.7522 -2.1768,1.8689 m 4.4187,-3.7249 -2.2419,1.856 m 6.9177,-5.5343 -4.6758,3.6783 m 9.6018,-7.321 -4.926,3.6427 m 10.0953,-7.2609 -5.1693,3.6182 m 10.5749,-7.2228 -5.4056,3.6046 m 11.0408,-7.2066 -5.6352,3.602 m 17.5662,-10.8418 -11.931,7.2398 m 67.4524,-38.2868 -55.5214,31.047 m 87.1868,-49.0515 -31.6654,18.0045 m 48.281,-27.9341 -16.6156,9.9296 m 33.6793,-20.5945 -17.0637,10.6649 m 34.5203,-22.1527 -17.4566,11.4878 m 35.2509,-23.8863 -17.7943,12.3985 m 35.871,-25.7955 -18.0767,13.397 m 36.3805,-27.8802 -18.3038,14.4832 m 36.7796,-30.1403 -18.4758,15.6571 m 27.7609,-23.9532 -9.2851,8.2961 m 18.5924,-16.9187 -9.3073,8.6226 m 18.6299,-17.5825 -9.3226,8.9599 m 18.6537,-18.2682 -9.3311,9.3083 m 18.6638,-18.9758 -9.3327,9.6675 m 18.6599,-19.7053 -9.3272,10.0378 m 18.6422,-20.4568 -9.315,10.419 m 18.6107,-21.2302 -9.2957,10.8112 m 18.5654,-22.0256 -9.2697,11.2144 m 18.5064,-22.8429 -9.2367,11.6285 m 18.4334,-23.6821 -9.1967,12.0536 m 18.3467,-24.5432 -9.15,12.4896 m 18.2462,-25.4263 -9.0962,12.9367 m 18.1318,-26.3313 -9.0356,13.3946 m 18.0036,-27.2583 -8.968,13.8637 m 17.8616,-28.2072 -8.8936,14.3435 m 17.7058,-29.178 -8.8122,14.8345 m 17.5361,-30.1708 -8.7239,15.3363 m 17.3527,-31.1855 -8.6288,15.8492 m 17.1555,-32.2222 -8.5267,16.373 m 16.9444,-33.2807 -8.4177,16.9077 m 16.7196,-34.3612 -8.3019,17.4535 M 134.46815,-885.43182 a 36020.794,36020.794 0 0 0 319.86486,316.44788 m 10.35563,8.88519 -10.35563,-8.88519 m 20.67468,18.05704 -10.31905,-9.17185 m 30.88305,28.22796 -20.564,-19.05611 m 103.13932,99.36629 -82.57532,-80.31018 m 103.65547,99.93293 -21.08015,-19.62275 m 42.47743,38.47305 -21.39728,-18.8503 m 32.23712,27.89354 -10.83984,-9.04324 m 21.7857,17.78264 -10.94586,-8.7394 m 22.00666,17.13808 -11.0608,-8.39868 m 22.24543,16.41972 -11.18463,-8.02104 m 22.50203,15.62753 -11.3174,-7.60649 m 17.02866,11.24275 -5.71126,-3.63626 m 11.45906,7.15504 -5.7478,-3.51878 m 11.53324,6.91547 -5.78544,-3.39669 m 11.60964,6.66668 -5.8242,-3.26999 m 11.68828,6.40868 -5.86408,-3.13869 m 11.76914,6.14144 -5.90506,-3.00275 m 11.85223,5.86495 -5.94717,-2.8622 m 11.93755,5.57925 -5.99038,-2.71705 m 12.02509,5.28432 -6.03471,-2.56727 m 12.11486,4.98018 -6.08015,-2.41291 m 12.20686,4.66681 -6.12671,-2.2539 m 12.3011,4.34419 -6.17439,-2.09029 m 12.39756,4.01237 -6.22317,-1.92208 m 12.49624,3.67131 -6.27307,-1.74923 m 12.59715,3.32102 -6.32408,-1.57179 m 12.70029,2.96151 -6.37621,-1.38972 m 12.80567,2.59278 -6.42946,-1.20306 m 12.91327,2.21482 -6.48381,-1.01176 m 13.02309,1.82763 -6.53928,-0.81587 m 13.13514,1.43121 -6.59586,-0.61534 m 13.24943,1.02555 -6.65357,-0.41021 m 13.36594,0.61069 -6.71237,-0.20048 m 12.72491,0.31497 -6.01254,-0.11449 m 11.95771,0.0976 -5.94517,0.0169 m 11.82541,-0.16392 -5.88024,0.14702 m 11.69801,-0.423 -5.81777,0.27598 m 11.57555,-0.67972 -5.75778,0.40374 m 11.458,-0.93403 -5.70022,0.53029 m 11.34536,-1.18595 -5.64514,0.65566 m 11.23766,-1.43547 -5.59252,0.77981 m 11.13486,-1.6826 -5.54234,0.90279 m 11.03699,-1.92732 -5.49465,1.02453 m 10.94403,-2.16964 -5.44938,1.14511 m 10.85598,-2.40958 -5.4066,1.26447 m 10.77288,-2.64711 -5.36628,1.38264 m 10.69467,-2.88224 -5.32839,1.4996 m 10.62139,-3.11497 -5.293,1.61537 m 10.55303,-3.34532 -5.26003,1.72995 m 10.48957,-3.57325 -5.22954,1.8433 m 10.43105,-3.79879 -5.20151,1.95549 m 10.37745,-4.02194 -5.17594,2.06645 m 10.32875,-4.24268 -5.15281,2.17623 m 10.28498,-4.46103 -5.13217,2.2848 m 10.24613,-4.67697 -5.11396,2.39217 m 10.21219,-4.89053 -5.09823,2.49836 m 10.18318,-5.10169 -5.08495,2.60333 m 15.22485,-8.12012 -10.1399,5.51679 m 20.25619,-11.43911 -10.11629,5.92232 m 20.22865,-12.24056 -10.11236,6.31824 m 20.24047,-13.02282 -10.12811,6.70458 m 20.29164,-13.7859 -10.16353,7.08132 m 20.38218,-14.52979 -10.21865,7.44847 m 30.89985,-23.4085 -20.6812,15.96003 m 41.8188,-33.27356 -21.1376,17.31353 m 195.1029,-169.96048 -173.9653,152.64695 m 236.7491,-204.06792 -62.7838,51.42097 m 97.1425,-78.04903 -34.3587,26.62806 m 70.9052,-53.76552 -36.5465,27.13746 m 75.4381,-54.70759 -38.8916,27.57013 m 80.2858,-55.49619 -41.3942,27.92606 m 85.4484,-56.13131 -44.0542,28.20525 m 90.9256,-56.61296 -46.8714,28.40771 m 96.7176,-56.94114 -49.8462,28.53343 m 102.8244,-57.11584 -52.9782,28.58241 m 109.246,-57.13707 -56.2678,28.55466 m 115.9825,-57.00484 -59.7147,28.45018 m 123.0336,-56.71913 -63.3189,28.26895 m 130.3995,-56.27994 -67.0806,28.01099 m 175.5858,-64.92112 -108.5052,36.91013 m 156.6167,-54.17443 -48.1115,17.2643 m 92.8289,-34.3645 -44.7174,17.1002 m 86.5658,-34.5086 -41.8484,17.4084 m 61.8608,-26.3757 -20.0124,8.9673 m 39.5044,-18.1888 -19.492,9.2215 m 38.5293,-18.7562 -19.0373,9.5347 m 37.6855,-19.4417 -18.6482,9.907 m 36.9729,-20.2451 -18.3247,10.3381 m 36.3915,-21.1666 -18.0668,10.8285 m 35.9415,-22.2063 -17.8747,11.3778 m 35.6227,-23.364 -17.748,11.9862 m 35.435,-24.6398 -17.687,12.6536 m 35.3787,-26.0337 -17.6917,13.3801 m 35.4537,-27.5456 -17.762,14.1655 m 35.66,-29.1756 -17.898,15.0101 m 35.9975,-30.9237 -18.0995,15.9136 m 36.4661,-32.7898 -18.3666,16.8762 m 37.0661,-34.774 -18.6995,17.8978 m 37.7974,-36.8763 -19.0979,18.9785 m 58.7515,-60.4136 -39.6536,41.4351 m 81.6886,-87.9014 -42.035,46.4663 m 86.9762,-98.4359 -44.9412,51.9696 m 45.4399,-53.1057 -0.4987,1.1361 m 1.0172,-2.2633 -0.5185,1.1272 m 1.6146,-3.3557 -1.0961,2.2285 m 2.2703,-4.4233 -1.1742,2.1948 m 2.4256,-4.3575 -1.2514,2.1627 m 2.5792,-4.2945 -1.3278,2.1318 m 2.7311,-4.2342 -1.4033,2.1024 m 2.8812,-4.1767 -1.4779,2.0743 m 3.0296,-4.1219 -1.5517,2.0476 m 3.1763,-4.0699 -1.6246,2.0223 m 3.3213,-4.0206 -1.6967,1.9983 m 3.4645,-3.974 -1.7678,1.9757 m 3.6059,-3.9302 -1.8381,1.9545 m 3.7457,-3.8891 -1.9076,1.9346 m 3.8838,-3.8508 -1.9762,1.9162 m 4.0201,-3.8152 -2.0439,1.899 m 4.1547,-3.7823 -2.1108,1.8833 m 4.2876,-3.7522 -2.1768,1.8689 m 4.4187,-3.7248 -2.2419,1.8559 m 6.9177,-5.5342 -4.6758,3.6783 m 9.6018,-7.3211 -4.926,3.6428 m 10.0953,-7.261 -5.1693,3.6182 m 10.575,-7.2227 -5.4057,3.6045 m 11.0408,-7.2065 -5.6351,3.602 m 17.5661,-10.8418 -11.931,7.2398 m 67.4524,-38.2868 -55.5214,31.047 m 87.1869,-49.0515 -31.6655,18.0045 m 48.281,-27.9342 -16.6155,9.9297 m 33.6792,-20.5945 -17.0637,10.6648 m 34.5203,-22.1526 -17.4566,11.4878 m 35.2509,-23.8864 -17.7943,12.3986 m 35.871,-25.7955 -18.0767,13.3969 m 36.3806,-27.8801 -18.3039,14.4832 m 36.7796,-30.1403 -18.4757,15.6571 m 27.7608,-23.9533 -9.2851,8.2962 m 18.5924,-16.9187 -9.3073,8.6225 m 18.63,-17.5825 -9.3227,8.96 m 18.6538,-18.2682 -9.3311,9.3082 m 18.6637,-18.9757 -9.3326,9.6675 m 18.6599,-19.7053 -9.3273,10.0378 m 18.6422,-20.4568 -9.3149,10.419 m 18.6107,-21.2303 -9.2958,10.8113 m 18.5655,-22.0256 -9.2697,11.2143 m 18.5063,-22.8428 -9.2366,11.6285 m 18.4334,-23.6821 -9.1968,12.0536 m 18.3467,-24.5432 -9.1499,12.4896 m 18.2461,-25.4263 -9.0962,12.9367 m 18.1318,-26.3314 -9.0356,13.3947 m 18.0036,-27.2583 -8.968,13.8636 m 17.8616,-28.2072 -8.8936,14.3436 m 17.7058,-29.178 -8.8122,14.8344 m 17.5362,-30.1708 -8.724,15.3364 m 17.3528,-31.1855 -8.6288,15.8491 m 17.1555,-32.2221 -8.5267,16.373 m 16.9444,-33.2808 -8.4177,16.9078 m 16.7195,-34.3612 -8.3018,17.4534 m -424.1617,1402.65073 a 2.5,2.5 0 1 0 -5,0 2.5,2.5 0 0 0 5,0 z m 26.9114,-66.90692 a 2.5,2.5 0 1 0 -5,0 2.5,2.5 0 0 0 5,0 z M 177.15331,66.492345 a 8.769445,8.769445 0 1 0 -17.53889,0 8.769445,8.769445 0 0 0 17.53889,0 z m 62.87125,29.589795 a 2.4999928,2.4999928 0 1 0 -4.99998,0 2.4999928,2.4999928 0 0 0 4.99998,0 z M 170.9562,75.33791 a 2.4999928,2.4999928 0 1 0 -4.99998,0 2.4999928,2.4999928 0 0 0 4.99998,0 z m 244.74642,195.86601 a 2.499995,2.499995 0 1 0 -4.99999,0 2.499995,2.499995 0 0 0 4.99999,0 z m -69.05355,-20.79349 a 2.499995,2.499995 0 1 0 -4.99999,0 2.499995,2.499995 0 0 0 4.99999,0 z m 178.58032,172.05904 a 2.4999928,2.4999928 0 1 0 -4.99998,0 2.4999928,2.4999928 0 0 0 4.99998,0 z m 69.28387,20.0127 a 2.499995,2.499995 0 1 0 -4.99999,0 2.499995,2.499995 0 0 0 4.99999,0 z m 115.21089,145.21774 a 2.4999928,2.4999928 0 1 0 -4.99998,0 2.4999928,2.4999928 0 0 0 4.99998,0 z m 72.1153,0.38452 a 2.499995,2.499995 0 1 0 -4.99999,0 2.499995,2.499995 0 0 0 4.99999,0 z m 205.7247,-27.75033 a 2.499995,2.499995 0 1 0 -4.99999,0 2.499995,2.499995 0 0 0 4.99999,0 z m -41.78695,58.77596 a 2.499995,2.499995 0 1 0 -4.99999,0 2.499995,2.499995 0 0 0 4.99999,0 z m 225.4865,-211.32992 a 2.5,2.5 0 1 0 -5,0 2.5,2.5 0 0 0 5,0 z m -25.0309,67.63299 a 2.5,2.5 0 1 0 -5,0 2.5,2.5 0 0 0 5,0 z m 219.5051,-225.95986 a 2.5,2.5 0 1 0 -5,0 2.5,2.5 0 0 0 5,0 z m -30.6286,65.28901 a 2.5,2.5 0 1 0 -5,0 2.5,2.5 0 0 0 5,0 z m 242.3504,-201.57395 a 2.5,2.5 0 1 0 -5,0 2.5,2.5 0 0 0 5,0 z m -37.9515,61.32252 a 2.4999928,2.4999928 0 1 0 -4.9999,0 2.4999928,2.4999928 0 0 0 4.9999,0 z m 448.5411,-209.394383 a 2.5,2.5 0 1 0 -5,0 2.5,2.5 0 0 0 5,0 z m 48.9533,-52.956048 a 2.5,2.5 0 1 0 -5,0 2.5,2.5 0 0 0 5,0 z m 180.6425,-40.219699 a 2.5,2.5 0 1 0 -5,0 2.5,2.5 0 0 0 5,0 z m 38.3405,-61.07999 a 2.5,2.5 0 1 0 -5,0 2.5,2.5 0 0 0 5,0 z m 182.2949,-153.99553 a 2.5,2.5 0 1 0 -5,0 2.5,2.5 0 0 0 5,0 z m -21.3023,68.8983 a 2.5,2.5 0 1 0 -5,0 2.5,2.5 0 0 0 5,0 z m 402.2006,-384.65772 a 2.5,2.5 0 1 0 -5,0 2.5,2.5 0 0 0 5,0 z m -30.1606,65.50651 a 2.4999928,2.4999928 0 1 0 -4.9999,0 2.4999928,2.4999928 0 0 0 4.9999,0 z m 175.2598,-173.76406 a 2.5,2.5 0 1 0 -5,0 2.5,2.5 0 0 0 5,0 z m 6.8876,-71.78665 a 2.5,2.5 0 1 0 -5,0 2.5,2.5 0 0 0 5,0 z M 1802.0809,0.4686651 a 2.5,2.5 0 1 0 -5,0 2.5,2.5 0 0 0 5,0 z m -43.8862,57.2255659 a 2.5,2.5 0 1 0 -5,0 2.5,2.5 0 0 0 5,0 z m -1566.12778,-6.348422 -0.002,0.0019 m 1.1e-4,-0.0038 0.002,0.0019 m -23.53468,23.914671 -0.0761,0.07738 m 199.32064,151.09727 -0.002,0.002 m 1.2e-4,-0.004 0.002,0.002 m -23.62793,23.97511 -0.0763,-0.0762 m 0.15249,-10e-4 -0.0762,0.0773 m 201.93601,147.81863 -0.002,0.002 m 10e-5,-0.004 0.002,0.002 m -23.35578,24.24027 -0.0806,-0.0753 m 0.15592,-0.003 -0.0753,0.0782 m 200.36476,135.5449 -0.001,0.002 m -10e-4,-0.003 0.002,10e-4 m -15.86969,29.68577 -0.0831,-0.0549 m 0.13428,-0.0408 -0.0512,0.0957 m 236.05306,31.41019 -0.0921,0.0347 m 0.0432,-0.13163 0.0489,0.0969 m -15.15895,-30.05481 0.001,0.002 m -0.003,-8.1e-4 0.002,-10e-4 m 215.61492,-113.64228 -0.081,0.0723 m 0.01,-0.15314 0.072,0.0808 m -22.4652,-25.06747 0,0.002 m 0,-2.4e-4 0,-0.002 m 191.0656,-162.47068 0,0.002 m 0,-4.1e-4 0,-0.002 m 20.2806,26.86799 -0.087,0.0674 m 0.022,-0.15405 0.065,0.0867 m 187.3536,-169.27781 0,0.002 m 0,-6.6e-4 0,-0.001 m 17.0481,29.02599 -0.094,0.0568 m 0.039,-0.15041 0.055,0.0936 m 204.6248,-147.380231 0,0.0024 m 0,-0.0013 0,-0.0011 m 14.064,30.583622 -0.099,0.0468 m 0.054,-0.14543 0.045,0.09863 m 218.6597,-124.342913 9e-4,0.0025 m 0,-0.0016 0,-8.8e-4 m 11.1977,31.745149 -0.1017,0.03489 m 0.066,-0.13727 0.036,0.10238 m 212.735,-122.309857 0,0.002 m 0,-6.8e-4 0,-0.001 m 16.8632,29.13379 -0.092,0.0485 m 0.038,-0.14246 0.054,0.094 m 175.5332,-169.98129 0,0.002 m 0,-1.3e-4 0,-0.002 m 23.8022,23.80416 -0.077,0.0731 m 3e-4,-0.14986 0.077,0.0768 m 165.2773,-184.21078 -0.088,0.12219 m 0.018,-0.20502 0.07,0.0828 m -21.7561,-25.6856 0,0.002 m 0,-2.9e-4 0,-0.002 m 208.0505,-135.97635 0,0.002 m 0,-3.9e-4 0,-0.002 m 20.4724,26.72219 -0.085,0.0594 m 0.019,-0.14558 0.066,0.0862 m 147.1267,-192.24696 0,10e-4 m 0,10e-4 0,-0.002 m 28.1345,18.48267 -0.061,0.0848 m -0.03,-0.1444 0.091,0.0596 M 183.44409,60.107444 l -6.29078,6.392431 m 6.29078,-6.392431 a 8.7694448,8.7694448 0 0 0 -0.14038,-17.53763 m 22.29182,-22.651745 -22.29182,22.651745 m 46.28452,0.958857 -23.9927,-23.610602 m 31.56875,31.066541 -7.57605,-7.455939 m 15.1521,14.911887 -7.57605,-7.455948 m 31.5688,31.066851 -23.99275,-23.610903 m 1.6248,46.340002 22.36795,-22.729099 m -22.44724,22.651099 0.0793,0.078 m -0.0793,-0.078 a 8.7694448,8.7694448 0 0 0 -17.53637,0.29703 m -6.13655,6.23565 6.13655,-6.23565 m -6.13655,6.23565 a 8.7694448,8.7694448 0 0 0 -0.0651,17.53869 M 335.3136,241.57117 222.54784,128.77393 M 335.3136,241.57117 a 8.7694448,8.7694448 0 0 0 17.53887,0.007 m 6.29534,-6.38752 -6.29534,6.38795 m 6.29534,-6.38795 a 8.7694448,8.7694448 0 0 0 -0.12787,-17.53772 m 22.30798,-22.63583 -22.30798,22.63583 m 46.28383,0.99187 -23.97585,-23.6277 m 31.54658,31.08905 -7.57073,-7.46135 m 15.14146,14.92269 -7.57073,-7.46134 m 31.54664,31.08935 -23.97591,-23.62801 m 1.59174,46.34115 22.38417,-22.71314 m -22.4634,22.63507 0.0792,0.0781 m -0.0792,-0.0781 a 8.7694448,8.7694448 0 0 0 -17.53658,0.28454 m -6.14099,6.23126 6.14099,-6.23126 m -6.14099,6.23126 a 8.7694448,8.7694448 0 1 0 0.01,17.53885 m 90.03089,87.90058 -90.03132,-87.90058 m 115.52473,110.3376 -25.49341,-22.43702 m 25.49341,22.43702 a 8.7694448,8.7694448 0 0 0 17.51809,-0.68286 m 6.22283,-6.45859 -6.22283,6.45859 m 6.22283,-6.45859 a 8.7694448,8.7694448 0 0 0 -0.32583,-17.53517 m 22.05105,-22.8862 -22.05105,22.8862 m 46.29208,0.46937 L 559.28061,366.66 m 31.89549,30.73098 -7.65446,-7.37541 m 15.30893,14.75082 -7.65447,-7.37541 m 31.89556,30.73129 -24.24109,-23.35588 m 2.11474,46.32023 22.12635,-22.96435 m -22.20646,22.88719 0.0801,0.0772 m -0.0801,-0.0772 a 8.7694448,8.7694448 0 0 0 -17.53225,0.48246 m -6.07027,6.30019 6.07027,-6.30019 m -6.07027,6.30019 a 8.7694448,8.7694448 0 0 0 -0.0144,17.53789 m 0,0 a 994.60093,994.60093 0 0 0 118.66909,104.64458 m 0,0 a 8.7694448,8.7694448 0 1 0 17.15248,-3.20988 m 4.22836,-7.90938 -4.22836,7.90938 m 4.22836,-7.90938 a 8.7694448,8.7694448 0 0 0 -5.08972,-16.7834 m 14.98356,-28.02713 -14.98356,28.02713 m 44.66962,-12.1574 -29.68606,-15.86973 m 39.06002,20.88136 -9.37396,-5.01163 m 18.74792,10.02326 -9.37396,-5.01163 m 39.06016,20.88163 -29.6862,-15.87 m 14.65145,43.99285 15.03475,-28.12285 m -15.13285,28.07042 0.0981,0.0524 m -0.0981,-0.0524 a 8.7694448,8.7694448 0 0 0 -16.73793,5.23964 m -4.12471,7.7154 4.12471,-7.7154 m -4.12471,7.7154 a 8.7694448,8.7694448 0 1 0 7.02161,15.91045 m 0,0 a 244.61153,244.61153 0 0 0 153.74708,0.94568 m 0,0 a 8.7694448,8.7694448 0 1 0 7.60753,-15.65027 m -4.03895,-8.00775 4.03895,8.00775 m -4.03895,-8.00775 a 8.7694448,8.7694448 0 0 0 -16.65743,-5.488 m -14.31201,-28.37593 14.31201,28.37593 m 15.7429,-43.53548 -30.05491,15.15955 m 39.54572,-19.94622 -9.49081,4.78667 m 18.98161,-9.57335 -9.4908,4.78668 m 39.54602,-19.94619 -30.05522,15.15951 m 44.41611,13.31333 -14.36089,-28.47284 m 14.26159,28.52294 0.0993,-0.0501 m -0.0993,0.0501 a 8.7694448,8.7694448 0 0 0 -5.33906,16.70649 m 3.93995,7.81067 -3.93995,-7.81067 m 3.93995,7.81067 a 8.7694448,8.7694448 0 1 0 17.00401,3.92189 m 0,0 a 1131.2618,1131.2618 0 0 0 122.825,-99.54709 m 0,0 a 8.7694448,8.7694448 0 0 0 0.9893,-17.51052 m -5.9858,-6.67893 5.9858,6.67893 m -5.9858,-6.67893 a 8.7694448,8.7694448 0 0 0 -17.512,-0.95868 m -21.2105,-23.66724 21.2105,23.66724 m 3.8569,-46.13353 -25.0674,22.46629 m 32.9834,-29.56031 -7.916,7.09402 m 15.8319,-14.18805 -7.9159,7.09403 m 32.9836,-29.56034 -25.0677,22.46631 m 46.3508,1.28175 -21.2831,-23.74806 m 21.2002,23.82231 0.083,-0.0742 m -0.083,0.0742 a 8.7694448,8.7694448 0 0 0 -0.8022,17.52053 m 5.8389,6.51517 -5.8389,-6.51517 m 5.8389,6.51517 a 8.7694448,8.7694448 0 0 0 17.4958,1.2245 M 1322.9869,322.24639 A 2718.1817,2718.1817 0 0 0 1200.4485,424.8364 m 122.5384,-102.59001 a 8.7694448,8.7694448 0 0 0 2.1523,-17.40095 m -5.403,-7.15854 5.403,7.15854 m -5.403,-7.15854 a 8.7694448,8.7694448 0 0 0 -17.3694,-2.42763 m -19.1456,-25.36675 19.1456,25.36675 m 7.722,-45.64591 -26.8676,20.27916 m 35.3519,-26.68252 -8.4843,6.40336 m 16.9687,-12.80672 -8.4844,6.40336 m 35.3523,-26.68254 -26.8679,20.27918 m 46.0789,5.17421 -19.211,-25.45339 m 19.1222,25.52041 0.089,-0.067 m -0.089,0.067 a 8.7694448,8.7694448 0 0 0 -2.2725,17.39104 m 5.2705,6.98302 -5.2705,-6.98302 m 5.2705,6.98302 a 8.7694448,8.7694448 0 0 0 17.2911,2.91774 m 133.2392,-88.50605 a 2124.3629,2124.3629 0 0 0 -133.2392,88.50605 m 133.2392,-88.50605 a 8.7694448,8.7694448 0 0 0 4.153,-17.03485 m -4.5416,-7.73371 4.5416,7.73371 m -4.5416,-7.73371 a 8.7694448,8.7694448 0 0 0 -16.9737,-4.41395 m -16.0934,-27.40488 16.0934,27.40488 m 12.9329,-44.45128 -29.0263,17.0464 m 38.1924,-22.42891 -9.1661,5.38251 m 18.3321,-10.765011 -9.166,5.382501 m 38.1927,-22.428872 -29.0267,17.046371 m 45.1751,10.452111 -16.1484,-27.498482 m 16.0525,27.554822 0.096,-0.0563 m -0.096,0.0563 a 8.7694448,8.7694448 0 0 0 -4.2623,17.01308 m 4.4302,7.54409 -4.4302,-7.54409 m 4.4302,7.54409 a 8.7694448,8.7694448 0 0 0 16.8455,4.87233 M 1744.63,62.946525 A 2476.1846,2476.1846 0 0 0 1602.5712,136.37277 M 1744.63,62.946525 a 8.7694448,8.7694448 0 0 0 5.8847,-16.518052 m -3.7466,-8.148637 3.7466,8.148637 m -3.7466,-8.148637 a 8.7694448,8.7694448 0 0 0 -16.448,-6.087102 m -13.2759,-28.8751771 13.2759,28.8751771 m 17.3078,-42.937367 -30.5837,14.0621899 m 40.2415,-18.5023469 -9.6578,4.440157 m 19.3156,-8.880304 -9.6578,4.440147 m 40.2418,-18.502287 -30.584,14.06214 m 43.9053,14.911647 -13.3213,-28.973787 m 13.2202,29.0202669 0.1011,-0.04648 m -0.1011,0.04648 a 8.7694448,8.7694448 0 0 0 -5.9401,16.5023321 m 3.6546,7.948838 -3.6546,-7.948838 m 3.6546,7.948838 a 8.7694448,8.7694448 0 0 0 16.2955,6.480681 m 82.4565,-34.7056403 -82.4565,34.7056403 m 148.9393,-57.117736 -66.4828,22.4120957 m 66.4828,-22.4120957 a 8.7694448,8.7694448 0 1 0 7.7281,-15.744485 m -2.9828,-8.458115 2.9828,8.458115 m -2.9828,-8.458115 a 8.7694448,8.7694448 0 0 0 -15.8199,-7.571039 m -10.5697,-29.971793 10.5697,29.971793 m 21.1756,-41.167596 -31.7453,11.195803 m 41.7699,-14.730793 -10.0246,3.53499 m 20.0491,-7.06998 -10.0245,3.53499 m 41.7701,-14.7307 -31.7456,11.19571 m 42.3514,18.878441 -10.6058,-30.074151 m 10.5009,30.111161 0.1049,-0.03701 m -0.1049,0.03701 a 8.7694448,8.7694448 0 0 0 -7.4297,15.887474 m 2.9097,8.250716 -2.9097,-8.250716 m 2.9097,8.250716 a 8.7694448,8.7694448 0 1 0 15.8252,7.559609 m 0,0 a 1335.194,1335.194 0 0 0 146.2014,-61.86661 m 0,0 a 8.7694448,8.7694448 0 1 0 5.3337,-16.69379 m -4.4925,-7.76243 4.4925,7.76243 m -4.4925,-7.76243 a 8.7694448,8.7694448 0 0 0 -16.9452,-4.52178 m -15.9189,-27.50665 15.9189,27.50665 m 13.2153,-44.36815 -29.1342,16.8615 m 38.3342,-22.18563 -9.2,5.32413 m 18.4001,-10.64825 -9.2001,5.32412 m 38.3346,-22.1856 -29.1345,16.86148 m 45.1077,10.73911 -15.9732,-27.60059 m 15.877,27.65632 0.096,-0.0557 m -0.096,0.0557 a 8.7694471,8.7694471 0 0 0 -4.3704,16.98565 m 4.3822,7.5721 -4.3822,-7.5721 m 4.3822,7.5721 a 8.7694448,8.7694448 0 1 0 17.0861,3.87426 m 0,0 a 910.81346,910.81346 0 0 0 123.9761,-98.61226 m 0,0 a 8.7694448,8.7694448 0 1 0 0.5137,-17.52773 m -6.3413,-6.34228 6.3413,6.34228 m -6.3413,-6.34228 a 8.7694448,8.7694448 0 0 0 -17.5382,-10e-4 m -22.4707,-22.47485 22.4707,22.47435 m 1.3333,-46.27526 -23.804,23.80091 m 31.3209,-31.3164 -7.5169,7.51549 m 15.0339,-15.03097 -7.517,7.51548 m 31.3212,-31.31645 -23.8042,23.80097 m 46.3516,-1.24987 -22.5474,-22.5511 m 22.4688,22.62976 0.079,-0.0787 m -0.079,0.0787 a 8.7694448,8.7694448 0 0 0 0.1552,17.5382 m 6.1858,6.18679 -6.1858,-6.18679 m 6.1858,6.18679 a 8.7694448,8.7694448 0 1 0 17.5333,-0.22513 m 103.187,-115.68499 -103.187,115.68499 m 106.972,-123.2512 -3.785,7.56621 m 3.785,-7.56621 a 8.7694448,8.7694448 0 0 0 -3.5765,-16.33131 m -5.7967,-6.84362 5.7967,6.84362 m -5.7967,-6.84362 a 8.7694448,8.7694448 0 0 0 -17.4783,-1.44778 m -20.5408,-24.25083 20.5408,24.25083 m 5.1448,-46.00769 -25.6856,21.75686 m 33.7967,-28.62686 -8.1111,6.87 m 16.2223,-13.74 -8.1112,6.87 m 33.7971,-28.62689 -25.6859,21.75689 m 46.2968,2.57677 -20.6109,-24.33366 m 20.526,24.40556 0.085,-0.0719 m -0.085,0.0719 a 8.7694479,8.7694479 0 1 0 -1.2916,17.49127 m 5.6545,6.67582 -5.6545,-6.67582 m 5.6545,6.67582 a 8.7694448,8.7694448 0 0 0 16.7895,4.26381 m 0,0 a 2274.6212,2274.6212 0 0 0 138.5507,-81.14147 m 0,0 a 8.7694448,8.7694448 0 1 0 3.2291,-17.22118 m -5.4541,-7.1197 5.4541,7.1197 m -5.4541,-7.1197 a 8.7694448,8.7694448 0 0 0 -17.3863,-2.30328 m -19.3266,-25.2291 19.3266,25.2291 m 7.3951,-45.69999 -26.7217,20.47089 m 35.1601,-26.9348 -8.4384,6.46391 m 16.8767,-12.92781 -8.4383,6.4639 m 35.1604,-26.93481 -26.7221,20.47091 m 46.1147,4.84435 -19.3926,-25.31526 m 19.3043,25.38291 0.088,-0.0676 m -0.088,0.0676 a 8.7694448,8.7694448 0 0 0 -2.1479,17.40686 m 5.3203,6.94513 -5.3203,-6.94513 m 5.3203,6.94513 a 8.7694448,8.7694448 0 1 0 17.4465,1.54964 m 0,0 a 721.09781,721.09781 0 0 0 107.0688,-116.17767 m 0,0 a 8.7694448,8.7694448 0 1 0 -2.7084,-17.31425 m -7.4957,-4.92453 7.4957,4.92453 m -7.4957,-4.92453 a 8.7694448,8.7694448 0 0 0 -17.1741,3.55515 m -26.5614,-17.45047 26.5614,17.45047 m -8.0787,-45.58411 -18.4827,28.13364 m 24.3194,-37.01736 -5.8367,8.88372 m 11.6734,-17.76743 -5.8367,8.88371 m 24.3197,-37.01746 -18.483,28.13375 m 45.1351,-10.62367 -26.6521,-17.51008 m 26.591,17.60305 0.061,-0.093 m -0.061,0.093 a 8.7694477,8.7694477 0 1 0 3.7086,17.14232 m 7.3118,4.80368 -7.3118,-4.80368 m 7.3118,4.80368 a 8.7694448,8.7694448 0 1 0 17.0372,-4.10255 m 45.2363,-86.41362 -45.2363,86.41362 m -1838.872,1420.40529 0.079,0.078 m 175.5929,175.05003 0.079,0.0781 m 178.8284,171.10079 0.08,0.0772 m 189.2342,142.79158 0.098,0.052 m 387.6387,-194.35404 0.083,-0.0743 m 632.7487,-404.16871 0.101,-0.0465 m 805.1966,-528.605793 0.085,-0.0719 m -2040.8412,607.681483 0,0.002 m 0,-9e-4 0,-10e-4 M 98.86972,398.38438 a 11.515717,11.515717 0 1 0 6.94573,8.18627 m 1.34775,-1.36954 -1.34775,1.36954 m 1.34775,-1.36954 a 11.515717,11.515717 0 0 0 4.77372,-22.53088 m 19.84872,-20.16938 -19.84872,20.16938 m 43.84142,3.44123 -23.9927,-23.61061 m 31.56874,31.06655 -7.57604,-7.45594 m 15.15209,14.91187 -7.57605,-7.45593 m 31.56881,31.06684 -23.99276,-23.61091 m 4.01775,43.90807 19.97501,-20.29716 m -19.97501,20.29716 a 11.515717,11.515717 0 1 0 -22.45165,5.13351 m -1.25032,1.27051 1.25032,-1.27051 m -1.25032,1.27051 a 11.515717,11.515717 0 1 0 -0.001,22.50438 m 23.77624,23.59268 -23.77664,-23.59268 m 23.80124,48.6976 a 17.716489,17.716489 0 0 0 -0.0246,-25.10492 m -41.53735,66.58759 41.56195,-41.48267 m -41.56195,41.48267 a 11.515717,11.515717 0 1 0 0.39807,22.60593 m 21.80225,21.84391 -21.80225,-21.84391 m 21.80225,21.84391 a 11.515717,11.515717 0 1 0 22.52405,0.0215 m 41.3927,-41.31375 -41.3927,41.31375 m 66.48731,-41.24826 a 17.716489,17.716489 0 0 0 -25.09461,-0.0655 m 39.42499,14.49052 -14.33038,-14.42502 m 14.33038,14.42502 a 11.515717,11.515717 0 1 0 22.49025,-0.017 m 1.34872,-1.3686 -1.34872,1.36856 m 1.34872,-1.36856 a 11.515717,11.515717 0 0 0 4.7898,-22.52749 m 19.86309,-20.15521 -19.86309,20.15521 m 43.83895,3.4725 -23.97586,-23.62771 m 31.54659,31.08906 -7.57073,-7.46135 m 15.14146,14.92269 -7.57073,-7.46134 m 31.54664,31.08935 -23.97591,-23.62801 m 3.98642,43.91091 19.98949,-20.2829 m -19.98949,20.2829 a 11.515717,11.515717 0 1 0 -22.45531,5.1175 m -1.25123,1.26963 1.25123,-1.26963 m -1.25123,1.26963 a 11.515717,11.515717 0 1 0 0.0772,22.48342 m 87.51875,85.43685 -87.51873,-85.43685 m 110.38551,105.4792 -22.86678,-20.04235 m 22.86678,20.04235 a 11.515717,11.515717 0 1 0 22.59004,-0.8262 m 1.3332,-1.38371 -1.3332,1.38371 m 1.3332,-1.38371 a 11.515717,11.515717 0 0 0 4.5352,-22.5801 m 19.63433,-20.37814 -19.63433,20.37814 m 43.87536,2.97743 -24.24103,-23.35557 m 31.8955,30.73098 -7.65447,-7.37541 m 15.30894,14.75083 -7.65447,-7.37542 m 31.89556,30.73128 -24.24109,-23.35586 m 4.48182,43.86311 19.75927,-20.50725 m -19.75927,20.50725 a 11.515717,11.515717 0 1 0 -22.39611,5.37065 m -1.23682,1.28365 1.23682,-1.28365 m -1.23682,1.28365 a 11.515717,11.515717 0 1 0 0.0987,22.5338 m -4e-5,0 a 995.71658,995.71658 0 0 0 113.42138,100.22367 m 0,0 a 11.515717,11.515717 0 1 0 21.53188,-4.3847 m 0.90589,-1.69451 -0.90589,1.69451 m 0.90589,-1.69451 a 11.515717,11.515717 0 0 0 -1.78664,-22.96166 m 13.34138,-24.95561 -13.34138,24.95561 m 43.02743,-9.08589 -29.68605,-15.86972 m 39.06001,20.88136 -9.37396,-5.01164 m 18.74792,10.02326 -9.37396,-5.01162 m 39.06015,20.88162 -29.68619,-15.87 m 16.25978,40.98389 13.42641,-25.11389 m -13.42641,25.11389 a 11.515717,11.515717 0 1 0 -20.08646,11.26782 m -0.84041,1.57201 0.84041,-1.57201 m -0.84041,1.57201 a 11.515717,11.515717 0 1 0 8.52716,20.05015 m 0,0 a 245.05178,245.05178 0 0 0 147.43259,0.86056 m 0,0 a 11.515717,11.515717 0 1 0 9.18709,-19.77986 m -0.86532,-1.71559 0.86532,1.71559 m -0.86532,-1.71559 a 11.515717,11.515717 0 0 0 -19.81226,-11.74325 m -12.74364,-25.26609 12.74364,25.26609 m 17.31129,-40.42564 -30.05493,15.15955 m 39.54573,-19.94623 -9.4908,4.78668 m 18.9816,-9.57334 -9.4908,4.78666 m 39.54602,-19.94618 -30.05522,15.15952 m 42.87943,10.26716 -12.82421,-25.42668 m 12.82421,25.42668 a 11.515717,11.515717 0 1 0 -2.33302,22.91258 m 0.80267,1.59125 -0.80267,-1.59125 m 0.80267,1.59125 a 11.515717,11.515717 0 1 0 21.36394,5.17331 m 0,0 a 1137.6227,1137.6227 0 0 0 117.40462,-95.34506 m 0,0 a 11.515717,11.515717 0 1 0 1.2662,-22.47894 m -1.2824,-1.43091 1.2824,1.43091 m -1.2824,-1.43091 a 11.515717,11.515717 0 0 0 -22.1876,-6.17598 m -18.8861,-21.0734 18.8861,21.0734 m 6.1813,-43.53968 -25.0674,22.46628 m 32.9834,-29.56031 -7.916,7.09403 m 15.8319,-14.18805 -7.9159,7.09402 m 32.9837,-29.56035 -25.0678,22.46633 m 44.0735,-1.25887 -19.0057,-21.20746 m 19.0057,21.20746 a 11.515717,11.515717 0 1 0 3.7168,22.72918 m 1.1897,1.32746 -1.1897,-1.32746 m 1.1897,1.32746 a 11.515717,11.515717 0 1 0 22.4706,1.48157 m 117.0948,-98.05872 -117.0948,98.05872 m 117.0948,-98.05872 a 11.515717,11.515717 0 1 0 2.8225,-22.40843 m -1.1576,-1.53365 1.1576,1.53365 m -1.1576,-1.53365 a 11.515717,11.515717 0 0 0 -21.5897,-8.01956 m -17.0475,-22.58666 17.0475,22.58666 m 9.8201,-42.86583 -26.8676,20.27917 m 35.3519,-26.68253 -8.4843,6.40336 m 16.9687,-12.80672 -8.4844,6.40336 m 35.3523,-26.68253 -26.8679,20.27917 m 44.0233,2.45112 -17.1554,-22.73029 m 17.1554,22.73029 a 11.515717,11.515717 0 1 0 1.7926,22.9612 m 1.0739,1.42278 -1.0739,-1.42278 m 1.0739,1.42278 a 11.515717,11.515717 0 1 0 22.2792,3.62034 m 127.3219,-84.57284 a 2123.9771,2123.9771 0 0 0 -127.3219,84.57284 m 127.3219,-84.57284 a 11.515717,11.515717 0 1 0 5.3958,-21.92953 m -0.973,-1.65689 0.973,1.65689 m -0.973,-1.65689 a 11.515717,11.515717 0 0 0 -20.5212,-10.45514 m -14.3298,-24.40146 14.3298,24.40146 m 14.6965,-41.44785 -29.0263,17.04639 m 38.1924,-22.4289 -9.1661,5.38251 m 18.3321,-10.76502 -9.166,5.38251 m 38.1927,-22.42888 -29.0267,17.04637 m 43.4472,7.51021 -14.4205,-24.55658 m 14.4205,24.55658 a 11.515717,11.515717 0 1 0 -0.8665,23.01476 m 0.9026,1.5371 -0.9026,-1.5371 m 0.9026,1.5371 a 11.515717,11.515717 0 1 0 21.7151,6.14162 m 22.7815,-12.53358 -22.7815,12.53358 m 46.9741,-5.09961 a 17.716489,17.716489 0 0 0 -24.1926,-7.43397 m 51.1631,59.59528 -26.9705,-52.16131 m 26.9705,52.16131 a 11.515717,11.515717 0 1 0 21.6677,6.45732 m 27.4146,-14.175 -27.4146,14.175 m 27.4146,-14.175 a 11.515717,11.515717 0 1 0 6.8325,-21.46278 m -26.8606,-51.94889 26.8606,51.94889 m -18.9462,-75.97937 a 17.716489,17.716489 0 0 0 -7.9144,24.03048 m 32.756,-36.09453 -24.8416,12.06405 m 24.8416,-12.06405 a 11.515717,11.515717 0 1 0 7.6106,-21.24996 m -0.8027,-1.74578 0.8027,1.74578 m -0.8027,-1.74578 a 11.515717,11.515717 0 0 0 -19.3744,-12.45239 m -11.8211,-25.71063 11.8211,25.71063 m 18.7626,-39.77283 -30.5837,14.0622 m 40.2415,-18.50234 -9.6578,4.44014 m 19.3156,-8.88029 -9.6578,4.44015 m 40.2418,-18.5023 -30.584,14.06215 m 42.4799,11.81187 -11.8959,-25.87402 m 11.8959,25.87402 a 11.515717,11.515717 0 1 0 -3.1608,22.81314 m 0.7446,1.61957 -0.7446,-1.61957 m 0.7446,1.61957 a 11.515717,11.515717 0 1 0 21.0035,8.22019 m 79.2035,-33.28043 -79.2035,33.28043 m 142.3694,-54.56314 -63.1659,21.28271 m 63.1659,-21.28271 a 11.515717,11.515717 0 1 0 9.8729,-20.1976 m -0.6391,-1.81209 0.6391,1.81209 m -0.6391,-1.81209 a 11.515717,11.515717 0 0 0 -18.1497,-14.17807 m -9.4115,-26.68706 9.4115,26.68706 m 22.3338,-37.88286 -31.7453,11.1958 m 41.7699,-14.73079 -10.0246,3.53499 m 20.0491,-7.06999 -10.0245,3.535 m 41.7701,-14.73072 -31.7456,11.19572 m 41.2165,15.66093 -9.4709,-26.85665 m 9.4709,26.85665 a 11.515717,11.515717 0 1 0 -5.2413,22.42674 m 0.5929,1.68109 -0.5929,-1.68109 m 0.5929,1.68109 a 11.515717,11.515717 0 1 0 20.2769,9.63644 m 0,0 a 1335.9675,1335.9675 0 0 0 139.8393,-59.10946 m 0,0 a 11.515717,11.515717 0 1 0 6.6371,-21.29324 m -0.9625,-1.66304 0.9625,1.66304 m -0.9625,-1.66304 a 11.515717,11.515717 0 0 0 -20.4543,-10.5854 m -14.1744,-24.49206 14.1744,24.49206 m 14.9598,-41.35358 -29.1342,16.86152 m 38.3343,-22.18564 -9.2001,5.32412 m 18.4001,-10.64824 -9.2,5.32412 m 38.3345,-22.1856 -29.1345,16.86148 m 43.3986,7.78628 -14.2641,-24.64776 m 14.2641,24.64776 a 11.515717,11.515717 0 1 0 -1.0129,23.00878 m 0.8929,1.54281 -0.8929,-1.54281 m 0.8929,1.54281 a 11.515717,11.515717 0 1 0 21.7078,4.99743 m 0,0 a 910.32066,910.32066 0 0 0 118.5578,-94.353342 m 0,0 a 11.515717,11.515717 0 1 0 0.5631,-22.387366 m -1.3586,-1.358786 1.3586,1.358786 m -1.3586,-1.358786 a 11.515717,11.515717 0 0 0 -22.4915,-4.955835 m -20.0082,-20.011233 20.0082,20.011233 m 3.7958,-43.8121545 -23.804,23.8009215 m 31.3209,-31.3163999 -7.5169,7.5154784 m 15.0339,-15.0309668 -7.517,7.5154884 m 31.3213,-31.3164601 -23.8043,23.8009717 m 43.9392,-3.6624097 -20.1349,-20.138562 m 20.1349,20.138562 a 11.515717,11.515717 0 1 0 4.9517,22.492446 m 1.2603,1.260566 -1.2603,-1.260566 m 1.2603,1.260566 a 11.515717,11.515717 0 1 0 22.3946,-0.288209 M 2497.7229,-101.44837 2396.9344,11.710353 m 102.6042,-117.064373 -1.8157,3.90565 m 1.8157,-3.90565 a 11.515717,11.515717 0 0 0 -3.8851,-22.68116 m -1.2419,-1.46619 1.2419,1.46619 m -1.2419,-1.46619 a 11.515717,11.515717 0 0 0 -22.0062,-6.79372 m -18.2898,-21.59305 18.2898,21.59305 m 7.3958,-43.34991 -25.6856,21.75686 m 33.7967,-28.62686 -8.1111,6.87 m 16.2223,-13.73999 -8.1112,6.86999 m 33.7971,-28.62688 -25.6859,21.75689 m 44.0915,-0.0265 -18.4056,-21.73039 m 18.4056,21.73039 a 11.515717,11.515717 0 1 0 3.08,22.82419 m 1.1521,1.36019 -1.1521,-1.36019 m 1.1521,1.36019 a 11.515717,11.515717 0 1 0 22.4044,4.9378 m 0,0 a 2179.5184,2179.5184 0 0 0 132.3383,-77.24886 m 0,0 a 11.515717,11.515717 0 1 0 3.9345,-21.92767 m -1.1685,-1.52534 1.1685,1.52534 m -1.1685,-1.52534 a 11.515717,11.515717 0 0 0 -21.6465,-7.86487 m -17.2087,-22.46409 17.2087,22.46409 m 9.5131,-42.935 -26.7218,20.47091 m 35.1601,-26.93481 -8.4383,6.4639 m 16.8766,-12.92781 -8.4383,6.46391 m 35.1604,-26.93481 -26.7221,20.4709 m 44.0397,2.13607 -17.3176,-22.60697 m 17.3176,22.60697 a 11.515717,11.515717 0 1 0 1.9569,22.94777 m 1.084,1.41507 -1.084,-1.41507 m 1.084,1.41507 a 11.515717,11.515717 0 1 0 22.153,2.05709 m 0,0 a 720.84399,720.84399 0 0 0 102.4266,-111.16169 m 0,0 a 11.515717,11.515717 0 1 0 -3.6,-22.00774 m -1.6059,-1.05503 1.6059,1.05503 m -1.6059,-1.05503 a 11.515717,11.515717 0 0 0 -23.0292,-0.29174 m -23.6506,-15.53794 23.6506,15.53794 m -5.1679,-43.67157 -18.4827,28.13363 m 24.3194,-37.01734 -5.8367,8.88371 m 11.6734,-17.76743 -5.8367,8.88372 m 24.3197,-37.01747 -18.483,28.13375 m 42.2835,-12.49684 -23.8005,-15.63691 m 23.8005,15.63691 a 11.515717,11.515717 0 1 0 9.4101,21.0209 m 1.4898,0.97874 -1.4898,-0.97874 m 1.4898,0.97874 a 11.515717,11.515717 0 1 0 21.6958,-5.16871 m 43.4887,-83.43495 -43.4887,83.43495"
       inkscape:connector-curvature="0" />
  </g>
</svg>
