<?xml version="1.0" encoding="UTF-8" standalone="no"?>
<svg
   xmlns:dc="http://purl.org/dc/elements/1.1/"
   xmlns:cc="http://creativecommons.org/ns#"
   xmlns:rdf="http://www.w3.org/1999/02/22-rdf-syntax-ns#"
   xmlns:svg="http://www.w3.org/2000/svg"
   xmlns="http://www.w3.org/2000/svg"
   xmlns:sodipodi="http://sodipodi.sourceforge.net/DTD/sodipodi-0.dtd"
   xmlns:inkscape="http://www.inkscape.org/namespaces/inkscape"
   width="5242.2061"
   height="2120.634"
   id="svg2"
   version="1.1"
   inkscape:version="0.91 r13725"
   sodipodi:docname="5.svg">
  <metadata
     id="metadata1990">
    <rdf:RDF>
      <cc:Work
         rdf:about="">
        <dc:format>image/svg+xml</dc:format>
        <dc:type
           rdf:resource="http://purl.org/dc/dcmitype/StillImage" />
        <dc:title></dc:title>
      </cc:Work>
    </rdf:RDF>
  </metadata>
  <sodipodi:namedview
     pagecolor="#ffffff"
     bordercolor="#666666"
     borderopacity="1"
     objecttolerance="10"
     gridtolerance="10"
     guidetolerance="10"
     inkscape:pageopacity="0"
     inkscape:pageshadow="2"
     inkscape:window-width="1920"
     inkscape:window-height="1012"
     id="namedview1988"
     showgrid="false"
     fit-margin-top="0"
     fit-margin-left="0"
     fit-margin-right="0"
     fit-margin-bottom="0"
     inkscape:zoom="0.63429569"
     inkscape:cx="156.85188"
     inkscape:cy="100.66277"
     inkscape:window-x="0"
     inkscape:window-y="0"
     inkscape:window-maximized="1"
     inkscape:current-layer="g22" />
  <desc
     id="desc4">/home/data/chair/5.dxf - scale = 1.000000, origin = (0.000000, 0.000000), auto = False</desc>
  <defs
     id="defs6">
    <marker
       id="DistanceX"
       orient="auto"
       refX="0"
       refY="0"
       style="overflow:visible">
      <path
         d="M 3,-3 -3,3 M 0,-5 0,5"
         style="stroke:#000000;stroke-width:0.5"
         id="path9"
         inkscape:connector-curvature="0" />
    </marker>
    <pattern
       height="8"
       id="Hatch"
       patternUnits="userSpaceOnUse"
       width="8"
       x="0"
       y="0">
      <path
         d="M8 4 l-4,4"
         linecap="square"
         stroke="#000000"
         stroke-width="0.25"
         id="path12" />
      <path
         d="M6 2 l-4,4"
         linecap="square"
         stroke="#000000"
         stroke-width="0.25"
         id="path14" />
      <path
         d="M4 0 l-4,4"
         linecap="square"
         stroke="#000000"
         stroke-width="0.25"
         id="path16" />
    </pattern>
    <symbol
       id="$MODEL_SPACE" />
    <symbol
       id="$PAPER_SPACE" />
  </defs>
  <g
     inkscape:groupmode="layer"
     inkscape:label="0"
     id="g20"
     transform="translate(13.142478,815.02649)" />
  <g
     inkscape:groupmode="layer"
     inkscape:label="DEFAULT"
     id="g22"
     transform="translate(13.142478,815.02649)">
    <g
       id="g6124"
       transform="matrix(10.000008,0,0,10.000008,2278.1601,-11845.072)"
       style="stroke:#00ff00;stroke-opacity:1">
      <path
         id="path142"
         style="fill:none;stroke:#00ff00;stroke-opacity:1"
         d="m 95.669291,1297.3693 a 0.885827,0.885827 0 0 0 1.252749,1.2527 m 3.76616,0 -3.76616,0 m 3.76616,0 a 0.885827,0.885827 0 0 0 1.25275,-1.2527 m 0,-5.8339 0,5.8339 m 1.77165,-7.6055 a 1.771654,1.771654 0 0 0 -1.77165,1.7716 m 7.90157,-1.7716 -6.12992,0 m 9.67323,3.5433 a 3.543307,3.543307 0 0 0 -3.54331,-3.5433 m 3.54331,17.7165 0,-14.1732 m -7.08662,21.2598 a 7.086614,7.086614 0 0 0 7.08662,-7.0866 m -205.511814,7.0866 198.425194,0 m -205.511808,-7.0866 a 7.086614,7.086614 0 0 0 7.086614,7.0866 m -7.086614,-21.2598 0,14.1732 m 3.543307,-17.7165 a 3.543307,3.543307 0 0 0 -3.543307,3.5433 m 9.673228,-3.5433 -6.129921,0 m 7.901574,1.7716 a 1.771654,1.771654 0 0 0 -1.771653,-1.7716 m 1.771653,7.6055 0,-5.8339 m 0,5.8339 a 0.885827,0.885827 0 0 0 1.252749,1.2527 m 3.766157,0 -3.766157,0 m 3.766157,0 a 0.885827,0.885827 0 1 0 1.252748,-1.2527 m 0,-5.8339 0,5.8339 m 1.771654,-7.6055 a 1.771654,1.771654 0 0 0 -1.771654,1.7716 m 175.393701,-1.7716 -173.622047,0 m 175.3937,1.7716 a 1.771654,1.771654 0 0 0 -1.771653,-1.7716 m 1.771653,7.6055 0,-5.8339"
         inkscape:connector-curvature="0" />
    </g>
    <g
       id="g6150"
       transform="matrix(9.9020932,1.3959635,-1.3959635,9.9020932,1250.1334,-11518.294)"
       style="stroke:#00ff00;stroke-opacity:1">
      <path
         id="path1650"
         style="fill:none;stroke:#00ff00;stroke-opacity:1"
         d="m 301.72924,1166.267 -0.11167,-0.1249 m 0.22703,0.2475 -0.11536,-0.1226 m 0.23435,0.2428 -0.11899,-0.1202 m 0.24152,0.2379 -0.12253,-0.1177 m 0.24854,0.2326 -0.12601,-0.1149 m 0.2554,0.227 -0.12939,-0.1121 m 0.26208,0.2212 -0.13269,-0.1091 m 0.26856,0.215 -0.13587,-0.1059 m 0.27482,0.2086 -0.13895,-0.1027 m 0.28086,0.2019 -0.14191,-0.099 m 0.28665,0.1947 -0.14474,-0.096 m 0.29217,0.1881 -0.14743,-0.092 m 0.29743,0.1803 -0.15,-0.088 m 0.30242,0.1724 -0.15242,-0.084 m 0.30709,0.1645 -0.15467,-0.08 m 0.31146,0.1564 -0.15679,-0.076 m 0.31553,0.1483 -0.15874,-0.072 m 0.31926,0.1401 -0.16052,-0.068 m 0.32265,0.1318 -0.16213,-0.064 m 0.32571,0.1235 -0.16358,-0.06 m 0.32843,0.1151 -0.16485,-0.055 m 0.3308,0.1057 -0.16595,-0.051 m 0.33283,0.097 -0.16688,-0.046 m 0.3345,0.088 -0.16762,-0.042 m 0.33581,0.079 -0.16819,-0.037 m 0.33677,0.07 -0.16858,-0.033 m 0.33739,0.062 -0.16881,-0.028 m 0.33766,0.052 -0.16885,-0.024 m 0.33759,0.044 -0.16874,-0.02 m 0.33718,0.035 -0.16844,-0.015 m 0.33644,0.026 -0.168,-0.011 m 0.33539,0.018 -0.16739,-0.01 m 0.33489,0.012 -0.1675,0 m 0.33584,0 -0.16834,0 m 0.33737,-0.01 -0.16903,0.01 m 0.33858,-0.02 -0.16955,0.01 m 0.33946,-0.025 -0.16991,0.015 m 0.34002,-0.034 -0.17011,0.019 m 0.34023,-0.043 -0.17012,0.024 m 0.34009,-0.052 -0.16997,0.028 m 0.33962,-0.061 -0.16965,0.033 m 0.33879,-0.07 -0.16914,0.037 m 0.3376,-0.079 -0.16846,0.042 m 0.33606,-0.088 -0.1676,0.046 m 0.33417,-0.096 -0.16657,0.05 m 0.33194,-0.1049 -0.16537,0.055 m 0.32935,-0.1143 -0.16398,0.059 m 0.32641,-0.1225 -0.16243,0.063 m 0.32313,-0.1308 -0.1607,0.068 m 0.31953,-0.14 -0.15883,0.072 m 0.3156,-0.148 -0.15677,0.076 m 0.31135,-0.156 -0.15458,0.08 m 0.3068,-0.1639 -0.15222,0.084 m 0.30195,-0.1718 -0.14973,0.088 m 0.29682,-0.1794 -0.14709,0.091 m 0.29141,-0.1859 -0.14432,0.095 m 0.28575,-0.1934 -0.14143,0.098 m 0.27985,-0.1997 -0.13842,0.1017 m 0.27371,-0.2066 -0.13529,0.1049 m 0.26736,-0.2128 -0.13207,0.1079 m 0.26081,-0.2187 -0.12874,0.1108 m 0.25408,-0.2244 -0.12534,0.1136 m 0.24719,-0.2298 -0.12185,0.1162 m 0.24015,-0.2348 -0.1183,0.1186 m 0.23349,-0.2403 -0.11519,0.1217 m 0.2273,-0.2476 -0.11211,0.1259 m 0.16681,-0.1906 -0.0547,0.065 m 0.10837,-0.131 -0.0537,0.066 m 0.10625,-0.1335 -0.0525,0.067 m 0.10387,-0.1359 -0.0514,0.069 m 0.10147,-0.1394 -0.0501,0.07 m 0.0988,-0.1421 -0.0487,0.072 m 0.096,-0.1458 -0.0473,0.074 m 0.093,-0.1497 -0.0457,0.076 m 0.0898,-0.1535 -0.0441,0.077 m 0.0865,-0.1565 -0.0424,0.08 m 0.083,-0.1615 -0.0406,0.082 m 0.0793,-0.1657 -0.0387,0.084 m 0.0754,-0.1699 -0.0367,0.086 m 0.0713,-0.1742 -0.0346,0.088 m 0.0671,-0.1785 -0.0325,0.091 m 0.0628,-0.184 -0.0303,0.093 m 0.0583,-0.1886 -0.028,0.096 m 0.0536,-0.1942 -0.0256,0.098 m 0.0487,-0.1988 -0.0231,0.1008 m 0.0437,-0.2044 -0.0206,0.1036 m 0.0386,-0.21 -0.018,0.1064 m 0.0333,-0.2158 -0.0152,0.1094 m 0.0277,-0.2217 -0.0125,0.1123 m 0.0221,-0.2277 -0.01,0.1154 m 0.0167,-0.2338 -0.007,0.1184 m 0.0107,-0.2401 -0.004,0.1217 m 0.005,-0.2466 -6.2e-4,0.1249 m -0.002,-0.2531 0.003,0.1282 m -0.009,-0.2598 0.006,0.1316 m -0.015,-0.2666 0.009,0.135 m -0.0213,-0.2735 0.0123,0.1385 m -0.028,-0.2805 0.0157,0.142 m -0.0349,-0.2876 0.0192,0.1456 m -0.0419,-0.2949 0.0227,0.1493 m -0.049,-0.3023 0.0263,0.153 m -0.0562,-0.3097 0.0299,0.1567 m -0.10081,-0.4816 0.0709,0.3249 m -0.15694,-0.6653 0.086,0.3404 m -0.18753,-0.6966 0.10153,0.3562 m -0.21888,-0.7286 0.11735,0.3724 m -0.25081,-0.7611 0.13346,0.3887 m -0.2833,-0.7939 0.14984,0.4052 m -0.31627,-0.8272 0.16643,0.422 m -0.34965,-0.8609 0.18322,0.4389 m -0.60057,-1.3675 0.41735,0.9286 m -0.90316,-1.9255 0.48581,0.9969 m -0.53749,-0.9067 0.0517,-0.09 m -0.10546,0.1765 0.0538,-0.086 m -0.10964,0.1689 0.0558,-0.083 m -0.11371,0.1621 0.0579,-0.079 m -0.11786,0.1545 0.06,-0.075 m -0.12203,0.1468 0.062,-0.072 m -0.12606,0.1402 0.0641,-0.068 m -0.13021,0.1326 0.0661,-0.065 m -0.13424,0.126 0.0681,-0.061 m -0.13826,0.1184 0.0702,-0.057 m -0.14237,0.1108 0.0722,-0.054 m -0.14638,0.1042 0.0742,-0.05 m -0.15038,0.097 0.0762,-0.047 m -0.15437,0.09 0.0782,-0.043 m -0.15836,0.083 0.0802,-0.04 m -0.16232,0.076 0.0821,-0.036 m -0.1662,0.069 0.0841,-0.033 m -0.17014,0.062 0.086,-0.029 m -0.174,0.055 0.088,-0.026 m -0.17794,0.048 0.0899,-0.022 m -0.18177,0.041 0.0919,-0.019 m -0.18568,0.034 0.0938,-0.015 m -0.18951,0.027 0.0957,-0.012 m -0.1933,0.021 0.0976,-0.01 m -0.19711,0.015 0.0995,-0.01 m -0.20088,0.012 0.10138,0 m -0.20465,0 0.10327,0 m -0.2084,0 0.10513,0 m -0.21212,-0.01 0.10699,0.01 m -0.21583,-0.021 0.10884,0.011 m -0.21951,-0.025 0.11067,0.014 m -0.22318,-0.032 0.11251,0.018 m -0.22683,-0.039 0.11432,0.021 m -0.23046,-0.045 0.11614,0.024 m -0.23407,-0.052 0.11793,0.027 m -0.23766,-0.058 0.11973,0.031 m -0.24123,-0.065 0.1215,0.034 m -0.24478,-0.071 0.12328,0.037 m -0.24831,-0.077 0.12503,0.04 m -0.25182,-0.083 0.12679,0.043 m -0.38556,-0.1386 0.25877,0.096 m -0.52442,-0.2037 0.26565,0.1077 m -0.53808,-0.2276 0.27243,0.1199 m -0.55157,-0.2516 0.27914,0.1317 m -0.5649,-0.2751 0.28576,0.1434 m -0.57804,-0.2985 0.29228,0.1551 m -0.591,-0.3216 0.29872,0.1665 m -0.60379,-0.3442 0.30507,0.1777 m -0.93389,-0.5664 0.62882,0.3887 m -1.28193,-0.8204 0.65311,0.4317 m -1.32974,-0.9052 0.67663,0.4735 m -1.37601,-0.9873 0.69938,0.5138 m -1.42072,-1.0666 0.72134,0.5528 m -1.46383,-1.1432 0.74249,0.5904 m -2.28763,-1.8777 1.54514,1.2873 m -3.16485,-2.7068 1.61971,1.4195 m -5.055,-4.6057 3.43529,3.1862 m -7.08357,-6.7495 3.64828,3.5633 m -19.16784,-19.4469 15.51956,15.8836 m -22.98983,-23.3004 7.47027,7.4168 m -10.93113,-10.635 3.46086,3.2182 m -5.09961,-4.6637 1.63875,1.4455 m -3.20817,-2.7674 1.56942,1.3219 m -2.19837,-1.7156 0.62895,0.3937 m -1.26409,-0.7697 0.63514,0.376 m -1.27634,-0.7344 0.6412,0.3584 m -1.28833,-0.6993 0.64713,0.3409 m -1.30005,-0.6646 0.65292,0.3237 m -1.3115,-0.6304 0.65858,0.3067 m -1.32266,-0.5965 0.66408,0.2898 m -1.33355,-0.5628 0.66947,0.273 m -1.34418,-0.5296 0.67471,0.2566 m -1.35453,-0.4968 0.67982,0.2402 m -1.3646,-0.4643 0.68478,0.2241 m -1.3744,-0.4322 0.68962,0.2081 m -1.38394,-0.4004 0.69432,0.1923 m -1.39319,-0.369 0.69887,0.1767 m -1.40217,-0.338 0.7033,0.1613 m -1.41089,-0.3073 0.70759,0.146 m -1.41932,-0.277 0.71173,0.131 m -1.42748,-0.2471 0.71575,0.1161 m -1.43538,-0.2175 0.71963,0.1014 m -1.443,-0.1883 0.72337,0.087 m -1.45034,-0.1595 0.72697,0.072 m -1.45741,-0.1304 0.73044,0.058 m -1.46422,-0.1024 0.73378,0.044 m -1.47074,-0.075 0.73696,0.031 m -1.47699,-0.048 0.74003,0.017 m -1.48298,-0.021 0.74295,0 m -2.23706,0.032 1.49411,-0.032 m -2.99827,0.1159 1.50416,-0.084 m -3.01727,0.218 1.51311,-0.134 m -3.03409,0.3166 1.52098,-0.1826 m -3.04873,0.4124 1.52775,-0.2298 m -3.06118,0.5053 1.53343,-0.2755 m -3.07144,0.5953 1.53801,-0.3198 m -3.07952,0.6823 1.54151,-0.3625 m -3.08542,0.7665 1.54391,-0.404 m -3.08913,0.8478 1.54522,-0.4438 m -3.09066,0.9261 1.54544,-0.4823 m -3.09,1.0016 1.54456,-0.5193 m -3.08716,1.0742 1.5426,-0.5549 m -3.08213,1.1438 1.53953,-0.5889 m -3.07491,1.2105 1.53538,-0.6216 m -3.06552,1.2744 1.53014,-0.6528 m -3.05394,1.3353 1.5238,-0.6825 m -4.54802,2.1309 3.02422,-1.4484 m -6.02145,3.0032 2.99723,-1.5548 m -6.01605,3.2289 3.01882,-1.6741 m -9.36147,5.4508 6.34265,-3.7767 m -44.58761,27.1994 38.24496,-23.4227 m -53.42688,32.0666 15.18192,-8.6439 m -33.57295,18.6867 18.39103,-10.0428 m -18.59906,10.142 0.20803,-0.099 m -0.41251,0.2052 0.20448,-0.1062 m -0.40517,0.2195 0.20069,-0.1133 m -0.39735,0.2334 0.19666,-0.1201 m -0.38906,0.2469 0.1924,-0.1268 m -0.3803,0.2602 0.1879,-0.1334 m -0.37109,0.2732 0.18319,-0.1398 m -0.36145,0.2858 0.17826,-0.146 m -0.35136,0.2982 0.1731,-0.1522 m -0.34086,0.3101 0.16776,-0.1579 m -0.32996,0.3216 0.1622,-0.1637 m -0.31865,0.3329 0.15645,-0.1692 m -0.30698,0.3437 0.15053,-0.1745 m -0.29494,0.3541 0.14441,-0.1796 m -0.28253,0.364 0.13812,-0.1844 m -0.2698,0.3735 0.13168,-0.1891 m -0.25675,0.3827 0.12507,-0.1936 m -0.24339,0.3913 0.11832,-0.1977 m -0.22974,0.3995 0.11142,-0.2018 m -0.21581,0.4072 0.10439,-0.2054 m -0.20163,0.4143 0.0972,-0.2089 m -0.18716,0.4211 0.09,-0.2122 m -0.1726,0.4273 0.0826,-0.2151 m -0.15772,0.4329 0.0751,-0.2178 m -0.14265,0.4382 0.0676,-0.2204 m -0.12751,0.4429 0.0599,-0.2225 m -0.11209,0.4469 0.0522,-0.2244 m -0.0966,0.4505 0.0444,-0.2261 m -0.081,0.4537 0.0366,-0.2276 m -0.0653,0.4562 0.0287,-0.2286 m -0.0495,0.4581 0.0208,-0.2295 m -0.0337,0.4596 0.0129,-0.2301 m -0.0178,0.4605 0.005,-0.2304 m -0.002,0.4608 -0.003,-0.2304 m 0.014,0.4606 -0.011,-0.2302 m 0.0299,0.4598 -0.0189,-0.2296 m 0.0457,0.4585 -0.0268,-0.2289 m 0.0615,0.4567 -0.0347,-0.2278 m 0.0773,0.4543 -0.0426,-0.2265 m 0.093,0.4514 -0.0504,-0.2249 m 0.10849,0.4478 -0.0581,-0.2229 m 0.12386,0.4438 -0.0658,-0.2209 m 0.13914,0.4394 -0.0733,-0.2185 m 0.15413,0.4343 -0.0808,-0.2158 m 0.16904,0.4286 -0.0882,-0.2128 m 0.18373,0.4225 -0.0955,-0.2097 m 0.19821,0.416 -0.10271,-0.2063 m 0.21248,0.4089 -0.10977,-0.2026 m 0.22647,0.4013 -0.1167,-0.1987 m 0.24019,0.3933 -0.12349,-0.1946 m 0.25362,0.3848 -0.13013,-0.1902 m 0.26675,0.3758 -0.13662,-0.1856 m 0.27956,0.3663 -0.14294,-0.1807 m 0.29204,0.3564 -0.1491,-0.1757 m 0.30417,0.3462 -0.15507,-0.1705 m 0.31593,0.3355 -0.16086,-0.165 m 0.32732,0.3243 -0.16646,-0.1593 m 0.33832,0.3128 -0.17186,-0.1535 m 0.34892,0.301 -0.17706,-0.1475 m 0.3591,0.2888 -0.18204,-0.1413 m 0.36885,0.2762 -0.18681,-0.1349 m 0.37817,0.2633 -0.19136,-0.1284 m 0.38704,0.2501 -0.19568,-0.1217 m 0.39544,0.2366 -0.19976,-0.1149 m 0.40336,0.2228 -0.2036,-0.1079 m 0.41081,0.2088 -0.20721,-0.1009 m 0.41778,0.1945 -0.21057,-0.094 m 0.42424,0.1803 -0.21367,-0.086 m 0.43019,0.1649 -0.21652,-0.079 m 0.43564,0.1503 -0.21912,-0.071 m 0.44057,0.1347 -0.22145,-0.064 m 0.44497,0.1201 -0.22352,-0.056 m 0.44883,0.1043 -0.22531,-0.048 m 0.45217,0.088 -0.22686,-0.04 m 0.45497,0.073 -0.22811,-0.033 m 0.45722,0.058 -0.22911,-0.025 m 0.45893,0.042 -0.22982,-0.017 m 0.46009,0.026 -0.23027,-0.01 m 0.46071,0.011 -0.23044,-9e-4 m 0.46077,-0.01 -0.23033,0.01 m 0.46028,-0.025 -0.22995,0.015 m 0.45925,-0.038 -0.2293,0.023 m 0.45768,-0.054 -0.22838,0.031 m 0.45555,-0.07 -0.22717,0.039 m 0.45288,-0.085 -0.22571,0.046 m 0.44967,-0.1002 -0.22396,0.054 m 0.44592,-0.116 -0.22196,0.062 m 0.44165,-0.1315 -0.21969,0.07 m 0.43685,-0.1471 -0.21716,0.077 m 0.43153,-0.1616 -0.21437,0.085 m 0.42569,-0.1769 -0.21132,0.092 m 16.46868,-9.1202 -16.25736,9.0282 m 29.78988,-16.8774 -13.53252,7.8492 m 24.76207,-14.6668 -11.22955,6.8176 m 20.57802,-12.751 -9.34847,5.9334 m 30.32606,-19.902 -20.97759,13.9686 m 27.02043,-17.839 -6.04284,3.8704 m 9.15712,-5.744 -3.11428,1.8736 m 4.70826,-2.7692 -1.59398,0.8956 m 3.2205,-1.749 -1.62652,0.8534 m 2.45385,-1.261 -0.82733,0.4076 m 1.66504,-0.8006 -0.83771,0.393 m 1.68655,-0.77 -0.84884,0.377 m 1.70955,-0.7367 -0.86071,0.3597 m 1.73404,-0.7008 -0.87333,0.3411 m 1.76004,-0.6621 -0.88671,0.321 m 1.78753,-0.6206 -0.90082,0.2996 m 1.81651,-0.5765 -0.91569,0.2769 m 1.847,-0.5296 -0.93131,0.2527 m 1.87898,-0.48 -0.94767,0.2273 m 1.91244,-0.4277 -0.96477,0.2004 m 1.94741,-0.3727 -0.98264,0.1723 m 1.98389,-0.315 -1.00125,0.1427 m 2.02185,-0.2545 -1.0206,0.1118 m 2.0613,-0.1913 -1.0407,0.079 m 2.10225,-0.1249 -1.06155,0.046 m 2.1447,-0.057 -1.08315,0.011 m 2.18865,0.014 -1.1055,-0.025 m 2.2341,0.088 -1.1286,-0.063 m 2.28104,0.1652 -1.15244,-0.1022 m 2.32947,0.2448 -1.17703,-0.1426 m 2.37939,0.3271 -1.20236,-0.1845 m 2.43082,0.4121 -1.22846,-0.2276 m 2.48375,0.4997 -1.25529,-0.2721 m 2.53816,0.5901 -1.28287,-0.318 m 2.59408,0.6832 -1.31121,-0.3652 m 2.65149,0.779 -1.34028,-0.4138 m 2.71039,0.8775 -1.37011,-0.4637 m 2.7708,0.9788 -1.40069,-0.5151 m 2.8327,1.0828 -1.43201,-0.5677 m 2.89609,1.1895 -1.46408,-0.6218 m 2.96098,1.2989 -1.4969,-0.6771 m 3.02736,1.411 -1.53046,-0.7339 m 3.09525,1.5259 -1.56479,-0.792 m 3.16463,1.6435 -1.59984,-0.8515 m 3.2355,1.7638 -1.63566,-0.9123 m 3.30788,1.8868 -1.67222,-0.9745 m 3.38174,2.0125 -1.70952,-1.038 m 5.24349,3.3102 -3.53397,-2.2722 m 7.22613,4.8148 -3.69216,-2.5426 m 7.54852,5.3667 -3.85636,-2.8241 m 7.8829,5.9404 -4.02654,-3.1163 m 8.22923,6.5358 -4.20269,-3.4195 m 8.58752,7.1531 -4.38483,-3.7336 m 8.9578,7.792 -4.57297,-4.0584 m 14.30721,13.1935 -9.73424,-9.1351 m -129.69085,-2.2972 5.92752,-3.1434 m 1.49027,2.8073 -5.88676,3.1171 m -28.96731,16.3145 5.91425,-3.1344 m 21.83334,-16.1262 a 1.594488,1.594488 0 1 0 1.44155,2.8286 m 5.43217,-2.8764 a 1.594488,1.594488 0 1 0 -1.48608,-2.8093 m -34.49653,19.2361 a 1.594488,1.594488 0 1 0 1.58986,2.7605 m 3.99382,-5.7149 -5.58368,2.9544 m 6.99235,-0.1027 a 1.594488,1.594488 0 1 0 -1.40867,-2.8517"
         inkscape:connector-curvature="0" />
    </g>
    <g
       id="g6531"
       transform="matrix(10.000008,0,0,10.000008,118.28243,-11750.479)"
       style="stroke:#00ff00;stroke-opacity:1">
      <path
         id="path1986"
         style="fill:none;stroke:#00ff00;stroke-opacity:1"
         d="m 206.10853,1190.9474 -2.36108,2.3992 m 1.47715,-3.2691 0.88393,0.8699 m 1.35287,-3.1428 -2.2368,2.2729 m 4.63607,0.088 -2.39927,-2.3611 m 3.15688,3.1067 -0.75761,-0.7456 m 1.51522,1.4912 -0.75761,-0.7456 m 3.15689,3.1067 -2.39928,-2.3611 m 0.16248,4.634 2.2368,-2.2729 m -3.12086,1.4031 0.88406,0.8698 m -3.25275,1.5371 2.36869,-2.4069 m 10.66248,15.4328 -13.03117,-13.0259 m 15.39396,10.6284 -2.36279,2.3975 m 1.47947,-3.268 0.88332,0.8705 m 1.35511,-3.1418 -2.23843,2.2713 m 4.63602,0.091 -2.39759,-2.3628 m 3.15466,3.1089 -0.75707,-0.7461 m 1.51415,1.4922 -0.75708,-0.7461 m 3.15468,3.1089 -2.3976,-2.3628 m 0.15917,4.6342 2.23843,-2.2714 m -3.12186,1.4009 0.88343,0.8705 m -3.25384,1.5348 2.37041,-2.4053 m 7.51186,12.0582 -9.88227,-9.6529 m 13.32312,12.7213 -3.44085,-3.0684 m 5.77642,0.6443 -2.33557,2.4241 m 1.44248,-3.2845 0.89309,0.8604 m 1.31956,-3.1569 -2.21265,2.2965 m 4.63676,0.039 -2.42411,-2.3356 m 3.18956,3.0731 -0.76545,-0.7375 m 1.5309,1.4751 -0.76545,-0.7376 m 3.18956,3.0732 -2.42411,-2.3356 m 0.21147,4.632 2.21264,-2.2964 m -3.10585,1.436 0.89321,0.8604 m -3.23631,1.5714 2.3431,-2.4318 m -2.3431,2.4318 a 97.497243,97.497243 0 0 0 13.86423,12.09 m 1.587,-2.9686 -1.587,2.9686 m 0.49331,-3.5533 1.09369,0.5847 m 0.40979,-3.397 -1.50348,2.8123 m 4.47209,-1.2253 -2.96861,-1.587 m 3.90601,2.0882 -0.9374,-0.5012 m 1.8748,1.0024 -0.9374,-0.5012 m 3.90603,2.0882 -2.96863,-1.587 m 1.46515,4.3992 1.50348,-2.8122 m -2.59728,2.2276 1.0938,0.5846 m -2.68592,2.3936 1.59212,-2.9782 m -1.59212,2.9782 a 24.38187,24.38187 0 0 0 17.98594,0.1244 m -1.5159,-3.0055 1.5159,3.0055 m -2.62319,-2.447 1.10729,-0.5585 m -2.54338,-2.2888 1.43609,2.8473 m 1.56941,-4.3632 -3.0055,1.5159 m 3.95458,-1.9946 -0.94908,0.4787 m 1.89816,-0.9574 -0.94908,0.4787 m 3.95462,-1.9946 -3.00554,1.5159 m 4.44163,1.3314 -1.43609,-2.8473 m 0.32878,3.4059 1.10731,-0.5586 m 0.41475,3.5758 -1.52206,-3.0172 m 1.52206,3.0172 a 109.26061,109.26061 0 0 0 14.34486,-11.5093 m -2.24658,-2.5068 2.24658,2.5068 m -3.17012,-1.6791 0.92354,-0.8277 m -3.05184,-1.5471 2.1283,2.3748 m 0.37845,-4.6214 -2.50675,2.2466 m 3.29834,-2.956 -0.79159,0.7094 m 1.58319,-1.4189 -0.7916,0.7095 m 3.29838,-2.9561 -2.50678,2.2466 m 4.63509,0.1282 -2.12831,-2.3748 m 1.20479,3.2026 0.92352,-0.8278 m 1.33032,3.3427 -2.25384,-2.5149 m 16.38461,-9.3038 a 273.99315,273.99315 0 0 0 -14.13077,11.8187 m 12.10291,-14.5054 2.02786,2.6867 m -3.01772,-1.9396 0.98986,-0.7471 m -2.91097,-1.7983 1.92111,2.5454 m 0.76566,-4.5733 -2.68677,2.0279 m 3.53521,-2.6682 -0.84844,0.6403 m 1.69688,-1.2807 -0.84844,0.6404 m 3.53523,-2.6683 -2.68679,2.0279 m 4.6079,0.5175 -1.92111,-2.5454 m 0.93125,3.2926 0.98986,-0.7472 m 1.04457,3.4426 -2.03443,-2.6954 m 17.37709,-7.4962 a 212.58852,212.58852 0 0 0 -15.34266,10.1916 m 13.63808,-13.0943 1.70458,2.9027 m -2.77397,-2.2747 1.06939,-0.628 m -2.68424,-2.1218 1.61485,2.7498 m 1.2878,-4.4545 -2.90265,1.7047 m 3.81925,-2.2429 -0.9166,0.5382 m 1.83321,-1.0765 -0.91661,0.5383 m 3.81929,-2.2429 -2.90268,1.7046 m 4.51752,1.0452 -1.61484,-2.7498 m 0.54544,3.378 1.0694,-0.6282 m 0.6407,3.5402 -1.7101,-2.912 m 18.07355,-5.5474 a 247.59332,247.59332 0 0 0 -16.36345,8.4594 m 14.95729,-11.5178 1.40616,3.0584 m -2.53293,-2.5403 1.12677,-0.5181 m -2.4589,-2.3793 1.33213,2.8974 m 1.72625,-4.3037 -3.05838,1.4063 m 4.02416,-1.8503 -0.96578,0.444 m 1.93156,-0.888 -0.96578,0.444 m 4.02419,-1.8502 -3.05841,1.4062 m 4.39055,1.4912 -1.33214,-2.8974 m 0.20535,3.4156 1.12679,-0.5182 m 0.28392,3.5864 -1.41071,-3.0682 m 10.76335,-0.8909 -9.35264,3.9591 m 17.18618,-6.6054 -7.83354,2.6463 m 6.71402,-5.8209 1.11952,3.1746 m -2.28909,-2.7621 1.16957,-0.4125 m -2.23015,-2.5949 1.06058,3.0074 m 2.11396,-4.127 -3.17454,1.1196 m 4.177,-1.4731 -1.00246,0.3535 m 2.00491,-0.707 -1.00245,0.3535 m 4.17702,-1.4731 -3.17457,1.1196 m 4.23515,1.8878 -1.06058,-3.0074 m -0.10901,3.42 1.16959,-0.4126 m -0.0464,3.5974 -1.12315,-3.1848 m 1.12315,3.1848 a 132.87365,132.87365 0 0 0 16.94115,-7.2067 m -1.68609,-2.9135 1.68609,2.9135 m -2.75946,-2.2923 1.07337,-0.6212 m -2.6707,-2.1388 1.59733,2.76 m 1.3161,-4.4462 -2.91343,1.6862 m 3.83344,-2.2186 -0.92001,0.5324 m 1.84002,-1.0648 -0.92001,0.5324 m 3.83346,-2.2186 -2.91345,1.6862 m 4.51078,1.0739 -1.59733,-2.7601 m 0.52396,3.3814 1.07337,-0.6213 m 0.61818,3.5442 -1.69155,-2.9229 m 1.69155,2.9229 a 91.261509,91.261509 0 0 0 14.40775,-11.4326 m -2.38004,-2.3804 2.38004,2.3804 m -3.25703,-1.5036 0.87699,-0.8768 m -3.13173,-1.3783 2.25474,2.2551 m 0.12566,-4.6352 -2.3804,2.3801 m 3.1321,-3.1316 -0.7517,0.7515 m 1.5034,-1.5031 -0.7517,0.7516 m 3.13213,-3.1317 -2.38043,2.3801 m 4.63517,-0.125 -2.25474,-2.2551 m 1.37778,3.1321 0.87696,-0.877 m 1.51077,3.2651 -2.38773,-2.3881 m 2.38773,2.3881 a 265.45852,265.45852 0 0 0 11.18753,-12.4757 m 0.8223,-1.4436 -0.8223,1.4436 m -1.35333,-4.0122 2.17563,2.5686 m -3.12194,-1.767 0.94631,-0.8016 m -3.00741,-1.6318 2.0611,2.4334 m 0.50747,-4.6091 -2.56857,2.1757 m 3.37968,-2.8627 -0.81111,0.687 m 1.62223,-1.374 -0.81112,0.687 m 3.37972,-2.8627 -2.5686,2.1757 m 4.6297,0.2577 -2.0611,-2.4334 m 1.1148,3.235 0.9463,-0.8016 m 1.23637,3.3785 -2.18267,-2.5769 m 2.18267,2.5769 a 244.8391,244.8391 0 0 0 15.80248,-9.3802 m -2.04703,-2.6722 2.04703,2.6722 m -3.03152,-1.918 0.98449,-0.7542 m -2.92376,-1.7774 1.93927,2.5316 m 0.73291,-4.5787 -2.67218,2.0471 m 3.51602,-2.6934 -0.84384,0.6463 m 1.68768,-1.2927 -0.84384,0.6464 m 3.51605,-2.6935 -2.67221,2.0471 m 4.61148,0.4844 -1.93927,-2.5315 m 0.95479,3.2858 0.98448,-0.7543 m 1.06918,3.4351 -2.05366,-2.6808 m 2.05366,2.6808 a 72.219281,72.219281 0 0 0 12.4563,-13.5066 m -2.81332,-1.8483 2.81332,1.8483 m -3.49426,-0.8118 0.68094,-1.0365 m -3.34616,-0.7145 2.66522,1.751 m -0.81695,-4.5644 -1.84827,2.8134 m 2.43195,-3.7017 -0.58368,0.8883 m 1.16735,-1.7767 -0.58367,0.8884 m 2.43197,-3.7018 -1.8483,2.8134 m 4.51352,-1.0624 -2.66522,-1.751 m 1.98432,2.7876 0.6809,-1.0366 m 2.14234,2.8914 -2.82324,-1.8548 m 2.82324,1.8548 a 98.905772,98.905772 0 0 0 5.18096,-9.7391 m -312.46782,105.2363 a 1.594488,1.594488 0 0 0 -0.007,-0.012 m 0.007,0.012 a 34.836816,34.836816 0 0 0 -5.202,-7.0107 m -3.26575,0.3686 a 1.592898,1.592898 0 0 0 0.45705,1.3169 m 32.45257,-0.5969 a 97.866281,97.866281 0 0 0 -29.64387,-1.0886 m -182.481064,0.4797 -2.566482,1.2712 m 5.065595,-2.4415 -2.499113,1.1703 m 4.932137,-2.2419 -2.433024,1.0716 m 4.801242,-2.0473 -2.368218,0.9757 m 4.67291,-1.8579 -2.304692,0.8822 m 4.547139,-1.6733 -2.242447,0.7911 m 4.423929,-1.4938 -2.181482,0.7027 m 4.303282,-1.3193 -2.1218,0.6166 m 4.185197,-1.1498 -2.063397,0.5332 m 4.069673,-0.9854 -2.006276,0.4522 m 3.956713,-0.826 -1.950437,0.3738 m 3.846314,-0.6716 -1.895877,0.2978 m 2.823756,-0.419 -0.927879,0.1212 m 1.842599,-0.2243 -0.91472,0.1031 m 1.81644,-0.1886 -0.90172,0.085 m 1.790602,-0.1535 -0.888882,0.068 m 1.765084,-0.1189 -0.876202,0.051 m 1.739885,-0.085 -0.863683,0.034 m 1.715008,-0.052 -0.851325,0.018 m 1.690451,-0.019 -0.839126,0 m 1.666213,0.013 -0.827087,-0.014 m 1.642296,0.044 -0.815209,-0.03 m 1.6187,0.075 -0.803491,-0.045 m 1.595424,0.1053 -0.791933,-0.06 m 1.572467,0.1347 -0.780534,-0.075 m 1.549831,0.1636 -0.769297,-0.089 m 1.527515,0.1919 -0.758218,-0.1029 m 1.50552,0.2194 -0.747302,-0.1165 m 1.483845,0.2465 -0.736543,-0.13 m 1.462489,0.2729 -0.725946,-0.1429 m 1.441455,0.2985 -0.715509,-0.1556 m 1.420741,0.3237 -0.705232,-0.1681 m 1.400346,0.3482 -0.695114,-0.1801 m 1.380272,0.3721 -0.685158,-0.192 m 1.360519,0.3953 -0.675361,-0.2033 m 1.341085,0.4179 -0.665724,-0.2146 m 1.321972,0.4399 -0.656248,-0.2253 m 1.303179,0.4612 -0.646931,-0.2359 m 1.284706,0.482 -0.637775,-0.2461 m 1.266554,0.5021 -0.628779,-0.256 m 1.248721,0.5215 -0.619942,-0.2655 m 1.231209,0.5403 -0.611267,-0.2748 m 1.808413,0.851 -1.197146,-0.5762 m 2.36151,1.1857 -1.164364,-0.6095 m 2.297227,1.2498 -1.132863,-0.6403 m 2.235505,1.3088 -1.102642,-0.6685 m 2.176345,1.3629 -1.073703,-0.6944 m 2.119748,1.4119 -1.046045,-0.7175 m 2.065712,1.4559 -1.019667,-0.7384 m 2.014238,1.4949 -0.994571,-0.7565 m 1.965327,1.5289 -0.970756,-0.7724 m 1.918978,1.5579 -0.948222,-0.7855 m 1.87519,1.5817 -0.926968,-0.7962 m 2.722268,2.4109 -1.7953,-1.6147 m 8.382566,7.9999 -6.587266,-6.3852 m 8.136838,7.8629 -1.549572,-1.4777 m 3.080743,2.8678 -1.531171,-1.3901 m 2.293058,2.046 -0.761887,-0.6559 m 1.523017,1.2824 -0.76113,-0.6265 m 1.522783,1.221 -0.761653,-0.5945 m 1.52511,1.1546 -0.763457,-0.5601 m 1.146263,0.8264 -0.382806,-0.2663 m 0.766544,0.5231 -0.383738,-0.2568 m 0.768567,0.5037 -0.384829,-0.2469 m 0.770909,0.4837 -0.38608,-0.2368 m 0.773573,0.463 -0.387493,-0.2262 m 0.776557,0.4417 -0.389064,-0.2155 m 0.779861,0.4198 -0.390797,-0.2043 m 0.783486,0.3972 -0.392689,-0.1929 m 0.78743,0.374 -0.394741,-0.1811 m 0.791695,0.3502 -0.396954,-0.1691 m 0.79628,0.3258 -0.399326,-0.1567 m 0.801185,0.3007 -0.401859,-0.144 m 0.806411,0.275 -0.404552,-0.131 m 0.811957,0.2487 -0.407405,-0.1177 m 0.817823,0.2218 -0.410418,-0.1041 m 0.82401,0.1942 -0.413592,-0.09 m 0.927037,0.2316 -0.513445,-0.1415 m 1.033261,0.2734 -0.519816,-0.1319 m 1.04595,0.2541 -0.526134,-0.1222 m 1.058536,0.235 -0.532402,-0.1128 m 1.071021,0.2162 -0.538619,-0.1034 m 1.083402,0.1976 -0.544783,-0.094 m 1.65264,0.2554 -1.107857,-0.1612 m 2.239757,0.2871 -1.1319,-0.1259 m 2.287433,0.2173 -1.155533,-0.091 m 2.334289,0.1493 -1.178756,-0.058 m 2.380323,0.083 -1.201567,-0.025 m 2.425534,0.019 -1.223967,0.01 m 2.469925,-0.043 -1.245958,0.037 m 2.513495,-0.1028 -1.267537,0.066 m 2.556242,-0.1609 -1.288705,0.095 m 2.598168,-0.2172 -1.309463,0.1224 m 2.639273,-0.2714 -1.32981,0.149 m 4.048828,-0.5231 -2.719018,0.3741 m 5.514495,-0.8431 -2.795477,0.469 m 5.664127,-1.025 -2.86865,0.556 m 5.807188,-1.1913 -2.938538,0.6353 m 5.943671,-1.3421 -3.005133,0.7068 m 9.202073,-2.3036 -6.19694,1.5968 m 12.62085,-3.3859 -6.42391,1.7891 m 33.86352,-9.621 -27.43961,7.8319 m 34.60407,-9.6468 -7.16446,1.8149 m 14.39816,-3.4479 -7.2337,1.633 m 10.86831,-2.3617 -3.63461,0.7287 m 7.27667,-1.3885 -3.64206,0.6598 m 7.28828,-1.2429 -3.64622,0.5831 m 7.29333,-1.0818 -3.64711,0.4987 m 12.27365,14.8321 a 1.592898,1.592898 0 1 0 3.07152,-0.8456 m -5.96149,-6.2002 a 31.65102,31.65102 0 0 0 -5.27952,-6.9681 m 8.16949,14.0139 a 31.65102,31.65102 0 0 0 -2.88997,-7.0458 m 5.96149,6.2002 a 34.836816,34.836816 0 0 0 -3.23031,-7.8431 m -28.76244,17.0898 a 1.59449,1.59449 0 1 0 -3.18898,0 1.59449,1.59449 0 0 0 3.18898,0 z m -140.716242,-19.7777 1.80274,-0.7703 m -2.708515,1.1891 0.905775,-0.4188 m -1.349408,0.6409 0.443633,-0.2221 m -0.876882,0.4545 0.433249,-0.2324 m -0.644971,0.3528 0.211722,-0.1204 m -0.419634,0.2438 0.207912,-0.1234 m -0.411608,0.2499 0.203696,-0.1265 m -0.402769,0.2564 0.199073,-0.1299 m -0.393118,0.2632 0.194045,-0.1333 m -0.38266,0.2702 0.188615,-0.1369 m -0.371402,0.2776 0.182787,-0.1407 m -0.359352,0.2852 0.176565,-0.1445 m -0.346521,0.2931 0.169956,-0.1486 m -0.252336,0.2244 0.08238,-0.076 m -0.162964,0.1526 0.080584,-0.077 m -0.159328,0.1547 0.078744,-0.078 m -0.1556,0.1569 0.076856,-0.079 m -0.15178,0.1591 0.074924,-0.08 m -0.147871,0.1613 0.072947,-0.081 m -0.143872,0.1635 0.070925,-0.082 m -0.139786,0.1657 0.068861,-0.083 m -0.135614,0.168 0.066753,-0.085 m -0.131357,0.1703 0.064604,-0.086 m -0.127017,0.1726 0.062413,-0.087 m -0.122594,0.175 0.060181,-0.088 m -0.118092,0.1773 0.057911,-0.089 m -0.113513,0.1797 0.055602,-0.091 m -0.108855,0.1821 0.053253,-0.092 m -0.104122,0.1845 0.050869,-0.093 m -0.099316,0.187 0.048447,-0.094 m -0.094438,0.1894 0.045991,-0.095 m -0.089491,0.1919 0.0435,-0.097 m -0.084476,0.1945 0.040976,-0.098 m -0.079395,0.1969 0.038419,-0.099 m -0.07425,0.1994 0.035831,-0.1004 m -0.069044,0.202 0.033213,-0.1016 m -0.063777,0.2045 0.030564,-0.1029 m -0.058453,0.2071 0.027889,-0.1042 m -0.053073,0.2097 0.025184,-0.1055 m -0.047639,0.2123 0.022455,-0.1068 m -0.042155,0.2148 0.0197,-0.108 m -0.03662,0.2174 0.01692,-0.1094 m -0.031039,0.2201 0.014119,-0.1107 m -0.025414,0.2226 0.011295,-0.1119 m -0.019746,0.2252 0.00845,-0.1133 m -0.014038,0.2279 0.00559,-0.1146 m -0.00829,0.2304 0.0027,-0.1158 m -0.00251,0.233 -1.95e-4,-0.1172 m 0.00331,0.2357 -0.00311,-0.1185 m 0.00915,0.2383 -0.00604,-0.1198 m 0.015028,0.241 -0.00899,-0.1212 m 0.02093,0.2436 -0.011943,-0.1224 m 0.026855,0.2461 -0.014912,-0.1237 m 0.032803,0.2487 -0.017891,-0.125 m 0.038771,0.2513 -0.02088,-0.1263 m 0.044756,0.2539 -0.023876,-0.1276 m 0.050755,0.2565 -0.026879,-0.1289 m 0.056767,0.2591 -0.029888,-0.1302 m 0.06279,0.2617 -0.032902,-0.1315 m 0.068821,0.2642 -0.035919,-0.1327 m 0.074858,0.2668 -0.038939,-0.1341 m 0.080899,0.2693 -0.04196,-0.1352 m 0.086942,0.2718 -0.044982,-0.1366 m 0.144005,0.4134 -0.099023,-0.2768 m 0.210107,0.5586 -0.111084,-0.2818 m 0.234194,0.5684 -0.12311,-0.2866 m 0.258193,0.5781 -0.135083,-0.2915 m 0.282072,0.5877 -0.146989,-0.2962 m 0.3058,0.597 -0.158811,-0.3008 m 0.329347,0.6062 -0.170536,-0.3054 m 0.352684,0.6153 -0.182148,-0.3099 m 0.375785,0.6242 -0.193637,-0.3143 m 0.398624,0.6329 -0.204987,-0.3186 m 0.648402,0.9682 -0.443415,-0.6496 m 0.930296,1.3151 -0.486881,-0.6655 m 13.18425,17.4875 -12.697369,-16.822 m 13.697409,17.699 -1.00004,-0.877 m 2.027637,1.7216 -1.027597,-0.8446 m 2.081699,1.6558 -1.054102,-0.8112 m 2.133628,1.5882 -1.079526,-0.777 m 2.183371,1.5191 -1.103845,-0.7421 m 2.230876,1.4485 -1.127031,-0.7064 m 2.276095,1.3764 -1.149064,-0.67 m 6.613706,2.4491 -5.464642,-1.7791 m 11.545371,3.6094 -6.080729,-1.8303 m 12.595739,3.633 -6.51501,-1.8027 m 13.282498,3.4989 -6.767488,-1.6962 m 13.605649,3.2071 -6.838161,-1.5109 m 10.226931,2.1721 -3.38877,-0.6612 m 6.727031,1.2466 -3.338261,-0.5854 m 6.603289,1.085 -3.265028,-0.4996 m 6.434096,0.9035 -3.169068,-0.4039 m 6.219452,0.7023 -3.050384,-0.2984 m 4.523967,0.405 -1.473583,-0.1066 m 2.908974,0.1831 -1.435391,-0.076 m 2.829747,0.1217 -1.394356,-0.045 m 2.744838,0.058 -1.350482,-0.013 m 2.654248,-0.01 -1.303766,0.021 m 2.557976,-0.077 -1.25421,0.056 m 2.456024,-0.1485 -1.201814,0.092 m 1.782184,-0.1525 -0.58037,0.06 m 1.146576,-0.1298 -0.566206,0.07 m 1.117892,-0.149 -0.551686,0.079 m 1.088498,-0.1685 -0.536812,0.089 m 1.058394,-0.1884 -0.521582,0.099 m 1.027579,-0.2085 -0.505997,0.1093 m 0.996055,-0.2288 -0.490058,0.1195 m 0.96382,-0.2496 -0.473762,0.1301 m 0.930875,-0.2707 -0.457113,0.1406 m 0.89722,-0.292 -0.440107,0.1514 m 0.653673,-0.2311 -0.213566,0.08 m 0.422747,-0.1622 -0.209181,0.083 m 0.413934,-0.1678 -0.204753,0.085 m 0.405032,-0.1734 -0.200279,0.088 m 0.396041,-0.179 -0.195762,0.091 m 0.386962,-0.1846 -0.1912,0.094 m 0.377793,-0.1902 -0.186593,0.096 m 0.368536,-0.1959 -0.181943,0.099 m 0.35919,-0.2017 -0.177247,0.1023 m 0.349755,-0.2074 -0.172508,0.1051 m 0.340232,-0.2132 -0.167724,0.1081 m 0.33062,-0.2192 -0.162896,0.1111 m 0.320919,-0.2251 -0.158023,0.114 m 0.311129,-0.2309 -0.153106,0.1169 m 0.30125,-0.2369 -0.148144,0.12 m 0.291283,-0.243 -0.143139,0.123 m 0.281228,-0.249 -0.138089,0.126 m 0.271082,-0.2551 -0.132993,0.1291 m 0.260848,-0.2612 -0.127855,0.1321 m 0.250527,-0.2674 -0.122672,0.1353 m 0.240116,-0.2736 -0.117444,0.1383 m 0.229615,-0.2798 -0.112171,0.1415 m 0.219026,-0.2861 -0.106855,0.1446 m 0.208349,-0.2924 -0.101494,0.1478 m 0.197583,-0.2988 -0.09609,0.151 m 0.186728,-0.3052 -0.09064,0.1542 m 0.175784,-0.3116 -0.08514,0.1574 m 0.164752,-0.3181 -0.07961,0.1607 m 0.15363,-0.3246 -0.07402,0.1639 m 0.14242,-0.3312 -0.0684,0.1673 m 0.131122,-0.3378 -0.06273,0.1705 m 0.119733,-0.3444 -0.05701,0.1739 m 0.108257,-0.3511 -0.05125,0.1772 m 0.09669,-0.3577 -0.04544,0.1805 m 0.08504,-0.3644 -0.03959,0.1839 m 0.0733,-0.3713 -0.0337,0.1874 m 0.06146,-0.3781 -0.02776,0.1907 m 0.04954,-0.3849 -0.02178,0.1942 m 0.03753,-0.3919 -0.01575,0.1977 m 0.02544,-0.3988 -0.0097,0.2011 m 0.01325,-0.4058 -0.0036,0.2047 m 9.75e-4,-0.4128 0.0026,0.2081 m -0.01139,-0.4198 0.0088,0.2117 m -0.02384,-0.4269 0.01505,0.2152 m -0.03638,-0.4341 0.02134,0.2189 m -0.04901,-0.4413 0.02768,0.2224 m -0.06173,-0.4484 0.03406,0.226 m -0.07454,-0.4556 0.04048,0.2296 m -0.08744,-0.4629 0.04695,0.2333 m -0.100423,-0.4703 0.05347,0.237 m -0.113498,-0.4777 0.06003,0.2407 m -0.126662,-0.4851 0.06663,0.2444 m -0.139913,-0.4925 0.07328,0.2481 m -0.153253,-0.4999 0.07997,0.2518 m -0.166683,-0.5074 0.08671,0.2556 m -0.180201,-0.515 0.09349,0.2594 m -0.193808,-0.5226 0.100317,0.2632 m -0.207504,-0.5303 0.107187,0.2671 m -0.342348,-0.8127 0.235161,0.5456 m -0.498336,-1.1067 0.263175,0.5611 m -0.554717,-1.1379 0.291542,0.5768 m -0.611807,-1.1695 0.320265,0.5927 m -0.669608,-1.2013 0.349343,0.6086 m -0.728119,-1.2334 0.378776,0.6248 m -0.787341,-1.2659 0.408565,0.6411 m -0.847272,-1.2987 0.438707,0.6576 m -0.907914,-1.3317 0.469207,0.6741 m -1.500535,-2.0729 1.031328,1.3988 m -2.18891,-2.8658 1.157582,1.467 m -2.44426,-3.0036 1.286678,1.5366 m -3.840811,-1.4916 2.554133,-0.045 m -5.016925,0.038 2.462792,0.01 m -4.836558,-0.064 2.373766,0.057 m -4.66082,-0.1622 2.287054,0.1052 m -4.48971,-0.2568 2.202656,0.1516 m -4.323228,-0.3477 2.120572,0.1961 m -4.161374,-0.4349 2.040802,0.2388 m -4.004149,-0.5184 1.963347,0.2796 m -3.851553,-0.5983 1.888206,0.3187 m -3.703584,-0.6745 1.815378,0.3558 m -3.560243,-0.7469 1.744865,0.3911 m -3.421532,-0.8157 1.676667,0.4246 m -3.287449,-0.8809 1.610782,0.4563 m -3.157993,-0.9424 1.547211,0.4861 m -3.033165,-1.0002 1.485954,0.5141 m -2.912967,-1.0543 1.427013,0.5402 m -2.797397,-1.1047 1.370384,0.5645 m -2.686455,-1.1515 1.316071,0.587 m -2.580141,-1.1946 1.26407,0.6076 m -2.478455,-1.234 1.214385,0.6264 m -2.381398,-1.2697 1.167013,0.6433 m -2.288969,-1.3017 1.121956,0.6584 m -2.201169,-1.3301 1.079213,0.6717 m -2.117996,-1.3549 1.038783,0.6832 m -2.039452,-1.3759 1.000669,0.6927 m -1.965537,-1.3931 0.964868,0.7004 m -1.896249,-1.4068 0.931381,0.7064 m -1.83159,-1.4168 0.900209,0.7104 m -2.616366,-2.1362 1.716157,1.4258 m -3.335394,-2.8458 1.619237,1.42 m -7.497249,-6.7479 5.878012,5.3279 m -6.583566,-5.924 0.705554,0.5961 m -1.412334,-1.1705 0.70678,0.5744 m -1.417101,-1.1252 0.710321,0.5508 m -1.426495,-1.0764 0.716174,0.5256 m -1.440516,-1.0239 0.724342,0.4983 m -1.090299,-0.7367 0.365957,0.2384 m -0.734824,-0.4693 0.368867,0.2309 m -0.740934,-0.4541 0.372067,0.2232 m -0.747621,-0.4385 0.375554,0.2153 m -0.754886,-0.4224 0.379332,0.2071 m -0.762732,-0.4058 0.3834,0.1987 m -0.771155,-0.3887 0.387755,0.19 m -0.780156,-0.3712 0.392401,0.1812 m -0.789736,-0.3532 0.397335,0.172 m -0.799895,-0.3348 0.40256,0.1628 m -0.810633,-0.316 0.408073,0.1532 m -0.821948,-0.2966 0.413875,0.1434 m -0.833842,-0.2768 0.419967,0.1334 m -0.846315,-0.2566 0.426348,0.1232 m -0.859366,-0.2359 0.433018,0.1127 m -0.872997,-0.2146 0.439979,0.1019 m -0.887206,-0.193 0.447227,0.091 m -0.901992,-0.171 0.454765,0.08 m -0.917357,-0.1484 0.462592,0.069 m -0.933301,-0.1253 0.470709,0.057 m -0.949824,-0.1018 0.479115,0.045 m -0.966926,-0.078 0.487811,0.033 m -0.984606,-0.054 0.496795,0.021 m -1.002863,-0.029 0.506068,0.01 m -1.0217,0 0.515632,0 m -1.041116,0.022 0.525484,-0.018 m -1.061109,0.049 0.535625,-0.031 m -1.081681,0.075 0.546056,-0.044 m -1.102833,0.1025 0.556777,-0.058 m -1.124562,0.1301 0.567785,-0.072 m -1.14687,0.1581 0.579085,-0.086 m -1.169757,0.1867 0.590672,-0.1006 m -1.193221,0.2157 0.602549,-0.1151 m -1.217265,0.2451 0.614716,-0.13 m -1.241888,0.2751 0.627172,-0.1451 m -1.267088,0.3055 0.639916,-0.1604 m -1.959142,0.5279 1.319226,-0.3675 m 490.77822,-101.0132 -11.95368,-0.3974 m 17.38747,11.7321 a 7.086614,7.086614 0 0 0 -5.43379,-11.3347 M 15.872884,1241.0999 a 7.086614,7.086614 0 0 0 5.012933,2.9466 m -32.224273,-41.335 27.21134,38.3884 m -26.81685,-47.091 a 7.086614,7.086614 0 0 0 -0.39449,8.7026 m 32.224273,41.335 96.525333,10.5301 m 6.26988,0.684 88.91739,9.7 m -95.18727,-10.384 1.5155,-13.8922 m 6.35178,-0.067 -1.5974,14.6429 m 1.5974,-14.6429 a 0.885827,0.885827 0 0 0 -1.1488,-1.3477 m -3.74394,-0.4084 3.74394,0.4084 m -6.71848,15.3066 1.59332,-14.6055 m 1.38122,-1.1095 a 0.88582715,0.88582715 0 1 0 -1.38122,1.1095 m 98.59921,9.0446 a 0.8858457,0.8858457 0 0 0 -1.25275,1.2528 m 0,14.6921 0,-14.6921 m 6.30709,-0.038 a 0.885827,0.885827 0 0 0 -1.28819,-1.2152 m 1.28819,1.2152 0,14.7297 m -5.05434,-15.9449 3.76615,0 m 150.03979,1.2152 0,14.7297 m 0,-14.7297 a 0.885827,0.885827 0 0 0 -1.28818,-1.2152 m -3.76616,0 a 0.8858457,0.8858457 0 0 0 -1.25275,1.2528 m 0,14.6921 0,-14.6921 m 1.25275,-1.2528 3.76616,0 m 22.48678,-14.4225 a 0.88585277,0.88585277 0 0 0 0.25055,1.7539 m 11.75371,8.8153 -11.75371,-8.8153 m 3.7542,-5.0682 a 0.885827,0.885827 0 0 0 -1.74505,0.3014 m 1.74505,-0.3014 11.78376,8.8378 m -15.78851,-5.5235 2.2597,-3.0129 m 85.21025,-87.0389 29.0827,-38.7769 m -36.14204,33.4824 a 0.885827,0.885827 0 0 0 -1.74506,0.3015 m 1.74506,-0.3015 7.05934,5.2945 m -7.02929,-5.2719 -0.0301,-0.023 m -4.00475,3.3144 a 0.88582703,0.88582703 0 0 0 0.25055,1.7538 m -0.25055,-1.7538 2.25969,-3.0129 m 5.02015,10.0387 -7.02929,-5.272 m -77.37487,117.8109 12.72272,-16.9636 m 3.78425,-5.0457 67.89719,-90.5296 m -90.07345,115.3735 a 7.086614,7.086614 0 0 0 5.66929,-2.8346 m -20.48014,2.8346 14.81085,0 m -173.62205,0 3.75251,0 m 6.30709,0 142.44451,0"
         inkscape:connector-curvature="0" />
    </g>
  </g>
</svg>
