<?xml version="1.0" encoding="UTF-8" standalone="no"?>
<svg
   xmlns:dc="http://purl.org/dc/elements/1.1/"
   xmlns:cc="http://creativecommons.org/ns#"
   xmlns:rdf="http://www.w3.org/1999/02/22-rdf-syntax-ns#"
   xmlns:svg="http://www.w3.org/2000/svg"
   xmlns="http://www.w3.org/2000/svg"
   xmlns:sodipodi="http://sodipodi.sourceforge.net/DTD/sodipodi-0.dtd"
   xmlns:inkscape="http://www.inkscape.org/namespaces/inkscape"
   width="1479.467mm"
   height="518.42236mm"
   id="svg2"
   version="1.1"
   inkscape:version="0.91 r13725"
   sodipodi:docname="5.svg">
  <metadata
     id="metadata2100">
    <rdf:RDF>
      <cc:Work
         rdf:about="">
        <dc:format>image/svg+xml</dc:format>
        <dc:type
           rdf:resource="http://purl.org/dc/dcmitype/StillImage" />
        <dc:title></dc:title>
      </cc:Work>
    </rdf:RDF>
  </metadata>
  <sodipodi:namedview
     pagecolor="#ffffff"
     bordercolor="#666666"
     borderopacity="1"
     objecttolerance="10"
     gridtolerance="10"
     guidetolerance="10"
     inkscape:pageopacity="0"
     inkscape:pageshadow="2"
     inkscape:window-width="1920"
     inkscape:window-height="1012"
     id="namedview2098"
     showgrid="false"
     fit-margin-top="0"
     fit-margin-left="0"
     fit-margin-right="0"
     fit-margin-bottom="0"
     inkscape:document-units="mm"
     units="mm"
     inkscape:zoom="0.22425739"
     inkscape:cx="425.32217"
     inkscape:cy="25.813625"
     inkscape:window-x="0"
     inkscape:window-y="0"
     inkscape:window-maximized="1"
     inkscape:current-layer="g22" />
  <desc
     id="desc4">/home/data/chair/5.dxf - scale = 1.000000, origin = (0.000000, 0.000000), auto = False</desc>
  <defs
     id="defs6">
    <marker
       id="DistanceX"
       orient="auto"
       refX="0"
       refY="0"
       style="overflow:visible">
      <path
         d="M 3,-3 -3,3 M 0,-5 0,5"
         style="stroke:#000000;stroke-width:0.5"
         id="path9"
         inkscape:connector-curvature="0" />
    </marker>
    <pattern
       height="8"
       id="Hatch"
       patternUnits="userSpaceOnUse"
       width="8"
       x="0"
       y="0">
      <path
         d="M8 4 l-4,4"
         linecap="square"
         stroke="#000000"
         stroke-width="0.25"
         id="path12" />
      <path
         d="M6 2 l-4,4"
         linecap="square"
         stroke="#000000"
         stroke-width="0.25"
         id="path14" />
      <path
         d="M4 0 l-4,4"
         linecap="square"
         stroke="#000000"
         stroke-width="0.25"
         id="path16" />
    </pattern>
    <symbol
       id="$MODEL_SPACE" />
    <symbol
       id="$PAPER_SPACE" />
  </defs>
  <g
     inkscape:groupmode="layer"
     inkscape:label="0"
     id="g20"
     transform="translate(13.142471,571.46903)" />
  <g
     inkscape:groupmode="layer"
     inkscape:label="DEFAULT"
     id="g22"
     transform="translate(13.142471,571.46903)">
    <path
       id="path2096"
       style="fill:none;stroke:#00ff00;stroke-width:10.00000477;stroke-opacity:1"
       d="m 1911.3389,603.54104 a 15.944888,15.944888 0 0 0 -0.067,-0.11834 m 0.067,0.11834 a 348.36833,348.36833 0 0 0 -52.02,-70.107 m -32.6575,3.68614 a 15.928988,15.928988 0 0 0 4.5706,13.16852 M 34.507391,538.23064 8.8425581,550.94329 m 50.6559749,-24.4149 -24.991142,11.70225 m 49.321393,-22.41916 -24.330251,10.71691 m 48.012447,-20.47359 -23.682196,9.75668 m 46.729126,-18.5782 -23.04693,8.82152 m 45.47141,-16.733 -22.42448,7.91148 m 44.23931,-14.93799 -21.81483,7.02651 m 43.03284,-13.19314 -21.21801,6.16663 m 41.85199,-11.49849 -20.63398,5.33186 m 40.69675,-9.85401 -20.06277,4.52215 m 39.56715,-8.2597 -19.50438,3.73755 m 38.46316,-6.71559 -18.95878,2.97804 m 28.23757,-4.19008 -9.27879,1.21204 m 18.426,-2.24362 -9.14721,1.03158 m 18.16441,-1.88582 -9.0172,0.85424 m 17.90602,-1.53428 -8.88882,0.68004 m 17.65085,-1.18903 -8.76203,0.50899 m 17.39886,-0.85005 -8.63683,0.34106 m 17.15009,-0.51733 -8.51326,0.17627 m 16.90452,-0.19089 -8.39126,0.0146 m 16.66214,0.12929 -8.27088,-0.14389 m 16.42297,0.44317 -8.15209,-0.29928 m 16.187,0.75079 -8.03491,-0.45151 m 15.95425,1.05213 -7.91934,-0.60062 m 15.72468,1.34721 -7.80534,-0.74659 m 15.49831,1.63602 -7.69297,-0.88943 m 15.27516,1.91855 -7.58219,-1.02912 m 15.05521,2.1948 -7.47302,-1.16568 m 14.83846,2.46478 -7.36544,-1.2991 m 14.6249,2.7285 -7.25946,-1.4294 m 14.41455,2.98594 -7.15509,-1.55654 m 14.20742,3.23711 -7.05233,-1.68057 m 14.00347,3.48201 -6.95114,-1.80144 m 13.80272,3.72062 -6.85158,-1.91918 m 13.6052,3.95298 -6.75362,-2.0338 m 13.41086,4.17906 -6.65724,-2.14526 m 13.21972,4.39886 -6.56248,-2.2536 m 13.0318,4.61239 -6.46932,-2.35879 m 12.84707,4.81964 -6.37775,-2.46085 m 12.66554,5.02063 -6.28779,-2.55978 m 12.48721,5.21535 -6.19942,-2.65557 m 12.3121,5.40379 -6.11268,-2.74822 m 18.08414,8.51008 -11.97146,-5.76186 m 23.61511,11.85668 -11.64365,-6.09482 m 22.97228,12.49753 -11.32863,-6.40271 m 22.35506,13.08822 -11.02643,-6.68551 m 21.76346,13.62871 -10.73703,-6.9432 m 21.19749,14.11902 -10.46046,-7.17582 m 20.65713,14.55916 -10.19667,-7.38334 m 20.14239,14.94911 -9.94572,-7.56577 m 19.65328,15.28888 -9.70756,-7.72311 m 19.18979,15.57847 -9.48223,-7.85536 m 18.75191,15.81788 -9.26968,-7.96252 m 27.22269,24.10867 -17.95301,-16.14615 m 83.8257,79.99904 -65.87269,-63.85289 m 81.36842,78.62955 -15.49573,-14.77666 m 30.80745,28.67725 -15.31172,-13.90059 m 22.93059,20.45965 -7.61887,-6.55906 m 15.23018,12.82381 -7.61131,-6.26475 m 15.22784,12.21012 -7.61653,-5.94537 m 15.2511,11.54629 -7.63457,-5.60092 m 11.46264,8.26435 -3.82807,-2.66343 m 7.66545,5.23134 -3.83738,-2.56791 m 7.68567,5.03715 -3.84829,-2.46924 m 7.70909,4.83669 -3.8608,-2.36745 m 7.73573,4.62996 -3.87493,-2.26251 m 7.76558,4.41695 -3.89065,-2.15444 m 7.79862,4.19767 -3.90797,-2.04323 m 7.83486,3.97212 -3.92689,-1.92889 m 7.8743,3.74031 -3.94741,-1.81142 m 7.91695,3.50221 -3.96954,-1.69079 m 7.9628,3.25782 -3.99326,-1.56703 m 8.01186,3.00718 -4.0186,-1.44015 m 8.06412,2.75027 -4.04552,-1.31012 m 8.11957,2.48708 -4.07405,-1.17696 m 8.17823,2.21762 -4.10418,-1.04066 m 8.2401,1.94189 -4.13592,-0.90123 m 9.27038,2.31646 -5.13446,-1.41523 m 10.33262,2.73339 -5.19816,-1.31816 m 10.4595,2.54048 -5.26134,-1.22232 m 10.58536,2.35001 -5.32402,-1.12769 m 10.71022,2.16197 -5.3862,-1.03428 m 10.83403,1.97637 -5.44783,-0.94209 m 16.52641,2.55456 -11.07858,-1.61247 m 22.39758,2.8708 -11.319,-1.25833 m 22.87434,2.17227 -11.55534,-0.91394 m 23.3429,1.49322 -11.78756,-0.57928 m 23.80324,0.83366 -12.01568,-0.25438 m 24.25535,0.1936 -12.23967,0.0608 m 24.69926,-0.42698 -12.45959,0.36618 m 25.13497,-1.02803 -12.67538,0.66185 m 25.56243,-1.60961 -12.88705,0.94776 m 25.98169,-2.17168 -13.09464,1.22392 m 26.39274,-2.71425 -13.2981,1.49033 m 40.48827,-5.23125 -27.19017,3.74092 m 55.14497,-8.43053 -27.9548,4.68961 m 56.6413,-10.24993 -28.6865,5.56032 m 58.0719,-11.91338 -29.3854,6.35306 m 59.4368,-13.42085 -30.0514,7.06779 m 92.0208,-23.03568 -61.9694,15.96789 m 126.2085,-33.85897 -64.2391,17.89108 m 338.6354,-96.2102 -274.3963,78.31912 m 346.0409,-96.46832 -71.6446,18.1492 m 143.9817,-34.47845 -72.3371,16.32925 m 108.6831,-23.61644 -36.346,7.28719 m 72.7666,-13.88546 -36.4206,6.59827 m 72.8829,-12.42961 -36.4623,5.83134 m 72.9334,-10.81778 -36.4711,4.98644 m 122.7365,148.32144 a 15.929013,15.929013 0 1 0 30.7153,-8.45601 m -59.615,-62.00164 A 316.51035,316.51035 0 0 0 1831.232,550.2887 m 81.6948,140.13936 a 316.51035,316.51035 0 0 0 -28.8997,-70.45765 m 59.615,62.00164 a 348.36833,348.36833 0 0 0 -32.3032,-78.43101 m -287.6245,170.89794 a 15.9449,15.9449 0 1 0 -31.8898,0 15.9449,15.9449 0 0 0 31.8898,0 z m -1407.1631,-197.7774 18.02741,-7.70255 m -27.08517,11.89048 9.05776,-4.18793 m -13.49409,6.40956 4.43633,-2.22163 m -8.76882,4.54515 4.33249,-2.32352 m -6.44971,3.52738 2.11722,-1.20386 m -4.19634,2.43784 2.07912,-1.23398 m -4.11608,2.49959 2.03696,-1.26561 m -4.02769,2.56432 1.99073,-1.29871 m -3.93118,2.63199 1.94045,-1.33328 m -3.82661,2.70254 1.88616,-1.36926 m -3.71403,2.77588 1.82787,-1.40662 m -3.59352,2.85196 1.76565,-1.44534 m -3.46521,2.93067 1.69956,-1.48533 m -2.52336,2.24338 0.8238,-0.75805 m -1.62964,1.52657 0.80584,-0.76852 m -1.59328,1.54765 0.78744,-0.77913 m -1.556,1.56901 0.76856,-0.78988 m -1.5178,1.59066 0.74924,-0.80078 m -1.47871,1.61259 0.72947,-0.81181 m -1.43872,1.63479 0.70925,-0.82298 m -1.39786,1.65725 0.68861,-0.83427 m -1.35614,1.67996 0.66753,-0.84569 m -1.31357,1.70292 0.64604,-0.85723 m -1.27017,1.72612 0.62413,-0.86889 m -1.22594,1.74954 0.60181,-0.88065 m -1.18092,1.77319 0.57911,-0.89254 m -1.13513,1.79706 0.55602,-0.90452 m -1.08855,1.82112 0.53253,-0.9166 m -1.04122,1.84537 0.50869,-0.92877 m -0.99316,1.86982 0.48447,-0.94105 m -0.94438,1.89444 0.45991,-0.95339 m -0.89491,1.91922 0.435,-0.96583 m -0.84476,1.94418 0.40976,-0.97835 m -0.79395,1.96928 0.38419,-0.99093 m -0.7425,1.99451 0.35831,-1.00358 m -0.69044,2.01987 0.33213,-1.01629 m -0.63778,2.04534 0.30565,-1.02905 m -0.58454,2.07093 0.27889,-1.04188 m -0.53073,2.09663 0.25184,-1.05475 m -0.47639,2.12242 0.22455,-1.06767 m -0.42155,2.14828 0.197,-1.08061 m -0.3662,2.17421 0.1692,-1.0936 m -0.31039,2.20021 0.14119,-1.10661 m -0.25414,2.22625 0.11295,-1.11964 m -0.19746,2.25233 0.0845,-1.13269 m -0.14037,2.27846 0.0559,-1.14577 m -0.0829,2.3046 0.027,-1.15883 m -0.0251,2.33075 -0.002,-1.17192 m 0.0331,2.35691 -0.0311,-1.18499 m 0.0915,2.38306 -0.0604,-1.19807 m 0.15027,2.40919 -0.0899,-1.21112 m 0.20933,2.4353 -0.11943,-1.22418 m 0.26855,2.46138 -0.14912,-1.2372 m 0.32803,2.4874 -0.17891,-1.2502 m 0.38771,2.51337 -0.2088,-1.26317 m 0.44756,2.53928 -0.23876,-1.27611 m 0.50755,2.56511 -0.26879,-1.289 m 0.56767,2.59087 -0.29888,-1.30187 m 0.62791,2.61654 -0.32903,-1.31467 m 0.68822,2.64211 -0.35919,-1.32744 m 0.74858,2.66757 -0.38939,-1.34013 m 0.80899,2.69292 -0.4196,-1.35279 m 0.86942,2.71815 -0.44982,-1.36536 m 1.44005,4.13355 -0.99023,-2.76819 m 2.10107,5.58585 -1.11084,-2.81766 m 2.34194,5.68415 -1.2311,-2.86649 m 2.58193,5.78108 -1.35083,-2.91459 m 2.82072,5.87655 -1.46989,-2.96196 m 3.058,5.97047 -1.58811,-3.00851 m 3.29347,6.06272 -1.70536,-3.05421 m 3.52684,6.15324 -1.82148,-3.09903 m 3.75785,6.24192 -1.93637,-3.14289 m 3.98624,6.32869 -2.04987,-3.1858 m 6.48403,9.68199 -4.43416,-6.49619 m 9.30297,13.15147 -4.86881,-6.65528 M 321.01433,861.27645 194.04058,693.0565 m 136.97415,176.98991 -10.0004,-8.76996 m 20.27638,17.21533 -10.27598,-8.44537 m 20.817,16.55752 -10.54102,-8.11215 m 21.33629,15.88274 -10.79527,-7.77059 m 21.83372,15.19168 -11.03845,-7.42109 m 22.30877,14.48508 -11.27032,-7.06399 m 22.76097,13.76362 -11.49065,-6.69963 m 66.13709,24.49012 -54.64644,-17.79049 m 115.45376,36.09368 -60.80732,-18.30319 m 125.95745,36.33031 -65.15013,-18.02712 m 132.82505,34.98937 -67.67492,-16.96225 m 136.05656,32.07087 -68.38164,-15.10862 m 102.26936,21.72132 -33.88772,-6.6127 m 67.27034,12.4663 -33.38262,-5.8536 m 66.03292,10.8493 -32.6503,-4.9957 m 64.34099,9.0351 -31.69069,-4.0394 m 62.19455,7.0237 -30.50386,-2.9843 m 45.23969,4.0501 -14.73583,-1.0658 m 29.08975,1.8308 -14.35392,-0.765 m 28.29749,1.217 -13.94357,-0.452 m 27.4484,0.5786 -13.50483,-0.1266 m 26.54249,-0.084 -13.03766,0.2111 m 25.57977,-0.7722 -12.54211,0.5611 m 24.56025,-1.4846 -12.01814,0.9235 m 17.82185,-1.5249 -5.80371,0.6014 m 11.46577,-1.2981 -5.66206,0.6967 m 11.17892,-1.4901 -5.51686,0.7934 m 10.88498,-1.6851 -5.36812,0.8917 m 10.58395,-1.8832 -5.21583,0.9915 m 10.27583,-2.0844 -5.06,1.0929 m 9.9606,-2.2887 -4.9006,1.1958 m 9.6382,-2.4961 -4.7376,1.3003 m 9.3087,-2.7065 -4.5711,1.4062 m 8.9722,-2.92 -4.4011,1.5138 m 6.5367,-2.3115 -2.1356,0.7977 m 4.2275,-1.6228 -2.0919,0.8251 m 4.1394,-1.678 -2.0475,0.8529 m 4.0503,-1.7335 -2.0028,0.8806 m 3.9604,-1.7893 -1.9576,0.9087 m 3.8696,-1.8456 -1.912,0.9369 m 3.7779,-1.9023 -1.8659,0.9654 m 3.6854,-1.9593 -1.8195,0.9939 m 3.5919,-2.0167 -1.7724,1.0228 m 3.4975,-2.0746 -1.7251,1.0518 m 3.4023,-2.1328 -1.6772,1.081 m 3.3062,-2.1913 -1.629,1.1103 m 3.2092,-2.2503 -1.5802,1.14 m 3.1113,-2.3097 -1.5311,1.1697 m 3.0125,-2.3693 -1.4814,1.1996 m 2.9128,-2.4295 -1.4314,1.2299 m 2.8123,-2.49004 -1.3809,1.26014 m 2.7109,-2.55086 -1.33,1.29072 m 2.6085,-2.61217 -1.2785,1.32145 m 2.5052,-2.67383 -1.2267,1.35238 m 2.4012,-2.73588 -1.1745,1.3835 m 2.2962,-2.79831 -1.1217,1.41481 m 2.1902,-2.86113 -1.0685,1.44632 m 2.0835,-2.92433 -1.015,1.47801 m 1.9759,-2.98792 -0.9609,1.50991 m 1.8672,-3.0519 -0.9063,1.54199 m 1.7578,-3.11625 -0.8515,1.57426 m 1.6476,-3.18099 -0.7961,1.60673 m 1.5363,-3.24612 -0.7402,1.63939 m 1.4242,-3.31163 -0.684,1.67224 m 1.3112,-3.37753 -0.6272,1.70529 m 1.1973,-3.44381 -0.5701,1.73852 m 1.0826,-3.51048 -0.5125,1.77196 m 0.9669,-3.57754 -0.4544,1.80558 m 0.8504,-3.64497 -0.396,1.83939 m 0.733,-3.71279 -0.337,1.8734 m 0.6146,-3.78101 -0.2776,1.90761 m 0.4954,-3.84961 -0.2178,1.942 m 0.3754,-3.91858 -0.1576,1.97658 m 0.2544,-3.98794 -0.097,2.01136 m 0.1327,-4.0577 -0.036,2.04634 m 0.01,-4.12783 0.026,2.08149 m -0.1139,-4.19834 0.088,2.11685 m -0.2385,-4.26925 0.1505,2.1524 m -0.3639,-4.34054 0.2134,2.18814 m -0.4901,-4.41222 0.2767,2.22408 m -0.6173,-4.48428 0.3406,2.2602 m -0.7454,-4.55673 0.4048,2.29653 m -0.8744,-4.62956 0.4696,2.33303 m -1.0043,-4.70277 0.5347,2.36974 m -1.135,-4.77637 0.6003,2.40663 m -1.2666,-4.85036 0.6663,2.44373 m -1.3991,-4.92473 0.7328,2.481 m -1.5325,-4.99948 0.7997,2.51848 m -1.6668,-5.07463 0.8671,2.55615 m -1.802,-5.15016 0.9349,2.59401 m -1.9381,-5.22607 1.0032,2.63206 m -2.0751,-5.30236 1.0719,2.6703 m -3.4235,-8.12641 2.3516,5.45611 m -4.9833,-11.06751 2.6317,5.6114 m -5.5472,-11.37964 2.9155,5.76824 m -6.1181,-11.69484 3.2026,5.9266 m -6.6961,-12.01311 3.4935,6.08651 m -7.2812,-12.33448 3.7877,6.24797 m -7.8734,-12.65894 4.0857,6.41097 m -8.4727,-12.98646 4.387,6.57549 m -9.0791,-13.31705 4.6921,6.74156 m -15.0054,-20.72909 10.3133,13.98753 m -21.8891,-28.65783 11.5758,14.6703 m -24.44261,-30.03571 12.86681,15.36541 m -38.40815,-14.91628 25.54134,-0.44913 m -50.16927,0.37946 24.62793,0.0697 m -48.3656,-0.63978 23.73767,0.57008 m -46.60822,-1.62218 22.87055,1.0521 m -44.89712,-2.56784 22.02657,1.51574 m -43.2323,-3.47673 21.20573,1.96099 m -41.61376,-4.34884 20.40803,2.38785 m -40.04151,-5.18417 19.63348,2.79632 m -38.51555,-5.98272 18.88207,3.1864 m -37.03586,-6.74451 18.15379,3.55811 m -35.60245,-7.46954 17.44866,3.91143 m -34.21534,-8.15777 16.76668,4.24634 m -32.87451,-8.80922 16.10783,4.56288 m -31.57994,-9.4239 15.47211,4.86102 m -30.33166,-10.00181 14.85955,5.14079 m -29.12969,-10.54296 14.27014,5.40217 m -27.97398,-11.04732 13.70384,5.64515 m -26.86456,-11.5149 13.16072,5.86975 m -25.80143,-11.94572 12.64071,6.07597 m -24.78456,-12.33975 12.14385,6.26378 m -23.81399,-12.697 11.67014,6.43322 m -22.8897,-13.0175 11.21956,6.58428 m -22.0117,-13.30121 10.79214,6.71693 m -21.17997,-13.54814 10.38783,6.83121 m -20.39453,-13.75831 10.0067,6.9271 m -19.65538,-13.9317 9.64868,7.0046 m -18.9625,-14.0683 9.31382,7.0637 m -18.31591,-14.16814 9.00209,7.10444 m -26.16367,-21.36192 17.16158,14.25748 m -33.35396,-28.45722 16.19238,14.19974 m -74.97253,-67.4792 58.78015,53.27946 m -65.83569,-59.24005 7.05554,5.96059 m -14.12334,-11.70448 7.0678,5.74389 m -14.17102,-11.2527 7.10322,5.50881 m -14.26496,-10.76415 7.16174,5.25534 m -14.40516,-10.23881 7.24342,4.98347 m -10.903,-7.36751 3.65958,2.38404 m -7.34825,-4.69321 3.68867,2.30917 m -7.40934,-4.54119 3.72067,2.23202 m -7.47621,-4.38459 3.75554,2.15257 m -7.54886,-4.22337 3.79332,2.0708 m -7.62732,-4.05755 3.834,1.98675 m -7.71156,-3.88716 3.87756,1.90041 m -7.80157,-3.71216 3.92401,1.81175 m -7.89736,-3.53255 3.97335,1.7208 m -7.99895,-3.34835 4.0256,1.62755 m -8.10633,-3.15955 4.08073,1.532 m -8.21949,-2.96615 4.13876,1.43415 m -8.33843,-2.76817 4.19967,1.33402 m -8.46315,-2.56559 4.26348,1.23157 m -8.59366,-2.3584 4.33018,1.12683 m -8.72997,-2.14662 4.39979,1.01979 m -8.87207,-1.93025 4.47228,0.91046 m -9.01993,-1.70928 4.54765,0.79882 m -9.17357,-1.4837 4.62592,0.68488 m -9.33301,-1.25354 4.70709,0.56866 m -9.49825,-1.01878 4.79116,0.45012 m -9.66927,-0.77941 4.87811,0.32929 m -9.84606,-0.53546 4.96795,0.20617 m -10.02863,-0.2869 5.06068,0.0807 m -10.21701,-0.0337 5.15633,-0.047 m -10.41117,0.22401 5.25484,-0.17701 m -10.61109,0.48634 5.35625,-0.30933 m -10.81681,0.75328 5.46056,-0.44395 m -11.02834,1.02482 5.56778,-0.58087 m -11.24563,1.30096 5.67785,-0.72009 m -11.4687,1.58169 5.79085,-0.8616 m -11.69757,1.86702 5.90672,-1.00542 m -11.93222,2.15694 6.0255,-1.15152 m -12.17266,2.45146 6.14716,-1.29994 m -12.41888,2.75059 6.27172,-1.45065 m -12.67089,3.0543 6.39917,-1.60365 m -19.59143,5.27918 13.19226,-3.67553 m 4907.78453,-1010.13164 -119.5368,-3.97455 m 173.8748,117.3213 a 70.866174,70.866174 0 0 0 -54.338,-113.34675 M 277.01119,1021.8528 a 70.866174,70.866174 0 0 0 50.12935,29.4667 M 4.8976562,637.96901 277.01119,1021.8528 M 8.8425581,550.94329 A 70.866174,70.866174 0 0 0 4.8976562,637.96901 M 327.14054,1051.3195 1274.7822,1154.6986 m 0,0 a 17.716549,17.716549 0 0 0 19.5334,-15.6908 m 78.3897,26.3733 871.5623,95.0795 m -887.2531,-114.6129 a 17.716549,17.716549 0 0 0 15.6908,19.5334 m 972.1582,77.363 a 17.716549,17.716549 0 0 0 17.7166,17.7165 m -118.3125,0 19.8085,0 m 0,0 a 17.716549,17.716549 0 0 0 17.7165,-17.7165 m 1698.6963,17.7165 a 70.866174,70.866174 0 0 0 56.6929,-28.3464 m -187.085,28.3464 130.3921,0 m -148.1087,-17.7165 a 17.716549,17.716549 0 0 0 17.7166,17.7165 m -1487.5167,0 1389.0127,0 m 0,0 a 17.716549,17.716549 0 0 0 17.7165,-17.7165 m 418.769,-241.3529 a 17.716549,17.716549 0 0 0 24.8032,-3.54327 m -175.6997,234.26627 116.5973,-155.4631 m 0,0 a 17.716549,17.716549 0 0 0 -3.5433,-24.8031 m 62.6457,-54.00007 657.7124,-876.94987 m -2525.7304,1063.12434 0,58.7217 m 0,-58.7217 a 11.515756,11.515756 0 1 0 -16.2813,-15.6878 m -30.8626,0 30.8626,0 m -30.8626,0 a 11.515756,11.515756 0 1 0 -15.927,15.927 m 0,58.4825 0,-58.4825 m 1550.5876,-0.2392 0,58.7217 m 0,-58.7217 a 11.515756,11.515756 0 1 0 -16.2813,-15.6878 m -30.8626,0 30.8626,0 m -30.8626,0 a 11.515756,11.515756 0 1 0 -15.927,15.927 m 0,58.4825 0,-58.4825 m 371.7917,-218.10335 46.9773,35.23295 m -46.9773,-35.23295 a 11.515756,11.515756 0 1 0 -22.3191,3.61235 m -18.5175,24.69008 18.5175,-24.69008 m -18.5175,24.69008 a 11.515756,11.515756 0 1 0 3.1854,22.29772 m 46.786,35.0896 -46.786,-35.0896 m -2740.0671,70.714 -6.3682,58.3753 m 6.3682,-58.3753 a 11.515756,11.515756 0 1 0 -14.4839,-17.361 m -30.6806,-3.3469 30.6806,3.3469 m -30.6806,-3.3469 a 11.515756,11.515756 0 1 0 -17.5603,14.1058 m -6.3423,58.1375 6.3423,-58.1375 M 4929.6963,42.094867 5209.8935,-331.50139 M 4904.8931,45.638179 a 17.716549,17.716549 0 0 0 24.8032,-3.543312 m -71.7805,-31.689675 46.9773,35.232987 m -46.9773,-35.232987 a 11.515756,11.515756 0 1 0 -22.3191,3.612342 m -18.5175,24.690082 18.5175,-24.690082 m -18.5175,24.690082 a 11.515756,11.515756 0 1 0 3.1854,22.29777 m 46.786,35.089507 -46.786,-35.089507 m 50.3293,59.892674 a 17.716549,17.716549 0 0 0 -3.5433,-24.803167 m -2337.5992,-663.154653 0.098,0.0524 M 2146.5481,542.47702 a 11.515756,11.515756 0 0 0 20.3789,-9.50684 m 1.3477,-1.36954 -1.3477,1.36954 m 1.3477,-1.36954 a 11.515756,11.515756 0 0 0 4.7738,-22.53097 m 19.8488,-20.16944 -19.8488,20.16944 m 43.8415,3.44125 -23.9927,-23.61069 m 31.5688,31.06665 -7.5761,-7.45596 m 15.1522,14.91193 -7.5761,-7.45597 m 31.5689,31.06695 -23.9928,-23.61098 m 4.0177,43.9082 19.9751,-20.29722 m -19.9751,20.29722 a 11.515756,11.515756 0 1 0 -22.4517,5.13354 m -1.2503,1.27051 1.2503,-1.27051 m -1.2503,1.27051 a 11.515756,11.515756 0 1 0 0,22.50446 m 23.7753,23.59275 -23.7767,-23.59275 m 23.8013,48.69776 a 17.716549,17.716549 0 0 0 -0.025,-25.10501 m -41.5371,66.58783 41.5621,-41.48282 m -41.5621,41.48282 a 11.515756,11.515756 0 1 0 0.3981,22.60599 m 21.8023,21.84398 -21.8023,-21.84398 m 21.8023,21.84398 a 11.515756,11.515756 0 1 0 22.5241,0.0215 m 41.3929,-41.31388 -41.3929,41.31388 m 66.4876,-41.2484 a 17.716549,17.716549 0 0 0 -25.0947,-0.0655 m 39.4251,14.49059 -14.3304,-14.42509 m 14.3304,14.42509 a 11.515756,11.515756 0 1 0 22.4903,-0.0171 m 1.3488,-1.36852 -1.3488,1.36857 m 1.3488,-1.36857 a 11.515756,11.515756 0 0 0 4.7898,-22.52756 m 19.8631,-20.15527 -19.8631,20.15527 m 43.8391,3.47251 -23.976,-23.62778 m 31.5467,31.08915 -7.5707,-7.46137 m 15.1415,14.92275 -7.5708,-7.46138 m 31.5468,31.08946 -23.976,-23.62808 m 3.9864,43.91106 19.9896,-20.28298 m -19.9896,20.28298 a 11.515756,11.515756 0 1 0 -22.4554,5.1175 m -1.2512,1.26963 1.2512,-1.26963 m -1.2512,1.26963 a 11.515756,11.515756 0 1 0 0.077,22.4835 m 87.5192,85.43714 -87.519,-85.43714 m 110.3859,105.47956 -22.8669,-20.04242 m 22.8669,20.04242 a 11.515756,11.515756 0 1 0 22.5901,-0.82621 m 1.3332,-1.38371 -1.3332,1.38371 m 1.3332,-1.38371 a 11.515756,11.515756 0 0 0 4.5352,-22.58018 m 19.6344,-20.3782 -19.6344,20.3782 m 43.8755,2.97744 -24.2411,-23.35564 m 31.8956,30.73109 -7.6545,-7.37545 m 15.309,14.75088 -7.6545,-7.37543 m 31.8957,30.73138 -24.2412,-23.35595 m 4.4819,43.86327 19.7593,-20.50732 m -19.7593,20.50732 a 11.515756,11.515756 0 1 0 -22.3962,5.37065 m -1.2368,1.28367 1.2368,-1.28367 m -1.2368,1.28367 a 11.515756,11.515756 0 1 0 0.099,22.53387 m -4e-4,0 a 995.71992,995.71992 0 0 0 113.4218,100.22399 m 0,0 a 11.515756,11.515756 0 1 0 21.5319,-4.3847 m 0.9059,-1.6945 -0.9059,1.6945 m 0.9059,-1.6945 a 11.515756,11.515756 0 0 0 -1.7866,-22.9617 m 13.3414,-24.95575 -13.3414,24.95575 m 43.0276,-9.086 -29.6862,-15.86975 m 39.0601,20.88145 -9.3739,-5.0117 m 18.7479,10.0233 -9.374,-5.0116 m 39.0603,20.8817 -29.6863,-15.8701 m 16.2599,40.9841 13.4264,-25.114 m -13.4264,25.114 a 11.515756,11.515756 0 1 0 -20.0866,11.2678 m -0.8404,1.572 0.8404,-1.572 m -0.8404,1.572 a 11.515756,11.515756 0 1 0 8.5272,20.0502 m 0,0 a 245.0526,245.0526 0 0 0 147.4331,0.8606 m 0,0 a 11.515756,11.515756 0 1 0 9.1871,-19.7799 m -0.8653,-1.7156 0.8653,1.7156 m -0.8653,-1.7156 a 11.515756,11.515756 0 0 0 -19.8123,-11.7433 m -12.7437,-25.2662 12.7437,25.2662 m 17.3113,-40.4258 -30.055,15.1596 m 39.5459,-19.9463 -9.4909,4.7867 m 18.9817,-9.5734 -9.4908,4.7867 m 39.5461,-19.94622 -30.0553,15.15952 m 42.8796,10.2672 -12.8243,-25.42672 m 12.8243,25.42672 a 11.515756,11.515756 0 1 0 -2.3331,22.9127 m 0.8027,1.5912 -0.8027,-1.5912 m 0.8027,1.5912 a 11.515756,11.515756 0 1 0 21.364,5.1734 m 0,0 a 1137.6266,1137.6266 0 0 0 117.405,-95.3454 m 0,0 a 11.515756,11.515756 0 1 0 1.2662,-22.47902 m -1.2824,-1.43091 1.2824,1.43091 m -1.2824,-1.43091 a 11.515756,11.515756 0 0 0 -22.1876,-6.176 m -18.8862,-21.07348 18.8862,21.07348 m 6.1813,-43.53984 -25.0675,22.46636 m 32.9835,-29.5604 -7.916,7.09404 m 15.832,-14.18809 -7.916,7.09405 m 32.9838,-29.56044 -25.0678,22.46639 m 44.0736,-1.25887 -19.0058,-21.20752 m 19.0058,21.20752 a 11.515756,11.515756 0 1 0 3.7168,22.72925 m 1.1897,1.32747 -1.1897,-1.32747 m 1.1897,1.32747 a 11.515756,11.515756 0 1 0 22.4706,1.48158 m 117.0953,-98.05906 -117.0953,98.05906 m 117.0953,-98.05906 a 11.515756,11.515756 0 1 0 2.8225,-22.40849 m -1.1576,-1.53367 1.1576,1.53367 m -1.1576,-1.53367 a 11.515756,11.515756 0 0 0 -21.5898,-8.01958 m -17.0476,-22.58675 17.0476,22.58675 m 9.8201,-42.86597 -26.8677,20.27922 m 35.3521,-26.68261 -8.4844,6.40339 m 16.9688,-12.80677 -8.4844,6.40338 m 35.3524,-26.68262 -26.868,20.27924 m 44.0235,2.45114 -17.1555,-22.73038 m 17.1555,22.73038 a 11.515756,11.515756 0 1 0 1.7926,22.96126 m 1.0738,1.4228 -1.0738,-1.4228 m 1.0738,1.4228 a 11.515756,11.515756 0 1 0 22.2794,3.62035 m 127.3222,-84.57314 a 2123.9843,2123.9843 0 0 0 -127.3222,84.57314 m 127.3222,-84.57314 a 11.515756,11.515756 0 1 0 5.3959,-21.92959 m -0.973,-1.65689 0.973,1.65689 m -0.973,-1.65689 a 11.515756,11.515756 0 0 0 -20.5213,-10.45518 m -14.3299,-24.40154 14.3299,24.40154 m 14.6966,-41.44799 -29.0265,17.04645 m 38.1925,-22.42898 -9.166,5.38253 m 18.3321,-10.76505 -9.1661,5.38252 m 38.1929,-22.42896 -29.0268,17.04644 m 43.4473,7.51022 -14.4205,-24.55666 m 14.4205,24.55666 a 11.515756,11.515756 0 1 0 -0.8665,23.01484 m 0.9027,1.53711 -0.9027,-1.53711 m 0.9027,1.53711 a 11.515756,11.515756 0 1 0 21.7151,6.14164 m 22.7816,-12.53362 -22.7816,12.53362 m 46.9743,-5.09962 a 17.716549,17.716549 0 0 0 -24.1927,-7.434 m 51.1632,59.59548 -26.9705,-52.16148 m 26.9705,52.16148 a 11.515756,11.515756 0 1 0 21.6678,6.45734 m 27.4148,-14.17504 -27.4148,14.17504 m 27.4148,-14.17504 a 11.515756,11.515756 0 1 0 6.8325,-21.46286 m -26.8608,-51.94907 26.8608,51.94907 m -18.9463,-75.97963 a 17.716549,17.716549 0 0 0 -7.9145,24.03056 m 32.7562,-36.09465 -24.8417,12.06409 m 24.8417,-12.06409 a 11.515756,11.515756 0 1 0 7.6106,-21.25002 m -0.8027,-1.7458 0.8027,1.7458 m -0.8027,-1.7458 a 11.515756,11.515756 0 0 0 -19.3744,-12.45243 m -11.8212,-25.71071 11.8212,25.71071 m 18.7626,-39.77295 -30.5838,14.06224 m 40.2416,-18.50241 -9.6578,4.44017 m 19.3156,-8.88034 -9.6578,4.44017 m 40.242,-18.50235 -30.5842,14.06218 m 42.4801,11.81192 -11.8959,-25.8741 m 11.8959,25.8741 a 11.515756,11.515756 0 1 0 -3.1608,22.81322 m 0.7446,1.61958 -0.7446,-1.61958 m 0.7446,1.61958 a 11.515756,11.515756 0 1 0 21.0035,8.22022 m 79.2038,-33.28056 -79.2038,33.28056 m 142.3699,-54.56334 -63.1661,21.28278 m 63.1661,-21.28278 a 11.515756,11.515756 0 1 0 9.8729,-20.19767 m -0.639,-1.81209 0.639,1.81209 m -0.639,-1.81209 a 11.515756,11.515756 0 0 0 -18.1498,-14.17811 m -9.4115,-26.68716 9.4115,26.68716 m 22.3339,-37.883 -31.7454,11.19584 m 41.77,-14.73084 -10.0246,3.535 m 20.0492,-7.07001 -10.0246,3.53501 m 41.7703,-14.73076 -31.7457,11.19575 m 41.2166,15.66098 -9.4709,-26.85673 m 9.4709,26.85673 a 11.515756,11.515756 0 1 0 -5.2413,22.42682 m 0.5928,1.68109 -0.5928,-1.68109 m 0.5928,1.68109 a 11.515756,11.515756 0 1 0 20.277,9.63647 m 0,0 a 1335.972,1335.972 0 0 0 139.8398,-59.10964 m 0,0 a 11.515756,11.515756 0 1 0 6.6371,-21.29331 m -0.9624,-1.66306 0.9624,1.66306 m -0.9624,-1.66306 a 11.515756,11.515756 0 0 0 -20.4544,-10.58543 m -14.1745,-24.49215 14.1745,24.49215 m 14.9598,-41.35371 -29.1343,16.86156 m 38.3344,-22.1857 -9.2001,5.32414 m 18.4002,-10.64829 -9.2001,5.32415 m 38.3347,-22.18568 -29.1346,16.86153 m 43.3987,7.78631 -14.2641,-24.64784 m 14.2641,24.64784 a 11.515756,11.515756 0 1 0 -1.0128,23.00885 m 0.8929,1.54282 -0.8929,-1.54282 m 0.8929,1.54282 a 11.515756,11.515756 0 1 0 21.7078,4.99744 m 0,0 a 910.32372,910.32372 0 0 0 118.5582,-94.35365 m 0,0 a 11.515756,11.515756 0 1 0 0.5631,-22.38744 m -1.3586,-1.35879 1.3586,1.35879 m -1.3586,-1.35879 a 11.515756,11.515756 0 0 0 -22.4916,-4.95586 m -20.0082,-20.0113 20.0082,20.0113 m 3.7958,-43.81229 -23.804,23.80099 m 31.321,-31.3165 -7.517,7.51551 m 15.034,-15.03102 -7.517,7.51551 m 31.3213,-31.316557 -23.8043,23.801047 m 43.9393,-3.66243 -20.135,-20.138617 m 20.135,20.138617 a 11.515756,11.515756 0 1 0 4.9517,22.49253 m 1.2604,1.26056 -1.2604,-1.26056 m 1.2604,1.26056 a 11.515756,11.515756 0 1 0 22.3946,-0.28821 M 4558.8425,24.949449 4458.0536,138.10855 m 102.6046,-117.064763 -1.8157,3.905662 m 1.8157,-3.905662 a 11.515756,11.515756 0 0 0 -3.8851,-22.6812309 m -1.2419,-1.4662007 1.2419,1.4662007 m -1.2419,-1.4662007 a 11.515756,11.515756 0 0 0 -22.0063,-6.7937333 m -18.2899,-21.5931201 18.2899,21.5931201 m 7.3958,-43.3500511 -25.6857,21.756931 m 33.7969,-28.626954 -8.1112,6.870023 m 16.2223,-13.740047 -8.1111,6.870024 m 33.7971,-28.626984 -25.686,21.75696 m 44.0917,-0.0265 -18.4057,-21.73046 m 18.4057,21.73046 a 11.515756,11.515756 0 1 0 3.08,22.824261 m 1.1521,1.360201 -1.1521,-1.360201 m 1.1521,1.360201 a 11.515756,11.515756 0 1 0 22.4045,4.937813 m 0,0 A 2179.5257,2179.5257 0 0 0 4760.21,-115.14082 m 0,0 a 11.515756,11.515756 0 1 0 3.9346,-21.92774 m -1.1685,-1.52534 1.1685,1.52534 m -1.1685,-1.52534 a 11.515756,11.515756 0 0 0 -21.6466,-7.86489 m -17.2088,-22.46418 17.2088,22.46418 m 9.5131,-42.93514 -26.7219,20.47096 m 35.1602,-26.9349 -8.4383,6.46394 m 16.8767,-12.92787 -8.4384,6.46393 m 35.1605,-26.9349 -26.7221,20.47097 m 44.0399,2.13607 -17.3178,-22.60704 m 17.3178,22.60704 a 11.515756,11.515756 0 1 0 1.9568,22.94785 m 1.084,1.41507 -1.084,-1.41507 m 1.084,1.41507 a 11.515756,11.515756 0 1 0 22.1531,2.05711 m 0,0 A 720.84641,720.84641 0 0 0 4939.38,-284.92777 m 0,0 a 11.515756,11.515756 0 1 0 -3.6,-22.0078 m -1.6059,-1.05505 1.6059,1.05505 m -1.6059,-1.05505 a 11.515756,11.515756 0 0 0 -23.0293,-0.29174 m -23.6506,-15.53798 23.6506,15.53798 m -5.1679,-43.67171 -18.4827,28.13373 m 24.3195,-37.01748 -5.8368,8.88375 m 11.6735,-17.76749 -5.8367,8.88374 m 24.3197,-37.01759 -18.483,28.13385 m 42.2836,-12.49689 -23.8006,-15.63696 m 23.8006,15.63696 a 11.515756,11.515756 0 1 0 9.4102,21.02098 m 1.4897,0.97873 -1.4897,-0.97873 m 1.4897,0.97873 a 11.515756,11.515756 0 1 0 21.696,-5.16872 m 43.4888,-83.43523 -43.4888,83.43523 M 2146.5481,542.47702 a 987.88926,987.88926 0 0 0 -287.2292,-9.04298 M 1133.3341,320.09055 a 15.944888,15.944888 0 1 0 15.8986,27.6051 m 39.9383,-57.14927 -55.8369,29.54417 m 69.9236,-1.02682 a 15.944888,15.944888 0 1 0 -14.0867,-28.51735 m 303.9894,-134.72339 a 15.944888,15.944888 0 1 0 -14.8608,-28.09354 m -53.8764,28.57138 a 15.944888,15.944888 0 1 0 14.4155,28.28614 m -291.8916,164.31999 59.1426,-31.34411 m 289.3983,-162.97234 -58.8676,31.17108 m -15.3103,-27.80984 59.2752,-31.43446 m 1336.0931,147.00648 -1.1168,-1.24866 m 2.2704,2.47482 -1.1536,-1.22616 m 2.3434,2.42826 -1.1898,-1.2021 m 2.4151,2.3786 -1.2253,-1.1765 m 2.4854,2.32591 -1.2601,-1.14941 m 2.5541,2.27023 -1.294,-1.12082 m 2.6208,2.21163 -1.3268,-1.09081 m 2.6856,2.15018 -1.3588,-1.05937 m 2.7483,2.08597 -1.3895,-1.0266 m 2.8085,2.01911 -1.419,-0.99251 m 2.8664,1.94969 -1.4474,-0.95718 m 2.9218,1.87787 -1.4744,-0.92069 m 2.9744,1.80374 -1.5,-0.88305 m 3.0241,1.72743 -1.5241,-0.84438 m 3.0709,1.64912 -1.5468,-0.80474 m 3.1147,1.56895 -1.5679,-0.76421 m 3.1552,1.48708 -1.5873,-0.72287 m 3.1925,1.40369 -1.6052,-0.68082 m 3.2266,1.31893 -1.6214,-0.63811 m 3.2572,1.23299 -1.6358,-0.59488 m 3.2843,1.14607 -1.6485,-0.55119 m 3.308,1.05832 -1.6595,-0.50713 m 3.3282,0.96992 -1.6687,-0.46279 m 3.3449,0.88109 -1.6762,-0.4183 m 3.3581,0.79199 -1.6819,-0.37369 m 3.3678,0.70281 -1.6859,-0.32912 m 3.3739,0.61374 -1.688,-0.28462 m 3.3766,0.52493 -1.6886,-0.24031 m 3.3759,0.43659 -1.6873,-0.19628 m 3.3718,0.34886 -1.6845,-0.15258 m 3.3645,0.26192 -1.68,-0.10934 m 3.3539,0.17594 -1.6739,-0.0666 m 3.3489,0.091 -1.675,-0.0245 m 3.3584,0.007 -1.6834,0.0179 m 3.3737,-0.0787 -1.6903,0.0608 m 3.3858,-0.1651 -1.6955,0.1043 m 3.3946,-0.25251 -1.6991,0.14821 m 3.4001,-0.34069 -1.701,0.19248 m 3.4023,-0.4295 -1.7013,0.23702 m 3.401,-0.51878 -1.6997,0.28176 m 3.3961,-0.60835 -1.6964,0.32659 m 3.3878,-0.69803 -1.6914,0.37144 m 3.3761,-0.78765 -1.6847,0.41621 m 3.3607,-0.877 -1.676,0.46079 m 3.3417,-0.96591 -1.6657,0.50512 m 3.3194,-1.0542 -1.6537,0.54908 m 3.2935,-1.14166 -1.6398,0.59258 m 3.264,-1.22814 -1.6242,0.63556 m 3.2313,-1.31345 -1.6071,0.67789 m 3.1953,-1.39739 -1.5882,0.7195 m 3.156,-1.47982 -1.5678,0.76032 m 3.1136,-1.56056 -1.5458,0.80024 m 3.068,-1.63944 -1.5222,0.8392 m 3.0195,-1.71632 -1.4973,0.87712 m 2.9682,-1.79107 -1.4709,0.91395 m 2.9141,-1.86353 -1.4432,0.94958 m 2.8575,-1.93356 -1.4143,0.98398 m 2.7984,-2.00107 -1.3841,1.01709 m 2.7371,-2.06595 -1.353,1.04886 m 2.6737,-2.1281 -1.3207,1.07924 m 2.6081,-2.18743 -1.2874,1.10819 m 2.5408,-2.24386 -1.2534,1.13567 m 2.4719,-2.29733 -1.2185,1.16166 m 2.4015,-2.34779 -1.183,1.18613 m 2.3349,-2.40287 -1.1519,1.21674 m 2.273,-2.47564 -1.1211,1.2589 m 1.6681,-1.90625 -0.547,0.64735 m 1.0837,-1.30774 -0.5367,0.66039 m 1.0622,-1.33467 -0.5255,0.67428 m 1.0392,-1.36328 -0.5137,0.689 m 1.0144,-1.39357 -0.5007,0.70457 m 0.9878,-1.42552 -0.4871,0.72095 m 0.9596,-1.45915 -0.4725,0.7382 m 0.9296,-1.49445 -0.4571,0.75625 m 0.8979,-1.5314 -0.4408,0.77515 m 0.8644,-1.57002 -0.4236,0.79487 m 0.8292,-1.61028 -0.4056,0.81541 m 0.7923,-1.65218 -0.3867,0.83677 m 0.7538,-1.6957 -0.3671,0.85893 m 0.7135,-1.74082 -0.3464,0.88189 m 0.6715,-1.78754 -0.3251,0.90565 m 0.6279,-1.83585 -0.3028,0.9302 m 0.5826,-1.88571 -0.2798,0.95551 m 0.5357,-1.93712 -0.2559,0.98161 m 0.4872,-1.99006 -0.2313,1.00845 m 0.4371,-2.0445 -0.2058,1.03605 m 0.3853,-2.10041 -0.1795,1.06436 m 0.332,-2.15778 -0.1525,1.09342 m 0.2772,-2.21658 -0.1247,1.12316 m 0.2209,-2.27678 -0.096,1.15362 m 0.1629,-2.33836 -0.067,1.18474 m 0.104,-2.40127 -0.037,1.21653 m 0.043,-2.4655 -0.01,1.24897 m -0.015,-2.53101 0.025,1.28204 m -0.082,-2.59776 0.057,1.31572 m -0.147,-2.66574 0.09,1.35002 m -0.2133,-2.73491 0.1233,1.38489 m -0.2805,-2.80519 0.1572,1.4203 m -0.3491,-2.87658 0.1919,1.45628 m -0.4189,-2.94905 0.227,1.49277 m -0.4898,-3.02254 0.2628,1.52977 m -0.5619,-3.09702 0.2991,1.56725 m -1.0082,-4.81604 0.7091,3.24879 m -1.5695,-6.65281 0.8604,3.40402 m -1.8757,-6.96638 1.0153,3.56236 m -2.1888,-7.28586 1.1735,3.7235 m -2.5081,-7.61052 1.3346,3.88702 m -2.833,-7.93964 1.4984,4.05262 m -3.1627,-8.27254 1.6643,4.21992 m -3.4965,-8.60848 1.8322,4.38856 m -6.0057,-13.67522 4.1735,9.28666 m -9.0316,-19.25513 4.8581,9.96847 m -5.3749,-9.0664 0.5168,-0.90207 m -1.0544,1.76714 0.5376,-0.86507 m -1.096,1.69327 0.5584,-0.8282 m -1.1375,1.61965 0.5791,-0.79145 m -1.1788,1.54629 0.5997,-0.75484 m -1.2199,1.4732 0.6202,-0.71836 m -1.2609,1.40038 0.6407,-0.68202 m -1.3017,1.32784 0.661,-0.64582 m -1.3424,1.25556 0.6814,-0.60974 m -1.383,1.18357 0.7016,-0.57383 m -1.4233,1.11187 0.7217,-0.53804 m -1.4636,1.04044 0.7419,-0.5024 m -1.5037,0.9693 0.7618,-0.4669 m -1.5435,0.89845 0.7817,-0.43155 m -1.5832,0.8279 0.8015,-0.39635 m -1.6228,0.75764 0.8213,-0.36129 m -1.6622,0.68769 0.8409,-0.3264 m -1.7014,0.61804 0.8605,-0.29164 m -1.7404,0.54868 0.8799,-0.25704 m -1.7793,0.47963 0.8994,-0.22259 m -1.8181,0.4109 0.9187,-0.18831 m -1.8566,0.34249 0.9379,-0.15418 m -1.8949,0.27439 0.957,-0.12021 m -1.9331,0.20661 0.9761,-0.0864 m -1.9711,0.13914 0.995,-0.0527 m -2.0089,0.072 1.0139,-0.0193 m -2.0465,0.005 1.0326,0.0141 m -2.0839,-0.0613 1.0513,0.0472 m -2.1212,-0.12741 1.0699,0.0802 m -2.1583,-0.19322 1.0884,0.11302 m -2.1952,-0.2587 1.1068,0.14568 m -2.2318,-0.32383 1.125,0.17815 m -2.2683,-0.38861 1.1433,0.21046 m -2.3046,-0.45305 1.1613,0.24259 m -2.3407,-0.51713 1.1794,0.27454 m -2.3766,-0.58087 1.1972,0.30633 m -2.4123,-0.64425 1.2151,0.33792 m -2.4478,-0.70727 1.2327,0.36935 m -2.483,-0.76993 1.2503,0.40058 m -2.5182,-0.83222 1.2679,0.43164 m -3.8556,-1.38736 2.5877,0.95572 m -5.2442,-2.03346 2.6565,1.07774 m -5.3809,-2.27597 2.7244,1.19823 m -5.5158,-2.51545 2.7914,1.31722 m -5.6489,-2.75187 2.8575,1.43465 m -5.7803,-2.98517 2.9228,1.55052 m -5.91,-3.21532 2.9872,1.6648 m -6.0379,-3.44227 3.0507,1.77747 m -9.339,-5.66394 6.2883,3.88647 m -12.8193,-8.20389 6.531,4.31742 m -13.2973,-9.05226 6.7663,4.73484 m -13.7601,-9.87331 6.9938,5.13847 m -14.2072,-10.66649 7.2134,5.52802 m -14.6383,-11.4312 7.4249,5.90318 m -22.8763,-18.77641 15.4514,12.87323 m -31.6486,-27.06875 16.1972,14.19552 m -50.55,-46.057137 34.3528,31.861617 m -70.8357,-67.494565 36.4829,35.632948 M 2546.2541,-99.785011 2701.4498,59.050915 m -229.8985,-233.004225 74.7028,74.168299 m -109.3114,-106.350609 34.6086,32.18231 m -50.996,-46.63729 16.3874,14.45498 m -32.0817,-27.67337 15.6943,13.21839 m -21.9837,-17.15606 6.2894,3.93767 m -12.6409,-7.69747 6.3515,3.7598 m -12.7635,-7.34356 6.412,3.58376 m -12.8833,-6.99327 6.4713,3.40951 m -13.0005,-6.64662 6.5292,3.23711 m -13.1149,-6.30361 6.5857,3.0665 m -13.2266,-5.96422 6.6409,2.89772 m -13.3356,-5.62846 6.6947,2.73074 m -13.4418,-5.29634 6.7471,2.5656 m -13.5452,-4.96785 6.7981,2.40225 m -13.646,-4.64299 6.8479,2.24074 m -13.7441,-4.32177 6.8962,2.08103 m -13.8394,-4.00418 6.9432,1.92315 m -13.9319,-3.69024 6.9887,1.76709 m -14.0217,-3.37991 7.033,1.61282 m -14.1089,-3.0732 7.0759,1.46038 m -14.1932,-2.77014 7.1173,1.30976 m -14.2748,-2.47071 7.1575,1.16095 m -14.3538,-2.17492 7.1963,1.01397 m -14.43,-1.88276 7.2337,0.86879 m -14.5035,-1.59422 7.2698,0.72543 m -14.5742,-1.30933 7.3044,0.5839 m -14.6421,-1.02806 7.3377,0.44416 m -14.7074,-0.75042 7.3697,0.30626 m -14.7699,-0.47643 7.4002,0.17017 m -14.8297,-0.20606 7.4295,0.0359 m -22.3706,0.28788 14.9411,-0.32378 m -29.9827,1.16286 15.0416,-0.83908 m -30.1728,2.17895 15.1312,-1.33987 m -30.341,3.16598 15.2098,-1.82611 m -30.4873,4.12394 15.2775,-2.29783 m -30.6118,5.05285 15.3343,-2.75502 m -30.7144,5.95271 15.3801,-3.19769 m -30.7952,6.82349 15.4151,-3.6258 m -30.8542,7.6652 15.4391,-4.0394 m -30.8914,8.47787 15.4523,-4.43847 m -30.9066,9.26147 15.4543,-4.823 m -30.9,10.01602 15.4457,-5.19302 m -30.8716,10.74151 15.4259,-5.54849 m -30.8213,11.43793 15.3954,-5.88944 m -30.7492,12.1053 15.3538,-6.21586 m -30.6552,12.7436 15.3014,-6.52774 m -30.5394,13.35283 15.238,-6.82509 m -45.4802,21.30924 30.2422,-14.48415 m -60.2145,30.03227 29.9723,-15.54812 m -60.1605,32.28862 30.1882,-16.7405 m -93.6148,54.50788 63.4266,-37.76738 m -445.8763,271.99458 382.4497,-234.2272 m -534.269,320.66592 151.8193,-86.43872 m -335.7297,186.86724 183.9104,-100.42852 m -185.9907,101.41989 2.0803,-0.99137 m -4.1251,2.05395 2.0448,-1.06258 m -4.0517,2.1951 2.0069,-1.13252 m -3.9735,2.33364 1.9666,-1.20112 m -3.8906,2.4694 1.924,-1.26828 m -3.803,2.60222 1.879,-1.33394 m -3.7109,2.73194 1.8319,-1.398 m -3.6145,2.8584 1.7826,-1.4604 m -3.5136,2.98145 1.731,-1.52105 m -3.4086,3.10095 1.6776,-1.5799 m -3.2996,3.21676 1.622,-1.63686 m -3.1866,3.32872 1.5646,-1.69186 m -3.0698,3.43674 1.5052,-1.74488 m -2.9493,3.54065 1.4441,-1.79577 m -2.8253,3.64033 1.3812,-1.84456 m -2.698,3.73569 1.3168,-1.89113 m -2.5675,3.82658 1.2507,-1.93545 m -2.4339,3.91291 1.1832,-1.97746 m -2.2974,3.99459 1.1142,-2.01713 m -2.1581,4.07152 1.0439,-2.05439 m -2.0163,4.14358 0.9724,-2.08919 m -1.8721,4.2107 0.8997,-2.12151 m -1.7256,4.2728 0.8259,-2.15129 m -1.5771,4.32983 0.7512,-2.17854 m -1.4267,4.38169 0.6755,-2.20315 m -1.2746,4.42831 0.5991,-2.22516 m -1.121,4.46967 0.5219,-2.24451 m -0.9661,4.5057 0.4442,-2.26119 m -0.81,4.53636 0.3658,-2.27517 m -0.6529,4.56162 0.2871,-2.28645 m -0.4951,4.58144 0.208,-2.29499 m -0.3366,4.59579 0.1286,-2.3008 m -0.1778,4.60468 0.049,-2.30388 m -0.019,4.60807 -0.03,-2.30419 m 0.1399,4.60597 -0.1099,-2.30178 m 0.2991,4.59839 -0.1892,-2.29661 m 0.4577,4.58532 -0.2685,-2.28871 m 0.6158,4.56678 -0.3473,-2.27807 m 0.773,4.54281 -0.4257,-2.26474 m 0.9293,4.51343 -0.5036,-2.24869 m 1.0845,4.47866 -0.5809,-2.22997 m 1.2385,4.43857 -0.6576,-2.2086 m 1.3909,4.39317 -0.7333,-2.18457 m 1.5417,4.34254 -0.8084,-2.15797 m 1.6908,4.28674 -0.8824,-2.12877 m 1.8377,4.22582 -0.9553,-2.09705 m 1.9824,4.15987 -1.0271,-2.06282 m 2.1248,4.08897 -1.0977,-2.02615 m 2.2647,4.0132 -1.167,-1.98705 m 2.4019,3.93263 -1.2349,-1.94558 m 2.5362,3.84738 -1.3013,-1.9018 m 2.6675,3.75756 -1.3662,-1.85576 m 2.7956,3.66326 -1.4294,-1.8075 m 2.9203,3.56457 -1.4909,-1.75707 m 3.0417,3.46164 -1.5508,-1.70457 m 3.1594,3.3546 -1.6086,-1.65003 m 3.2732,3.24355 -1.6646,-1.59352 m 3.3832,3.12864 -1.7186,-1.53512 m 3.4892,3.01 -1.7706,-1.47488 m 3.591,2.88777 -1.8204,-1.41289 m 3.6885,2.7621 -1.8681,-1.34921 m 3.7817,2.63314 -1.9136,-1.28393 m 3.8704,2.50104 -1.9568,-1.21711 m 3.9544,2.36596 -1.9976,-1.14885 m 4.0336,2.22806 -2.036,-1.07921 m 4.1081,2.08752 -2.0721,-1.00831 m 4.1778,1.94448 L 1092,409.5017 m 4.2424,1.79911 -2.1367,-0.86294 m 4.302,1.65161 -2.1653,-0.78867 m 4.3564,1.50214 -2.1911,-0.71347 m 4.4056,1.35087 -2.2145,-0.6374 m 4.4497,1.198 -2.2352,-0.5606 m 4.4884,1.04371 -2.2532,-0.48311 m 4.5217,0.88816 -2.2685,-0.40505 m 4.5496,0.73156 -2.2811,-0.32651 m 4.5722,0.57409 -2.2911,-0.24758 m 4.5893,0.41593 -2.2982,-0.16835 m 4.6009,0.25728 -2.3027,-0.0889 m 4.6071,0.0983 -2.3044,-0.009 m 4.6077,-0.0611 -2.3033,0.0702 m 4.6028,-0.21981 -2.2995,0.14961 m 4.5926,-0.3785 -2.2931,0.22889 m 4.5768,-0.53679 -2.2837,0.3079 m 4.5554,-0.69444 -2.2717,0.38654 m 4.5288,-0.85127 -2.2571,0.46473 m 4.4967,-1.00708 -2.2396,0.54235 m 4.4593,-1.16168 -2.2197,0.61933 m 4.4166,-1.31491 -2.1969,0.69558 m 4.3685,-1.46657 -2.1716,0.77099 m 4.3152,-1.61648 -2.1436,0.84549 m 4.2569,-1.76447 -2.1133,0.91898 m 164.6869,-91.20128 -162.5736,90.2823 m 297.8989,-168.77458 -135.3253,78.49228 m 247.6209,-146.6684 -112.2956,68.17612 M 1651.52,113.44486 1558.0353,172.77869 M 1861.2964,-26.241636 1651.5204,113.4448 m 270.2044,-178.389775 -60.4284,38.703339 m 91.5712,-57.440108 -31.1428,18.736769 m 47.0826,-27.692003 -15.9398,8.955234 m 32.205,-17.489966 -16.2652,8.534732 m 24.5386,-12.610422 -8.2734,4.07569 m 16.6505,-8.00546 -8.3771,3.92977 m 16.8654,-7.70001 -8.4883,3.77024 m 17.0955,-7.36737 -8.6072,3.59713 m 17.3405,-7.00753 -8.7333,3.4104 m 17.6004,-6.62049 -8.8671,3.21009 m 17.8753,-6.20626 -9.0082,2.99617 m 18.1651,-5.76484 -9.1569,2.76867 m 18.47,-5.29621 -9.3131,2.52754 m 18.7897,-4.80037 -9.4766,2.27283 m 19.1244,-4.27734 -9.6478,2.00451 m 19.4742,-3.72712 -9.8264,1.72261 m 19.8389,-3.1497 -10.0125,1.42709 m 20.2185,-2.54508 -10.206,1.11799 m 20.613,-1.91326 -10.407,0.79527 m 21.0225,-1.25424 -10.6155,0.45897 m 21.4471,-0.56802 -10.8316,0.10905 m 21.8866,0.14539 -11.055,-0.25444 m 22.3409,0.886 -11.2859,-0.63156 m 22.8103,1.65381 -11.5244,-1.02225 m 23.2947,2.44881 -11.7703,-1.42656 m 23.794,3.27103 -12.0237,-1.84447 m 24.3082,4.12043 -12.2845,-2.27596 m 24.8374,4.99703 -12.5529,-2.72107 m 25.3817,5.90083 -12.8288,-3.17976 m 25.9408,6.83184 -13.112,-3.65208 m 26.5149,7.79004 -13.4029,-4.13796 m 27.104,8.77542 -13.7011,-4.63746 m 27.708,9.78802 -14.0069,-5.15056 m 28.327,10.82782 -14.3201,-5.67726 m 28.9609,11.894809 -14.6408,-6.217549 m 29.6098,12.988992 -14.969,-6.771443 m 30.2737,14.110377 -15.3047,-7.338934 m 30.9525,15.258968 -15.6478,-7.920034 m 31.6463,16.434748 -15.9985,-8.514714 m 32.355,17.637728 -16.3565,-9.123014 m 33.0787,18.867909 -16.7222,-9.744895 m 33.8175,20.12528 -17.0953,-10.380385 m 52.4349,33.102026 -35.3396,-22.721641 m 72.2613,48.1484234 -36.9217,-25.4267824 m 75.4853,53.667496 -38.5636,-28.2407136 m 78.829,59.4041586 -40.2654,-31.163445 m 82.2923,65.358415 -42.0269,-34.19497 m 85.8753,71.53024 -43.8484,-37.33527 m 89.578,77.91966 -45.7296,-40.58439 m 143.0721,131.93566 -97.3425,-91.35127 m 1900.0654,-377.03445 a 70.866174,70.866174 0 0 0 70.8661,-70.86618 m -2055.1191,70.86618 1984.253,0 m -2055.1192,-70.86618 a 70.866174,70.866174 0 0 0 70.8662,70.86618 m -70.8662,-102.48464 0,31.61846 m 35.4331,-67.05154 a 35.433087,35.433087 0 0 0 -35.4331,35.43308 m 96.7324,-35.43308 -61.2993,0 m 79.0158,17.71654 a 17.716549,17.716549 0 0 0 -17.7165,-17.71654 m 17.7165,40.62213 0,-22.90559 m 0,22.90559 a 8.8582802,8.8582802 0 0 0 12.5275,12.5275 m 37.6616,0 -37.6616,0 m 37.6616,0 a 8.8582802,8.8582802 0 1 0 12.5275,-12.5275 m 0,-22.90559 0,22.90559 m 17.7165,-40.62213 a 17.716549,17.716549 0 0 0 -17.7165,17.71654 m 1753.9378,-17.71654 -1736.2213,0 m 1753.9379,17.71654 a 17.716549,17.716549 0 0 0 -17.7166,-17.71654 m 17.7166,40.62213 0,-22.90559 m 0,22.90559 a 8.8582802,8.8582802 0 0 0 12.5275,12.5275 m 37.6616,0 -37.6616,0 m 37.6616,0 a 8.8582802,8.8582802 0 1 0 12.5275,-12.5275 m 0,-22.90559 0,22.90559 m 17.7165,-40.62213 a 17.716549,17.716549 0 0 0 -17.7165,17.71654 m 79.0157,-17.71654 -61.2992,0 m 96.7323,35.43308 a 35.433087,35.433087 0 0 0 -35.4331,-35.43308 m 35.4331,67.05154 0,-31.61846"
       inkscape:connector-curvature="0" />
  </g>
</svg>
