<?xml version="1.0" standalone="no"?>
<!DOCTYPE svg PUBLIC "-//W3C//DTD SVG 1.1//EN" "http://www.w3.org/Graphics/SVG/1.1/DTD/svg11.dtd">
<svg width="194" height="194" viewBox="-85 -109 194 194" xmlns="http://www.w3.org/2000/svg" version="1.1">
<title>OpenSCAD Model</title>
<path d="
M 60.3428,-43 L 68.5143,-43 L 68.5143,-37 L 77.4857,-37 L 77.4857,-43 L 85.6571,-43
 L 85.6571,-37 L 94.6286,-37 L 94.6286,-43 L 103,-43 L 103,-51.3714 L 109,-51.3714
 L 109,-60.3428 L 103,-60.3428 L 103,-68.5143 L 109,-68.5143 L 109,-77.4857 L 103,-77.4857
 L 103,-85.6571 L 109,-85.6571 L 109,-94.6286 L 103,-94.6286 L 103,-103 L 94.6286,-103
 L 94.6286,-109 L 85.6571,-109 L 85.6571,-103 L 77.4857,-103 L 77.4857,-109 L 68.5143,-109
 L 68.5143,-103 L 60.3428,-103 L 60.3428,-109 L 51.3714,-109 L 51.3714,-103 L 43,-103
 L 43,-94.6286 L 37,-94.6286 L 37,-85.6571 L 43,-85.6571 L 43,-77.4857 L 37,-77.4857
 L 37,-68.5143 L 43,-68.5143 L 43,-60.3428 L 37,-60.3428 L 37,-51.3714 L 43,-51.3714
 L 43,-43 L 51.3714,-43 L 51.3714,-37 L 60.3428,-37 z
M -21.4286,-49 L -12.8571,-49 L -12.8571,-43 L -4.28572,-43 L -4.28572,-49 L 4.28571,-49
 L 4.28571,-43 L 12.8571,-43 L 12.8571,-49 L 21.4286,-49 L 21.4286,-43 L 36,-43
 L 36,-51.4 L 30,-51.4 L 30,-59.8 L 36,-59.8 L 36,-68.2 L 30,-68.2
 L 30,-76.6 L 36,-76.6 L 36,-85 L 21.4286,-85 L 21.4286,-79 L 12.8571,-79
 L 12.8571,-85 L 4.28571,-85 L 4.28571,-79 L -4.28572,-79 L -4.28572,-85 L -12.8571,-85
 L -12.8571,-79 L -21.4286,-79 L -21.4286,-85 L -36,-85 L -36,-76.6 L -30,-76.6
 L -30,-68.2 L -36,-68.2 L -36,-59.8 L -30,-59.8 L -30,-51.4 L -36,-51.4
 L -36,-43 L -21.4286,-43 z
M -0.392075,-54.0193 L -0.780365,-54.0769 L -1.16115,-54.1722 L -1.53075,-54.3045 L -1.88559,-54.4723 L -2.22229,-54.6741
 L -2.53758,-54.9079 L -2.82843,-55.1716 L -3.09206,-55.4624 L -3.32588,-55.7777 L -3.52769,-56.1144 L -3.69553,-56.4693
 L -3.82777,-56.8389 L -3.92314,-57.2196 L -3.98074,-57.6079 L -4,-58 L -3.98074,-58.3921 L -3.92314,-58.7803
 L -3.82777,-59.1611 L -3.69553,-59.5307 L -3.52769,-59.8856 L -3.32588,-60.2223 L -3.09206,-60.5376 L -2.82843,-60.8284
 L -2.53758,-61.092 L -2.22229,-61.3259 L -1.88559,-61.5277 L -1.53075,-61.6955 L -1.16115,-61.8278 L -0.780365,-61.9231
 L -0.392075,-61.9807 L 0,-62 L 0.392059,-61.9807 L 0.78035,-61.9231 L 1.16113,-61.8278 L 1.53073,-61.6955
 L 1.88557,-61.5277 L 2.22227,-61.3259 L 2.53757,-61.092 L 2.82841,-60.8284 L 3.09204,-60.5376 L 3.32587,-60.2223
 L 3.52768,-59.8856 L 3.69551,-59.5307 L 3.82776,-59.1611 L 3.92313,-58.7803 L 3.98073,-58.3921 L 4,-58
 L 3.98073,-57.6079 L 3.92313,-57.2196 L 3.82776,-56.8389 L 3.69551,-56.4693 L 3.52768,-56.1144 L 3.32587,-55.7777
 L 3.09204,-55.4624 L 2.82841,-55.1716 L 2.53757,-54.9079 L 2.22227,-54.6741 L 1.88557,-54.4723 L 1.53073,-54.3045
 L 1.16113,-54.1722 L 0.78035,-54.0769 L 0.392059,-54.0193 L 0,-54 z
M 17.7084,-51.9893 L 17.4196,-52.0322 L 17.1364,-52.1031 L 16.8615,-52.2014 L 16.5976,-52.3263 L 16.3472,-52.4764
 L 16.1127,-52.6503 L 15.8963,-52.8463 L 15.7003,-53.0627 L 15.5264,-53.2972 L 15.3763,-53.5476 L 15.2514,-53.8115
 L 15.1531,-54.0864 L 15.0822,-54.3696 L 15.0393,-54.6584 L 15.025,-54.95 L 15.0393,-55.2416 L 15.0822,-55.5304
 L 15.1531,-55.8136 L 15.2514,-56.0885 L 15.3763,-56.3524 L 15.5264,-56.6028 L 15.7003,-56.8373 L 15.8963,-57.0536
 L 16.1127,-57.2497 L 16.3472,-57.4236 L 16.5976,-57.5737 L 16.8615,-57.6985 L 17.1364,-57.7969 L 17.4196,-57.8678
 L 17.7084,-57.9107 L 18,-57.925 L 18.2916,-57.9107 L 18.5804,-57.8678 L 18.8636,-57.7969 L 19.1385,-57.6985
 L 19.4024,-57.5737 L 19.6528,-57.4236 L 19.8873,-57.2497 L 20.1036,-57.0536 L 20.2997,-56.8373 L 20.4736,-56.6028
 L 20.6237,-56.3524 L 20.7485,-56.0885 L 20.8469,-55.8136 L 20.9178,-55.5304 L 20.9607,-55.2416 L 20.975,-54.95
 L 20.9607,-54.6584 L 20.9178,-54.3696 L 20.8469,-54.0864 L 20.7485,-53.8115 L 20.6237,-53.5476 L 20.4736,-53.2972
 L 20.2997,-53.0627 L 20.1036,-52.8463 L 19.8873,-52.6503 L 19.6528,-52.4764 L 19.4024,-52.3263 L 19.1385,-52.2014
 L 18.8636,-52.1031 L 18.5804,-52.0322 L 18.2916,-51.9893 L 18,-51.975 z
M -18.2916,-51.9893 L -18.5804,-52.0322 L -18.8636,-52.1031 L -19.1385,-52.2014 L -19.4024,-52.3263 L -19.6528,-52.4764
 L -19.8873,-52.6503 L -20.1037,-52.8463 L -20.2997,-53.0627 L -20.4736,-53.2972 L -20.6237,-53.5476 L -20.7486,-53.8115
 L -20.8469,-54.0864 L -20.9178,-54.3696 L -20.9607,-54.6584 L -20.975,-54.95 L -20.9607,-55.2416 L -20.9178,-55.5304
 L -20.8469,-55.8136 L -20.7486,-56.0885 L -20.6237,-56.3524 L -20.4736,-56.6028 L -20.2997,-56.8373 L -20.1037,-57.0536
 L -19.8873,-57.2497 L -19.6528,-57.4236 L -19.4024,-57.5737 L -19.1385,-57.6985 L -18.8636,-57.7969 L -18.5804,-57.8678
 L -18.2916,-57.9107 L -18,-57.925 L -17.7084,-57.9107 L -17.4196,-57.8678 L -17.1364,-57.7969 L -16.8615,-57.6985
 L -16.5976,-57.5737 L -16.3472,-57.4236 L -16.1127,-57.2497 L -15.8964,-57.0536 L -15.7003,-56.8373 L -15.5264,-56.6028
 L -15.3763,-56.3524 L -15.2515,-56.0885 L -15.1531,-55.8136 L -15.0822,-55.5304 L -15.0393,-55.2416 L -15.025,-54.95
 L -15.0393,-54.6584 L -15.0822,-54.3696 L -15.1531,-54.0864 L -15.2515,-53.8115 L -15.3763,-53.5476 L -15.5264,-53.2972
 L -15.7003,-53.0627 L -15.8964,-52.8463 L -16.1127,-52.6503 L -16.3472,-52.4764 L -16.5976,-52.3263 L -16.8615,-52.2014
 L -17.1364,-52.1031 L -17.4196,-52.0322 L -17.7084,-51.9893 L -18,-51.975 z
M -12.6572,30 L -4.48572,30 L -4.48572,36 L 4.4857,36 L 4.4857,30 L 12.6571,30
 L 12.6571,36 L 21.6286,36 L 21.6286,30 L 30,30 L 30,21.6286 L 36,21.6286
 L 36,12.6572 L 30,12.6572 L 30,4.48572 L 36,4.48572 L 36,-4.4857 L 30,-4.4857
 L 30,-12.6571 L 36,-12.6571 L 36,-21.6286 L 30,-21.6286 L 30,-30 L 21.6286,-30
 L 21.6286,-36 L 12.6571,-36 L 12.6571,-30 L 4.4857,-30 L 4.4857,-36 L -4.48572,-36
 L -4.48572,-30 L -12.6572,-30 L -12.6572,-36 L -21.6286,-36 L -21.6286,-30 L -30,-30
 L -30,-21.6286 L -36,-21.6286 L -36,-12.6571 L -30,-12.6571 L -30,-4.4857 L -36,-4.4857
 L -36,4.48572 L -30,4.48572 L -30,12.6572 L -36,12.6572 L -36,21.6286 L -30,21.6286
 L -30,30 L -21.6286,30 L -21.6286,36 L -12.6572,36 z
M 60,30 L 68,30 L 68,36 L 76.8,36 L 76.8,30 L 85,30
 L 85,21.4285 L 79,21.4285 L 79,12.8571 L 85,12.8571 L 85,4.28569 L 79,4.28569
 L 79,-4.28572 L 85,-4.28572 L 85,-12.8571 L 79,-12.8571 L 79,-21.4286 L 85,-21.4286
 L 85,-30 L 76.8,-30 L 76.8,-36 L 68,-36 L 68,-30 L 60,-30
 L 60,-36 L 51.2,-36 L 51.2,-30 L 43,-30 L 43,-21.4286 L 49,-21.4286
 L 49,-12.8571 L 43,-12.8571 L 43,-4.28572 L 49,-4.28572 L 49,4.28569 L 43,4.28569
 L 43,12.8571 L 49,12.8571 L 49,21.4285 L 43,21.4285 L 43,30 L 51.2,30
 L 51.2,36 L 60,36 z
M 56.5604,-14.0441 L 56.1745,-14.1014 L 55.7961,-14.1962 L 55.4288,-14.3276 L 55.0762,-14.4944 L 54.7416,-14.6949
 L 54.4283,-14.9273 L 54.1392,-15.1893 L 53.8773,-15.4783 L 53.6449,-15.7916 L 53.4443,-16.1262 L 53.2776,-16.4788
 L 53.1461,-16.8461 L 53.0514,-17.2245 L 52.9941,-17.6104 L 52.975,-18 L 52.9941,-18.3896 L 53.0514,-18.7755
 L 53.1461,-19.1539 L 53.2776,-19.5212 L 53.4443,-19.8738 L 53.6449,-20.2084 L 53.8773,-20.5217 L 54.1392,-20.8108
 L 54.4283,-21.0727 L 54.7416,-21.3051 L 55.0762,-21.5056 L 55.4288,-21.6724 L 55.7961,-21.8038 L 56.1745,-21.8986
 L 56.5604,-21.9559 L 56.95,-21.975 L 57.3396,-21.9559 L 57.7255,-21.8986 L 58.1039,-21.8038 L 58.4711,-21.6724
 L 58.8238,-21.5056 L 59.1584,-21.3051 L 59.4717,-21.0727 L 59.7607,-20.8108 L 60.0227,-20.5217 L 60.2551,-20.2084
 L 60.4556,-19.8738 L 60.6224,-19.5212 L 60.7538,-19.1539 L 60.8486,-18.7755 L 60.9058,-18.3896 L 60.925,-18
 L 60.9058,-17.6104 L 60.8486,-17.2245 L 60.7538,-16.8461 L 60.6224,-16.4788 L 60.4556,-16.1262 L 60.2551,-15.7916
 L 60.0227,-15.4783 L 59.7607,-15.1893 L 59.4717,-14.9273 L 59.1584,-14.6949 L 58.8238,-14.4944 L 58.4711,-14.3276
 L 58.1039,-14.1962 L 57.7255,-14.1014 L 57.3396,-14.0441 L 56.95,-14.025 z
M 57.6079,3.98071 L 57.2196,3.92311 L 56.8388,3.82774 L 56.4692,3.6955 L 56.1144,3.52766 L 55.7777,3.32585
 L 55.4624,3.09203 L 55.1716,2.8284 L 54.9079,2.53755 L 54.6741,2.22226 L 54.4723,1.88556 L 54.3045,1.53072
 L 54.1722,1.16112 L 54.0768,0.780334 L 54.0192,0.392044 L 54,-0 L 54.0192,-0.392075 L 54.0768,-0.780365
 L 54.1722,-1.16115 L 54.3045,-1.53075 L 54.4723,-1.88559 L 54.6741,-2.22229 L 54.9079,-2.53758 L 55.1716,-2.82843
 L 55.4624,-3.09206 L 55.7777,-3.32588 L 56.1144,-3.52769 L 56.4692,-3.69553 L 56.8388,-3.82777 L 57.2196,-3.92314
 L 57.6079,-3.98074 L 58,-4 L 58.392,-3.98074 L 58.7803,-3.92314 L 59.1611,-3.82777 L 59.5307,-3.69553
 L 59.8856,-3.52769 L 60.2223,-3.32588 L 60.5376,-3.09206 L 60.8284,-2.82843 L 61.092,-2.53758 L 61.3259,-2.22229
 L 61.5277,-1.88559 L 61.6955,-1.53075 L 61.8277,-1.16115 L 61.9231,-0.780365 L 61.9807,-0.392075 L 62,-0
 L 61.9807,0.392044 L 61.9231,0.780334 L 61.8277,1.16112 L 61.6955,1.53072 L 61.5277,1.88556 L 61.3259,2.22226
 L 61.092,2.53755 L 60.8284,2.8284 L 60.5376,3.09203 L 60.2223,3.32585 L 59.8856,3.52766 L 59.5307,3.6955
 L 59.1611,3.82774 L 58.7803,3.92311 L 58.392,3.98071 L 58,3.99998 z
M 56.5604,21.9558 L 56.1745,21.8986 L 55.7961,21.8038 L 55.4288,21.6724 L 55.0762,21.5056 L 54.7416,21.3051
 L 54.4283,21.0727 L 54.1392,20.8107 L 53.8773,20.5217 L 53.6449,20.2084 L 53.4443,19.8738 L 53.2776,19.5211
 L 53.1461,19.1539 L 53.0514,18.7755 L 52.9941,18.3896 L 52.975,18 L 52.9941,17.6104 L 53.0514,17.2245
 L 53.1461,16.8461 L 53.2776,16.4788 L 53.4443,16.1262 L 53.6449,15.7916 L 53.8773,15.4783 L 54.1392,15.1892
 L 54.4283,14.9273 L 54.7416,14.6949 L 55.0762,14.4943 L 55.4288,14.3276 L 55.7961,14.1961 L 56.1745,14.1013
 L 56.5604,14.0441 L 56.95,14.025 L 57.3396,14.0441 L 57.7255,14.1013 L 58.1039,14.1961 L 58.4711,14.3276
 L 58.8238,14.4943 L 59.1584,14.6949 L 59.4717,14.9273 L 59.7607,15.1892 L 60.0227,15.4783 L 60.2551,15.7916
 L 60.4556,16.1262 L 60.6224,16.4788 L 60.7538,16.8461 L 60.8486,17.2245 L 60.9058,17.6104 L 60.925,18
 L 60.9058,18.3896 L 60.8486,18.7755 L 60.7538,19.1539 L 60.6224,19.5211 L 60.4556,19.8738 L 60.2551,20.2084
 L 60.0227,20.5217 L 59.7607,20.8107 L 59.4717,21.0727 L 59.1584,21.3051 L 58.8238,21.5056 L 58.4711,21.6724
 L 58.1039,21.8038 L 57.7255,21.8986 L 57.3396,21.9558 L 56.95,21.975 z
M -68,30 L -60,30 L -60,36 L -51.2,36 L -51.2,30 L -43,30
 L -43,21.4285 L -49,21.4285 L -49,12.8571 L -43,12.8571 L -43,4.28569 L -49,4.28569
 L -49,-4.28572 L -43,-4.28572 L -43,-12.8571 L -49,-12.8571 L -49,-21.4286 L -43,-21.4286
 L -43,-30 L -51.2,-30 L -51.2,-36 L -60,-36 L -60,-30 L -68,-30
 L -68,-36 L -76.8,-36 L -76.8,-30 L -85,-30 L -85,-21.4286 L -79,-21.4286
 L -79,-12.8571 L -85,-12.8571 L -85,-4.28572 L -79,-4.28572 L -79,4.28569 L -85,4.28569
 L -85,12.8571 L -79,12.8571 L -79,21.4285 L -85,21.4285 L -85,30 L -76.8,30
 L -76.8,36 L -68,36 z
M -57.3396,-14.0441 L -57.7255,-14.1014 L -58.1039,-14.1962 L -58.4711,-14.3276 L -58.8238,-14.4944 L -59.1584,-14.6949
 L -59.4717,-14.9273 L -59.7607,-15.1893 L -60.0227,-15.4783 L -60.2551,-15.7916 L -60.4556,-16.1262 L -60.6224,-16.4788
 L -60.7538,-16.8461 L -60.8486,-17.2245 L -60.9058,-17.6104 L -60.925,-18 L -60.9058,-18.3896 L -60.8486,-18.7755
 L -60.7538,-19.1539 L -60.6224,-19.5212 L -60.4556,-19.8738 L -60.2551,-20.2084 L -60.0227,-20.5217 L -59.7607,-20.8108
 L -59.4717,-21.0727 L -59.1584,-21.3051 L -58.8238,-21.5056 L -58.4711,-21.6724 L -58.1039,-21.8038 L -57.7255,-21.8986
 L -57.3396,-21.9559 L -56.95,-21.975 L -56.5604,-21.9559 L -56.1745,-21.8986 L -55.7961,-21.8038 L -55.4288,-21.6724
 L -55.0762,-21.5056 L -54.7416,-21.3051 L -54.4283,-21.0727 L -54.1392,-20.8108 L -53.8773,-20.5217 L -53.6449,-20.2084
 L -53.4443,-19.8738 L -53.2776,-19.5212 L -53.1461,-19.1539 L -53.0514,-18.7755 L -52.9941,-18.3896 L -52.975,-18
 L -52.9941,-17.6104 L -53.0514,-17.2245 L -53.1461,-16.8461 L -53.2776,-16.4788 L -53.4443,-16.1262 L -53.6449,-15.7916
 L -53.8773,-15.4783 L -54.1392,-15.1893 L -54.4283,-14.9273 L -54.7416,-14.6949 L -55.0762,-14.4944 L -55.4288,-14.3276
 L -55.7961,-14.1962 L -56.1745,-14.1014 L -56.5604,-14.0441 L -56.95,-14.025 z
M -58.392,3.98071 L -58.7803,3.92311 L -59.1611,3.82774 L -59.5307,3.6955 L -59.8856,3.52766 L -60.2223,3.32585
 L -60.5376,3.09203 L -60.8284,2.8284 L -61.092,2.53755 L -61.3259,2.22226 L -61.5277,1.88556 L -61.6955,1.53072
 L -61.8277,1.16112 L -61.9231,0.780334 L -61.9807,0.392044 L -62,-0 L -61.9807,-0.392075 L -61.9231,-0.780365
 L -61.8277,-1.16115 L -61.6955,-1.53075 L -61.5277,-1.88559 L -61.3259,-2.22229 L -61.092,-2.53758 L -60.8284,-2.82843
 L -60.5376,-3.09206 L -60.2223,-3.32588 L -59.8856,-3.52769 L -59.5307,-3.69553 L -59.1611,-3.82777 L -58.7803,-3.92314
 L -58.392,-3.98074 L -58,-4 L -57.6079,-3.98074 L -57.2196,-3.92314 L -56.8388,-3.82777 L -56.4692,-3.69553
 L -56.1144,-3.52769 L -55.7777,-3.32588 L -55.4624,-3.09206 L -55.1716,-2.82843 L -54.9079,-2.53758 L -54.6741,-2.22229
 L -54.4723,-1.88559 L -54.3045,-1.53075 L -54.1722,-1.16115 L -54.0768,-0.780365 L -54.0192,-0.392075 L -54,-0
 L -54.0192,0.392044 L -54.0768,0.780334 L -54.1722,1.16112 L -54.3045,1.53072 L -54.4723,1.88556 L -54.6741,2.22226
 L -54.9079,2.53755 L -55.1716,2.8284 L -55.4624,3.09203 L -55.7777,3.32585 L -56.1144,3.52766 L -56.4692,3.6955
 L -56.8388,3.82774 L -57.2196,3.92311 L -57.6079,3.98071 L -58,3.99998 z
M -57.3396,21.9558 L -57.7255,21.8986 L -58.1039,21.8038 L -58.4711,21.6724 L -58.8238,21.5056 L -59.1584,21.3051
 L -59.4717,21.0727 L -59.7607,20.8107 L -60.0227,20.5217 L -60.2551,20.2084 L -60.4556,19.8738 L -60.6224,19.5211
 L -60.7538,19.1539 L -60.8486,18.7755 L -60.9058,18.3896 L -60.925,18 L -60.9058,17.6104 L -60.8486,17.2245
 L -60.7538,16.8461 L -60.6224,16.4788 L -60.4556,16.1262 L -60.2551,15.7916 L -60.0227,15.4783 L -59.7607,15.1892
 L -59.4717,14.9273 L -59.1584,14.6949 L -58.8238,14.4943 L -58.4711,14.3276 L -58.1039,14.1961 L -57.7255,14.1013
 L -57.3396,14.0441 L -56.95,14.025 L -56.5604,14.0441 L -56.1745,14.1013 L -55.7961,14.1961 L -55.4288,14.3276
 L -55.0762,14.4943 L -54.7416,14.6949 L -54.4283,14.9273 L -54.1392,15.1892 L -53.8773,15.4783 L -53.6449,15.7916
 L -53.4443,16.1262 L -53.2776,16.4788 L -53.1461,16.8461 L -53.0514,17.2245 L -52.9941,17.6104 L -52.975,18
 L -52.9941,18.3896 L -53.0514,18.7755 L -53.1461,19.1539 L -53.2776,19.5211 L -53.4443,19.8738 L -53.6449,20.2084
 L -53.8773,20.5217 L -54.1392,20.8107 L -54.4283,21.0727 L -54.7416,21.3051 L -55.0762,21.5056 L -55.4288,21.6724
 L -55.7961,21.8038 L -56.1745,21.8986 L -56.5604,21.9558 L -56.95,21.975 z
M -21.4286,79 L -12.8571,79 L -12.8571,85 L -4.28572,85 L -4.28572,79 L 4.28571,79
 L 4.28571,85 L 12.8571,85 L 12.8571,79 L 21.4286,79 L 21.4286,85 L 36,85
 L 36,76.6 L 30,76.6 L 30,68.2 L 36,68.2 L 36,59.8 L 30,59.8
 L 30,51.4 L 36,51.4 L 36,43 L 21.4286,43 L 21.4286,49 L 12.8571,49
 L 12.8571,43 L 4.28571,43 L 4.28571,49 L -4.28572,49 L -4.28572,43 L -12.8571,43
 L -12.8571,49 L -21.4286,49 L -21.4286,43 L -36,43 L -36,51.4 L -30,51.4
 L -30,59.8 L -36,59.8 L -36,68.2 L -30,68.2 L -30,76.6 L -36,76.6
 L -36,85 L -21.4286,85 z
M -18.2916,57.9107 L -18.5804,57.8678 L -18.8636,57.7969 L -19.1385,57.6985 L -19.4024,57.5737 L -19.6528,57.4236
 L -19.8873,57.2497 L -20.1037,57.0536 L -20.2997,56.8373 L -20.4736,56.6028 L -20.6237,56.3524 L -20.7486,56.0885
 L -20.8469,55.8136 L -20.9178,55.5304 L -20.9607,55.2416 L -20.975,54.95 L -20.9607,54.6584 L -20.9178,54.3696
 L -20.8469,54.0864 L -20.7486,53.8115 L -20.6237,53.5476 L -20.4736,53.2972 L -20.2997,53.0627 L -20.1037,52.8463
 L -19.8873,52.6503 L -19.6528,52.4764 L -19.4024,52.3263 L -19.1385,52.2014 L -18.8636,52.1031 L -18.5804,52.0322
 L -18.2916,51.9893 L -18,51.975 L -17.7084,51.9893 L -17.4196,52.0322 L -17.1364,52.1031 L -16.8615,52.2014
 L -16.5976,52.3263 L -16.3472,52.4764 L -16.1127,52.6503 L -15.8964,52.8463 L -15.7003,53.0627 L -15.5264,53.2972
 L -15.3763,53.5476 L -15.2515,53.8115 L -15.1531,54.0864 L -15.0822,54.3696 L -15.0393,54.6584 L -15.025,54.95
 L -15.0393,55.2416 L -15.0822,55.5304 L -15.1531,55.8136 L -15.2515,56.0885 L -15.3763,56.3524 L -15.5264,56.6028
 L -15.7003,56.8373 L -15.8964,57.0536 L -16.1127,57.2497 L -16.3472,57.4236 L -16.5976,57.5737 L -16.8615,57.6985
 L -17.1364,57.7969 L -17.4196,57.8678 L -17.7084,57.9107 L -18,57.925 z
M 17.7084,57.9107 L 17.4196,57.8678 L 17.1364,57.7969 L 16.8615,57.6985 L 16.5976,57.5737 L 16.3472,57.4236
 L 16.1127,57.2497 L 15.8963,57.0536 L 15.7003,56.8373 L 15.5264,56.6028 L 15.3763,56.3524 L 15.2514,56.0885
 L 15.1531,55.8136 L 15.0822,55.5304 L 15.0393,55.2416 L 15.025,54.95 L 15.0393,54.6584 L 15.0822,54.3696
 L 15.1531,54.0864 L 15.2514,53.8115 L 15.3763,53.5476 L 15.5264,53.2972 L 15.7003,53.0627 L 15.8963,52.8463
 L 16.1127,52.6503 L 16.3472,52.4764 L 16.5976,52.3263 L 16.8615,52.2014 L 17.1364,52.1031 L 17.4196,52.0322
 L 17.7084,51.9893 L 18,51.975 L 18.2916,51.9893 L 18.5804,52.0322 L 18.8636,52.1031 L 19.1385,52.2014
 L 19.4024,52.3263 L 19.6528,52.4764 L 19.8873,52.6503 L 20.1036,52.8463 L 20.2997,53.0627 L 20.4736,53.2972
 L 20.6237,53.5476 L 20.7485,53.8115 L 20.8469,54.0864 L 20.9178,54.3696 L 20.9607,54.6584 L 20.975,54.95
 L 20.9607,55.2416 L 20.9178,55.5304 L 20.8469,55.8136 L 20.7485,56.0885 L 20.6237,56.3524 L 20.4736,56.6028
 L 20.2997,56.8373 L 20.1036,57.0536 L 19.8873,57.2497 L 19.6528,57.4236 L 19.4024,57.5737 L 19.1385,57.6985
 L 18.8636,57.7969 L 18.5804,57.8678 L 18.2916,57.9107 L 18,57.925 z
M -0.392075,61.9807 L -0.780365,61.9231 L -1.16115,61.8278 L -1.53075,61.6955 L -1.88559,61.5277 L -2.22229,61.3259
 L -2.53758,61.092 L -2.82843,60.8284 L -3.09206,60.5376 L -3.32588,60.2223 L -3.52769,59.8856 L -3.69553,59.5307
 L -3.82777,59.1611 L -3.92314,58.7803 L -3.98074,58.3921 L -4,58 L -3.98074,57.6079 L -3.92314,57.2196
 L -3.82777,56.8389 L -3.69553,56.4693 L -3.52769,56.1144 L -3.32588,55.7777 L -3.09206,55.4624 L -2.82843,55.1716
 L -2.53758,54.9079 L -2.22229,54.6741 L -1.88559,54.4723 L -1.53075,54.3045 L -1.16115,54.1722 L -0.780365,54.0769
 L -0.392075,54.0193 L 0,54 L 0.392059,54.0193 L 0.78035,54.0769 L 1.16113,54.1722 L 1.53073,54.3045
 L 1.88557,54.4723 L 2.22227,54.6741 L 2.53757,54.9079 L 2.82841,55.1716 L 3.09204,55.4624 L 3.32587,55.7777
 L 3.52768,56.1144 L 3.69551,56.4693 L 3.82776,56.8389 L 3.92313,57.2196 L 3.98073,57.6079 L 4,58
 L 3.98073,58.3921 L 3.92313,58.7803 L 3.82776,59.1611 L 3.69551,59.5307 L 3.52768,59.8856 L 3.32587,60.2223
 L 3.09204,60.5376 L 2.82841,60.8284 L 2.53757,61.092 L 2.22227,61.3259 L 1.88557,61.5277 L 1.53073,61.6955
 L 1.16113,61.8278 L 0.78035,61.9231 L 0.392059,61.9807 L 0,62 z
" stroke="black" fill="lightgray" stroke-width="0.5"/></svg>
