<?xml version="1.0" encoding="UTF-8" standalone="no"?>
<svg
   xmlns:dc="http://purl.org/dc/elements/1.1/"
   xmlns:cc="http://creativecommons.org/ns#"
   xmlns:rdf="http://www.w3.org/1999/02/22-rdf-syntax-ns#"
   xmlns:svg="http://www.w3.org/2000/svg"
   xmlns="http://www.w3.org/2000/svg"
   xmlns:sodipodi="http://sodipodi.sourceforge.net/DTD/sodipodi-0.dtd"
   xmlns:inkscape="http://www.inkscape.org/namespaces/inkscape"
   width="330"
   height="390"
   id="svg4155"
   version="1.1"
   inkscape:version="0.91 r13725"
   sodipodi:docname="y-box.svg">
  <metadata
     id="metadata6350">
    <rdf:RDF>
      <cc:Work
         rdf:about="">
        <dc:format>image/svg+xml</dc:format>
        <dc:type
           rdf:resource="http://purl.org/dc/dcmitype/StillImage" />
        <dc:title />
      </cc:Work>
    </rdf:RDF>
  </metadata>
  <sodipodi:namedview
     pagecolor="#ffffff"
     bordercolor="#666666"
     borderopacity="1"
     objecttolerance="10"
     gridtolerance="10"
     guidetolerance="10"
     inkscape:pageopacity="0"
     inkscape:pageshadow="2"
     inkscape:window-width="1920"
     inkscape:window-height="1015"
     id="namedview6348"
     showgrid="false"
     inkscape:zoom="4.4991992"
     inkscape:cx="119.23838"
     inkscape:cy="56.378336"
     inkscape:window-x="0"
     inkscape:window-y="0"
     inkscape:window-maximized="1"
     inkscape:current-layer="g5740"
     units="px" />
  <desc
     id="desc4157">/home/data/y-box.dxf - scale = 0.622678, origin = (-169.253845, -90.000000), auto = True</desc>
  <defs
     id="defs4159">
    <marker
       id="DistanceX"
       orient="auto"
       refX="0"
       refY="0"
       style="overflow:visible">
      <path
         d="M 3,-3 -3,3 M 0,-5 0,5"
         style="stroke:#000000;stroke-width:0.5"
         id="path4162"
         inkscape:connector-curvature="0" />
    </marker>
    <pattern
       height="8"
       id="Hatch"
       patternUnits="userSpaceOnUse"
       width="8"
       x="0"
       y="0">
      <path
         d="M8 4 l-4,4"
         linecap="square"
         stroke="#000000"
         stroke-width="0.25"
         id="path4165" />
      <path
         d="M6 2 l-4,4"
         linecap="square"
         stroke="#000000"
         stroke-width="0.25"
         id="path4167" />
      <path
         d="M4 0 l-4,4"
         linecap="square"
         stroke="#000000"
         stroke-width="0.25"
         id="path4169" />
    </pattern>
    <symbol
       id="*Model_Space" />
    <symbol
       id="*Paper_Space" />
    <symbol
       id="*Paper_Space0" />
  </defs>
  <g
     inkscape:groupmode="layer"
     inkscape:label="0"
     id="g4174"
     transform="translate(0,-662.3622)" />
  <g
     inkscape:groupmode="layer"
     inkscape:label="Default"
     id="g5740"
     transform="translate(0,-662.3622)">
    <g
       id="g4166"
       style="stroke:#ff0000;stroke-opacity:1"
       transform="translate(0,2.2226178)">
      <g
         transform="translate(-237.37558,67.567581)"
         id="g6505"
         style="stroke:#ff0000;stroke-opacity:1">
        <path
           id="path4982"
           style="fill:none;stroke:#ff0000;stroke-opacity:1"
           d="m 410.85877,786.56384 13.80453,23.87571 m -0.0298,-47.76862 -13.77472,23.89291 m 41.35391,-23.91012 -27.57919,0.0172 m 41.38371,23.85845 -13.80452,-23.87565 m 0.0298,47.76858 13.77469,-23.89293 m -41.3539,23.91018 27.57921,-0.0172 m -5.52177,-9.5503 -16.54756,0.0103 m 24.81238,-14.34606 -8.26482,14.33576 m -0.0179,-28.6612 8.28274,14.32544 m -24.83022,-14.31507 16.54748,-0.0104 m -24.81234,14.34614 8.26486,-14.33574 m 0.0178,28.66115 -8.2827,-14.32541 m 11.67241,4.38482 1.59673,1.29135 m -2.7163,-3.01306 1.11957,1.72171 m -1.65237,-3.70489 0.5328,1.98318 m -0.42656,-4.03419 -0.10624,2.05101 m 0.84098,-3.96864 -0.73474,1.91763 m 2.02609,-3.51437 -1.29135,1.59674 m 3.01307,-2.71641 -1.72172,1.11967 m 3.70494,-1.65232 -1.98322,0.53265 m 4.03418,-0.42649 -2.05096,-0.10616 m 3.96859,0.84091 -1.91763,-0.73475 m 3.51436,2.0261 -1.59673,-1.29135 m 2.71638,3.0131 -1.11965,-1.72175 m 1.65236,3.70487 -0.53271,-1.98312 m 0.4265,4.03416 0.10621,-2.05104 m -0.84095,3.96867 0.73474,-1.91763 m -2.02609,3.51437 1.29135,-1.59674 m -3.0131,2.71638 1.72175,-1.11964 m -3.70488,1.65235 1.98313,-0.53271 m -4.03417,0.4265 2.05104,0.10621 m -3.96867,-0.84095 1.91763,0.73474"
           inkscape:connector-curvature="0" />
        <g
           id="g6499"
           transform="translate(-217.51333,1.2573025)"
           style="stroke:#ff0000;stroke-opacity:1">
          <path
             d="m 688.93613,784.68208 13.80448,23.87572 m -0.0298,-47.76861 -13.77468,23.89289 m 41.35388,-23.91014 -27.5792,0.0172 m 0.0298,47.76861 27.57922,-0.0173 m -5.5218,-9.55028 -16.54752,0.0104 m 24.8123,-14.34603 -8.26478,14.33568 m -0.0179,-28.66109 8.2827,14.32541 m -24.83019,-14.31504 16.54749,-0.0104 m -24.8123,14.34603 8.26481,-14.33566 m 0.0179,28.66107 -8.2827,-14.32541 m 11.67237,4.38483 1.59676,1.29136 m -2.71633,-3.01302 1.11957,1.72166 m -1.65231,-3.70494 0.53274,1.98328 m -0.42655,-4.03419 -0.10619,2.05091 m 0.84094,-3.96857 -0.73475,1.91766 m 2.02611,-3.51441 -1.29136,1.59675 m 3.01302,-2.71633 -1.72166,1.11958 m 3.70494,-1.65232 -1.98328,0.53274 m 4.03419,-0.42655 -2.05091,-0.10619 m 3.96857,0.84094 -1.91766,-0.73475 m 3.51441,2.02612 -1.59675,-1.29137 m 2.71632,3.01302 -1.11957,-1.72165 m 1.65232,3.70493 -0.53275,-1.98328 m 0.42656,4.0342 0.10619,-2.05092 m -0.84094,3.96857 0.73475,-1.91765 m -2.02612,3.5144 1.29137,-1.59675 m -3.01302,2.71633 1.72165,-1.11958 m -3.70493,1.65232 1.98328,-0.53274 m -4.0342,0.42655 2.05092,0.10619 m -3.96857,-0.84094 1.91765,0.73475 m 28.93987,-6.43841 -13.80448,-23.87572 m 0.0298,47.76858 13.77466,-23.89286"
             style="fill:none;stroke:#ff0000;stroke-opacity:1"
             id="path5046"
             inkscape:connector-curvature="0" />
        </g>
        <g
           id="g6495"
           transform="matrix(0,-1,1,0,-563.95069,973.45716)"
           style="stroke:#ff0000;stroke-opacity:1">
          <path
             d="m 92.666249,947.42268 -20.905065,0 m 20.905065,-18.91164 0,18.91164 m -13.238036,-18.91164 13.238036,0 m -13.238036,-18.91142 0,18.91142 m 13.238036,-18.91142 -13.238036,0 m 13.238036,-18.91144 0,18.91144 m -13.238036,-18.91144 13.238036,0 m -13.238036,-18.91143 0,18.91143 m 13.238036,-18.91143 -13.238036,0 m 13.238036,-18.91138 0,18.91138 m -13.238036,-18.91138 13.238036,0 m -13.238036,-18.91163 0,18.91163 m 13.238036,-18.91163 -13.238036,0 m 13.238036,-18.91142 0,18.91142 m -20.905065,-18.91142 20.905065,0 m -20.905065,-13.23803 0,13.23803 m -17.319763,-13.23803 17.319763,0 m -17.319763,13.23803 0,-13.23803 m -16.216593,13.23803 16.216593,0 m -16.216593,-13.23803 0,13.23803 m -17.319764,-13.23803 17.319764,0 m -17.319764,13.23803 0,-13.23803 M 0,815.04232 l 20.905064,0 M 0,833.95396 0,815.04232 m 13.238036,18.91164 -13.238036,0 m 13.238036,18.91141 0,-18.91141 M 0,852.86537 l 13.238036,0 M 0,871.77681 0,852.86537 m 13.238036,18.91144 -13.238036,0 m 13.238036,18.91144 0,-18.91144 M 0,890.68825 l 13.238036,0 M 0,909.59962 0,890.68825 m 13.238036,18.91137 -13.238036,0 m 13.238036,18.91164 0,-18.91164 M 0,928.51126 l 13.238036,0 M 0,947.42268 0,928.51126 m 20.905064,18.91142 -20.905064,0 m 20.905064,13.23803 0,-13.23803 m 17.319764,13.23803 -17.319764,0 m 17.319764,-13.23803 0,13.23803 m 16.216593,-13.23803 -16.216593,0 m 16.216593,13.23803 0,-13.23803 m 17.319763,13.23803 -17.319763,0 m 17.319763,-13.23803 0,13.23803 M 42.170501,881.23247 a 0.25,0.25 0 1 0 -0.5,0 0.25,0.25 0 0 0 0.5,0 z m 0,0 a 0.25,0.25 0 1 0 -0.5,0 0.25,0.25 0 0 0 0.5,0 z m -0.139738,48.48434 -0.85959,-0.0424 m 1.71918,0 -0.85959,0.0424 m 1.711016,-0.16857 -0.851426,0.1262 m 1.686305,-0.33536 -0.834879,0.20916 m 1.645267,-0.49907 -0.810388,0.28991 m 1.588343,-0.65793 -0.777955,0.36802 m 1.516196,-0.81039 -0.738241,0.44237 m 1.429488,-0.95512 -0.691247,0.51275 m 1.329099,-1.09082 -0.637852,0.57807 m 1.215692,-1.2157 -0.57784,0.63763 m 1.090594,-1.32887 -0.512754,0.69124 m 0.955345,-1.42949 -0.442591,0.73825 m 0.810388,-1.51642 -0.367797,0.77817 m 0.657931,-1.58834 -0.290134,0.81017 m 0.499074,-1.64505 -0.20894,0.83488 m 0.335363,-1.6863 -0.126423,0.85142 m 0.168564,-1.71101 -0.04214,0.85959 m 0,-1.71918 0.04214,0.85959 m -0.168564,-1.71102 0.126423,0.85143 m -0.335363,-1.68631 0.20894,0.83488 m -0.499074,-1.64527 0.290134,0.81039 m -0.657931,-1.58834 0.367797,0.77795 m -0.810388,-1.51619 0.442591,0.73824 m -0.955345,-1.42949 0.512754,0.69125 m -1.090594,-1.3291 0.57784,0.63785 m -1.215692,-1.21569 0.637852,0.57784 m -1.329099,-1.0906 0.691247,0.51276 m -1.429488,-0.95535 0.738241,0.44259 m -1.516196,-0.81038 0.777955,0.36779 m -1.588343,-0.65793 0.810388,0.29014 m -1.645267,-0.4993 0.834879,0.20916 m -1.686305,-0.33536 0.851426,0.1262 m -1.711016,-0.16834 0.85959,0.0421 m -1.71918,0 0.85959,-0.0421 m -1.711016,0.16834 0.851426,-0.1262 m -1.686305,0.33536 0.834879,-0.20916 m -1.645047,0.4993 0.810168,-0.29014 m -1.588344,0.65793 0.778176,-0.36779 m -1.516417,0.81038 0.738241,-0.44259 m -1.429487,0.95535 0.691246,-0.51276 m -1.328878,1.0906 0.637632,-0.57784 m -1.215693,1.21569 0.578061,-0.63785 m -1.090814,1.3291 0.512753,-0.69125 m -0.955124,1.42949 0.442371,-0.73824 m -0.810388,1.51619 0.368017,-0.77795 m -0.65793,1.58834 0.289913,-0.81039 m -0.499074,1.64527 0.209161,-0.83488 m -0.335364,1.68631 0.126203,-0.85143 m -0.168565,1.71102 0.04236,-0.85959 m 0,1.71918 -0.04236,-0.85959 m 0.168565,1.71101 -0.126203,-0.85142 m 0.335364,1.6863 -0.209161,-0.83488 m 0.499074,1.64505 -0.289913,-0.81017 m 0.65793,1.58834 -0.368017,-0.77817 m 0.810388,1.51642 -0.442371,-0.73825 m 0.955124,1.42949 -0.512753,-0.69124 m 1.090814,1.32887 -0.578061,-0.63763 m 1.215693,1.2157 -0.637632,-0.57807 m 1.328878,1.09082 -0.691246,-0.51275 m 1.429487,0.95512 -0.738241,-0.44237 m 1.516417,0.81039 -0.778176,-0.36802 m 1.588344,0.65793 -0.810168,-0.28991 m 1.645047,0.49907 -0.834879,-0.20916 m 1.686305,0.33536 -0.851426,-0.1262 m 1.600699,-39.49043 -0.864885,-0.0425 m 1.72999,0 -0.865105,0.0425 m 1.721827,-0.1696 -0.856722,0.12709 m 1.696896,-0.33751 -0.840174,0.21042 m 1.655637,-0.50218 -0.815463,0.29176 m 1.598272,-0.66208 -0.782809,0.37032 m 1.525684,-0.81558 -0.742875,0.44526 m 1.438533,-0.96114 -0.695658,0.51588 m 1.337262,-1.09754 -0.641604,0.58166 m 1.223415,-1.22337 -0.581811,0.64171 m 1.097654,-1.33735 -0.515843,0.69564 m 0.961082,-1.43852 -0.445239,0.74288 m 0.815463,-1.52577 -0.370224,0.78289 m 0.662122,-1.59836 -0.291898,0.81547 m 0.502383,-1.65561 -0.210485,0.84014 m 0.33757,-1.69684 -0.127085,0.8567 m 0.169447,-1.72168 -0.04236,0.86498 m 0,-1.73003 0.04236,0.86505 m -0.169447,-1.72175 0.127085,0.8567 m -0.33757,-1.69684 0.210485,0.84014 m -0.502383,-1.6556 0.291898,0.81546 m -0.662122,-1.59836 0.370224,0.7829 m -0.815463,-1.52578 0.445239,0.74288 m -0.961082,-1.43851 0.515843,0.69563 m -1.097654,-1.33735 0.581811,0.64172 m -1.223415,-1.22337 0.641604,0.58165 m -1.337262,-1.09754 0.695658,0.51589 m -1.438533,-0.96115 0.742875,0.44526 m -1.525684,-0.81557 0.782809,0.37031 m -1.598272,-0.66208 0.815463,0.29177 m -1.655637,-0.50219 0.840174,0.21042 m -1.696896,-0.3375 0.856722,0.12708 m -1.721827,-0.16958 0.865105,0.0425 m -1.72999,0 0.864885,-0.0425 m -1.721607,0.16958 0.856722,-0.12708 m -1.696896,0.3375 0.840174,-0.21042 m -1.655637,0.50219 0.815463,-0.29177 m -1.598492,0.66208 0.783029,-0.37031 m -1.525904,0.81557 0.742875,-0.44526 m -1.438534,0.96115 0.695659,-0.51589 m -1.337262,1.09754 0.641603,-0.58165 m -1.223194,1.22337 0.581591,-0.64172 m -1.097654,1.33735 0.516063,-0.69563 m -0.961302,1.43851 0.445239,-0.74288 m -0.815463,1.52578 0.370224,-0.7829 m -0.661902,1.59836 0.291678,-0.81546 m -0.502163,1.6556 0.210485,-0.84014 m -0.33757,1.69684 0.127085,-0.8567 m -0.169667,1.72175 0.04258,-0.86505 m 0,1.73003 -0.04258,-0.86498 m 0.169667,1.72168 -0.127085,-0.8567 m 0.33757,1.69684 -0.210485,-0.84014 m 0.502163,1.65561 -0.291678,-0.81547 m 0.661902,1.59836 -0.370224,-0.78289 m 0.815463,1.52577 -0.445239,-0.74288 m 0.961302,1.43852 -0.516063,-0.69564 m 1.097654,1.33735 -0.581591,-0.64171 m 1.223194,1.22337 -0.641603,-0.58166 m 1.337262,1.09754 -0.695659,-0.51588 m 1.438534,0.96114 -0.742875,-0.44526 m 1.525904,0.81558 -0.783029,-0.37032 m 1.598492,0.66208 -0.815463,-0.29176 m 1.655637,0.50218 -0.840174,-0.21042 m 1.696896,0.33751 -0.856722,-0.12709 m 1.831924,-39.59962 -0.85959,-0.0421 m 1.71918,0 -0.85959,0.0421 m 1.711016,-0.16856 -0.851426,0.12642 m 1.686305,-0.33558 -0.834879,0.20916 m 1.645267,-0.49908 -0.810388,0.28992 m 1.588343,-0.65793 -0.777955,0.36801 m 1.516196,-0.81039 -0.738241,0.44238 m 1.429488,-0.95513 -0.691247,0.51275 m 1.329099,-1.09081 -0.637852,0.57806 m 1.215692,-1.21569 -0.57784,0.63763 m 1.090594,-1.32888 -0.512754,0.69125 m 0.955345,-1.42949 -0.442591,0.73824 m 0.810388,-1.51619 -0.367797,0.77795 m 0.657931,-1.58834 -0.290134,0.81039 m 0.499074,-1.64527 -0.20894,0.83488 m 0.335363,-1.68631 -0.126423,0.85143 m 0.168564,-1.71102 -0.04214,0.85959 m 0,-1.71918 0.04214,0.85959 m -0.168564,-1.71101 0.126423,0.85142 m -0.335363,-1.6863 0.20894,0.83488 m -0.499074,-1.64527 0.290134,0.81039 m -0.657931,-1.58835 0.367797,0.77796 m -0.810388,-1.5162 0.442591,0.73824 m -0.955345,-1.42948 0.512754,0.69124 m -1.090594,-1.3291 0.57784,0.63786 m -1.215692,-1.2157 0.637852,0.57784 m -1.329099,-1.09059 0.691247,0.51275 m -1.429488,-0.95512 0.738241,0.44237 m -1.516196,-0.81039 0.777955,0.36802 m -1.588343,-0.65793 0.810388,0.28991 m -1.645267,-0.49907 0.834879,0.20916 m -1.686305,-0.33558 0.851426,0.12642 m -1.711016,-0.16857 0.85959,0.0421 m -1.71918,0 0.85959,-0.0421 m -1.711016,0.16857 0.851426,-0.12642 m -1.686305,0.33558 0.834879,-0.20916 m -1.645047,0.49907 0.810168,-0.28991 m -1.588344,0.65793 0.778176,-0.36802 m -1.516417,0.81039 0.738241,-0.44237 m -1.429487,0.95512 0.691246,-0.51275 m -1.328878,1.09059 0.637632,-0.57784 m -1.215693,1.2157 0.578061,-0.63786 m -1.090814,1.3291 0.512753,-0.69124 m -0.955124,1.42948 0.442371,-0.73824 m -0.810388,1.5162 0.368017,-0.77796 m -0.65793,1.58835 0.289913,-0.81039 m -0.499074,1.64527 0.209161,-0.83488 m -0.335364,1.6863 0.126203,-0.85142 m -0.168565,1.71101 0.04236,-0.85959 m 0,1.71918 -0.04236,-0.85959 m 0.168565,1.71102 -0.126203,-0.85143 m 0.335364,1.68631 -0.209161,-0.83488 m 0.499074,1.64527 -0.289913,-0.81039 m 0.65793,1.58834 -0.368017,-0.77795 m 0.810388,1.51619 -0.442371,-0.73824 m 0.955124,1.42949 -0.512753,-0.69125 m 1.090814,1.32888 -0.578061,-0.63763 m 1.215693,1.21569 -0.637632,-0.57806 m 1.328878,1.09081 -0.691246,-0.51275 m 1.429487,0.95513 -0.738241,-0.44238 m 1.516417,0.81039 -0.778176,-0.36801 m 1.588344,0.65793 -0.810168,-0.28992 m 1.645047,0.49908 -0.834879,-0.20916 m 1.686305,0.33558 -0.851426,-0.12642 m -3.274347,35.50758 1.596734,1.29136 m -2.716405,-3.01307 1.119671,1.72171 m -1.652321,-3.70493 0.53265,1.98322 m -0.426501,-4.03416 -0.106149,2.05094 m 0.840904,-3.96859 -0.734755,1.91765 m 2.02612,-3.51441 -1.291365,1.59676 m 3.013058,-2.71631 -1.721693,1.11955 m 3.704874,-1.65235 -1.983181,0.5328 m 4.034198,-0.42655 -2.051017,-0.10625 m 3.968646,0.84099 -1.917629,-0.73474 m 3.514363,2.02609 -1.596734,-1.29135 m 2.716405,3.01306 -1.119671,-1.72171 m 1.652321,3.70493 -0.53265,-1.98322 m 0.426501,4.03416 0.106149,-2.05094 m -0.840904,3.9686 0.734755,-1.91766 m -2.02612,3.51441 1.291365,-1.59675 m -3.013058,2.7163 1.721693,-1.11955 m -3.704874,1.65235 1.983181,-0.5328 m -4.034198,0.42656 2.051017,0.10624 m -3.968646,-0.84098 1.917629,0.73474 m 9.6435,7.90415 -16.547559,0.0103 m 24.812334,-14.34601 -8.264775,14.33568 m -0.01796,-28.66111 8.28274,14.32543 m -24.830299,-14.31511 16.547559,-0.0103 m -24.812334,14.346 8.264775,-14.33568 m 0.01796,28.66112 -8.28274,-14.32544"
             style="fill:none;stroke:#ff0000;stroke-opacity:1"
             id="path5832"
             inkscape:connector-curvature="0" />
        </g>
        <g
           id="g6487"
           transform="translate(81.724662,-41.490982)"
           style="stroke:#ff0000;stroke-opacity:1">
          <path
             d="m 171.01547,920.94372 0,-20.90506 m 18.91163,20.90506 -18.91163,0 m 18.91163,-13.23803 0,13.23803 m 18.91142,-13.23803 -18.91142,0 m 18.91142,13.23803 0,-13.23803 m 18.91144,13.23803 -18.91144,0 m 18.91144,-13.23803 0,13.23803 m 18.91144,-13.23803 -18.91144,0 m 18.91144,13.23803 0,-13.23803 m 18.91137,13.23803 -18.91137,0 m 18.91137,-13.23803 0,13.23803 m 18.91163,-13.23803 -18.91163,0 m 18.91163,13.23803 0,-13.23803 m 18.91142,13.23803 -18.91142,0 m 18.91142,-20.90506 0,20.90506 m 13.23804,-20.90506 -13.23804,0 m 13.23804,-17.31977 0,17.31977 m -13.23804,-17.31977 13.23804,0 m -13.23804,-16.21659 0,16.21659 m 13.23804,-16.21659 -13.23804,0 m 13.23804,-17.31976 0,17.31976 m -13.23804,-17.31976 13.23804,0 m -13.23804,-20.90507 0,20.90507 m -18.91164,-20.90507 18.91164,0 m -18.91164,13.23804 0,-13.23804 m -18.91141,13.23804 18.91141,0 m -18.91141,-13.23804 0,13.23804 m -18.91144,-13.23804 18.91144,0 m -18.91144,13.23804 0,-13.23804 m -18.91144,13.23804 18.91144,0 m -18.91144,-13.23804 0,13.23804 m -18.91137,-13.23804 18.91137,0 m -18.91137,13.23804 0,-13.23804 m -18.91164,13.23804 18.91164,0 m -18.91164,-13.23804 0,13.23804 m -18.91141,-13.23804 18.91141,0 m -18.91141,20.90507 0,-20.90507 m -13.23804,20.90507 13.23804,0 m -13.23804,17.31976 0,-17.31976 m 13.23804,17.31976 -13.23804,0 m 13.23804,16.21659 0,-16.21659 m -13.23804,16.21659 13.23804,0 m -13.23804,17.31977 0,-17.31977 m 13.23804,17.31977 -13.23804,0 m 88.88397,20.90506 18.91137,0 m -10.71644,-50.74574 a 17.650715,17.650715 0 1 0 -35.30143,0 17.650715,17.650715 0 0 0 35.30143,0 z m -48.5946,0.11026 -0.0421,0.85959 m 0,-1.71918 0.0421,0.85959 m -0.16856,-1.71102 0.12642,0.85143 m -0.33558,-1.68631 0.20916,0.83488 m -0.49907,-1.64505 0.28991,0.81017 m -0.65793,-1.58834 0.36802,0.77817 m -0.81039,-1.51641 0.44237,0.73824 m -0.95513,-1.42949 0.51276,0.69125 m -1.09082,-1.32888 0.57806,0.63763 m -1.21569,-1.21569 0.63763,0.57806 m -1.32887,-1.09081 0.69124,0.51275 m -1.42949,-0.95513 0.73825,0.44238 m -1.5162,-0.81039 0.77795,0.36801 m -1.58834,-0.65793 0.81039,0.28992 m -1.64527,-0.49908 0.83488,0.20916 m -1.6863,-0.33536 0.85142,0.1262 m -1.71101,-0.16856 0.85959,0.0424 m -1.71918,0 0.85959,-0.0424 m -1.71102,0.16856 0.85143,-0.1262 m -1.68631,0.33536 0.83488,-0.20916 m -1.64527,0.49908 0.81039,-0.28992 m -1.58834,0.65793 0.77795,-0.36801 m -1.51619,0.81039 0.73824,-0.44238 m -1.42949,0.95513 0.69125,-0.51275 m -1.3291,1.09081 0.63785,-0.57806 m -1.21569,1.21569 0.57784,-0.63763 m -1.0906,1.32888 0.51276,-0.69125 m -0.95513,1.42949 0.44237,-0.73824 m -0.81038,1.51641 0.36801,-0.77817 m -0.65793,1.58834 0.28992,-0.81017 m -0.49908,1.64505 0.20916,-0.83488 m -0.33558,1.68631 0.12642,-0.85143 m -0.16856,1.71102 0.0421,-0.85959 m 0,1.71918 -0.0421,-0.85959 m 0.16856,1.71101 -0.12642,-0.85142 m 0.33558,1.6863 -0.20916,-0.83488 m 0.49908,1.64527 -0.28992,-0.81039 m 0.65793,1.58834 -0.36801,-0.77795 m 0.81038,1.5162 -0.44237,-0.73825 m 0.95513,1.42949 -0.51276,-0.69124 m 1.0906,1.32909 -0.57784,-0.63785 m 1.21569,1.2157 -0.63785,-0.57785 m 1.3291,1.0906 -0.69125,-0.51275 m 1.42949,0.95534 -0.73824,-0.44259 m 1.51619,0.81039 -0.77795,-0.3678 m 1.58834,0.65793 -0.81039,-0.29013 m 1.64527,0.49907 -0.83488,-0.20894 m 1.68631,0.33536 -0.85143,-0.12642 m 1.71102,0.16857 -0.85959,-0.0421 m 1.71918,0 -0.85959,0.0421 m 1.71101,-0.16857 -0.85142,0.12642 m 1.6863,-0.33536 -0.83488,0.20894 m 1.64527,-0.49907 -0.81039,0.29013 m 1.58834,-0.65793 -0.77795,0.3678 m 1.5162,-0.81039 -0.73825,0.44259 m 1.42949,-0.95534 -0.69124,0.51275 m 1.32887,-1.0906 -0.63763,0.57785 m 1.21569,-1.2157 -0.57806,0.63785 m 1.09082,-1.32909 -0.51276,0.69124 m 0.95513,-1.42949 -0.44237,0.73825 m 0.81039,-1.5162 -0.36802,0.77795 m 0.65793,-1.58834 -0.28991,0.81039 m 0.49907,-1.64527 -0.20916,0.83488 m 0.33558,-1.6863 -0.12642,0.85142 m 79.59678,-1.71101 -0.0424,0.85959 m 0,-1.71918 0.0424,0.85959 m -0.16857,-1.71102 0.12621,0.85143 m -0.33537,-1.68631 0.20916,0.83488 m -0.49907,-1.64505 0.28991,0.81017 m -0.65793,-1.58834 0.36802,0.77817 m -0.81039,-1.51641 0.44237,0.73824 m -0.95512,-1.42949 0.51275,0.69125 m -1.09081,-1.32888 0.57806,0.63763 m -1.21569,-1.21569 0.63763,0.57806 m -1.32888,-1.09081 0.69125,0.51275 m -1.42949,-0.95513 0.73824,0.44238 m -1.51642,-0.81039 0.77818,0.36801 m -1.58835,-0.65793 0.81017,0.28992 m -1.64504,-0.49908 0.83487,0.20916 m -1.6863,-0.33536 0.85143,0.1262 m -1.71102,-0.16856 0.85959,0.0424 m -1.71918,0 0.85959,-0.0424 m -1.71102,0.16856 0.85143,-0.1262 m -1.68631,0.33536 0.83488,-0.20916 m -1.64526,0.49908 0.81038,-0.28992 m -1.58834,0.65793 0.77796,-0.36801 m -1.5162,0.81039 0.73824,-0.44238 m -1.42949,0.95513 0.69125,-0.51275 m -1.3291,1.09081 0.63785,-0.57806 m -1.21569,1.21569 0.57784,-0.63763 m -1.09059,1.32888 0.51275,-0.69125 m -0.95534,1.42949 0.44259,-0.73824 m -0.81039,1.51641 0.3678,-0.77817 m -0.65793,1.58834 0.29013,-0.81017 m -0.49929,1.64505 0.20916,-0.83488 m -0.33537,1.68631 0.12621,-0.85143 m -0.16835,1.71102 0.0421,-0.85959 m 0,1.71918 -0.0421,-0.85959 m 0.16835,1.71101 -0.12621,-0.85142 m 0.33537,1.6863 -0.20916,-0.83488 m 0.49929,1.64527 -0.29013,-0.81039 m 0.65793,1.58834 -0.3678,-0.77795 m 0.81039,1.5162 -0.44259,-0.73825 m 0.95534,1.42949 -0.51275,-0.69124 m 1.09059,1.32909 -0.57784,-0.63785 m 1.21569,1.2157 -0.63785,-0.57785 m 1.3291,1.0906 -0.69125,-0.51275 m 1.42949,0.95534 -0.73824,-0.44259 m 1.5162,0.81039 -0.77796,-0.3678 m 1.58834,0.65793 -0.81038,-0.29013 m 1.64526,0.49907 -0.83488,-0.20894 m 1.68631,0.33536 -0.85143,-0.12642 m 1.71102,0.16857 -0.85959,-0.0421 m 1.71918,0 -0.85959,0.0421 m 1.71102,-0.16857 -0.85143,0.12642 m 1.6863,-0.33536 -0.83487,0.20894 m 1.64504,-0.49907 -0.81017,0.29013 m 1.58835,-0.65793 -0.77818,0.3678 m 1.51642,-0.81039 -0.73824,0.44259 m 1.42949,-0.95534 -0.69125,0.51275 m 1.32888,-1.0906 -0.63763,0.57785 m 1.21569,-1.2157 -0.57806,0.63785 m 1.09081,-1.32909 -0.51275,0.69124 m 0.95512,-1.42949 -0.44237,0.73825 m 0.81039,-1.5162 -0.36802,0.77795 m 0.65793,-1.58834 -0.28991,0.81039 m 0.49907,-1.64527 -0.20916,0.83488 m 0.33537,-1.6863 -0.12621,0.85142 m -40.08407,12.41745 -16.54756,0.0103 m 24.81234,-14.34601 -8.26478,14.33568 m -0.018,-28.66111 8.28274,14.32543 m -24.8303,-14.31511 16.54756,-0.0103 m -24.81234,14.34601 8.26478,-14.33569 m 0.018,28.66112 -8.28274,-14.32543 m 11.67244,4.38486 1.59673,1.29135 m -2.7164,-3.01307 1.11967,1.72172 m -1.65232,-3.70494 0.53265,1.98322 m -0.4265,-4.03416 -0.10615,2.05094 m 0.8409,-3.96859 -0.73475,1.91765 m 2.02612,-3.51441 -1.29137,1.59676 m 3.01306,-2.71631 -1.72169,1.11955 m 3.70487,-1.65235 -1.98318,0.5328 m 4.0342,-0.42655 -2.05102,-0.10625 m 3.96865,0.84099 -1.91763,-0.73474 m 3.51436,2.02609 -1.59673,-1.29135 m 2.7164,3.01306 -1.11967,-1.72171 m 1.65232,3.70494 -0.53265,-1.98323 m 0.4265,4.03416 0.10615,-2.05093 m -0.8409,3.96859 0.73475,-1.91766 m -2.02612,3.51441 1.29137,-1.59675 m -3.01306,2.7163 1.72169,-1.11955 m -3.70487,1.65235 1.98318,-0.5328 m -4.0342,0.42656 2.05102,0.10624 m -3.96865,-0.84098 1.91763,0.73474"
             style="fill:none;stroke:#ff0000;stroke-opacity:1"
             id="path5924"
             inkscape:connector-curvature="0" />
        </g>
        <g
           id="g6415"
           transform="translate(50.2921,-40.862331)"
           style="stroke:#ff0000;stroke-opacity:1">
          <path
             id="path6046"
             style="fill:none;stroke:#ff0000;stroke-opacity:1"
             d="m 394.48333,760.87367 a 4.41268,4.41268 0 1 0 -8.82536,0 4.41268,4.41268 0 1 0 8.82536,0 z m 88.25357,0 a 4.41268,4.41268 0 1 0 -8.82536,0 4.41268,4.41268 0 1 0 8.82536,0 z m -44.12679,0 a 4.412679,4.412679 0 1 0 -8.82535,0 4.412679,4.412679 0 1 0 8.82535,0 z m -44.12678,-44.12679 a 4.41268,4.41268 0 1 0 -8.82536,0 4.41268,4.41268 0 1 0 8.82536,0 z m 88.25357,0 a 4.41268,4.41268 0 1 0 -8.82536,0 4.41268,4.41268 0 1 0 8.82536,0 z m -44.12679,0 a 4.412679,4.412679 0 1 0 -8.82535,0 4.412679,4.412679 0 1 0 8.82535,0 z M 482.7369,672.6201 a 4.41268,4.41268 0 1 0 -8.82536,0 4.41268,4.41268 0 1 0 8.82536,0 z m -44.12679,0 a 4.412679,4.412679 0 1 0 -8.82535,0 4.412679,4.412679 0 1 0 8.82535,0 z m -44.12678,0 a 4.41268,4.41268 0 1 0 -8.82536,0 4.41268,4.41268 0 1 0 8.82536,0 z m 105.90428,-3.42777 0,-18.63562 m 13.23804,18.63562 -13.23804,0 m 13.23804,19.46322 0,-19.46322 m -13.23804,19.46322 13.23804,0 m -13.23804,18.35981 0,-18.35981 m 13.23804,18.35981 -13.23804,0 m 13.23804,19.46307 0,-19.46307 m -13.23804,19.46307 13.23804,0 m -13.23804,18.35979 0,-18.35979 m 13.23804,18.35979 -13.23804,0 m 13.23804,19.46322 0,-19.46322 m -13.23804,19.46322 13.23804,0 m -13.23804,18.63562 0,-18.63562 m -18.63562,18.63562 18.63562,0 m -18.63562,13.23804 0,-13.23804 m -19.46322,13.23804 19.46322,0 m -19.46322,-13.23804 0,13.23804 m -18.35981,-13.23804 18.35981,0 m -18.35981,13.23804 0,-13.23804 m -19.46307,13.23804 19.46307,0 m -19.46307,-13.23804 0,13.23804 m -18.35979,-13.23804 18.35979,0 m -18.35979,13.23804 0,-13.23804 m -19.46322,13.23804 19.46322,0 m -19.46322,-13.23804 0,13.23804 m -18.63562,-13.23804 18.63562,0 m -18.63562,-18.63562 0,18.63562 m -13.23804,-18.63562 13.23804,0 m -13.23804,-19.46322 0,19.46322 m 13.23804,-19.46322 -13.23804,0 m 13.23804,-18.35981 0,18.35981 m -13.23804,-18.35981 13.23804,0 m -13.23804,-19.46307 0,19.46307 m 13.23804,-19.46307 -13.23804,0 m 13.23804,-18.35979 0,18.35979 m -13.23804,-18.35979 13.23804,0 m -13.23804,-19.46322 0,19.46322 m 13.23804,-19.46322 -13.23804,0 m 13.23804,-18.63562 0,18.63562 m 18.63562,-18.63562 -18.63562,0 m 18.63562,-13.23804 0,13.23804 m 19.46322,-13.23804 -19.46322,0 m 19.46322,13.23804 0,-13.23804 m 18.35981,13.23804 -18.35981,0 m 18.35981,-13.23804 0,13.23804 m 19.46307,-13.23804 -19.46307,0 m 19.46307,13.23804 0,-13.23804 m 18.35979,13.23804 -18.35979,0 m 18.35979,-13.23804 0,13.23804 m 19.46322,-13.23804 -19.46322,0 m 19.46322,13.23804 0,-13.23804 m 18.63562,13.23804 -18.63562,0"
             inkscape:connector-curvature="0" />
        </g>
        <g
           id="g6352"
           transform="translate(39.814399,9.5606247)"
           style="stroke:#ff0000;stroke-opacity:1">
          <path
             id="path6168"
             style="fill:none;stroke:#ff0000;stroke-opacity:1"
             d="m 403.36295,935.85708 a 4.41268,4.41268 0 1 0 -8.82536,0 4.41268,4.41268 0 1 0 8.82536,0 z m 88.25357,0 a 4.412679,4.412679 0 1 0 -8.82535,0 4.412679,4.412679 0 1 0 8.82535,0 z m -44.12678,0 a 4.41268,4.41268 0 1 0 -8.82536,0 4.41268,4.41268 0 0 0 8.82536,0 z m -44.12679,-44.12679 a 4.41268,4.41268 0 1 0 -8.82536,0 4.41268,4.41268 0 0 0 8.82536,0 z m 88.25357,0 a 4.412679,4.412679 0 1 0 -8.82535,0 4.412679,4.412679 0 1 0 8.82535,0 z m -44.12678,0 a 4.41268,4.41268 0 1 0 -8.82536,0 4.41268,4.41268 0 0 0 8.82536,0 z m 44.12678,-44.12678 a 4.412679,4.412679 0 1 0 -8.82535,0 4.412679,4.412679 0 1 0 8.82535,0 z m -44.12678,0 a 4.41268,4.41268 0 1 0 -8.82536,0 4.41268,4.41268 0 0 0 8.82536,0 z m -44.12679,0 a 4.41268,4.41268 0 1 0 -8.82536,0 4.41268,4.41268 0 0 0 8.82536,0 z m 105.90429,-3.42777 0,-18.63562 m 13.23803,18.63562 -13.23803,0 m 13.23803,19.46322 0,-19.46322 m -13.23803,19.46322 13.23803,0 m -13.23803,18.35981 0,-18.35981 m 13.23803,18.35981 -13.23803,0 m 13.23803,19.46307 0,-19.46307 m -13.23803,19.46307 13.23803,0 m -13.23803,18.35979 0,-18.35979 m 13.23803,18.35979 -13.23803,0 m 13.23803,19.46322 0,-19.46322 m -13.23803,19.46322 13.23803,0 m -13.23803,18.63562 0,-18.63562 m -18.63563,18.63562 18.63563,0 m -18.63563,13.23804 0,-13.23804 m -19.46322,13.23804 19.46322,0 m -19.46322,-13.23804 0,13.23804 m -18.35981,-13.23804 18.35981,0 m -18.35981,13.23804 0,-13.23804 m -19.46307,13.23804 19.46307,0 m -19.46307,-13.23804 0,13.23804 m -18.35978,-13.23804 18.35978,0 m -18.35978,13.23804 0,-13.23804 m -19.46322,13.23804 19.46322,0 m -19.46322,-13.23804 0,13.23804 m -18.63563,-13.23804 18.63563,0 m -18.63563,-18.63562 0,18.63562 m -13.23803,-18.63562 13.23803,0 m -13.23803,-19.46322 0,19.46322 m 13.23803,-19.46322 -13.23803,0 m 13.23803,-18.35981 0,18.35981 m -13.23803,-18.35981 13.23803,0 m -13.23803,-19.46307 0,19.46307 m 13.23803,-19.46307 -13.23803,0 m 13.23803,-18.35979 0,18.35979 m -13.23803,-18.35979 13.23803,0 m -13.23803,-19.46322 0,19.46322 m 13.23803,-19.46322 -13.23803,0 m 13.23803,-18.63562 0,18.63562 m 18.63563,-18.63562 -18.63563,0 m 18.63563,-13.23804 0,13.23804 m 19.46322,-13.23804 -19.46322,0 m 19.46322,13.23804 0,-13.23804 m 18.35981,13.23804 -18.35981,0 m 18.35981,-13.23804 0,13.23804 m 19.46306,-13.23804 -19.46306,0 m 19.46306,13.23804 0,-13.23804 m 18.35979,13.23804 -18.35979,0 m 18.35979,-13.23804 0,13.23804 m 19.46322,-13.23804 -19.46322,0 m 19.46322,13.23804 0,-13.23804 m 18.63563,13.23804 -18.63563,0"
             inkscape:connector-curvature="0" />
        </g>
        <g
           id="g6483"
           transform="translate(54.064007,-126.98755)"
           style="stroke:#ff0000;stroke-opacity:1">
          <path
             d="m 201.33694,759.36035 -13.23804,0 m 13.23804,-16.76818 0,16.76818 m -13.23804,-16.76818 13.23804,0 m -13.23804,-21.18085 0,21.18085 m 32.14946,-21.18085 -32.14946,0 m 32.14946,13.23803 0,-13.23803 m 18.91163,13.23803 -18.91163,0 m 18.91163,-13.23803 0,13.23803 m 18.91138,-13.23803 -18.91138,0 m 18.91138,13.23803 0,-13.23803 m 18.91148,13.23803 -18.91148,0 m 18.91148,-13.23803 0,13.23803 m 18.91139,-13.23803 -18.91139,0 m 18.91139,13.23803 0,-13.23803 m 18.91164,13.23803 -18.91164,0 m 18.91164,-13.23803 0,13.23803 m 32.14945,-13.23803 -32.14945,0 m 32.14945,21.18085 0,-21.18085 m -13.23804,21.18085 13.23804,0 m -13.23804,16.76818 0,-16.76818 m 13.23804,16.76818 -13.23804,0 m 13.23804,16.76818 0,-16.76818 m -13.23804,16.76818 13.23804,0 m -13.23804,16.76818 0,-16.76818 m 13.23804,16.76818 -13.23804,0 m 13.23804,21.18086 0,-21.18086 m -32.14945,21.18086 32.14945,0 m -32.14945,-13.23804 0,13.23804 m -18.91164,-13.23804 18.91164,0 m -18.91164,13.23804 0,-13.23804 m -18.91137,13.23804 18.91137,0 m -18.91138,-13.23804 10e-6,13.23804 m -18.91149,-13.23804 18.91148,0 m -18.91147,13.23804 -1e-5,-13.23804 m -18.91139,13.23804 18.9114,0 m -18.9114,-13.23804 0,13.23804 m -18.91163,-13.23804 18.91163,0 m -18.91163,13.23804 0,-13.23804 m -32.14946,13.23804 32.14946,0 m -32.14946,-21.18086 0,21.18086 m 13.23804,-21.18086 -13.23804,0 m 13.23804,-16.76818 0,16.76818 m -13.23804,-16.76818 13.23804,0 m -13.23804,-16.76818 0,16.76818 m 39.71411,-3.91625 -0.64337,-0.0315 m 1.28674,0 -0.64337,0.0315 m 1.28056,-0.1262 -0.63719,0.0947 m 1.26202,-0.25108 -0.62483,0.15643 m 1.23136,-0.37332 -0.60653,0.21689 m 1.18878,-0.49246 -0.58225,0.27557 m 1.13472,-0.60674 -0.55247,0.33117 m 1.06985,-0.71485 -0.51738,0.38368 m 0.99462,-0.81613 -0.47724,0.43245 m 0.9099,-0.9099 -0.43266,0.47745 m 0.81634,-0.99483 -0.38368,0.51738 m 0.71485,-1.06985 -0.33117,0.55247 m 0.60652,-1.13472 -0.27535,0.58225 m 0.49246,-1.18878 -0.21711,0.60653 m 0.37354,-1.23136 -0.15643,0.62483 m 0.25108,-1.26202 -0.0946,0.63719 m 0.1262,-1.28056 -0.0316,0.64337 m 0,-1.28674 0.0316,0.64337 m -0.1262,-1.28056 0.0946,0.63719 m -0.25108,-1.26203 0.15643,0.62484 m -0.37354,-1.23136 0.21711,0.60652 m -0.49246,-1.18877 0.27535,0.58225 m -0.60652,-1.13472 0.33117,0.55247 m -0.71485,-1.06986 0.38368,0.51739 m -0.81634,-0.99462 0.43266,0.47723 m -0.9099,-0.90989 0.47724,0.43266 m -0.99462,-0.81634 0.51738,0.38368 m -1.06985,-0.71485 0.55247,0.33117 m -1.13472,-0.60653 0.58225,0.27536 m -1.18878,-0.49246 0.60653,0.2171 m -1.23136,-0.37353 0.62483,0.15643 m -1.26202,-0.25108 0.63719,0.0947 m -1.28056,-0.1262 0.64337,0.0316 m -1.28674,0 0.64337,-0.0316 m -1.28056,0.1262 0.63719,-0.0947 m -1.26202,0.25108 0.62483,-0.15643 m -1.23136,0.37353 0.60653,-0.2171 m -1.18878,0.49246 0.58225,-0.27536 m -1.13472,0.60653 0.55247,-0.33117 m -1.06985,0.71485 0.51738,-0.38368 m -0.99484,0.81634 0.47746,-0.43266 m -0.9099,0.90989 0.43244,-0.47723 m -0.81612,0.99462 0.38368,-0.51739 m -0.71485,1.06986 0.33117,-0.55247 m -0.60674,1.13472 0.27557,-0.58225 m -0.49246,1.18877 0.21689,-0.60652 m -0.37332,1.23136 0.15643,-0.62484 m -0.25108,1.26203 0.0947,-0.63719 m -0.1262,1.28056 0.0316,-0.64337 m 0,1.28674 -0.0316,-0.64337 m 0.1262,1.28056 -0.0947,-0.63719 m 0.25108,1.26202 -0.15643,-0.62483 m 0.37332,1.23136 -0.21689,-0.60653 m 0.49246,1.18878 -0.27557,-0.58225 m 0.60674,1.13472 -0.33117,-0.55247 m 0.71485,1.06985 -0.38368,-0.51738 m 0.81612,0.99483 -0.43244,-0.47745 m 0.9099,0.9099 -0.47746,-0.43245 m 0.99484,0.81613 -0.51738,-0.38368 m 1.06985,0.71485 -0.55247,-0.33117 m 1.13472,0.60674 -0.58225,-0.27557 m 1.18878,0.49246 -0.60653,-0.21689 m 1.23136,0.37332 -0.62483,-0.15643 m 1.26202,0.25108 -0.63719,-0.0947 m 80.70877,0.1262 -0.64337,-0.0315 m 1.28674,0 -0.64337,0.0315 m 1.28056,-0.1262 -0.63719,0.0947 m 1.26203,-0.25108 -0.62484,0.15643 m 1.23136,-0.37332 -0.60652,0.21689 m 1.18877,-0.49246 -0.58225,0.27557 m 1.13472,-0.60674 -0.55247,0.33117 m 1.06986,-0.71485 -0.51739,0.38368 m 0.99462,-0.81613 -0.47723,0.43245 m 0.90989,-0.9099 -0.43266,0.47745 m 0.81634,-0.99483 -0.38368,0.51738 m 0.71486,-1.06985 -0.33118,0.55247 m 0.60653,-1.13472 -0.27535,0.58225 m 0.49245,-1.18878 -0.2171,0.60653 m 0.37353,-1.23136 -0.15643,0.62483 m 0.25108,-1.26202 -0.0947,0.63719 m 0.1262,-1.28056 -0.0315,0.64337 m 0,-1.28674 0.0315,0.64337 m -0.1262,-1.28056 0.0947,0.63719 m -0.25108,-1.26203 0.15643,0.62484 m -0.37353,-1.23136 0.2171,0.60652 m -0.49245,-1.18877 0.27535,0.58225 m -0.60653,-1.13472 0.33118,0.55247 m -0.71486,-1.06986 0.38368,0.51739 m -0.81634,-0.99462 0.43266,0.47723 m -0.90989,-0.90989 0.47723,0.43266 m -0.99462,-0.81634 0.51739,0.38368 m -1.06986,-0.71485 0.55247,0.33117 m -1.13472,-0.60653 0.58225,0.27536 m -1.18877,-0.49246 0.60652,0.2171 m -1.23136,-0.37353 0.62484,0.15643 m -1.26203,-0.25108 0.63719,0.0947 m -1.28056,-0.1262 0.64337,0.0316 m -1.28674,0 0.64337,-0.0316 m -1.28056,0.1262 0.63719,-0.0947 m -1.26202,0.25108 0.62483,-0.15643 m -1.23135,0.37353 0.60652,-0.2171 m -1.18878,0.49246 0.58226,-0.27536 m -1.13472,0.60653 0.55246,-0.33117 m -1.06985,0.71485 0.51739,-0.38368 m -0.99484,0.81634 0.47745,-0.43266 m -0.9099,0.90989 0.43245,-0.47723 m -0.81613,0.99462 0.38368,-0.51739 m -0.71485,1.06986 0.33117,-0.55247 m -0.60674,1.13472 0.27557,-0.58225 m -0.49245,1.18877 0.21688,-0.60652 m -0.37331,1.23136 0.15643,-0.62484 m -0.25109,1.26203 0.0947,-0.63719 m -0.12621,1.28056 0.0315,-0.64337 m 0,1.28674 -0.0315,-0.64337 m 0.12621,1.28056 -0.0947,-0.63719 m 0.25109,1.26202 -0.15643,-0.62483 m 0.37331,1.23136 -0.21688,-0.60653 m 0.49245,1.18878 -0.27557,-0.58225 m 0.60674,1.13472 -0.33117,-0.55247 m 0.71485,1.06985 -0.38368,-0.51738 m 0.81613,0.99483 -0.43245,-0.47745 m 0.9099,0.9099 -0.47745,-0.43245 m 0.99484,0.81613 -0.51739,-0.38368 m 1.06985,0.71485 -0.55246,-0.33117 m 1.13472,0.60674 -0.58226,-0.27557 m 1.18878,0.49246 -0.60652,-0.21689 m 1.23135,0.37332 -0.62483,-0.15643 m 1.26202,0.25108 -0.63719,-0.0947 m -38.43354,0.071 -0.86505,-0.0426 m 1.73006,0 -0.86501,0.0426 m 1.72171,-0.16967 -0.8567,0.12709 m 1.69683,-0.33735 -0.84013,0.21026 m 1.6556,-0.50216 -0.81547,0.2919 m 1.59836,-0.66213 -0.78289,0.37023 m 1.52577,-0.81546 -0.74288,0.44523 m 1.43854,-0.96108 -0.69566,0.51585 m 1.33735,-1.09766 -0.64169,0.58181 m 1.22335,-1.22341 -0.58166,0.6416 m 1.09756,-1.33726 -0.5159,0.69566 m 0.96117,-1.43853 -0.44527,0.74287 m 0.81556,-1.5259 -0.37029,0.78303 m 0.66207,-1.5985 -0.29178,0.81547 m 0.5022,-1.65542 -0.21042,0.83995 m 0.33751,-1.69667 -0.12709,0.85672 m 0.1696,-1.72183 -0.0425,0.86511 m 0,-1.73021 0.0425,0.8651 m -0.1696,-1.7216 0.12709,0.8565 m -0.33751,-1.69668 0.21042,0.84018 m -0.5022,-1.65564 0.29178,0.81546 m -0.66207,-1.59849 0.37029,0.78303 m -0.81556,-1.5259 0.44527,0.74287 m -0.96117,-1.43853 0.5159,0.69566 m -1.09756,-1.33727 0.58166,0.64161 m -1.22335,-1.2232 0.64169,0.58159 m -1.33735,-1.09765 0.69566,0.51606 m -1.43854,-0.9613 0.74288,0.44524 m -1.52577,-0.81546 0.78289,0.37022 m -1.59836,-0.66212 0.81547,0.2919 m -1.6556,-0.50217 0.84013,0.21027 m -1.69683,-0.33735 0.8567,0.12708 m -1.72171,-0.16967 0.86501,0.0426 m -1.73006,0 0.86505,-0.0426 m -1.72175,0.16967 0.8567,-0.12708 m -1.69684,0.33735 0.84014,-0.21027 m -1.65561,0.50217 0.81547,-0.2919 m -1.59836,0.66212 0.78289,-0.37022 m -1.52577,0.81546 0.74288,-0.44524 m -1.43852,0.9613 0.69564,-0.51606 m -1.33735,1.09765 0.64171,-0.58159 m -1.22337,1.2232 0.58166,-0.64161 m -1.09754,1.33727 0.51588,-0.69566 m -0.96114,1.43853 0.44526,-0.74287 m -0.81558,1.5259 0.37032,-0.78303 m -0.66208,1.59849 0.29176,-0.81546 m -0.50218,1.65564 0.21042,-0.84018 m -0.33751,1.69668 0.12709,-0.8565 m -0.16958,1.7216 0.0425,-0.8651 m 0,1.73021 -0.0425,-0.86511 m 0.16958,1.72183 -0.12709,-0.85672 m 0.33751,1.69667 -0.21042,-0.83995 m 0.50218,1.65542 -0.29176,-0.81547 m 0.66208,1.5985 -0.37032,-0.78303 m 0.81558,1.5259 -0.44526,-0.74287 m 0.96114,1.43853 -0.51588,-0.69566 m 1.09754,1.33726 -0.58166,-0.6416 m 1.22337,1.22341 -0.64171,-0.58181 m 1.33735,1.09766 -0.69564,-0.51585 m 1.43852,0.96108 -0.74288,-0.44523 m 1.52577,0.81546 -0.78289,-0.37023 m 1.59836,0.66213 -0.81547,-0.2919 m 1.65561,0.50216 -0.84014,-0.21026 m 1.69684,0.33735 -0.8567,-0.12709"
             style="fill:none;stroke:#ff0000;stroke-opacity:1"
             id="path6256"
             inkscape:connector-curvature="0" />
        </g>
        <g
           id="g6491"
           transform="translate(55.32131,-268.43408)"
           style="stroke:#ff0000;stroke-opacity:1">
          <path
             d="m 282.97149,1010.4417 a 17.650715,17.650715 0 1 0 -35.30143,0 17.650715,17.650715 0 1 0 35.30143,0 z m -83.84089,-12.79671 -13.23804,0 m 13.23804,-16.76818 0,16.76818 m -13.23804,-16.76818 13.23804,0 m -13.23804,-21.18085 0,21.18085 m 32.14946,-21.18085 -32.14946,0 m 32.14946,13.23803 0,-13.23803 m 18.91163,13.23803 -18.91163,0 m 18.91163,-13.23803 0,13.23803 m 18.91137,-13.23803 -18.91137,0 m 18.91137,13.23803 0,-13.23803 m 18.91149,13.23803 -18.91149,0 m 18.91149,-13.23803 0,13.23803 m 18.91139,-13.23803 -18.91139,0 m 18.91139,13.23803 0,-13.23803 m 18.91164,13.23803 -18.91164,0 m 18.91164,-13.23803 0,13.23803 m 32.14945,-13.23803 -32.14945,0 m 32.14945,21.18085 0,-21.18085 m -13.23803,21.18085 13.23803,0 m -13.23803,16.76818 0,-16.76818 m 13.23803,16.76818 -13.23803,0 m 13.23803,16.76821 0,-16.76821 m -13.23803,16.76821 13.23803,0 m -13.23803,16.7681 0,-16.7681 m 13.23803,16.7681 -13.23803,0 m 13.23803,21.1809 0,-21.1809 m -32.14945,21.1809 32.14945,0 m -32.14945,-13.238 0,13.238 m -18.91164,-13.238 18.91164,0 m -18.91164,13.238 0,-13.238 m -18.91137,13.238 18.91137,0 m -18.91138,-13.238 10e-6,13.238 m -18.91149,-13.238 18.91148,0 m -18.91147,13.238 -1e-5,-13.238 m -18.91139,13.238 18.9114,0 m -18.9114,-13.238 0,13.238 m -18.91163,-13.238 18.91163,0 m -18.91163,13.238 0,-13.238 m -32.14946,13.238 32.14946,0 m -32.14946,-21.1809 0,21.1809 m 13.23804,-21.1809 -13.23804,0 m 13.23804,-16.7681 0,16.7681 m -13.23804,-16.7681 13.23804,0 m -13.23804,-16.76821 0,16.76821 m 119.14232,0.2758 -0.64336,-0.032 m 1.28673,0 -0.64337,0.032 m 1.28056,-0.1262 -0.63719,0.095 m 1.26203,-0.2511 -0.62484,0.1565 m 1.23136,-0.3736 -0.60652,0.2171 m 1.18877,-0.4924 -0.58225,0.2753 m 1.13472,-0.6065 -0.55247,0.3312 m 1.06986,-0.7149 -0.51739,0.3837 m 0.99462,-0.8163 -0.47723,0.4326 m 0.90989,-0.9099 -0.43266,0.4773 m 0.81634,-0.9947 -0.38368,0.5174 m 0.71486,-1.0698 -0.33118,0.5524 m 0.60653,-1.1347 -0.27535,0.5823 m 0.49245,-1.1888 -0.2171,0.6065 m 0.37353,-1.2313 -0.15643,0.6248 m 0.25108,-1.262 -0.0947,0.6372 m 0.1262,-1.2806 -0.0316,0.6434 m 0,-1.2868 0.0316,0.6434 m -0.1262,-1.2806 0.0947,0.6372 m -0.25108,-1.262 0.15643,0.6248 m -0.37353,-1.2313 0.2171,0.6065 m -0.49245,-1.1888 0.27535,0.5823 m -0.60653,-1.1347 0.33118,0.5524 m -0.71486,-1.0698 0.38368,0.5174 m -0.81634,-0.9949 0.43266,0.4775 m -0.90989,-0.9099 0.47723,0.4324 m -0.99462,-0.8161 0.51739,0.3837 m -1.06986,-0.7149 0.55247,0.3312 m -1.13472,-0.6067 0.58225,0.2755 m -1.18877,-0.4924 0.60652,0.2169 m -1.23136,-0.3734 0.62484,0.1565 m -1.26203,-0.2511 0.63719,0.095 m -1.28056,-0.1262 0.64337,0.032 m -1.28673,0 0.64336,-0.032 m -1.28056,0.1262 0.6372,-0.095 m -1.26203,0.2511 0.62483,-0.1565 m -1.23135,0.3734 0.60652,-0.2169 m -1.18878,0.4924 0.58226,-0.2755 m -1.13472,0.6067 0.55246,-0.3312 m -1.06985,0.7149 0.51739,-0.3837 m -0.99484,0.8161 0.47745,-0.4324 m -0.90989,0.9099 0.43244,-0.4775 m -0.81613,0.9949 0.38369,-0.5174 m -0.71486,1.0698 0.33117,-0.5524 m -0.60674,1.1347 0.27557,-0.5823 m -0.49245,1.1888 0.21688,-0.6065 m -0.37331,1.2313 0.15643,-0.6248 m -0.25108,1.262 0.0947,-0.6372 m -0.12621,1.2806 0.0316,-0.6434 m 0,1.2868 -0.0316,-0.6434 m 0.12621,1.2806 -0.0947,-0.6372 m 0.25108,1.262 -0.15643,-0.6248 m 0.37331,1.2313 -0.21688,-0.6065 m 0.49245,1.1888 -0.27557,-0.5823 m 0.60674,1.1347 -0.33117,-0.5524 m 0.71486,1.0698 -0.38369,-0.5174 m 0.81613,0.9947 -0.43244,-0.4773 m 0.90989,0.9099 -0.47745,-0.4326 m 0.99484,0.8163 -0.51739,-0.3837 m 1.06985,0.7149 -0.55246,-0.3312 m 1.13472,0.6065 -0.58226,-0.2753 m 1.18878,0.4924 -0.60652,-0.2171 m 1.23135,0.3736 -0.62483,-0.1565 m 1.26203,0.2511 -0.6372,-0.095 m -78.14765,0.1262 -0.64337,-0.032 m 1.28674,0 -0.64337,0.032 m 1.28056,-0.1262 -0.63719,0.095 m 1.26203,-0.2511 -0.62484,0.1565 m 1.23136,-0.3736 -0.60652,0.2171 m 1.18877,-0.4924 -0.58225,0.2753 m 1.13472,-0.6065 -0.55247,0.3312 m 1.06985,-0.7149 -0.51738,0.3837 m 0.99462,-0.8163 -0.47724,0.4326 m 0.9099,-0.9099 -0.43266,0.4773 m 0.81634,-0.9947 -0.38368,0.5174 m 0.71485,-1.0698 -0.33117,0.5524 m 0.60652,-1.1347 -0.27535,0.5823 m 0.49246,-1.1888 -0.21711,0.6065 m 0.37354,-1.2313 -0.15643,0.6248 m 0.25108,-1.262 -0.0947,0.6372 m 0.1262,-1.2806 -0.0316,0.6434 m 0,-1.2868 0.0316,0.6434 m -0.1262,-1.2806 0.0947,0.6372 m -0.25108,-1.262 0.15643,0.6248 m -0.37354,-1.2313 0.21711,0.6065 m -0.49246,-1.1888 0.27535,0.5823 m -0.60652,-1.1347 0.33117,0.5524 m -0.71485,-1.0698 0.38368,0.5174 m -0.81634,-0.9949 0.43266,0.4775 m -0.9099,-0.9099 0.47724,0.4324 m -0.99462,-0.8161 0.51738,0.3837 m -1.06985,-0.7149 0.55247,0.3312 m -1.13472,-0.6067 0.58225,0.2755 m -1.18877,-0.4924 0.60652,0.2169 m -1.23136,-0.3734 0.62484,0.1565 m -1.26203,-0.2511 0.63719,0.095 m -1.28056,-0.1262 0.64337,0.032 m -1.28674,0 0.64337,-0.032 m -1.28056,0.1262 0.63719,-0.095 m -1.26202,0.2511 0.62483,-0.1565 m -1.23136,0.3734 0.60653,-0.2169 m -1.18878,0.4924 0.58225,-0.2755 m -1.13472,0.6067 0.55247,-0.3312 m -1.06985,0.7149 0.51738,-0.3837 m -0.99484,0.8161 0.47746,-0.4324 m -0.9099,0.9099 0.43244,-0.4775 m -0.81612,0.9949 0.38368,-0.5174 m -0.71485,1.0698 0.33117,-0.5524 m -0.60674,1.1347 0.27557,-0.5823 m -0.49246,1.1888 0.21689,-0.6065 m -0.37332,1.2313 0.15643,-0.6248 m -0.25108,1.262 0.0946,-0.6372 m -0.1262,1.2806 0.0316,-0.6434 m 0,1.2868 -0.0316,-0.6434 m 0.1262,1.2806 -0.0946,-0.6372 m 0.25108,1.262 -0.15643,-0.6248 m 0.37332,1.2313 -0.21689,-0.6065 m 0.49246,1.1888 -0.27557,-0.5823 m 0.60674,1.1347 -0.33117,-0.5524 m 0.71485,1.0698 -0.38368,-0.5174 m 0.81612,0.9947 -0.43244,-0.4773 m 0.9099,0.9099 -0.47746,-0.4326 m 0.99484,0.8163 -0.51738,-0.3837 m 1.06985,0.7149 -0.55247,-0.3312 m 1.13472,0.6065 -0.58225,-0.2753 m 1.18878,0.4924 -0.60653,-0.2171 m 1.23136,0.3736 -0.62483,-0.1565 m 1.26202,0.2511 -0.63719,-0.095 m 36.04925,-0.2234 1.59673,1.2913 m -2.71641,-3.013 1.11968,1.7217 m -1.65233,-3.705 0.53265,1.9833 m -0.4265,-4.0342 -0.10615,2.0509 m 0.84091,-3.9685 -0.73476,1.9176 m 2.02612,-3.5144 -1.29136,1.5968 m 3.01306,-2.7164 -1.7217,1.1196 m 3.70488,-1.6524 -1.98318,0.5328 m 4.03419,-0.4265 -2.05101,-0.1063 m 3.96864,0.841 -1.91763,-0.7347 m 3.51437,2.0261 -1.59674,-1.2914 m 2.71641,3.0131 -1.11967,-1.7217 m 1.65232,3.7049 -0.53265,-1.9832 m 0.4265,4.0342 0.10615,-2.051 m -0.84091,3.9686 0.73476,-1.9176 m -2.02612,3.5144 1.29136,-1.5968 m -3.01305,2.7163 1.72169,-1.1195 m -3.70487,1.6523 1.98318,-0.5328 m -4.0342,0.4266 2.05102,0.1062 m -3.96865,-0.841 1.91763,0.7348 m 9.6435,7.9041 -16.54756,0.01 m 24.81233,-14.3461 -8.26477,14.3357 m -0.018,-28.66109 8.28274,14.32539 m -24.8303,-14.31506 16.54756,-0.0103 m -24.81233,14.34596 8.26477,-14.33563 m 0.018,28.66113 -8.28274,-14.3255"
             style="fill:none;stroke:#ff0000;stroke-opacity:1"
             id="path6346"
             inkscape:connector-curvature="0" />
        </g>
      </g>
    </g>
  </g>
</svg>
