<?xml version="1.0" encoding="UTF-8" standalone="no"?>
<svg
   xmlns:dc="http://purl.org/dc/elements/1.1/"
   xmlns:cc="http://creativecommons.org/ns#"
   xmlns:rdf="http://www.w3.org/1999/02/22-rdf-syntax-ns#"
   xmlns:svg="http://www.w3.org/2000/svg"
   xmlns="http://www.w3.org/2000/svg"
   xmlns:sodipodi="http://sodipodi.sourceforge.net/DTD/sodipodi-0.dtd"
   xmlns:inkscape="http://www.inkscape.org/namespaces/inkscape"
   width="680"
   height="460"
   id="svg4155"
   version="1.1"
   inkscape:version="0.91 r13725"
   sodipodi:docname="Y.svg">
  <metadata
     id="metadata4928">
    <rdf:RDF>
      <cc:Work
         rdf:about="">
        <dc:format>image/svg+xml</dc:format>
        <dc:type
           rdf:resource="http://purl.org/dc/dcmitype/StillImage" />
        <dc:title></dc:title>
      </cc:Work>
    </rdf:RDF>
  </metadata>
  <sodipodi:namedview
     pagecolor="#ffffff"
     bordercolor="#666666"
     borderopacity="1"
     objecttolerance="10"
     gridtolerance="10"
     guidetolerance="10"
     inkscape:pageopacity="0"
     inkscape:pageshadow="2"
     inkscape:window-width="1366"
     inkscape:window-height="709"
     id="namedview4926"
     showgrid="false"
     inkscape:zoom="0.50457914"
     inkscape:cx="372.04724"
     inkscape:cy="312.10825"
     inkscape:window-x="0"
     inkscape:window-y="0"
     inkscape:window-maximized="1"
     inkscape:current-layer="g4176" />
  <desc
     id="desc4157">/run/media/sibu/LEX/lathe/Y.dxf - scale = 0.592360, origin = (-131.661383, -90.845431), auto = True</desc>
  <defs
     id="defs4159">
    <marker
       id="DistanceX"
       orient="auto"
       refX="0"
       refY="0"
       style="overflow:visible">
      <path
         d="M 3,-3 -3,3 M 0,-5 0,5"
         style="stroke:#000000;stroke-width:0.5"
         id="path4162"
         inkscape:connector-curvature="0" />
    </marker>
    <pattern
       height="8"
       id="Hatch"
       patternUnits="userSpaceOnUse"
       width="8"
       x="0"
       y="0">
      <path
         d="M8 4 l-4,4"
         linecap="square"
         stroke="#000000"
         stroke-width="0.25"
         id="path4165" />
      <path
         d="M6 2 l-4,4"
         linecap="square"
         stroke="#000000"
         stroke-width="0.25"
         id="path4167" />
      <path
         d="M4 0 l-4,4"
         linecap="square"
         stroke="#000000"
         stroke-width="0.25"
         id="path4169" />
    </pattern>
    <symbol
       id="*Model_Space" />
    <symbol
       id="*Paper_Space" />
    <symbol
       id="*Paper_Space0" />
  </defs>
  <g
     inkscape:groupmode="layer"
     inkscape:label="0"
     id="g4174"
     transform="translate(0,-592.36218)" />
  <g
     inkscape:groupmode="layer"
     inkscape:label="Default"
     id="g4176"
     transform="translate(0,-592.36218)">
    <g
       id="g4935"
       transform="translate(-69.364739,-69.364736)"
       style="stroke:#ff0000;stroke-opacity:1">
      <path
         d="m 672.46901,949.31052 -28.28287,0 m -4.19784,0 32.48071,0 m -32.48071,-23.98766 0,23.98766 m 12.5935,-23.98766 -12.5935,0 m 12.5935,-23.98766 0,23.98766 m -12.5935,-23.98766 12.5935,0 m -12.5935,-23.98753 0,23.98753 m 12.5935,-23.98753 -12.5935,0 m 12.5935,-23.98755 0,23.98755 m -12.5935,-23.98755 12.5935,0 m -12.5935,-23.98769 0,23.98769 m 12.5935,-23.98769 -12.5935,0 m 12.5935,-23.98744 0,23.98744 m -12.5935,-23.98744 12.5935,0 m -12.5935,-23.98766 0,23.98766 m 32.48071,-23.98766 -32.48071,0 m 32.48071,-12.59349 0,12.59349 m 29.06998,-12.59349 -29.06998,0 m 29.06998,12.59349 0,-12.59349 m 28.02051,12.59349 -28.02051,0 m 28.02051,-12.59349 0,12.59349 m 14.53499,-12.59349 -14.53499,0 m 14.53499,193.10017 0,-193.10017 m -14.53499,193.10017 14.53499,0 m -14.53499,-12.59349 0,12.59349 m -28.02051,-12.59349 28.02051,0 m -28.02051,12.59349 0,-12.59349 m -29.06998,12.59349 29.06998,0 m -29.06998,-12.59349 0,12.59349 m 0,-4.19783 0,-8.39566 m 29.11348,-121.68865 a 3.6521125,3.6521125 0 1 0 -7.30422,0 3.6521125,3.6521125 0 0 0 7.30422,0 z m 2.53969,75.56134 a 6.1918,6.1918 0 1 0 -12.3836,0 6.1918,6.1918 0 0 0 12.3836,0 z m 16.92622,-37.82925 a 22.930647,22.930647 0 1 0 -45.86129,0 22.930647,22.930647 0 0 0 45.86129,0 z m 12.48855,32.27081 a 3.148375,3.148375 0 1 0 -6.29675,0 3.148375,3.148375 0 0 0 6.29675,0 z m -64.54164,0 a 3.1483725,3.1483725 0 1 0 -6.29674,0 3.1483725,3.1483725 0 0 0 6.29674,0 z m 0,-64.54163 a 3.1483725,3.1483725 0 1 0 -6.29674,0 3.1483725,3.1483725 0 0 0 6.29674,0 z m 64.54164,0 a 3.148375,3.148375 0 1 0 -6.29675,0 3.148375,3.148375 0 0 0 6.29675,0 z"
         style="fill:none;stroke:#ff0000;stroke-opacity:1"
         id="path4250"
         inkscape:connector-curvature="0" />
    </g>
    <g
       id="g4939"
       transform="translate(-23.782197,-61.437336)"
       style="stroke:#ff0000;stroke-opacity:1">
      <path
         d="m 573.51843,958.23546 0,-13.81831 m -21.82388,13.81831 21.82388,0 m -21.82388,-12.59349 0,12.59349 m -55.76418,-12.59349 55.76418,0 m -55.76397,12.59349 -2.1e-4,-12.59349 m -56.81406,12.59349 56.81427,0 m -56.81427,-12.59349 0,12.59349 m -55.76408,-12.59349 55.76408,0 m -55.76376,12.59349 -3.2e-4,-12.59349 m -56.81396,12.59349 56.81428,0 m -56.81428,-12.59349 0,12.59349 m -55.76439,-12.59349 55.76439,0 m -55.76439,12.59349 0,-12.59349 m -56.81427,12.59349 56.81427,0 m -56.81427,-12.59349 0,12.59349 m -56.02634,-12.59349 56.02634,0 m -56.02634,-23.7253 0,23.7253 m -12.59349,-23.7253 12.59349,0 m -12.59349,-24.51218 0,24.51218 m 12.59349,-24.51218 -12.59349,0 m 12.59349,-23.46304 0,23.46304 m -12.59349,-23.46312 12.59349,8e-5 m -12.59349,-24.51226 0,24.51218 m 12.59349,-24.51218 -12.59349,0 m 12.59349,-23.46295 0,23.46295 m -12.59349,-23.46295 12.59349,0 m -12.59349,-24.51218 0,24.51218 m 12.59349,-24.51218 -12.59349,0 m 12.59349,-23.72529 0,23.72529 m 56.02634,-23.72529 -56.02634,0 m 56.02634,-12.59349 0,12.59349 m 56.81427,-12.59349 -56.81427,0 m 56.81427,12.59349 0,-12.59349 m 55.76397,12.59349 -55.76397,0 m 55.76376,-12.59349 2.1e-4,12.59349 m 56.81407,-12.59349 -56.81428,0 m 56.81428,12.59349 0,-12.59349 m 55.76418,12.59349 -55.76418,0 m 55.76397,-12.59349 2.1e-4,12.59349 m 56.81406,-12.59349 -56.81427,0 m 56.81427,12.59349 0,-12.59349 m 55.76408,12.59349 -55.76408,0 m 55.76376,-12.59349 3.2e-4,12.59349 m 21.82419,-12.59349 -21.82451,0 m 21.82451,11.36867 0,-11.36867 m 0,35.09396 0,-23.72529 m 12.59349,23.72529 -12.59349,0 m 12.59349,24.51218 0,-24.51218 m -12.59349,24.51218 12.59349,0 m -12.59349,23.46305 0,-23.46305 m 12.59349,23.46312 -12.59349,-7e-5 m 12.59349,24.51225 0,-24.51218 m -12.59349,24.51218 12.59349,0 m -12.59349,23.46295 0,-23.46295 m 12.59349,23.46295 -12.59349,0 m 12.59349,24.51218 0,-24.51218 m -12.59349,24.51218 12.59349,0 m -12.59349,23.7253 0,-23.7253 m 0,-250.43744 12.59349,0 m -428.17865,0 415.58516,0 m -428.17865,0 12.59349,0 m -12.59349,28.54524 0,-28.54524 m 12.59349,28.54524 -12.59349,0 m 12.59349,28.54525 0,-28.54525 m -12.59349,28.54525 12.59349,0 m -12.59349,32.74307 0,-32.74307 m 68.88219,32.74307 -68.88219,0 m 68.88219,-12.59349 0,12.59349 m 56.28955,-12.59349 -56.28955,0 m 56.28955,12.59349 0,-12.59349 m 56.28912,12.59349 -56.28912,0 m 56.28912,-12.59349 0,12.59349 m 56.28891,-12.59349 -56.28891,0 m 56.28891,12.59349 0,-12.59349 m 56.28912,12.59349 -56.28912,0 m 56.28912,-12.59349 0,12.59349 m 56.28912,-12.59349 -56.28912,0 m 56.28912,12.59349 0,-12.59349 m 56.28913,12.59349 -56.28913,0 m 56.28913,-12.59349 0,12.59349 m 21.56151,-12.59349 -21.56151,0 m 21.56151,13.01749 0,-13.01749 m 12.59349,13.01749 -12.59349,0 m 12.59349,-0.424 0,0.424 m 0,-33.16707 0,32.74307 m -12.59349,-32.74307 12.59349,0 m -12.59349,-28.54525 0,28.54525 m 12.59349,-28.54525 -12.59349,0 m 12.59349,-28.54524 0,28.54524 M 421.34684,903.66391 c 0,1.49975 0.80011,2.88557 2.09893,3.63544 m 0,-7.27089 c -1.29882,0.74987 -2.09893,2.1357 -2.09893,3.63545 m 6.29678,-3.63545 c -1.29882,-0.74988 -2.89903,-0.74988 -4.19785,0 m 6.29678,3.63545 c 0,-1.49975 -0.8001,-2.88558 -2.09893,-3.63545 m 0,7.27089 c 1.29883,-0.74987 2.09893,-2.13569 2.09893,-3.63544 m -6.29678,3.63544 c 1.29882,0.74988 2.89903,0.74988 4.19785,0 m -6.29678,-45.61398 c 0,1.49975 0.80011,2.88557 2.09893,3.63545 m 0,-7.2709 c -1.29882,0.74988 -2.09893,2.1357 -2.09893,3.63545 m 6.29678,-3.63545 c -1.29882,-0.74987 -2.89903,-0.74987 -4.19785,0 m 6.29678,3.63545 c 0,-1.49975 -0.8001,-2.88557 -2.09893,-3.63545 m 0,7.2709 c 1.29883,-0.74988 2.09893,-2.1357 2.09893,-3.63545 m -6.29678,3.63545 c 1.29882,0.74987 2.89903,0.74987 4.19785,0 m -6.29678,-45.61399 c 0,1.49975 0.80011,2.88557 2.09893,3.63545 m 0,-7.2709 c -1.29882,0.74988 -2.09893,2.1357 -2.09893,3.63545 m 6.29679,-3.63545 c -1.29883,-0.74987 -2.89904,-0.74987 -4.19786,0 m 6.29678,3.63545 c 0,-1.49975 -0.8001,-2.88557 -2.09892,-3.63545 m 0,7.2709 c 1.29882,-0.74988 2.09892,-2.1357 2.09892,-3.63545 m -6.29678,3.63545 c 1.29882,0.74987 2.89903,0.74987 4.19786,0 m 119.63883,80.32163 c 0,1.49974 0.80011,2.88557 2.09893,3.63544 m 0,-7.27089 c -1.29882,0.74987 -2.09893,2.1357 -2.09893,3.63545 m 6.29678,-3.63545 c -1.29882,-0.74988 -2.89903,-0.74988 -4.19785,0 m 6.29678,3.63545 c 0,-1.49975 -0.80011,-2.88558 -2.09893,-3.63545 m 0,7.27089 c 1.29882,-0.74987 2.09893,-2.1357 2.09893,-3.63544 m -6.29678,3.63544 c 1.29882,0.74988 2.89903,0.74988 4.19785,0 m -6.29678,-45.61398 c 0,1.49975 0.80011,2.88557 2.09893,3.63545 m 0,-7.2709 c -1.29882,0.74988 -2.09893,2.1357 -2.09893,3.63545 m 6.29678,-3.63545 c -1.29882,-0.74987 -2.89903,-0.74987 -4.19785,0 m 6.29678,3.63545 c 0,-1.49975 -0.80011,-2.88557 -2.09893,-3.63545 m 0,7.2709 c 1.29882,-0.74988 2.09893,-2.1357 2.09893,-3.63545 m -6.29678,3.63545 c 1.29882,0.74987 2.89903,0.74987 4.19785,0 m -6.29678,-45.61399 c 0,1.49975 0.80011,2.88557 2.09893,3.63545 m 0,-7.2709 c -1.29882,0.74988 -2.09893,2.1357 -2.09893,3.63545 m 6.29678,-3.63545 c -1.29882,-0.74987 -2.89903,-0.74987 -4.19785,0 m 6.29678,3.63545 c 0,-1.49975 -0.80011,-2.88557 -2.09893,-3.63545 m 0,7.2709 c 1.29882,-0.74988 2.09893,-2.1357 2.09893,-3.63545 m -6.29678,3.63545 c 1.29882,0.74987 2.89903,0.74987 4.19785,0 m -384.10363,80.32163 c 0,1.49974 0.80011,2.88557 2.09893,3.63544 m 0,-7.27089 c -1.29883,0.74987 -2.09893,2.1357 -2.09893,3.63545 m 6.29678,-3.63545 c -1.29882,-0.74988 -2.89903,-0.74988 -4.19785,0 m 6.29678,3.63545 c 0,-1.49975 -0.80011,-2.88558 -2.09893,-3.63545 m 0,7.27089 c 1.29882,-0.74987 2.09893,-2.1357 2.09893,-3.63544 m -6.29678,3.63544 c 1.29882,0.74988 2.89903,0.74988 4.19785,0 m 35.68176,-3.63544 c 0,1.49974 0.8001,2.88557 2.09892,3.63544 m 0,-7.27089 c -1.29882,0.74987 -2.09892,2.1357 -2.09892,3.63545 m 6.29678,-3.63545 c -1.29882,-0.74988 -2.89903,-0.74988 -4.19786,0 m 6.29679,3.63545 c 0,-1.49975 -0.80011,-2.88558 -2.09893,-3.63545 m 0,7.27089 c 1.29882,-0.74987 2.09893,-2.1357 2.09893,-3.63544 m -6.29679,3.63544 c 1.29883,0.74988 2.89904,0.74988 4.19786,0 m -48.27532,-45.61398 c 0,1.49975 0.80011,2.88557 2.09893,3.63545 m 0,-7.2709 c -1.29883,0.74988 -2.09893,2.1357 -2.09893,3.63545 m 6.29678,-3.63545 c -1.29882,-0.74987 -2.89903,-0.74987 -4.19785,0 m 6.29678,3.63545 c 0,-1.49975 -0.80011,-2.88557 -2.09893,-3.63545 m 0,7.2709 c 1.29882,-0.74988 2.09893,-2.1357 2.09893,-3.63545 m -6.29678,3.63545 c 1.29882,0.74987 2.89903,0.74987 4.19785,0 m 35.68176,-3.63545 c 0,1.49975 0.8001,2.88557 2.09892,3.63545 m 0,-7.2709 c -1.29882,0.74988 -2.09892,2.1357 -2.09892,3.63545 m 6.29678,-3.63545 c -1.29882,-0.74987 -2.89903,-0.74987 -4.19786,0 m 6.29679,3.63545 c 0,-1.49975 -0.80011,-2.88557 -2.09893,-3.63545 m 0,7.2709 c 1.29882,-0.74988 2.09893,-2.1357 2.09893,-3.63545 m -6.29679,3.63545 c 1.29883,0.74987 2.89904,0.74987 4.19786,0 m 35.68176,-45.61399 c 0,1.49975 0.8001,2.88557 2.09892,3.63545 m 0,-7.2709 c -1.29882,0.74988 -2.09892,2.1357 -2.09892,3.63545 m 6.29678,-3.63545 c -1.29882,-0.74987 -2.89904,-0.74987 -4.19786,0 m 6.29678,3.63545 c 0,-1.49975 -0.8001,-2.88557 -2.09892,-3.63545 m 0,7.2709 c 1.29882,-0.74988 2.09892,-2.1357 2.09892,-3.63545 m -6.29678,3.63545 c 1.29882,0.74987 2.89904,0.74987 4.19786,0 m -48.27532,-3.63545 c 0,1.49975 0.8001,2.88557 2.09892,3.63545 m 0,-7.2709 c -1.29882,0.74988 -2.09892,2.1357 -2.09892,3.63545 m 6.29678,-3.63545 c -1.29882,-0.74987 -2.89903,-0.74987 -4.19786,0 m 6.29679,3.63545 c 0,-1.49975 -0.80011,-2.88557 -2.09893,-3.63545 m 0,7.2709 c 1.29882,-0.74988 2.09893,-2.1357 2.09893,-3.63545 m -6.29679,3.63545 c 1.29883,0.74987 2.89904,0.74987 4.19786,0 m -48.27532,-3.63545 c 0,1.49975 0.80011,2.88557 2.09893,3.63545 m 0,-7.2709 c -1.29883,0.74988 -2.09893,2.1357 -2.09893,3.63545 m 6.29678,-3.63545 c -1.29882,-0.74987 -2.89903,-0.74987 -4.19785,0 m 6.29678,3.63545 c 0,-1.49975 -0.80011,-2.88557 -2.09893,-3.63545 m 0,7.2709 c 1.29882,-0.74988 2.09893,-2.1357 2.09893,-3.63545 m -6.29678,3.63545 c 1.29882,0.74987 2.89903,0.74987 4.19785,0 m 77.6603,80.32163 c 0,1.49974 0.80011,2.88557 2.09893,3.63544 m 0,-7.27089 c -1.29883,0.74987 -2.09893,2.1357 -2.09893,3.63545 m 6.29678,-3.63545 c -1.29882,-0.74988 -2.89903,-0.74988 -4.19785,0 m 6.29678,3.63545 c 0,-1.49975 -0.80011,-2.88558 -2.09893,-3.63545 m 0,7.27089 c 1.29882,-0.74987 2.09893,-2.1357 2.09893,-3.63544 m -6.29678,3.63544 c 1.29882,0.74988 2.89903,0.74988 4.19785,0 m 77.6603,-3.63544 c 0,1.49974 0.8001,2.88557 2.09892,3.63544 m 0,-7.27089 c -1.29882,0.74987 -2.09892,2.1357 -2.09892,3.63545 m 6.29678,-3.63545 c -1.29882,-0.74988 -2.89904,-0.74988 -4.19786,0 m 6.29678,3.63545 c 0,-1.49975 -0.8001,-2.88558 -2.09892,-3.63545 m 0,7.27089 c 1.29882,-0.74987 2.09892,-2.1357 2.09892,-3.63544 m -6.29678,3.63544 c 1.29882,0.74988 2.89904,0.74988 4.19786,0 m -48.27532,-3.63544 c 0,1.49974 0.8001,2.88557 2.09892,3.63544 m 0,-7.27089 c -1.29882,0.74987 -2.09892,2.1357 -2.09892,3.63545 m 6.29678,-3.63545 c -1.29882,-0.74988 -2.89904,-0.74988 -4.19786,0 m 6.29678,3.63545 c 0,-1.49975 -0.8001,-2.88558 -2.09892,-3.63545 m 0,7.27089 c 1.29882,-0.74987 2.09892,-2.1357 2.09892,-3.63544 m -6.29678,3.63544 c 1.29882,0.74988 2.89904,0.74988 4.19786,0 m -48.27532,-45.61398 c 0,1.49975 0.80011,2.88557 2.09893,3.63545 m 0,-7.2709 c -1.29883,0.74988 -2.09893,2.1357 -2.09893,3.63545 m 6.29678,-3.63545 c -1.29882,-0.74987 -2.89903,-0.74987 -4.19785,0 m 6.29678,3.63545 c 0,-1.49975 -0.80011,-2.88557 -2.09893,-3.63545 m 0,7.2709 c 1.29882,-0.74988 2.09893,-2.1357 2.09893,-3.63545 m -6.29678,3.63545 c 1.29882,0.74987 2.89903,0.74987 4.19785,0 m 77.6603,-3.63545 c 0,1.49975 0.8001,2.88557 2.09892,3.63545 m 0,-7.2709 c -1.29882,0.74988 -2.09892,2.1357 -2.09892,3.63545 m 6.29678,-3.63545 c -1.29882,-0.74987 -2.89904,-0.74987 -4.19786,0 m 6.29678,3.63545 c 0,-1.49975 -0.8001,-2.88557 -2.09892,-3.63545 m 0,7.2709 c 1.29882,-0.74988 2.09892,-2.1357 2.09892,-3.63545 m -6.29678,3.63545 c 1.29882,0.74987 2.89904,0.74987 4.19786,0 m -48.27532,-3.63545 c 0,1.49975 0.8001,2.88557 2.09892,3.63545 m 0,-7.2709 c -1.29882,0.74988 -2.09892,2.1357 -2.09892,3.63545 m 6.29678,-3.63545 c -1.29882,-0.74987 -2.89904,-0.74987 -4.19786,0 m 6.29678,3.63545 c 0,-1.49975 -0.8001,-2.88557 -2.09892,-3.63545 m 0,7.2709 c 1.29882,-0.74988 2.09892,-2.1357 2.09892,-3.63545 m -6.29678,3.63545 c 1.29882,0.74987 2.89904,0.74987 4.19786,0 m 35.68176,-45.61399 c 0,1.49975 0.8001,2.88557 2.09892,3.63545 m 0,-7.2709 c -1.29882,0.74988 -2.09892,2.1357 -2.09892,3.63545 m 6.29678,-3.63545 c -1.29882,-0.74987 -2.89904,-0.74987 -4.19786,0 m 6.29678,3.63545 c 0,-1.49975 -0.8001,-2.88557 -2.09892,-3.63545 m 0,7.2709 c 1.29882,-0.74988 2.09892,-2.1357 2.09892,-3.63545 m -6.29678,3.63545 c 1.29882,0.74987 2.89904,0.74987 4.19786,0 m -48.27532,-3.63545 c 0,1.49975 0.8001,2.88557 2.09892,3.63545 m 0,-7.2709 c -1.29882,0.74988 -2.09892,2.1357 -2.09892,3.63545 m 6.29678,-3.63545 c -1.29882,-0.74987 -2.89904,-0.74987 -4.19786,0 m 6.29678,3.63545 c 0,-1.49975 -0.8001,-2.88557 -2.09892,-3.63545 m 0,7.2709 c 1.29882,-0.74988 2.09892,-2.1357 2.09892,-3.63545 m -6.29678,3.63545 c 1.29882,0.74987 2.89904,0.74987 4.19786,0 m 77.6603,80.32163 c 0,1.49975 0.8001,2.88557 2.09892,3.63544 m 0,-7.27089 c -1.29882,0.74987 -2.09892,2.1357 -2.09892,3.63545 m 6.29678,-3.63545 c -1.29882,-0.74988 -2.89904,-0.74988 -4.19786,0 m 6.29678,3.63545 c 0,-1.49975 -0.8001,-2.88558 -2.09892,-3.63545 m 0,7.27089 c 1.29882,-0.74987 2.09892,-2.13569 2.09892,-3.63544 m -6.29678,3.63544 c 1.29882,0.74988 2.89904,0.74988 4.19786,0 m -6.29678,-45.61398 c 0,1.49975 0.8001,2.88557 2.09892,3.63545 m 0,-7.2709 c -1.29882,0.74988 -2.09892,2.1357 -2.09892,3.63545 m 6.29678,-3.63545 c -1.29882,-0.74987 -2.89904,-0.74987 -4.19786,0 m 6.29678,3.63545 c 0,-1.49975 -0.8001,-2.88557 -2.09892,-3.63545 m 0,7.2709 c 1.29882,-0.74988 2.09892,-2.1357 2.09892,-3.63545 m -6.29678,3.63545 c 1.29882,0.74987 2.89904,0.74987 4.19786,0 m -6.29678,-45.61399 c 0,1.49975 0.8001,2.88557 2.09892,3.63545 m 0,-7.2709 c -1.29882,0.74988 -2.09892,2.1357 -2.09892,3.63545 m 6.29678,-3.63545 c -1.29882,-0.74987 -2.89904,-0.74987 -4.19786,0 m 6.29678,3.63545 c 0,-1.49975 -0.8001,-2.88557 -2.09892,-3.63545 m 0,7.2709 c 1.29882,-0.74988 2.09892,-2.1357 2.09892,-3.63545 m -6.29678,3.63545 c 1.29882,0.74987 2.89904,0.74987 4.19786,0 m 119.63883,80.32163 c 0,1.49974 0.80011,2.88557 2.09893,3.63544 m 0,-7.27089 c -1.29882,0.74987 -2.09893,2.1357 -2.09893,3.63545 m 6.29678,-3.63545 c -1.29882,-0.74988 -2.89903,-0.74988 -4.19785,0 m 6.29678,3.63545 c 0,-1.49975 -0.80011,-2.88558 -2.09893,-3.63545 m 0,7.27089 c 1.29882,-0.74987 2.09893,-2.1357 2.09893,-3.63544 m -6.29678,3.63544 c 1.29882,0.74988 2.89903,0.74988 4.19785,0 m -48.27532,-3.63544 c 0,1.49974 0.80011,2.88557 2.09893,3.63544 m 0,-7.27089 c -1.29882,0.74987 -2.09893,2.1357 -2.09893,3.63545 m 6.29678,-3.63545 c -1.29882,-0.74988 -2.89903,-0.74988 -4.19785,0 m 6.29678,3.63545 c 0,-1.49975 -0.80011,-2.88558 -2.09893,-3.63545 m 0,7.27089 c 1.29882,-0.74987 2.09893,-2.1357 2.09893,-3.63544 m -6.29678,3.63544 c 1.29882,0.74988 2.89903,0.74988 4.19785,0 m 35.68176,-45.61398 c 0,1.49975 0.80011,2.88557 2.09893,3.63545 m 0,-7.2709 c -1.29882,0.74988 -2.09893,2.1357 -2.09893,3.63545 m 6.29678,-3.63545 c -1.29882,-0.74987 -2.89903,-0.74987 -4.19785,0 m 6.29678,3.63545 c 0,-1.49975 -0.80011,-2.88557 -2.09893,-3.63545 m 0,7.2709 c 1.29882,-0.74988 2.09893,-2.1357 2.09893,-3.63545 m -6.29678,3.63545 c 1.29882,0.74987 2.89903,0.74987 4.19785,0 m -48.27532,-3.63545 c 0,1.49975 0.80011,2.88557 2.09893,3.63545 m 0,-7.2709 c -1.29882,0.74988 -2.09893,2.1357 -2.09893,3.63545 m 6.29678,-3.63545 c -1.29882,-0.74987 -2.89903,-0.74987 -4.19785,0 m 6.29678,3.63545 c 0,-1.49975 -0.80011,-2.88557 -2.09893,-3.63545 m 0,7.2709 c 1.29882,-0.74988 2.09893,-2.1357 2.09893,-3.63545 m -6.29678,3.63545 c 1.29882,0.74987 2.89903,0.74987 4.19785,0 m 35.68176,-45.61399 c 0,1.49975 0.80011,2.88557 2.09893,3.63545 m 0,-7.2709 c -1.29882,0.74988 -2.09893,2.1357 -2.09893,3.63545 m 6.29678,-3.63545 c -1.29882,-0.74987 -2.89903,-0.74987 -4.19785,0 m 6.29678,3.63545 c 0,-1.49975 -0.80011,-2.88557 -2.09893,-3.63545 m 0,7.2709 c 1.29882,-0.74988 2.09893,-2.1357 2.09893,-3.63545 m -6.29678,3.63545 c 1.29882,0.74987 2.89903,0.74987 4.19785,0 m -48.27532,-3.63545 c 0,1.49975 0.80011,2.88557 2.09893,3.63545 m 0,-7.2709 c -1.29882,0.74988 -2.09893,2.1357 -2.09893,3.63545 m 6.29678,-3.63545 c -1.29882,-0.74987 -2.89903,-0.74987 -4.19785,0 m 6.29678,3.63545 c 0,-1.49975 -0.80011,-2.88557 -2.09893,-3.63545 m 0,7.2709 c 1.29882,-0.74988 2.09893,-2.1357 2.09893,-3.63545 m -6.29678,3.63545 c 1.29882,0.74987 2.89903,0.74987 4.19785,0 m -309.38018,229.01992 -12.59349,0 m 428.17865,0 -415.58516,0 m 428.17865,0 -12.59349,0 m 12.59349,-28.5452 0,28.5452 m -12.59349,-28.5452 12.59349,0 m -12.59349,-28.54528 0,28.54528 m 12.59349,-28.54528 -12.59349,0 m 12.59349,-32.74308 0,32.74308 m -68.88219,-32.74308 68.88219,0 m -68.88219,12.59349 0,-12.59349 m -56.28955,12.59349 56.28955,0 m -56.28955,-12.59349 0,12.59349 m -56.28912,-12.59349 56.28912,0 m -56.28912,12.59349 0,-12.59349 m -56.28891,12.59349 56.28891,0 m -56.28891,-12.59349 0,12.59349 m -56.28912,-12.59349 56.28912,0 m -56.28912,12.59349 0,-12.59349 m -56.28912,12.59349 56.28912,0 m -56.28912,-12.59349 0,12.59349 m -56.28913,-12.59349 56.28913,0 m -56.28913,12.59349 0,-12.59349 m -21.56151,12.59349 21.56151,0 m -21.56151,-13.01748 0,13.01748 m -12.59349,-13.01748 12.59349,0 m -12.59349,0.42399 0,-0.42399 m 0,33.16707 0,-32.74308 m 12.59349,32.74308 -12.59349,0 m 12.59349,28.54528 0,-28.54528 m -12.59349,28.54528 12.59349,0 m -12.59349,28.5452 0,-28.5452"
         style="fill:none;stroke:#ff0000;stroke-opacity:1"
         id="path4920"
         inkscape:connector-curvature="0" />
    </g>
    <g
       id="g4931"
       transform="translate(5.9455485,-93.146936)"
       style="stroke:#ff0000;stroke-opacity:1">
      <path
         d="m 81.395923,865.09162 a 3.1483725,3.1483725 0 1 0 -6.296745,0 3.1483725,3.1483725 0 1 0 6.296745,0 z m 0,64.54164 a 3.1483725,3.1483725 0 1 0 -6.296745,0 3.1483725,3.1483725 0 0 0 6.296745,0 z M 68.907379,897.36244 a 22.930646,22.930646 0 1 0 -45.861292,0 22.930646,22.930646 0 0 0 45.861292,0 z M 16.854287,865.09162 a 3.1483725,3.1483725 0 1 0 -6.296745,0 3.1483725,3.1483725 0 0 0 6.296745,0 z m 0,64.54164 a 3.1483725,3.1483725 0 1 0 -6.296745,0 3.1483725,3.1483725 0 0 0 6.296745,0 z M 49.82977,859.63035 a 4.040411,4.040411 0 1 0 -8.080822,0 4.040411,4.040411 0 0 0 8.080822,0 z m 2.151388,75.56134 a 6.191799,6.191799 0 1 0 -12.383598,0 6.191799,6.191799 0 0 0 12.383598,0 z m 19.644316,-121.78582 28.28288,0 m 4.197826,0 -32.480706,0 m 32.480706,23.98766 0,-23.98766 m -12.593486,23.98766 12.593486,0 m -12.593486,23.98766 0,-23.98766 m 12.593486,23.98766 -12.593486,0 m 12.593486,23.98753 0,-23.98753 m -12.593486,23.98753 12.593486,0 m -12.593486,23.98756 0,-23.98756 m 12.593486,23.98756 -12.593486,0 m 12.593486,23.98768 0,-23.98768 m -12.593486,23.98768 12.593486,0 m -12.593486,23.98745 0,-23.98745 m 12.593486,23.98745 -12.593486,0 m 12.593486,23.98766 0,-23.98766 m -32.480706,23.98766 32.480706,0 m -32.480706,12.59349 0,-12.59349 m -29.069973,12.59349 29.069973,0 m -29.069973,-12.59349 0,12.59349 m -28.020515,-12.59349 28.020515,0 m -28.020515,12.59349 0,-12.59349 M 0,993.91256 l 14.534986,0 M 0,800.81238 0,993.91256 M 14.534986,800.81238 0,800.81238 m 14.534986,12.59349 0,-12.59349 m 28.020515,12.59349 -28.020515,0 m 28.020515,-12.59349 0,12.59349 m 29.069973,-12.59349 -29.069973,0 m 29.069973,12.59349 0,-12.59349 m 0,4.19783 0,8.39566"
         style="fill:none;stroke:#ff0000;stroke-opacity:1"
         id="path4924"
         inkscape:connector-curvature="0" />
    </g>
  </g>
</svg>
