<?xml version="1.0" encoding="UTF-8" standalone="no"?>
<svg
   xmlns:dc="http://purl.org/dc/elements/1.1/"
   xmlns:cc="http://creativecommons.org/ns#"
   xmlns:rdf="http://www.w3.org/1999/02/22-rdf-syntax-ns#"
   xmlns:svg="http://www.w3.org/2000/svg"
   xmlns="http://www.w3.org/2000/svg"
   xmlns:sodipodi="http://sodipodi.sourceforge.net/DTD/sodipodi-0.dtd"
   xmlns:inkscape="http://www.inkscape.org/namespaces/inkscape"
   width="100mm"
   height="50mm"
   id="svg2"
   version="1.1"
   inkscape:version="0.91 r13725"
   sodipodi:docname="wire-feeder.svg">
  <metadata
     id="metadata109">
    <rdf:RDF>
      <cc:Work
         rdf:about="">
        <dc:format>image/svg+xml</dc:format>
        <dc:type
           rdf:resource="http://purl.org/dc/dcmitype/StillImage" />
        <dc:title></dc:title>
      </cc:Work>
    </rdf:RDF>
  </metadata>
  <sodipodi:namedview
     pagecolor="#ffffff"
     bordercolor="#666666"
     borderopacity="1"
     objecttolerance="10"
     gridtolerance="10"
     guidetolerance="10"
     inkscape:pageopacity="1"
     inkscape:pageshadow="2"
     inkscape:window-width="1920"
     inkscape:window-height="1047"
     id="namedview107"
     showgrid="false"
     inkscape:zoom="1.7940592"
     inkscape:cx="-12.500814"
     inkscape:cy="13.698953"
     inkscape:window-x="0"
     inkscape:window-y="0"
     inkscape:window-maximized="1"
     inkscape:current-layer="g21"
     units="mm"
     inkscape:document-units="mm" />
  <desc
     id="desc4">/home/data/wire-feeder.dxf - scale = 1.000000, origin = (0.000000, 0.000000), auto = False</desc>
  <defs
     id="defs6">
    <marker
       id="DistanceX"
       orient="auto"
       refX="0"
       refY="0"
       style="overflow:visible">
      <path
         d="M 3,-3 -3,3 M 0,-5 0,5"
         style="stroke:#000000;stroke-width:0.5"
         id="path9"
         inkscape:connector-curvature="0" />
    </marker>
    <pattern
       height="8"
       id="Hatch"
       patternUnits="userSpaceOnUse"
       width="8"
       x="0"
       y="0">
      <path
         d="M8 4 l-4,4"
         linecap="square"
         stroke="#000000"
         stroke-width="0.25"
         id="path12" />
      <path
         d="M6 2 l-4,4"
         linecap="square"
         stroke="#000000"
         stroke-width="0.25"
         id="path14" />
      <path
         d="M4 0 l-4,4"
         linecap="square"
         stroke="#000000"
         stroke-width="0.25"
         id="path16" />
    </pattern>
    <symbol
       id="*Model_Space" />
    <symbol
       id="*Paper_Space" />
    <symbol
       id="*Paper_Space0" />
  </defs>
  <g
     inkscape:groupmode="layer"
     inkscape:label="0"
     id="g21"
     transform="translate(0,-875.19687)"
     style="display:inline" />
  <g
     inkscape:groupmode="layer"
     inkscape:label="Default"
     id="g23"
     transform="translate(0,-875.19687)"
     style="display:inline">
    <g
       id="g4191"
       transform="translate(-60.616027,627.5594)">
      <path
         inkscape:connector-curvature="0"
         id="path25"
         style="fill:none;stroke:#ff0000;stroke-opacity:1"
         d="m 399.63386,312.75925 a 35.433071,35.433071 0 0 0 -45.54233,-9.12391" />
      <path
         inkscape:connector-curvature="0"
         id="path27"
         style="fill:none;stroke:#ff0000;stroke-opacity:1"
         d="m 335.13142,302.71804 a 17.716535,17.716535 0 0 0 18.96011,0.9173" />
      <path
         inkscape:connector-curvature="0"
         id="path29"
         style="fill:none;stroke:#ff0000;stroke-opacity:1"
         d="m 335.13142,302.71804 a 38.799213,38.799213 0 1 0 0,63.43823" />
      <path
         inkscape:connector-curvature="0"
         id="path31"
         style="fill:none;stroke:#ff0000;stroke-opacity:1"
         d="m 354.09153,365.23898 a 17.716535,17.716535 0 0 0 -18.96011,0.91729" />
      <path
         inkscape:connector-curvature="0"
         id="path33"
         style="fill:none;stroke:#ff0000;stroke-opacity:1"
         d="m 354.09153,365.23898 a 35.433071,35.433071 0 0 0 45.54233,-9.12392" />
      <path
         inkscape:connector-curvature="0"
         id="path35"
         style="fill:none;stroke:#ff0000;stroke-opacity:1"
         d="m 351.58614,334.43716 a 38.799215,38.799215 0 1 0 -77.59843,0 38.799215,38.799215 0 1 0 77.59843,0 z" />
      <path
         inkscape:connector-curvature="0"
         id="path37"
         style="fill:none;stroke:#ff0000;stroke-opacity:1"
         d="M 257.31645,409.5907 237.63338,389.90763" />
      <path
         inkscape:connector-curvature="0"
         id="path39"
         style="fill:none;stroke:#ff0000;stroke-opacity:1"
         d="m 237.63338,389.90763 0,-110.94095" />
      <path
         inkscape:connector-curvature="0"
         id="path41"
         style="fill:none;stroke:#ff0000;stroke-opacity:1"
         d="m 237.63338,278.96668 19.68307,-19.68307" />
      <path
         inkscape:connector-curvature="0"
         id="path43"
         style="fill:none;stroke:#ff0000;stroke-opacity:1"
         d="m 257.31645,259.28361 110.94095,0" />
      <path
         inkscape:connector-curvature="0"
         id="path45"
         style="fill:none;stroke:#ff0000;stroke-opacity:1"
         d="m 368.2574,259.28361 19.68307,19.68307" />
      <path
         inkscape:connector-curvature="0"
         id="path47"
         style="fill:none;stroke:#ff0000;stroke-opacity:1"
         d="m 387.94047,278.96668 q 27.60236,55.47048 0,110.94095" />
      <path
         inkscape:connector-curvature="0"
         id="path49"
         style="fill:none;stroke:#ff0000;stroke-opacity:1"
         d="M 387.94047,389.90763 368.2574,409.5907" />
      <path
         inkscape:connector-curvature="0"
         id="path51"
         style="fill:none;stroke:#ff0000;stroke-opacity:1"
         d="m 368.2574,409.5907 -110.94095,0" />
      <path
         inkscape:connector-curvature="0"
         id="path53"
         style="fill:none;stroke:#ff0000;stroke-opacity:1"
         d="m 263.45525,389.17237 a 5.403543,5.403543 0 1 0 -10.80708,0 5.403543,5.403543 0 0 0 10.80708,0 z" />
      <path
         inkscape:connector-curvature="0"
         id="path55"
         style="fill:none;stroke:#ff0000;stroke-opacity:1"
         d="m 372.92568,389.17237 a 5.403545,5.403545 0 1 0 -10.80709,0 5.403545,5.403545 0 0 0 10.80709,0 z" />
      <path
         inkscape:connector-curvature="0"
         id="path57"
         style="fill:none;stroke:#ff0000;stroke-opacity:1"
         d="m 372.92568,279.70194 a 5.403545,5.403545 0 1 0 -10.80709,0 5.403545,5.403545 0 0 0 10.80709,0 z" />
      <path
         inkscape:connector-curvature="0"
         id="path59"
         style="fill:none;stroke:#ff0000;stroke-opacity:1"
         d="m 263.45525,279.70194 a 5.403543,5.403543 0 1 0 -10.80708,0 5.403543,5.403543 0 0 0 10.80708,0 z" />
    </g>
    <g
       id="g4262">
      <path
         inkscape:connector-curvature="0"
         id="path4207"
         d="m 165.3358,963.17898 a 21.259843,21.259843 0 1 0 -42.51968,0 21.259843,21.259843 0 1 0 42.51968,0 z"
         style="display:inline;fill:none;stroke:#000000;stroke-opacity:1" />
      <path
         inkscape:connector-curvature="0"
         d="m 172.69588,944.79498 q 3.03181,18.384 0,36.76799 m 0,-36.76799 a 34.015748,34.015748 0 1 0 0,36.76799"
         style="display:inline;fill:none;stroke:#000000;stroke-opacity:1"
         id="path105" />
      <path
         inkscape:connector-curvature="0"
         id="path4235"
         d="m 143.85575,929.67015 c -5.39127,0.0367 -10.77338,1.38457 -15.52354,3.94125 -3.82632,2.01627 -7.26373,4.80574 -10.00152,8.14794 0.27133,0.80872 0.85654,1.48898 1.23276,2.25679 1.90136,3.39958 3.23982,7.0927 4.12632,10.87983 0.0448,0.39616 0.21305,0.1161 0.2837,-0.0961 2.38568,-5.69012 7.26493,-10.29551 13.13089,-12.24309 5.67208,-1.92473 12.15632,-1.41135 17.38987,1.53498 5.82936,3.09838 10.02034,9.03682 11.04963,15.55196 0.99463,5.86678 -0.57301,12.10142 -4.22001,16.80296 -2.91175,3.74265 -7.02183,6.57601 -11.6311,7.75838 -2.08416,0.58099 -4.25297,0.78845 -6.4118,0.70611 -5.69623,-0.13625 -11.26396,-2.72653 -15.12277,-6.90577 -1.8472,-1.93983 -3.22708,-4.27115 -4.31083,-6.70658 -0.20874,-0.18903 -0.19261,0.33533 -0.24723,0.43918 -0.79849,3.45826 -2.02649,6.81842 -3.71321,9.94398 -0.4861,0.97906 -1.0951,1.90134 -1.61147,2.85607 4.03182,4.90941 9.51804,8.60519 15.56674,10.54497 3.39705,1.08283 6.9673,1.68514 10.5387,1.56558 4.01305,0.0427 8.00829,-0.801 11.75348,-2.21393 6.44917,-2.45657 12.09932,-6.97791 15.87338,-12.7579 0.44263,-0.90988 0.41109,-1.96388 0.60171,-2.94266 1.46406,-10.57945 1.44844,-21.37084 -0.11739,-31.93768 -0.13738,-0.6492 -0.13712,-1.35473 -0.37225,-1.96631 -3.36105,-5.12949 -8.14118,-9.31985 -13.69725,-11.92523 -4.52567,-2.16399 -9.55273,-3.26509 -14.56681,-3.23475 z"
         style="display:inline;fill:#000000;fill-opacity:1;stroke:none;stroke-width:1px;stroke-linecap:butt;stroke-linejoin:miter;stroke-opacity:1" />
      <path
         inkscape:connector-curvature="0"
         id="path4219"
         d="m 154.67045,963.17898 a 10.59449,10.59449 0 1 0 -21.18898,0 10.59449,10.59449 0 0 0 21.18898,0 z"
         style="fill:none;stroke:#ff0000;stroke-opacity:1" />
      <path
         inkscape:connector-curvature="0"
         id="path4217"
         d="m 35.925395,908.44376 a 5.4035435,5.4035435 0 1 0 -10.807087,0 5.4035435,5.4035435 0 0 0 10.807087,0 z"
         style="fill:none;stroke:#ff0000;stroke-opacity:1" />
      <path
         inkscape:connector-curvature="0"
         id="path4215"
         d="m 145.39582,908.44376 a 5.403545,5.403545 0 1 0 -10.80709,0 5.403545,5.403545 0 0 0 10.80709,0 z"
         style="fill:none;stroke:#ff0000;stroke-opacity:1" />
      <path
         inkscape:connector-curvature="0"
         id="path4213"
         d="m 145.39582,1017.9142 a 5.403545,5.403545 0 1 0 -10.80709,0 5.403545,5.403545 0 0 0 10.80709,0 z"
         style="fill:none;stroke:#ff0000;stroke-opacity:1" />
      <path
         inkscape:connector-curvature="0"
         id="path4211"
         d="m 35.925395,1017.9142 a 5.4035435,5.4035435 0 1 0 -10.807087,0 5.4035435,5.4035435 0 0 0 10.807087,0 z"
         style="fill:none;stroke:#ff0000;stroke-opacity:1" />
      <path
         inkscape:connector-curvature="0"
         id="path4209"
         d="m 124.05627,963.17898 a 38.799213,38.799213 0 1 0 -77.59842,0 38.799213,38.799213 0 0 0 77.59842,0 z"
         style="fill:none;stroke:#ff0000;stroke-opacity:1" />
      <path
         d="M 29.786591,1038.3325 10.10352,1018.6494 m 0,0 0,-110.9409 m 0,0 19.683071,-19.68307 m 0,0 110.940939,0 m 0,0 19.68307,19.68307 m 0,0 q 27.60237,55.47048 0,110.9409 m 0,0 -19.68307,19.6831 m 0,0 -110.940939,0"
         style="fill:none;stroke:#ff0000;stroke-opacity:1"
         id="path4191"
         inkscape:connector-curvature="0" />
    </g>
  </g>
</svg>
