<?xml version="1.0" encoding="UTF-8" standalone="no"?>
<svg
   xmlns:dc="http://purl.org/dc/elements/1.1/"
   xmlns:cc="http://creativecommons.org/ns#"
   xmlns:rdf="http://www.w3.org/1999/02/22-rdf-syntax-ns#"
   xmlns:svg="http://www.w3.org/2000/svg"
   xmlns="http://www.w3.org/2000/svg"
   xmlns:sodipodi="http://sodipodi.sourceforge.net/DTD/sodipodi-0.dtd"
   xmlns:inkscape="http://www.inkscape.org/namespaces/inkscape"
   width="700mm"
   height="300mm"
   id="svg2"
   version="1.1"
   inkscape:version="0.91 r13725"
   sodipodi:docname="outline.svg">
  <metadata
     id="metadata294">
    <rdf:RDF>
      <cc:Work
         rdf:about="">
        <dc:format>image/svg+xml</dc:format>
        <dc:type
           rdf:resource="http://purl.org/dc/dcmitype/StillImage" />
        <dc:title />
      </cc:Work>
    </rdf:RDF>
  </metadata>
  <sodipodi:namedview
     pagecolor="#ffffff"
     bordercolor="#666666"
     borderopacity="1"
     objecttolerance="10"
     gridtolerance="10"
     guidetolerance="10"
     inkscape:pageopacity="0"
     inkscape:pageshadow="2"
     inkscape:window-width="1920"
     inkscape:window-height="1012"
     id="namedview292"
     showgrid="false"
     units="mm"
     inkscape:zoom="0.22627417"
     inkscape:cx="-638.41637"
     inkscape:cy="360.93552"
     inkscape:window-x="0"
     inkscape:window-y="0"
     inkscape:window-maximized="1"
     inkscape:current-layer="g22" />
  <desc
     id="desc4">/home/data/flying wing/outline.dxf - scale = 1.000000, origin = (0.000000, 0.000000), auto = False</desc>
  <defs
     id="defs6">
    <marker
       id="DistanceX"
       orient="auto"
       refX="0"
       refY="0"
       style="overflow:visible">
      <path
         d="M 3,-3 -3,3 M 0,-5 0,5"
         style="stroke:#000000;stroke-width:0.5"
         id="path9"
         inkscape:connector-curvature="0" />
    </marker>
    <pattern
       height="8"
       id="Hatch"
       patternUnits="userSpaceOnUse"
       width="8"
       x="0"
       y="0">
      <path
         d="M8 4 l-4,4"
         linecap="square"
         stroke="#000000"
         stroke-width="0.25"
         id="path12" />
      <path
         d="M6 2 l-4,4"
         linecap="square"
         stroke="#000000"
         stroke-width="0.25"
         id="path14" />
      <path
         d="M4 0 l-4,4"
         linecap="square"
         stroke="#000000"
         stroke-width="0.25"
         id="path16" />
    </pattern>
    <symbol
       id="$MODEL_SPACE" />
    <symbol
       id="$PAPER_SPACE" />
  </defs>
  <g
     inkscape:groupmode="layer"
     inkscape:label="0"
     id="g20"
     transform="translate(0,10.629899)" />
  <g
     inkscape:groupmode="layer"
     inkscape:label="DEFAULT"
     id="g22"
     transform="translate(0,10.629899)">
    <path
       id="path290"
       style="fill:none;stroke:#ff0000;stroke-width:5;stroke-miterlimit:4;stroke-dasharray:none;stroke-opacity:1"
       d="m 2322.385,720.34589 0,213.6296 m 0,-213.6296 a 35.433071,35.433071 0 0 0 -16.6567,-30.0491 M 1289.4416,55.264601 2305.7283,690.29679 M 1289.4416,55.264601 a 35.433071,35.433071 0 0 0 -37.5527,0 M 235.60211,690.29679 1251.8889,55.264601 M 235.60211,690.29679 a 35.433071,35.433071 0 0 0 -16.65671,30.0491 m 0,213.6296 0,-213.6296 m 0,213.6296 a 35.433071,35.433071 0 0 0 47.29683,33.3879 m 764.60297,-271.6868 -764.60297,271.6868 m 764.84137,-286.5538 -0.2384,14.867 m 0.9701,-29.9654 -0.7317,15.0984 m 1.9798,-30.3859 -1.2481,15.2875 m 3.0336,-30.7172 -1.7855,15.4297 m 2.8856,-23.1822 -1.1001,7.7525 m 2.3413,-15.5213 -1.2412,7.7688 m 2.6251,-15.5468 -1.3839,7.778 m 2.9123,-15.5582 -1.5284,7.7802 m 3.2025,-15.5553 -1.6741,7.7751 m 3.4951,-15.5375 -1.821,7.7624 m 3.7897,-15.5044 -1.9687,7.742 m 4.0857,-15.4558 -2.117,7.7138 m 4.3827,-15.3916 -2.2657,7.6778 m 4.6801,-15.3115 -2.4144,7.6337 m 4.9772,-15.2152 -2.5628,7.5815 m 5.2735,-15.1027 -2.7107,7.5212 m 5.5684,-14.9739 -2.8577,7.4527 m 5.8613,-14.8288 -3.0036,7.3761 m 6.1516,-14.6674 -3.148,7.2913 m 6.4387,-14.4899 -3.2907,7.1986 m 6.722,-14.2964 -3.4313,7.0978 m 7.0007,-14.087 -3.5694,6.9892 m 7.2744,-13.8621 -3.705,6.8729 m 7.5426,-13.622 -3.8376,6.7491 m 7.8044,-13.367 -3.9668,6.6179 m 8.0595,-13.0976 -4.0927,6.4797 m 8.3073,-12.8142 -4.2146,6.3345 m 8.5471,-12.5172 -4.3325,6.1827 m 8.7787,-12.2075 -4.4462,6.0248 m 9.0015,-11.8856 -4.5553,5.8608 m 9.215,-11.5519 -4.6597,5.6911 m 9.4188,-11.20733 -4.7591,5.51623 m 9.6125,-10.85265 -4.8534,5.33642 m 9.7959,-10.4885 -4.9425,5.15208 m 9.9686,-10.11569 -5.0261,4.96361 m 10.1303,-9.73503 -5.1042,4.77142 m 10.2809,-9.34736 -5.1767,4.57594 m 10.4201,-8.95351 -5.2434,4.37757 m 10.5477,-8.55431 -5.3043,4.17674 m 10.6638,-8.15063 -5.3595,3.97389 m 10.7681,-7.74332 -5.4086,3.76943 m 10.8607,-7.33321 -5.4521,3.56378 m 10.9416,-6.92116 -5.4895,3.35738 m 11.0108,-6.50801 -5.5213,3.15063 m 11.0685,-6.09455 -5.5472,2.94392 m 11.1147,-5.68158 -5.5675,2.73766 m 11.1496,-5.26988 -5.5821,2.53222 m 11.1734,-4.86021 -5.5913,2.32799 m 11.1862,-4.4533 -5.5949,2.12531 m 11.1883,-4.04981 -5.5934,1.9245 m 11.1801,-3.65041 -5.5867,1.72591 m 11.1617,-3.25574 -5.575,1.52983 m 11.1336,-2.86638 -5.5586,1.33655 m 11.096,-2.4829 -5.5374,1.14635 m 11.0491,-2.10581 -5.5117,0.95946 m 10.9935,-1.73558 -5.4818,0.77612 m 10.9296,-1.37265 -5.4478,0.59653 m 10.8577,-1.01744 -5.4099,0.42091 m 10.7781,-0.6703 -5.3682,0.24939 m 10.6912,-0.33155 -5.323,0.0822 m 10.5903,-0.002 -5.2673,-0.0804 m 10.5788,0.32456 -5.3115,-0.24416 m 10.6639,0.65619 -5.3524,-0.41203 m 10.742,0.99592 -5.3896,-0.58389 m 10.8127,1.34347 -5.4231,-0.75958 m 10.8758,1.69851 -5.4527,-0.93893 m 10.9307,2.06066 -5.478,-1.12173 m 10.9771,2.42949 -5.4991,-1.30776 m 11.0146,2.80455 -5.5155,-1.49679 m 11.043,3.18533 -5.5275,-1.68854 m 11.0621,3.57131 -5.5346,-1.88277 m 11.0712,3.96193 -5.5366,-2.07916 m 11.0703,4.3566 -5.5337,-2.27744 m 11.0591,4.75469 -5.5254,-2.47725 m 11.0374,5.15551 -5.512,-2.67826 m 11.0049,5.5584 -5.4929,-2.88014 m 10.9614,5.96265 -5.4685,-3.08251 m 10.9069,6.3675 -5.4384,-3.28499 m 10.8412,6.7722 -5.4028,-3.48721 m 10.7642,7.17597 -5.3614,-3.68876 m 10.6759,7.57801 -5.3145,-3.88925 m 10.5762,7.97752 -5.2617,-4.08827 m 10.465,8.3737 -5.2033,-4.28543 m 10.3427,8.76572 -5.1394,-4.48029 m 10.2092,9.15276 -5.0698,-4.67247 m 10.0646,9.53402 -4.9948,-4.86155 m 9.9091,9.90868 -4.9143,-5.04713 m 9.743,10.27595 -4.8287,-5.22882 m 9.5664,10.63504 -4.7377,-5.40622 m 9.3796,10.98522 -4.6419,-5.579 m 9.183,11.3257 -4.5411,-5.7467 m 8.9769,11.6559 -4.4358,-5.9092 m 8.7618,11.9751 -4.326,-6.0659 m 8.5379,12.2826 -4.2119,-6.2167 m 8.3057,12.5777 -4.0938,-6.361 m 8.0658,12.86 -3.972,-6.499 m 7.8187,13.1291 -3.8467,-6.6301 m 7.5647,13.3842 -3.718,-6.7541 m 7.3044,13.625 -3.5864,-6.8709 m 7.0385,13.8513 -3.4521,-6.9804 m 6.7675,14.0627 -3.3154,-7.0823 m 6.492,14.2588 -3.1766,-7.1765 m 6.2124,14.4394 -3.0358,-7.2629 m 5.9294,14.6044 -2.8936,-7.3415 m 5.6437,14.7537 -2.7501,-7.4122 m 5.3557,14.8873 -2.6056,-7.4751 m 5.0661,15.0051 -2.4605,-7.53 m 4.7755,15.107 -2.315,-7.577 m 4.4844,15.1933 -2.1694,-7.6163 m 4.1934,15.2641 -2.024,-7.6478 m 3.9029,15.3195 -1.8789,-7.6717 m 3.6135,15.3598 -1.7346,-7.6881 m 3.3259,15.3852 -1.5913,-7.6971 m 3.0404,15.3961 -1.4491,-7.699 m 3.9267,23.0745 -2.4776,-15.3755 m 4.4063,30.6766 -1.9287,-15.3011 m 3.3254,30.4775 -1.3967,-15.1764 m 2.281,30.1816 -0.8843,-15.0052 m 1.278,29.7968 -0.3937,-14.7916 m 0.3937,14.7916 a 7.086614,7.086614 0 0 0 4.7135,6.6021 m 759.9157,270.0213 -759.9157,-270.0213 m 759.9157,270.0213 a 35.433071,35.433071 0 0 0 2.7811,0.8613 m 0,0 a 35.433071,35.433071 0 0 0 2.8425,0.63 m 0,0 a 35.433071,35.433071 0 0 0 7.4383,0.5336 m 0,0 a 35.433071,35.433071 0 0 0 34.2349,-35.4128"
       inkscape:connector-curvature="0" />
  </g>
</svg>
