<?xml version="1.0" encoding="UTF-8" standalone="no"?>
<svg
   xmlns:dc="http://purl.org/dc/elements/1.1/"
   xmlns:cc="http://creativecommons.org/ns#"
   xmlns:rdf="http://www.w3.org/1999/02/22-rdf-syntax-ns#"
   xmlns:svg="http://www.w3.org/2000/svg"
   xmlns="http://www.w3.org/2000/svg"
   xmlns:sodipodi="http://sodipodi.sourceforge.net/DTD/sodipodi-0.dtd"
   xmlns:inkscape="http://www.inkscape.org/namespaces/inkscape"
   width="144"
   height="108"
   viewBox="-47 -54 144 108"
   version="1.1"
   id="svg2"
   inkscape:version="0.91 r13725"
   sodipodi:docname="box-3-2.svg">
  <metadata
     id="metadata12">
    <rdf:RDF>
      <cc:Work
         rdf:about="">
        <dc:format>image/svg+xml</dc:format>
        <dc:type
           rdf:resource="http://purl.org/dc/dcmitype/StillImage" />
      </cc:Work>
    </rdf:RDF>
  </metadata>
  <defs
     id="defs10" />
  <sodipodi:namedview
     pagecolor="#ffffff"
     bordercolor="#666666"
     borderopacity="1"
     objecttolerance="10"
     gridtolerance="10"
     guidetolerance="10"
     inkscape:pageopacity="0"
     inkscape:pageshadow="2"
     inkscape:window-width="1920"
     inkscape:window-height="1015"
     id="namedview8"
     showgrid="false"
     inkscape:zoom="2.0347222"
     inkscape:cx="72"
     inkscape:cy="54"
     inkscape:window-x="0"
     inkscape:window-y="0"
     inkscape:window-maximized="1"
     inkscape:current-layer="svg2" />
  <title
     id="title4">OpenSCAD Model</title>
  <path
     d=" M -8.32144,-27 L -3.10715,-27 L -3.10715,-24 L 3.10713,-24 L 3.10713,-27 L 8.32143,-27  L 8.32143,-24 L 14.5357,-24 L 14.5357,-27 L 23,-27 L 23,-31 L 20,-31  L 20,-35 L 23,-35 L 23,-39 L 20,-39 L 20,-43 L 23,-43  L 23,-47 L -19.6266,-47 L -19.6196,-47.0196 L -19.498,-47.5051 L -19.4246,-48.0001 L -19.4,-48.5  L -19.4246,-48.9999 L -19.498,-49.4949 L -19.6196,-49.9804 L -19.7882,-50.4517 L -20.0022,-50.9041 L -20.2595,-51.3334  L -20.5576,-51.7354 L -20.8938,-52.1062 L -21.2646,-52.4424 L -21.6666,-52.7405 L -22.0959,-52.9978 L -22.5483,-53.2118  L -23.0196,-53.3804 L -23.5051,-53.502 L -24.0001,-53.5754 L -24.5,-53.6 L -24.9999,-53.5754 L -25.4949,-53.502  L -25.9804,-53.3804 L -26.4517,-53.2118 L -26.9041,-52.9978 L -27.3334,-52.7405 L -27.7354,-52.4424 L -28.1062,-52.1062  L -28.4424,-51.7354 L -28.7405,-51.3334 L -28.9978,-50.9041 L -29.2118,-50.4517 L -29.3804,-49.9804 L -29.502,-49.4949  L -29.5754,-48.9999 L -29.6,-48.5 L -29.5754,-48.0001 L -29.502,-47.5051 L -29.3804,-47.0196 L -29.2118,-46.5483  L -28.9978,-46.0959 L -28.7405,-45.6666 L -28.4424,-45.2646 L -28.1062,-44.8938 L -27.7354,-44.5576 L -27.3334,-44.2595  L -26.9041,-44.0022 L -26.4517,-43.7882 L -25.9804,-43.6196 L -25.4949,-43.498 L -24.9999,-43.4246 L -24.5,-43.4  L -24.0001,-43.4246 L -23.5051,-43.498 L -23.0196,-43.6196 L -23,-43.6266 L -23,-43 L -20,-43  L -20,-39 L -23,-39 L -23,-35 L -20,-35 L -20,-31 L -23,-31  L -23,-27 L -14.5357,-27 L -14.5357,-24 L -8.32144,-24 z M -24.7058,-46.4101 L -24.9097,-46.4404 L -25.1096,-46.4904 L -25.3036,-46.5599 L -25.4899,-46.648 L -25.6667,-46.7539  L -25.8322,-46.8767 L -25.9849,-47.0151 L -26.1233,-47.1678 L -26.2461,-47.3333 L -26.352,-47.5101 L -26.4401,-47.6964  L -26.5096,-47.8904 L -26.5596,-48.0903 L -26.5899,-48.2942 L -26.6,-48.5 L -26.5899,-48.7058 L -26.5596,-48.9097  L -26.5096,-49.1096 L -26.4401,-49.3036 L -26.352,-49.4899 L -26.2461,-49.6667 L -26.1233,-49.8322 L -25.9849,-49.9849  L -25.8322,-50.1233 L -25.6667,-50.2461 L -25.4899,-50.352 L -25.3036,-50.4401 L -25.1096,-50.5096 L -24.9097,-50.5596  L -24.7058,-50.5899 L -24.5,-50.6 L -24.2942,-50.5899 L -24.0903,-50.5596 L -23.8904,-50.5096 L -23.6964,-50.4401  L -23.5101,-50.352 L -23.3333,-50.2461 L -23.1678,-50.1233 L -23.0151,-49.9849 L -22.8767,-49.8322 L -22.7539,-49.6667  L -22.648,-49.4899 L -22.5599,-49.3036 L -22.4904,-49.1096 L -22.4404,-48.9097 L -22.4101,-48.7058 L -22.4,-48.5  L -22.4101,-48.2942 L -22.4404,-48.0903 L -22.4904,-47.8904 L -22.5599,-47.6964 L -22.648,-47.5101 L -22.7539,-47.3333  L -22.8767,-47.1678 L -23.0151,-47.0151 L -23.1678,-46.8767 L -23.3333,-46.7539 L -23.5101,-46.648 L -23.6964,-46.5599  L -23.8904,-46.4904 L -24.0903,-46.4404 L -24.2942,-46.4101 L -24.5,-46.4 z M 2.85713,23 L 8.57143,23 L 8.57143,20 L 14.2857,20 L 14.2857,23 L 23,23  L 23,14.2857 L 20,14.2857 L 20,8.57144 L 23,8.57144 L 23,2.85715 L 20,2.85715  L 20,-2.85713 L 23,-2.85713 L 23,-8.57143 L 20,-8.57143 L 20,-14.2857 L 23,-14.2857  L 23,-23 L 14.2857,-23 L 14.2857,-20 L 8.57143,-20 L 8.57143,-23 L 2.85713,-23  L 2.85713,-20 L -2.85715,-20 L -2.85715,-23 L -8.57144,-23 L -8.57144,-20 L -14.2857,-20  L -14.2857,-23 L -23,-23 L -23,-14.2857 L -20,-14.2857 L -20,-8.57143 L -23,-8.57143  L -23,-2.85713 L -20,-2.85713 L -20,2.85715 L -23,2.85715 L -23,8.57144 L -20,8.57144  L -20,14.2857 L -23,14.2857 L -23,23 L -14.2857,23 L -14.2857,20 L -8.57144,20  L -8.57144,23 L -2.85715,23 L -2.85715,20 L 2.85713,20 z M -38.75,20 L -35.25,20 L -35.25,23 L -30.75,23 L -30.75,20 L -27,20  L -27,14.5357 L -24,14.5357 L -24,8.32141 L -27,8.32141 L -27,3.10712 L -24,3.10712  L -24,-3.10715 L -27,-3.10715 L -27,-8.32144 L -24,-8.32144 L -24,-14.5357 L -27,-14.5357  L -27,-20 L -30.75,-20 L -30.75,-23 L -35.25,-23 L -35.25,-20 L -38.75,-20  L -38.75,-23 L -43.25,-23 L -43.25,-20 L -47,-20 L -47,20 L -43.25,20  L -43.25,23 L -38.75,23 z M 35.25,20 L 38.75,20 L 38.75,23 L 43.25,23 L 43.25,20 L 47,20  L 47,-20 L 43.25,-20 L 43.25,-23 L 38.75,-23 L 38.75,-20 L 35.25,-20  L 35.25,-23 L 30.75,-23 L 30.75,-20 L 27,-20 L 27,-14.5357 L 24,-14.5357  L 24,-8.32144 L 27,-8.32144 L 27,-3.10715 L 24,-3.10715 L 24,3.10712 L 27,3.10712  L 27,8.32141 L 24,8.32141 L 24,14.5357 L 27,14.5357 L 27,20 L 30.75,20  L 30.75,23 L 35.25,23 z M 51,20 L 54.5,20 L 54.5,23 L 97,23 L 97,-23 L 54.5,-23  L 54.5,-20 L 51,-20 L 51,-23 L 48,-23 L 48,23 L 51,23  z M -24.0001,53.5754 L -23.5051,53.502 L -23.0196,53.3804 L -22.5483,53.2118 L -22.0959,52.9978 L -21.6666,52.7405  L -21.2646,52.4424 L -20.8938,52.1062 L -20.5576,51.7354 L -20.2595,51.3334 L -20.0022,50.9041 L -19.7882,50.4517  L -19.6196,49.9804 L -19.498,49.4949 L -19.4246,48.9999 L -19.4,48.5 L -19.4246,48.0001 L -19.498,47.5051  L -19.6196,47.0196 L -19.6266,47 L 23,47 L 23,43 L 20,43 L 20,39  L 23,39 L 23,35 L 20,35 L 20,31 L 23,31 L 23,27  L 14.5357,27 L 14.5357,24 L 8.32143,24 L 8.32143,27 L 3.10713,27 L 3.10713,24  L -3.10715,24 L -3.10715,27 L -8.32144,27 L -8.32144,24 L -14.5357,24 L -14.5357,27  L -23,27 L -23,31 L -20,31 L -20,35 L -23,35 L -23,39  L -20,39 L -20,43 L -23,43 L -23,43.6266 L -23.0196,43.6196 L -23.5051,43.498  L -24.0001,43.4246 L -24.5,43.4 L -24.9999,43.4246 L -25.4949,43.498 L -25.9804,43.6196 L -26.4517,43.7882  L -26.9041,44.0022 L -27.3334,44.2595 L -27.7354,44.5576 L -28.1062,44.8938 L -28.4424,45.2646 L -28.7405,45.6666  L -28.9978,46.0959 L -29.2118,46.5483 L -29.3804,47.0196 L -29.502,47.5051 L -29.5754,48.0001 L -29.6,48.5  L -29.5754,48.9999 L -29.502,49.4949 L -29.3804,49.9804 L -29.2118,50.4517 L -28.9978,50.9041 L -28.7405,51.3334  L -28.4424,51.7354 L -28.1062,52.1062 L -27.7354,52.4424 L -27.3334,52.7405 L -26.9041,52.9978 L -26.4517,53.2118  L -25.9804,53.3804 L -25.4949,53.502 L -24.9999,53.5754 L -24.5,53.6 z M -24.7058,50.5899 L -24.9097,50.5596 L -25.1096,50.5096 L -25.3036,50.4401 L -25.4899,50.352 L -25.6667,50.2461  L -25.8322,50.1233 L -25.9849,49.9849 L -26.1233,49.8322 L -26.2461,49.6667 L -26.352,49.4899 L -26.4401,49.3036  L -26.5096,49.1096 L -26.5596,48.9097 L -26.5899,48.7058 L -26.6,48.5 L -26.5899,48.2942 L -26.5596,48.0903  L -26.5096,47.8904 L -26.4401,47.6964 L -26.352,47.5101 L -26.2461,47.3333 L -26.1233,47.1678 L -25.9849,47.0151  L -25.8322,46.8767 L -25.6667,46.7539 L -25.4899,46.648 L -25.3036,46.5599 L -25.1096,46.4904 L -24.9097,46.4404  L -24.7058,46.4101 L -24.5,46.4 L -24.2942,46.4101 L -24.0903,46.4404 L -23.8904,46.4904 L -23.6964,46.5599  L -23.5101,46.648 L -23.3333,46.7539 L -23.1678,46.8767 L -23.0151,47.0151 L -22.8767,47.1678 L -22.7539,47.3333  L -22.648,47.5101 L -22.5599,47.6964 L -22.4904,47.8904 L -22.4404,48.0903 L -22.4101,48.2942 L -22.4,48.5  L -22.4101,48.7058 L -22.4404,48.9097 L -22.4904,49.1096 L -22.5599,49.3036 L -22.648,49.4899 L -22.7539,49.6667  L -22.8767,49.8322 L -23.0151,49.9849 L -23.1678,50.1233 L -23.3333,50.2461 L -23.5101,50.352 L -23.6964,50.4401  L -23.8904,50.5096 L -24.0903,50.5596 L -24.2942,50.5899 L -24.5,50.6 z "
     stroke="black"
     fill="lightgray"
     stroke-width="0.5"
     id="path6"
     style="fill-opacity:1;fill:none;stroke:#ff0000;stroke-opacity:1" />
</svg>
