<?xml version="1.0" encoding="UTF-8" standalone="no"?>
<svg
   xmlns:dc="http://purl.org/dc/elements/1.1/"
   xmlns:cc="http://creativecommons.org/ns#"
   xmlns:rdf="http://www.w3.org/1999/02/22-rdf-syntax-ns#"
   xmlns:svg="http://www.w3.org/2000/svg"
   xmlns="http://www.w3.org/2000/svg"
   xmlns:sodipodi="http://sodipodi.sourceforge.net/DTD/sodipodi-0.dtd"
   xmlns:inkscape="http://www.inkscape.org/namespaces/inkscape"
   width="190mm"
   height="190mm"
   id="svg2"
   version="1.1"
   inkscape:version="0.91 r13725"
   sodipodi:docname="lathe-XY-mod.svg">
  <metadata
     id="metadata2118">
    <rdf:RDF>
      <cc:Work
         rdf:about="">
        <dc:format>image/svg+xml</dc:format>
        <dc:type
           rdf:resource="http://purl.org/dc/dcmitype/StillImage" />
        <dc:title></dc:title>
      </cc:Work>
    </rdf:RDF>
  </metadata>
  <sodipodi:namedview
     pagecolor="#ffffff"
     bordercolor="#666666"
     borderopacity="1"
     objecttolerance="10"
     gridtolerance="10"
     guidetolerance="10"
     inkscape:pageopacity="0"
     inkscape:pageshadow="2"
     inkscape:window-width="1920"
     inkscape:window-height="1047"
     id="namedview2116"
     showgrid="false"
     units="mm"
     inkscape:zoom="0.63429569"
     inkscape:cx="-76.515879"
     inkscape:cy="82.201478"
     inkscape:window-x="0"
     inkscape:window-y="0"
     inkscape:window-maximized="1"
     inkscape:current-layer="g18" />
  <desc
     id="desc4">/home/sibu/fab/lathe/lathe-XY-mod.dxf - scale = 1.000000, origin = (0.000000, 0.000000), auto = False</desc>
  <defs
     id="defs6">
    <marker
       id="DistanceX"
       orient="auto"
       refX="0"
       refY="0"
       style="overflow:visible">
      <path
         d="M 3,-3 -3,3 M 0,-5 0,5"
         style="stroke:#000000;stroke-width:0.5"
         id="path9"
         inkscape:connector-curvature="0" />
    </marker>
    <pattern
       height="8"
       id="Hatch"
       patternUnits="userSpaceOnUse"
       width="8"
       x="0"
       y="0">
      <path
         d="M8 4 l-4,4"
         linecap="square"
         stroke="#000000"
         stroke-width="0.25"
         id="path12" />
      <path
         d="M6 2 l-4,4"
         linecap="square"
         stroke="#000000"
         stroke-width="0.25"
         id="path14" />
      <path
         d="M4 0 l-4,4"
         linecap="square"
         stroke="#000000"
         stroke-width="0.25"
         id="path16" />
    </pattern>
  </defs>
  <g
     inkscape:groupmode="layer"
     inkscape:label="0"
     id="g18"
     transform="translate(0,-379.13389)">
    <path
       id="path2114"
       style="fill:none;stroke:#ff0000;stroke-width:1.29999995;stroke-miterlimit:4;stroke-dasharray:none;stroke-opacity:1"
       d="m 280.62622,987.47182 -1.38925,-0.068 m 2.77843,0 -1.38918,0.068 m 2.76502,-0.2725 -1.37584,0.2041 m 2.72506,-0.5418 -1.34922,0.3377 m 2.65882,-0.8065 -1.3096,0.4688 m 2.56691,-1.0633 -1.25731,0.5945 m 2.45034,-1.3096 -1.19303,0.7151 m 2.31024,-1.5439 -1.11721,0.8288 m 2.14774,-1.7628 -1.03053,0.934 m 1.96465,-1.9644 -0.93412,1.0304 m 1.76265,-2.1476 -0.82853,1.1172 m 1.54361,-2.3102 -0.71508,1.193 m 1.30975,-2.4505 -0.59467,1.2575 m 1.06327,-2.5671 -0.4686,1.3096 m 0.80653,-2.6589 -0.33793,1.3493 m 0.54202,-2.7248 -0.20409,1.3755 m 0.27237,-2.7649 -0.0683,1.3894 m 0,-2.7787 0.0683,1.3893 m -0.27237,-2.7652 0.20409,1.3759 m -0.54202,-2.7248 0.33793,1.3489 m -0.80653,-2.6585 0.4686,1.3096 m -1.06327,-2.5671 0.59467,1.2575 m -1.30975,-2.4506 0.71508,1.1931 m -1.54361,-2.3103 0.82853,1.1172 m -1.76265,-2.1476 0.93412,1.0304 m -1.96465,-1.9647 1.03053,0.9343 m -2.14774,-1.7628 1.11721,0.8285 m -2.31024,-1.5435 1.19303,0.715 m -2.45034,-1.3096 1.25731,0.5946 m -2.56691,-1.0633 1.3096,0.4687 m -2.65882,-0.8064 1.34922,0.3377 m -2.72506,-0.5418 1.37584,0.2041 m -2.76502,-0.2725 1.38918,0.068 m -2.77843,0 1.38925,-0.068 m -2.76508,0.2725 1.37583,-0.2041 m -2.72507,0.5418 1.34924,-0.3377 m -2.65884,0.8064 1.3096,-0.4687 m -2.56691,1.0633 1.25731,-0.5946 m -2.45034,1.3096 1.19303,-0.715 m -2.3102,1.5435 1.11717,-0.8285 m -2.14774,1.7628 1.03057,-0.9343 m -1.96469,1.9647 0.93412,-1.0304 m -1.76262,2.1476 0.8285,-1.1172 m -1.54357,2.3103 0.71507,-1.1931 m -1.30978,2.4506 0.59471,-1.2575 m -1.06328,2.5671 0.46857,-1.3096 m -0.80649,2.6585 0.33792,-1.3489 m -0.54202,2.7248 0.2041,-1.3759 m -0.27234,2.7652 0.0682,-1.3893 m 0,2.7787 -0.0682,-1.3894 m 0.27234,2.7649 -0.2041,-1.3755 m 0.54202,2.7248 -0.33792,-1.3493 m 0.80649,2.6589 -0.46857,-1.3096 m 1.06328,2.5671 -0.59471,-1.2575 m 1.30978,2.4505 -0.71507,-1.193 m 1.54357,2.3102 -0.8285,-1.1172 m 1.76262,2.1476 -0.93412,-1.0304 m 1.96469,1.9644 -1.03057,-0.934 m 2.14774,1.7628 -1.11717,-0.8288 m 2.3102,1.5439 -1.19303,-0.7151 m 2.45034,1.3096 -1.25731,-0.5945 m 2.56691,1.0633 -1.3096,-0.4688 m 2.65884,0.8065 -1.34924,-0.3377 m 2.72507,0.5418 -1.37583,-0.2041 m 66.5446,-7.0799 -1.03323,-0.051 m 2.06646,0 -1.03323,0.051 m 2.05654,-0.2027 -1.02331,0.152 m 2.02677,-0.4032 -1.00346,0.2512 m 1.97752,-0.5999 -0.97406,0.3487 m 1.90914,-0.7909 -0.93508,0.4422 m 1.82232,-0.974 -0.88724,0.5318 m 1.71815,-1.148 -0.83091,0.6162 m 1.59732,-1.311 -0.76641,0.6948 m 1.46126,-1.4613 -0.69485,0.7665 m 1.31103,-1.5974 -0.61618,0.8309 m 1.14803,-1.7181 -0.53185,0.8872 m 0.97405,-1.8223 -0.4422,0.9351 m 0.79086,-1.9091 -0.34866,0.974 m 0.59988,-1.9775 -0.25122,1.0035 m 0.40323,-2.0268 -0.15201,1.0233 m 0.20268,-2.0565 -0.0507,1.0332 m 0,-2.0665 0.0507,1.0333 m -0.20268,-2.0566 0.15201,1.0233 m -0.40323,-2.0267 0.25122,1.0034 m -0.59988,-1.9775 0.34866,0.9741 m -0.79086,-1.9092 0.4422,0.9351 m -0.97405,-1.8223 0.53185,0.8872 m -1.14803,-1.7181 0.61618,0.8309 m -1.31103,-1.5977 0.69485,0.7668 m -1.46126,-1.4613 0.76641,0.6945 m -1.59732,-1.3107 0.83091,0.6162 m -1.71815,-1.148 0.88724,0.5318 m -1.82232,-0.9744 0.93508,0.4426 m -1.90914,-0.7909 0.97406,0.3483 m -1.97752,-0.5995 1.00346,0.2512 m -2.02677,-0.4032 1.02331,0.152 m -2.05654,-0.2027 1.03323,0.051 m -2.06646,0 1.03323,-0.051 m -2.05653,0.2027 1.0233,-0.152 m -2.02677,0.4032 1.00347,-0.2512 m -1.97752,0.5995 0.97405,-0.3483 m -1.90913,0.7909 0.93508,-0.4426 m -1.82232,0.9744 0.88724,-0.5318 m -1.71815,1.148 0.83091,-0.6162 m -1.59768,1.3107 0.76677,-0.6945 m -1.46126,1.4613 0.69449,-0.7668 m -1.31067,1.5977 0.61618,-0.8309 m -1.14803,1.7181 0.53185,-0.8872 m -0.97441,1.8223 0.44256,-0.9351 m -0.79087,1.9092 0.34831,-0.9741 m -0.59953,1.9775 0.25122,-1.0034 m -0.40323,2.0267 0.15201,-1.0233 m -0.20268,2.0566 0.0507,-1.0333 m 0,2.0665 -0.0507,-1.0332 m 0.20268,2.0565 -0.15201,-1.0233 m 0.40323,2.0268 -0.25122,-1.0035 m 0.59953,1.9775 -0.34831,-0.974 m 0.79087,1.9091 -0.44256,-0.9351 m 0.97441,1.8223 -0.53185,-0.8872 m 1.14803,1.7181 -0.61618,-0.8309 m 1.31067,1.5974 -0.69449,-0.7665 m 1.46126,1.4613 -0.76677,-0.6948 m 1.59768,1.311 -0.83091,-0.6162 m 1.71815,1.148 -0.88724,-0.5318 m 1.82232,0.974 -0.93508,-0.4422 m 1.90913,0.7909 -0.97405,-0.3487 m 1.97752,0.5999 -1.00347,-0.2512 m 2.02677,0.4032 -1.0233,-0.152 m -125.50252,0.2027 -1.03323,-0.051 m 2.06646,0 -1.03323,0.051 m 2.05653,-0.2027 -1.0233,0.152 m 2.02677,-0.4032 -1.00347,0.2512 m 1.97752,-0.5999 -0.97405,0.3487 m 1.90913,-0.7909 -0.93508,0.4422 m 1.82233,-0.974 -0.88725,0.5318 m 1.71815,-1.148 -0.8309,0.6162 m 1.59732,-1.311 -0.76642,0.6948 m 1.46126,-1.4613 -0.69484,0.7665 m 1.31102,-1.5974 -0.61618,0.8309 m 1.14803,-1.7181 -0.53185,0.8872 m 0.97406,-1.8223 -0.44221,0.9351 m 0.79087,-1.9091 -0.34866,0.974 m 0.59988,-1.9775 -0.25122,1.0035 m 0.40323,-2.0268 -0.15201,1.0233 m 0.20268,-2.0565 -0.0507,1.0332 m 0,-2.0665 0.0507,1.0333 m -0.20268,-2.0566 0.15201,1.0233 m -0.40323,-2.0267 0.25122,1.0034 m -0.59988,-1.9775 0.34866,0.9741 m -0.79087,-1.9092 0.44221,0.9351 m -0.97406,-1.8223 0.53185,0.8872 m -1.14803,-1.7181 0.61618,0.8309 m -1.31102,-1.5977 0.69484,0.7668 m -1.46126,-1.4613 0.76642,0.6945 m -1.59732,-1.3107 0.8309,0.6162 m -1.71815,-1.148 0.88725,0.5318 m -1.82233,-0.9744 0.93508,0.4426 m -1.90913,-0.7909 0.97405,0.3483 m -1.97752,-0.5995 1.00347,0.2512 m -2.02677,-0.4032 1.0233,0.152 m -2.05653,-0.2027 1.03323,0.051 m -2.06646,0 1.03323,-0.051 m -2.05654,0.2027 1.02331,-0.152 m -2.02677,0.4032 1.00346,-0.2512 m -1.97752,0.5995 0.97406,-0.3483 m -1.90914,0.7909 0.93508,-0.4426 m -1.82232,0.9744 0.88724,-0.5318 m -1.71815,1.148 0.83091,-0.6162 m -1.59768,1.3107 0.76677,-0.6945 m -1.46126,1.4613 0.69449,-0.7668 m -1.31067,1.5977 0.61618,-0.8309 m -1.14803,1.7181 0.53185,-0.8872 m -0.97441,1.8223 0.44256,-0.9351 m -0.79086,1.9092 0.3483,-0.9741 m -0.59952,1.9775 0.25122,-1.0034 m -0.40323,2.0267 0.15201,-1.0233 m -0.20268,2.0566 0.0507,-1.0333 m 0,2.0665 -0.0507,-1.0332 m 0.20268,2.0565 -0.15201,-1.0233 m 0.40323,2.0268 -0.25122,-1.0035 m 0.59952,1.9775 -0.3483,-0.974 m 0.79086,1.9091 -0.44256,-0.9351 m 0.97441,1.8223 -0.53185,-0.8872 m 1.14803,1.7181 -0.61618,-0.8309 m 1.31067,1.5974 -0.69449,-0.7665 m 1.46126,1.4613 -0.76677,-0.6948 m 1.59768,1.311 -0.83091,-0.6162 m 1.71815,1.148 -0.88724,-0.5318 m 1.82232,0.974 -0.93508,-0.4422 m 1.90914,0.7909 -0.97406,-0.3487 m 1.97752,0.5999 -1.00346,-0.2512 m 2.02677,0.4032 -1.02331,-0.152 m -10.09204,53.61808 0,-14.1733 m -44.54433,14.1733 44.54433,0 m -44.54433,-26.9292 0,26.9292 m 14.17323,-26.9292 -14.17323,0 m 14.17323,-26.92908 0,26.92908 m -14.17323,-26.92908 14.17323,0 m -14.17323,-26.9292 0,26.9292 m 14.17323,-26.9292 -14.17323,0 m 14.17323,-26.9291 0,26.9291 m -14.17323,-26.9291 14.17323,0 m -14.17323,-26.9291 0,26.9291 m 44.54433,-26.9291 -44.54433,0 m 44.54433,14.1732 0,-14.1732 m 30.37145,14.1732 -30.37145,0 m 30.37145,-14.1732 0,14.1732 m 30.37103,-14.1732 -30.37103,0 m 30.37103,14.1732 0,-14.1732 m 30.37121,14.1732 -30.37121,0 m 30.37121,-14.1732 0,14.1732 m 30.37107,-14.1732 -30.37107,0 m 30.37107,14.1732 0,-14.1732 m 30.37146,14.1732 -30.37146,0 m 30.37146,-14.1732 0,14.1732 m 44.54433,-14.1732 -44.54433,0 m 44.54433,26.9291 0,-26.9291 m -14.17323,26.9291 14.17323,0 m -14.17323,26.9291 0,-26.9291 m 14.17323,26.9291 -14.17323,0 m 14.17323,26.9292 0,-26.9292 m -14.17323,26.9292 14.17323,0 m -14.17323,26.92908 0,-26.92908 m 14.17323,26.92908 -14.17323,0 m 14.17323,26.9292 0,-26.9292 m -44.54433,26.9292 44.54433,0 m -44.54433,-14.1733 0,14.1733 m -30.37146,-14.1733 30.37146,0 m -30.37146,14.1733 0,-14.1733 m -30.37107,14.1733 30.37107,0 m -30.37107,-14.1733 0,14.1733 m -30.37121,-14.1733 30.37121,0 m -30.37121,14.1733 0,-14.1733 m -30.37103,14.1733 30.37103,0 m -30.37103,-14.1733 0,14.1733 m -30.37145,-14.1733 30.37145,0 M 68.204955,838.56432 l -1.38047,-0.068 m 2.76094,0 -1.38047,0.068 m 2.74784,-0.2707 -1.36737,0.2026 m 2.70815,-0.5385 -1.34078,0.3359 m 2.64224,-0.8015 -1.30146,0.4656 m 2.55083,-1.0566 -1.24937,0.591 m 2.43496,-1.3015 -1.18559,0.7105 m 2.29571,-1.5339 -1.11012,0.8234 m 2.13449,-1.7518 -1.02437,0.9284 m 1.95236,-1.9524 -0.92799,1.024 m 1.75145,-2.1341 -0.82346,1.1101 m 1.53425,-2.2957 -0.71079,1.1856 m 1.30146,-2.4353 -0.59067,1.2497 m 1.05662,-2.5508 -0.46595,1.3011 m 0.8015,-2.6419 -0.33555,1.3408 m 0.53858,-2.7082 -0.20303,1.3674 m 0.27071,-2.7479 -0.0677,1.3805 m 0,-2.7609 0.0677,1.3804 m -0.27071,-2.7478 0.20303,1.3674 m -0.53858,-2.7082 0.33555,1.3408 m -0.8015,-2.6422 0.46595,1.3014 m -1.05662,-2.5508 0.59067,1.2494 m -1.30146,-2.435 0.71079,1.1856 m -1.53425,-2.2957 0.82346,1.1101 m -1.75145,-2.1345 0.92799,1.0244 m -1.95236,-1.9524 1.02437,0.928 m -2.13449,-1.7515 1.11012,0.8235 m -2.29571,-1.5342 1.18559,0.7107 m -2.43496,-1.3014 1.24937,0.5907 m -2.55083,-1.0567 1.30146,0.466 m -2.64224,-0.8019 1.34078,0.3359 m -2.70815,-0.5385 1.36737,0.2026 m -2.74784,-0.2703 1.38047,0.068 m -2.76094,0 1.38047,-0.068 m -2.74783,0.2703 1.36736,-0.2026 m -2.70815,0.5385 1.34079,-0.3359 m -2.64189,0.8019 1.3011,-0.466 m -2.55083,1.0567 1.24973,-0.5907 m -2.43532,1.3014 1.18559,-0.7107 m -2.29571,1.5342 1.11012,-0.8235 m -2.13413,1.7515 1.02401,-0.928 m -1.95236,1.9524 0.92835,-1.0244 m -1.75181,2.1345 0.82346,-1.1101 m -1.5339,2.2957 0.71044,-1.1856 m -1.30146,2.435 0.59102,-1.2494 m -1.05661,2.5508 0.46559,-1.3014 m -0.8015,2.6422 0.33591,-1.3408 m -0.53858,2.7082 0.20267,-1.3674 m -0.27071,2.7478 0.068,-1.3804 m 0,2.7609 -0.068,-1.3805 m 0.27071,2.7479 -0.20267,-1.3674 m 0.53858,2.7082 -0.33591,-1.3408 m 0.8015,2.6419 -0.46559,-1.3011 m 1.05661,2.5508 -0.59102,-1.2497 m 1.30146,2.4353 -0.71044,-1.1856 m 1.5339,2.2957 -0.82346,-1.1101 m 1.75181,2.1341 -0.92835,-1.024 m 1.95236,1.9524 -1.02401,-0.9284 m 2.13413,1.7518 -1.11012,-0.8234 m 2.29571,1.5339 -1.18559,-0.7105 m 2.43532,1.3015 -1.24973,-0.591 m 2.55083,1.0566 -1.3011,-0.4656 m 2.64189,0.8015 -1.34079,-0.3359 m 2.70815,0.5385 -1.36736,-0.2026 m 2.57067,-63.4203 -1.38898,-0.068 m 2.77831,0 -1.38933,0.068 m 2.76519,-0.2724 -1.37586,0.2041 m 2.72515,-0.542 -1.34929,0.3379 m 2.6589,-0.8065 -1.30961,0.4686 m 2.56678,-1.0633 -1.25717,0.5947 m 2.4502,-1.3098 -1.19303,0.7151 m 2.31023,-1.5436 -1.1172,0.8285 m 2.1476,-1.7626 -1.0304,0.9341 m 1.96477,-1.9647 -0.93437,1.0306 m 1.76279,-2.1477 -0.82842,1.1171 m 1.54346,-2.3102 -0.71504,1.1931 m 1.30961,-2.4504 -0.59457,1.2573 m 1.06335,-2.5669 -0.46878,1.3096 m 0.80681,-2.6588 -0.33803,1.3492 m 0.54212,-2.7251 -0.20409,1.3759 m 0.27212,-2.765 -0.068,1.3891 m 0,-2.7783 0.068,1.3892 m -0.27212,-2.7651 0.20409,1.3759 m -0.54212,-2.7251 0.33803,1.3492 m -0.80681,-2.6588 0.46878,1.3096 m -1.06335,-2.5669 0.59457,1.2573 m -1.30961,-2.4504 0.71504,1.1931 m -1.54346,-2.3102 0.82842,1.1171 m -1.76279,-2.1477 0.93437,1.0306 m -1.96477,-1.9647 1.0304,0.9341 m -2.1476,-1.7626 1.1172,0.8285 m -2.31023,-1.5436 1.19303,0.7151 m -2.4502,-1.3098 1.25717,0.5947 m -2.56678,-1.0633 1.30961,0.4686 m -2.6589,-0.8065 1.34929,0.3379 m -2.72515,-0.542 1.37586,0.2041 m -2.76519,-0.2723 1.38933,0.068 m -2.77831,0 1.38898,-0.068 m -2.76485,0.2723 1.37587,-0.2041 m -2.72516,0.542 1.34929,-0.3379 m -2.65889,0.8065 1.3096,-0.4686 m -2.56712,1.0633 1.25752,-0.5947 m -2.45056,1.3098 1.19304,-0.7151 m -2.31024,1.5436 1.1172,-0.8285 m -2.14759,1.7626 1.03039,-0.9341 m -1.96441,1.9647 0.93402,-1.0306 m -1.7628,2.1477 0.82878,-1.1171 m -1.54382,2.3102 0.71504,-1.1931 m -1.30961,2.4504 0.59457,-1.2573 m -1.06299,2.5669 0.46842,-1.3096 m -0.80645,2.6588 0.33803,-1.3492 m -0.54213,2.7251 0.2041,-1.3759 m -0.27248,2.7651 0.0684,-1.3892 m 0,2.7783 -0.0684,-1.3891 m 0.27248,2.765 -0.2041,-1.3759 m 0.54213,2.7251 -0.33803,-1.3492 m 0.80645,2.6588 -0.46842,-1.3096 m 1.06299,2.5669 -0.59457,-1.2573 m 1.30961,2.4504 -0.71504,-1.1931 m 1.54382,2.3102 -0.82878,-1.1171 m 1.7628,2.1477 -0.93402,-1.0306 m 1.96441,1.9647 -1.03039,-0.9341 m 2.14759,1.7626 -1.1172,-0.8285 m 2.31024,1.5436 -1.19304,-0.7151 m 2.45056,1.3098 -1.25752,-0.5947 m 2.56712,1.0633 -1.3096,-0.4686 m 2.65889,0.8065 -1.34929,-0.3379 m 2.72516,0.542 -1.37587,-0.2041 m 2.94201,-63.5957 -1.38047,-0.068 m 2.76094,0 -1.38047,0.068 m 2.74784,-0.2707 -1.36737,0.203 m 2.70815,-0.5389 -1.34078,0.3359 m 2.64224,-0.8015 -1.30146,0.4656 m 2.55083,-1.0566 -1.24937,0.591 m 2.43496,-1.3014 -1.18559,0.7104 m 2.29571,-1.5339 -1.11012,0.8235 m 2.13449,-1.75185 -1.02437,0.92835 m 1.95236,-1.95237 -0.92799,1.02402 m 1.75145,-2.13413 -0.82346,1.11011 m 1.53425,-2.2957 -0.71079,1.18559 m 1.30146,-2.43496 -0.59067,1.24937 m 1.05662,-2.55083 -0.46595,1.30146 m 0.8015,-2.64225 -0.33555,1.34079 m 0.53858,-2.70815 -0.20303,1.36736 m 0.27071,-2.74783 -0.0677,1.38047 m 0,-2.76094 0.0677,1.38047 m -0.27071,-2.74784 0.20303,1.36737 m -0.53858,-2.70816 0.33555,1.34079 m -0.8015,-2.64224 0.46595,1.30145 m -1.05662,-2.55082 0.59067,1.24937 m -1.30146,-2.43496 0.71079,1.18559 m -1.53425,-2.29571 0.82346,1.11012 m -1.75145,-2.13449 0.92799,1.02437 m -1.95236,-1.95236 1.02437,0.92799 m -2.13449,-1.75146 1.11012,0.82347 m -2.29571,-1.5339 1.18559,0.71043 m -2.43496,-1.30145 1.24937,0.59102 m -2.55083,-1.05661 1.30146,0.46559 m -2.64224,-0.8015 1.34078,0.33591 m -2.70815,-0.53894 1.36737,0.20303 m -2.74784,-0.27071 1.38047,0.0677 m -2.76094,0 1.38047,-0.0677 m -2.74783,0.27071 1.36736,-0.20303 m -2.70815,0.53894 1.34079,-0.33591 m -2.64189,0.8015 1.3011,-0.46559 m -2.55083,1.05661 1.24973,-0.59102 m -2.43532,1.30145 1.18559,-0.71043 m -2.29571,1.5339 1.11012,-0.82347 m -2.13413,1.75146 1.02401,-0.92799 m -1.95236,1.95236 0.92835,-1.02437 m -1.75181,2.13449 0.82346,-1.11012 m -1.5339,2.29571 0.71044,-1.18559 m -1.30146,2.43496 0.59102,-1.24937 m -1.05661,2.55082 0.46559,-1.30145 m -0.8015,2.64224 0.33591,-1.34079 m -0.53858,2.70816 0.20267,-1.36737 m -0.27071,2.74784 0.068,-1.38047 m 0,2.76094 -0.068,-1.38047 m 0.27071,2.74783 -0.20267,-1.36736 m 0.53858,2.70815 -0.33591,-1.34079 m 0.8015,2.64225 -0.46559,-1.30146 m 1.05661,2.55083 -0.59102,-1.24937 m 1.30146,2.43496 -0.71044,-1.18559 m 1.5339,2.2957 -0.82346,-1.11011 m 1.75181,2.13413 -0.92835,-1.02402 m 1.95236,1.95237 -1.02401,-0.92835 m 2.13413,1.75185 -1.11012,-0.8235 m 2.29571,1.5339 -1.18559,-0.7104 m 2.43532,1.3014 -1.24973,-0.591 m 2.55083,1.0566 -1.3011,-0.4656 m 2.64189,0.8015 -1.34079,-0.3359 m 2.70815,0.5389 -1.36736,-0.203 m -3.36437,170.438 0,-14.1732 m -27.81496,14.1732 27.81496,0 m -27.81496,-14.1732 0,14.1732 m -26.4862297,-14.1732 26.4862297,0 m -26.4862297,-30.3714 0,30.3714 m 14.1732297,-30.3714 -14.1732297,0 m 14.1732297,-30.3711 0,30.3711 m -14.1732297,-30.3711 14.1732297,0 m -14.1732297,-30.3712 0,30.3712 m 14.1732297,-30.3712 -14.1732297,0 m 14.1732297,-30.3711 0,30.3711 m -14.1732297,-30.3711 14.1732297,0 m -14.1732297,-30.371 0,30.371 m 14.1732297,-30.371 -14.1732297,0 m 14.1732297,-30.37151 0,30.37151 m -14.1732297,-30.37151 14.1732297,0 m -14.1732297,-30.3711 0,30.3711 m 26.4862297,-30.3711 -26.4862297,0 m 26.4862297,-14.17323 0,14.17323 m 27.81496,-14.17323 -27.81496,0 m 27.81496,14.17323 0,-14.17323 m 26.0433,14.17323 -26.0433,0 m 26.0433,-14.17323 0,14.17323 m 27.814965,-14.17323 -27.814965,0 m 27.814965,14.17323 0,-14.17323 m 26.48622,14.17323 -26.48622,0 m 26.48622,30.3711 0,-30.3711 m -14.17322,30.3711 14.17322,0 m -14.17322,30.37151 0,-30.37151 m 14.17322,30.37151 -14.17322,0 m 14.17322,30.371 0,-30.371 m -14.17322,30.371 14.17322,0 m -14.17322,30.3711 0,-30.3711 m 14.17322,30.3711 -14.17322,0 m 14.17322,30.3712 0,-30.3712 m -14.17322,30.3712 14.17322,0 m -14.17322,30.3711 0,-30.3711 m 14.17322,30.3711 -14.17322,0 m 14.17322,30.3714 0,-30.3714 m -26.48622,30.3714 26.48622,0 m -26.48622,14.1732 0,-14.1732 m -27.814965,14.1732 27.814965,0 m -27.814965,-14.1732 0,14.1732 m -26.0433,-14.1732 26.0433,0 m 404.911425,-28.435 -1.38047,-0.068 m 2.76094,0 -1.38047,0.068 m 2.74783,-0.2707 -1.36736,0.2026 m 2.70815,-0.5385 -1.34079,0.3359 m 2.64189,-0.8015 -1.3011,0.4656 m 2.55083,-1.0566 -1.24973,0.591 m 2.43532,-1.3015 -1.18559,0.7105 m 2.29571,-1.5339 -1.11012,0.8234 m 2.13413,-1.7518 -1.02401,0.9284 m 1.95236,-1.9524 -0.92835,1.024 m 1.75181,-2.1341 -0.82346,1.1101 m 1.5339,-2.2957 -0.71044,1.1856 m 1.30146,-2.4353 -0.59102,1.2497 m 1.05661,-2.5508 -0.46559,1.3011 m 0.8015,-2.6419 -0.33591,1.3408 m 0.53858,-2.7082 -0.20267,1.3674 m 0.27071,-2.7479 -0.068,1.3805 m 0,-2.7609 0.068,1.3804 m -0.27071,-2.7478 0.20267,1.3674 m -0.53858,-2.7082 0.33591,1.3408 m -0.8015,-2.6422 0.46559,1.3014 m -1.05661,-2.5508 0.59102,1.2494 m -1.30146,-2.435 0.71044,1.1856 m -1.5339,-2.2957 0.82346,1.1101 m -1.75181,-2.1345 0.92835,1.0244 m -1.95236,-1.9524 1.02401,0.928 m -2.13413,-1.7515 1.11012,0.8235 m -2.29571,-1.5342 1.18559,0.7107 m -2.43532,-1.3014 1.24973,0.5907 m -2.55083,-1.0567 1.3011,0.466 m -2.64189,-0.8019 1.34079,0.3359 m -2.70815,-0.5385 1.36736,0.2026 m -2.74783,-0.2703 1.38047,0.068 m -2.76094,0 1.38047,-0.068 m -2.74784,0.2703 1.36737,-0.2026 m -2.70815,0.5385 1.34078,-0.3359 m -2.64224,0.8019 1.30146,-0.466 m -2.55083,1.0567 1.24937,-0.5907 m -2.43496,1.3014 1.18559,-0.7107 m -2.29571,1.5342 1.11012,-0.8235 m -2.13449,1.7515 1.02437,-0.928 m -1.95236,1.9524 0.92799,-1.0244 m -1.75145,2.1345 0.82346,-1.1101 m -1.53425,2.2957 0.71079,-1.1856 m -1.30146,2.435 0.59067,-1.2494 m -1.05662,2.5508 0.46595,-1.3014 m -0.8015,2.6422 0.33555,-1.3408 m -0.53858,2.7082 0.20303,-1.3674 m -0.27071,2.7478 0.0677,-1.3804 m 0,2.7609 -0.0677,-1.3805 m 0.27071,2.7479 -0.20303,-1.3674 m 0.53858,2.7082 -0.33555,-1.3408 m 0.8015,2.6419 -0.46595,-1.3011 m 1.05662,2.5508 -0.59067,-1.2497 m 1.30146,2.4353 -0.71079,-1.1856 m 1.53425,2.2957 -0.82346,-1.1101 m 1.75145,2.1341 -0.92799,-1.024 m 1.95236,1.9524 -1.02437,-0.9284 m 2.13449,1.7518 -1.11012,-0.8234 m 2.29571,1.5339 -1.18559,-0.7105 m 2.43496,1.3015 -1.24937,-0.591 m 2.55083,1.0566 -1.30146,-0.4656 m 2.64224,0.8015 -1.34078,-0.3359 m 2.70815,0.5385 -1.36737,-0.2026 m 2.925,-63.4203 -1.38933,-0.068 m 2.77831,0 -1.38898,0.068 m 2.76485,-0.2724 -1.37587,0.2041 m 2.72516,-0.542 -1.34929,0.3379 m 2.65889,-0.8065 -1.3096,0.4686 m 2.56712,-1.0633 -1.25752,0.5947 m 2.45056,-1.3098 -1.19304,0.7151 m 2.31024,-1.5436 -1.1172,0.8285 m 2.14759,-1.7626 -1.03039,0.9341 m 1.96441,-1.9647 -0.93402,1.0306 m 1.7628,-2.1477 -0.82878,1.1171 m 1.54382,-2.3102 -0.71504,1.1931 m 1.30961,-2.4504 -0.59457,1.2573 m 1.06299,-2.5669 -0.46842,1.3096 m 0.80645,-2.6588 -0.33803,1.3492 m 0.54213,-2.7251 -0.2041,1.3759 m 0.27248,-2.765 -0.0684,1.3891 m 0,-2.7783 0.0684,1.3892 m -0.27248,-2.7651 0.2041,1.3759 m -0.54213,-2.7251 0.33803,1.3492 m -0.80645,-2.6588 0.46842,1.3096 m -1.06299,-2.5669 0.59457,1.2573 m -1.30961,-2.4504 0.71504,1.1931 m -1.54382,-2.3102 0.82878,1.1171 m -1.7628,-2.1477 0.93402,1.0306 m -1.96441,-1.9647 1.03039,0.9341 m -2.14759,-1.7626 1.1172,0.8285 m -2.31024,-1.5436 1.19304,0.7151 m -2.45056,-1.3098 1.25752,0.5947 m -2.56712,-1.0633 1.3096,0.4686 m -2.65889,-0.8065 1.34929,0.3379 m -2.72516,-0.542 1.37587,0.2041 m -2.76485,-0.2723 1.38898,0.068 m -2.77831,0 1.38933,-0.068 m -2.76519,0.2723 1.37586,-0.2041 m -2.72515,0.542 1.34929,-0.3379 m -2.6589,0.8065 1.30961,-0.4686 m -2.56678,1.0633 1.25717,-0.5947 m -2.4502,1.3098 1.19303,-0.7151 m -2.31023,1.5436 1.1172,-0.8285 m -2.1476,1.7626 1.0304,-0.9341 m -1.96477,1.9647 0.93437,-1.0306 m -1.76279,2.1477 0.82842,-1.1171 m -1.54346,2.3102 0.71504,-1.1931 m -1.30961,2.4504 0.59457,-1.2573 m -1.06335,2.5669 0.46878,-1.3096 m -0.80681,2.6588 0.33803,-1.3492 m -0.54212,2.7251 0.20409,-1.3759 m -0.27212,2.7651 0.068,-1.3892 m 0,2.7783 -0.068,-1.3891 m 0.27212,2.765 -0.20409,-1.3759 m 0.54212,2.7251 -0.33803,-1.3492 m 0.80681,2.6588 -0.46878,-1.3096 m 1.06335,2.5669 -0.59457,-1.2573 m 1.30961,2.4504 -0.71504,-1.1931 m 1.54346,2.3102 -0.82842,-1.1171 m 1.76279,2.1477 -0.93437,-1.0306 m 1.96477,1.9647 -1.0304,-0.9341 m 2.1476,1.7626 -1.1172,-0.8285 m 2.31023,1.5436 -1.19303,-0.7151 m 2.4502,1.3098 -1.25717,-0.5947 m 2.56678,1.0633 -1.30961,-0.4686 m 2.6589,0.8065 -1.34929,-0.3379 m 2.72515,0.542 -1.37586,-0.2041 m 2.58803,-63.5957 -1.38047,-0.068 m 2.76094,0 -1.38047,0.068 m 2.74783,-0.2707 -1.36736,0.203 m 2.70815,-0.5389 -1.34079,0.3359 m 2.64189,-0.8015 -1.3011,0.4656 m 2.55083,-1.0566 -1.24973,0.591 m 2.43532,-1.3014 -1.18559,0.7104 m 2.29571,-1.5339 -1.11012,0.8235 m 2.13413,-1.75185 -1.02401,0.92835 m 1.95236,-1.95237 -0.92835,1.02402 m 1.75181,-2.13413 -0.82346,1.11011 m 1.5339,-2.2957 -0.71044,1.18559 m 1.30146,-2.43496 -0.59102,1.24937 m 1.05661,-2.55083 -0.46559,1.30146 m 0.8015,-2.64225 -0.33591,1.34079 m 0.53858,-2.70815 -0.20267,1.36736 m 0.27071,-2.74783 -0.068,1.38047 m 0,-2.76094 0.068,1.38047 m -0.27071,-2.74784 0.20267,1.36737 m -0.53858,-2.70816 0.33591,1.34079 m -0.8015,-2.64224 0.46559,1.30145 m -1.05661,-2.55082 0.59102,1.24937 m -1.30146,-2.43496 0.71044,1.18559 m -1.5339,-2.29571 0.82346,1.11012 m -1.75181,-2.13449 0.92835,1.02437 m -1.95236,-1.95236 1.02401,0.92799 m -2.13413,-1.75146 1.11012,0.82347 m -2.29571,-1.5339 1.18559,0.71043 m -2.43532,-1.30145 1.24973,0.59102 m -2.55083,-1.05661 1.3011,0.46559 m -2.64189,-0.8015 1.34079,0.33591 m -2.70815,-0.53894 1.36736,0.20303 m -2.74783,-0.27071 1.38047,0.0677 m -2.76094,0 1.38047,-0.0677 m -2.74784,0.27071 1.36737,-0.20303 m -2.70815,0.53894 1.34078,-0.33591 m -2.64224,0.8015 1.30146,-0.46559 m -2.55083,1.05661 1.24937,-0.59102 m -2.43496,1.30145 1.18559,-0.71043 m -2.29571,1.5339 1.11012,-0.82347 m -2.13449,1.75146 1.02437,-0.92799 m -1.95236,1.95236 0.92799,-1.02437 m -1.75145,2.13449 0.82346,-1.11012 m -1.53425,2.29571 0.71079,-1.18559 m -1.30146,2.43496 0.59067,-1.24937 m -1.05662,2.55082 0.46595,-1.30145 m -0.8015,2.64224 0.33555,-1.34079 m -0.53858,2.70816 0.20303,-1.36737 m -0.27071,2.74784 0.0677,-1.38047 m 0,2.76094 -0.0677,-1.38047 m 0.27071,2.74783 -0.20303,-1.36736 m 0.53858,2.70815 -0.33555,-1.34079 m 0.8015,2.64225 -0.46595,-1.30146 m 1.05662,2.55083 -0.59067,-1.24937 m 1.30146,2.43496 -0.71079,-1.18559 m 1.53425,2.2957 -0.82346,-1.11011 m 1.75145,2.13413 -0.92799,-1.02402 m 1.95236,1.95237 -1.02437,-0.92835 m 2.13449,1.75185 -1.11012,-0.8235 m 2.29571,1.5339 -1.18559,-0.7104 m 2.43496,1.3014 -1.24937,-0.591 m 2.55083,1.0566 -1.30146,-0.4656 m 2.64224,0.8015 -1.34078,-0.3359 m 2.70815,0.5389 -1.36737,-0.203 m -17.18326,170.438 0,-14.1732 m -27.81496,14.1732 27.81496,0 m -27.81496,-14.1732 0,14.1732 m -26.48622,-14.1732 26.48622,0 m -26.48622,-30.3714 0,30.3714 m 14.17322,-30.3714 -14.17322,0 m 14.17322,-30.3711 0,30.3711 m -14.17322,-30.3711 14.17322,0 m -14.17322,-30.3712 0,30.3712 m 14.17322,-30.3712 -14.17322,0 m 14.17322,-30.3711 0,30.3711 m -14.17322,-30.3711 14.17322,0 m -14.17322,-30.371 0,30.371 m 14.17322,-30.371 -14.17322,0 m 14.17322,-30.37151 0,30.37151 m -14.17322,-30.37151 14.17322,0 m -14.17322,-30.3711 0,30.3711 m 26.48622,-30.3711 -26.48622,0 m 26.48622,-14.17323 0,14.17323 m 27.81496,-14.17323 -27.81496,0 m 27.81496,14.17323 0,-14.17323 m 26.0433,14.17323 -26.0433,0 m 26.0433,-14.17323 0,14.17323 m 27.81496,-14.17323 -27.81496,0 m 27.81496,14.17323 0,-14.17323 m 26.48623,14.17323 -26.48623,0 m 26.48623,30.3711 0,-30.3711 m -14.17323,30.3711 14.17323,0 m -14.17323,30.37151 0,-30.37151 m 14.17323,30.37151 -14.17323,0 m 14.17323,30.371 0,-30.371 m -14.17323,30.371 14.17323,0 m -14.17323,30.3711 0,-30.3711 m 14.17323,30.3711 -14.17323,0 m 14.17323,30.3712 0,-30.3712 m -14.17323,30.3712 14.17323,0 m -14.17323,30.3711 0,-30.3711 m 14.17323,30.3711 -14.17323,0 m 14.17323,30.3714 0,-30.3714 m -26.48623,30.3714 26.48623,0 m -26.48623,14.1732 0,-14.1732 m -27.81496,14.1732 27.81496,0 m -27.81496,-14.1732 0,14.1732 m -26.0433,-14.1732 26.0433,0 m -263.6472,14.1732 0,-14.1732 m -31.25729,14.1732 31.25729,0 m -31.25729,-14.1732 0,14.1732 m -29.92818,-14.1732 29.92818,0 m -29.92818,-29.9282 0,29.9282 m -14.17323,-29.9282 14.17323,0 m -14.17323,-31.2573 0,31.2573 m 14.17323,-31.2573 -14.17323,0 m 14.17323,-29.4852 0,29.4852 m -14.17323,-29.4852 14.17323,0 m -14.17323,-31.257 0,31.257 m 14.17323,-31.257 -14.17323,0 m 14.17323,-29.4852 0,29.4852 m -14.17323,-29.4852 14.17323,0 m -14.17323,-31.25732 0,31.25732 m 14.17323,-31.25732 -14.17323,0 m 14.17323,-29.92819 0,29.92819 m 29.92818,-29.92819 -29.92818,0 m 29.92818,-14.17323 0,14.17323 m 31.25729,-14.17323 -31.25729,0 m 31.25729,14.17323 0,-14.17323 m 29.4852,14.17323 -29.4852,0 m 29.4852,-14.17323 0,14.17323 m 31.25704,-14.17323 -31.25704,0 m 31.25704,14.17323 0,-14.17323 m 29.48524,14.17323 -29.48524,0 m 29.48524,-14.17323 0,14.17323 m 31.25728,-14.17323 -31.25728,0 m 31.25728,14.17323 0,-14.17323 m 29.92819,14.17323 -29.92819,0 m 29.92819,29.92819 0,-29.92819 m 14.17323,29.92819 -14.17323,0 m 14.17323,31.25732 0,-31.25732 m -14.17323,31.25732 14.17323,0 m -14.17323,29.4852 0,-29.4852 m 14.17323,29.4852 -14.17323,0 m 14.17323,31.257 0,-31.257 m -14.17323,31.257 14.17323,0 m -14.17323,29.4852 0,-29.4852 m 14.17323,29.4852 -14.17323,0 m 14.17323,31.2573 0,-31.2573 m -14.17323,31.2573 14.17323,0 m -14.17323,29.9282 0,-29.9282 m -29.92819,29.9282 29.92819,0 m -29.92819,14.1732 0,-14.1732 m -31.25728,14.1732 31.25728,0 m -31.25728,-14.1732 0,14.1732 m -29.48524,-14.1732 29.48524,0 m -29.48524,14.1732 0,-14.1732 m -31.25704,14.1732 31.25704,0 m -31.25704,-14.1732 0,14.1732 m -29.4852,-14.1732 29.4852,0 m -48.15099,-304.63581 -1.03323,-0.0507 m 2.06646,0 -1.03323,0.0507 m 2.05653,-0.20268 -1.0233,0.15201 m 2.02677,-0.40323 -1.00347,0.25122 m 1.97752,-0.59952 -0.97405,0.3483 m 1.90913,-0.79086 -0.93508,0.44256 m 1.82233,-0.97441 -0.88725,0.53185 m 1.71815,-1.14804 -0.8309,0.61619 m 1.59732,-1.31067 -0.76642,0.69448 m 1.46126,-1.46126 -0.69484,0.76678 m 1.31102,-1.59768 -0.61618,0.8309 m 1.14803,-1.71814 -0.53185,0.88724 m 0.97406,-1.82232 -0.44221,0.93508 m 0.79087,-1.90914 -0.34866,0.97406 m 0.59988,-1.97752 -0.25122,1.00346 m 0.40323,-2.02677 -0.15201,1.02331 m 0.20268,-2.05654 -0.0507,1.03323 m 0,-2.06646 0.0507,1.03323 m -0.20268,-2.05653 0.15201,1.0233 m -0.40323,-2.02677 0.25122,1.00347 m -0.59988,-1.97752 0.34866,0.97405 m -0.79087,-1.90913 0.44221,0.93508 m -0.97406,-1.82233 0.53185,0.88725 m -1.14803,-1.71815 0.61618,0.8309 m -1.31102,-1.59732 0.69484,0.76642 m -1.46126,-1.46126 0.76642,0.69484 m -1.59732,-1.31102 0.8309,0.61618 m -1.71815,-1.14803 0.88725,0.53185 m -1.82233,-0.97406 0.93508,0.44221 m -1.90913,-0.79087 0.97405,0.34866 m -1.97752,-0.59988 1.00347,0.25122 m -2.02677,-0.40323 1.0233,0.15201 m -2.05653,-0.20268 1.03323,0.0507 m -2.06646,0 1.03323,-0.0507 m -2.05654,0.20268 1.02331,-0.15201 m -2.02677,0.40323 1.00346,-0.25122 m -1.97752,0.59988 0.97406,-0.34866 m -1.90914,0.79087 0.93508,-0.44221 m -1.82232,0.97406 0.88724,-0.53185 m -1.71815,1.14803 0.83091,-0.61618 m -1.59768,1.31102 0.76677,-0.69484 m -1.46126,1.46126 0.69449,-0.76642 m -1.31067,1.59732 0.61618,-0.8309 m -1.14803,1.71815 0.53185,-0.88725 m -0.97441,1.82233 0.44256,-0.93508 m -0.79086,1.90913 0.3483,-0.97405 m -0.59952,1.97752 0.25122,-1.00347 m -0.40323,2.02677 0.15201,-1.0233 m -0.20268,2.05653 0.0507,-1.03323 m 0,2.06646 -0.0507,-1.03323 m 0.20268,2.05654 -0.15201,-1.02331 m 0.40323,2.02677 -0.25122,-1.00346 m 0.59952,1.97752 -0.3483,-0.97406 m 0.79086,1.90914 -0.44256,-0.93508 m 0.97441,1.82232 -0.53185,-0.88724 m 1.14803,1.71814 -0.61618,-0.8309 m 1.31067,1.59768 -0.69449,-0.76678 m 1.46126,1.46126 -0.76677,-0.69448 m 1.59768,1.31067 -0.83091,-0.61619 m 1.71815,1.14804 -0.88724,-0.53185 m 1.82232,0.97441 -0.93508,-0.44256 m 1.90914,0.79086 -0.97406,-0.3483 m 1.97752,0.59952 -1.00346,-0.25122 m 2.02677,0.40323 -1.02331,-0.15201 m 129.61559,0.20268 -1.03323,-0.0507 m 2.06646,0 -1.03323,0.0507 m 2.05654,-0.20268 -1.02331,0.15201 m 2.02677,-0.40323 -1.00346,0.25122 m 1.97752,-0.59952 -0.97406,0.3483 m 1.90914,-0.79086 -0.93508,0.44256 m 1.82232,-0.97441 -0.88724,0.53185 m 1.71815,-1.14804 -0.83091,0.61619 m 1.59732,-1.31067 -0.76641,0.69448 m 1.46126,-1.46126 -0.69485,0.76678 m 1.31103,-1.59768 -0.61618,0.8309 m 1.14803,-1.71814 -0.53185,0.88724 m 0.97405,-1.82232 -0.4422,0.93508 m 0.79086,-1.90914 -0.34866,0.97406 m 0.59988,-1.97752 -0.25122,1.00346 m 0.40323,-2.02677 -0.15201,1.02331 m 0.20268,-2.05654 -0.0507,1.03323 m 0,-2.06646 0.0507,1.03323 m -0.20268,-2.05653 0.15201,1.0233 m -0.40323,-2.02677 0.25122,1.00347 m -0.59988,-1.97752 0.34866,0.97405 m -0.79086,-1.90913 0.4422,0.93508 m -0.97405,-1.82233 0.53185,0.88725 m -1.14803,-1.71815 0.61618,0.8309 m -1.31103,-1.59732 0.69485,0.76642 m -1.46126,-1.46126 0.76641,0.69484 m -1.59732,-1.31102 0.83091,0.61618 m -1.71815,-1.14803 0.88724,0.53185 m -1.82232,-0.97406 0.93508,0.44221 m -1.90914,-0.79087 0.97406,0.34866 m -1.97752,-0.59988 1.00346,0.25122 m -2.02677,-0.40323 1.02331,0.15201 m -2.05654,-0.20268 1.03323,0.0507 m -2.06646,0 1.03323,-0.0507 m -2.05653,0.20268 1.0233,-0.15201 m -2.02677,0.40323 1.00347,-0.25122 m -1.97752,0.59988 0.97405,-0.34866 m -1.90913,0.79087 0.93508,-0.44221 m -1.82232,0.97406 0.88724,-0.53185 m -1.71815,1.14803 0.83091,-0.61618 m -1.59768,1.31102 0.76677,-0.69484 m -1.46126,1.46126 0.69449,-0.76642 m -1.31067,1.59732 0.61618,-0.8309 m -1.14803,1.71815 0.53185,-0.88725 m -0.97441,1.82233 0.44256,-0.93508 m -0.79087,1.90913 0.34831,-0.97405 m -0.59953,1.97752 0.25122,-1.00347 m -0.40323,2.02677 0.15201,-1.0233 m -0.20268,2.05653 0.0507,-1.03323 m 0,2.06646 -0.0507,-1.03323 m 0.20268,2.05654 -0.15201,-1.02331 m 0.40323,2.02677 -0.25122,-1.00346 m 0.59953,1.97752 -0.34831,-0.97406 m 0.79087,1.90914 -0.44256,-0.93508 m 0.97441,1.82232 -0.53185,-0.88724 m 1.14803,1.71814 -0.61618,-0.8309 m 1.31067,1.59768 -0.69449,-0.76678 m 1.46126,1.46126 -0.76677,-0.69448 m 1.59768,1.31067 -0.83091,-0.61619 m 1.71815,1.14804 -0.88724,-0.53185 m 1.82232,0.97441 -0.93508,-0.44256 m 1.90913,0.79086 -0.97405,-0.3483 m 1.97752,0.59952 -1.00347,-0.25122 m 2.02677,0.40323 -1.0233,-0.15201 m -61.72299,0.1141 -1.38925,-0.0684 m 2.77843,0 -1.38918,0.0684 m 2.76502,-0.27248 -1.37584,0.20409 m 2.72506,-0.54177 -1.34922,0.33768 m 2.65882,-0.80646 -1.3096,0.46878 m 2.56691,-1.06335 -1.25731,0.59457 m 2.45034,-1.30961 -1.19303,0.71504 m 2.31024,-1.54346 -1.11721,0.82842 m 2.14774,-1.76279 -1.03053,0.93437 m 1.96465,-1.96476 -0.93412,1.03039 m 1.76265,-2.1476 -0.82853,1.11721 m 1.54361,-2.31024 -0.71508,1.19303 m 1.30975,-2.45055 -0.59467,1.25752 m 1.06327,-2.56713 -0.4686,1.30961 m 0.80653,-2.65854 -0.33793,1.34893 m 0.54202,-2.7248 -0.20409,1.37587 m 0.27237,-2.7652 -0.0683,1.38933 m 0,-2.77866 0.0683,1.38933 m -0.27237,-2.76484 0.20409,1.37551 m -0.54202,-2.7248 0.33793,1.34929 m -0.80653,-2.6589 0.4686,1.30961 m -1.06327,-2.56713 0.59467,1.25752 m -1.30975,-2.45055 0.71508,1.19303 m -1.54361,-2.31024 0.82853,1.11721 m -1.76265,-2.1476 0.93412,1.03039 m -1.96465,-1.96441 1.03053,0.93402 m -2.14774,-1.7628 1.11721,0.82878 m -2.31024,-1.54382 1.19303,0.71504 m -2.45034,-1.3096 1.25731,0.59456 m -2.56691,-1.06334 1.3096,0.46878 m -2.65882,-0.80646 1.34922,0.33768 m -2.72506,-0.54177 1.37584,0.20409 m -2.76502,-0.27248 1.38918,0.0684 m -2.77843,0 1.38925,-0.0684 m -2.76508,0.27248 1.37583,-0.20409 m -2.72507,0.54177 1.34924,-0.33768 m -2.65884,0.80646 1.3096,-0.46878 m -2.56691,1.06334 1.25731,-0.59456 m -2.45034,1.3096 1.19303,-0.71504 m -2.3102,1.54382 1.11717,-0.82878 m -2.14774,1.7628 1.03057,-0.93402 m -1.96469,1.96441 0.93412,-1.03039 m -1.76262,2.1476 0.8285,-1.11721 m -1.54357,2.31024 0.71507,-1.19303 m -1.30978,2.45055 0.59471,-1.25752 m -1.06328,2.56713 0.46857,-1.30961 m -0.80649,2.6589 0.33792,-1.34929 m -0.54202,2.7248 0.2041,-1.37551 m -0.27234,2.76484 0.0682,-1.38933 m 0,2.77866 -0.0682,-1.38933 m 0.27234,2.7652 -0.2041,-1.37587 m 0.54202,2.7248 -0.33792,-1.34893 m 0.80649,2.65854 -0.46857,-1.30961 m 1.06328,2.56713 -0.59471,-1.25752 m 1.30978,2.45055 -0.71507,-1.19303 m 1.54357,2.31024 -0.8285,-1.11721 m 1.76262,2.1476 -0.93412,-1.03039 m 1.96469,1.96476 -1.03057,-0.93437 m 2.14774,1.76279 -1.11717,-0.82842 m 2.3102,1.54346 -1.19303,-0.71504 m 2.45034,1.30961 -1.25731,-0.59457 m 2.56691,1.06335 -1.3096,-0.46878 m 2.65884,0.80646 -1.34924,-0.33768 m 2.72507,0.54177 -1.37583,-0.20409 m -73.16303,60.5087 0,-14.17323 m -44.54433,14.17323 44.54433,0 m -44.54433,-26.92914 0,26.92914 m 14.17323,-26.92914 -14.17323,0 m 14.17323,-26.92913 0,26.92913 m -14.17323,-26.92913 14.17323,0 m -14.17323,-26.92913 0,26.92913 m 14.17323,-26.92913 -14.17323,0 m 14.17323,-26.92914 0,26.92914 m -14.17323,-26.92914 14.17323,0 m -14.17323,-26.92913 0,26.92913 m 44.54433,-26.92913 -44.54433,0 m 44.54433,14.17323 0,-14.17323 m 30.37145,14.17323 -30.37145,0 m 30.37145,-14.17323 0,14.17323 m 30.37103,-14.17323 -30.37103,0 m 30.37103,14.17323 0,-14.17323 m 30.37121,14.17323 -30.37121,0 m 30.37121,-14.17323 0,14.17323 m 30.37107,-14.17323 -30.37107,0 m 30.37107,14.17323 0,-14.17323 m 30.37146,14.17323 -30.37146,0 m 30.37146,-14.17323 0,14.17323 m 44.54433,-14.17323 -44.54433,0 m 44.54433,26.92913 0,-26.92913 m -14.17323,26.92913 14.17323,0 m -14.17323,26.92914 0,-26.92914 m 14.17323,26.92914 -14.17323,0 m 14.17323,26.92913 0,-26.92913 m -14.17323,26.92913 14.17323,0 m -14.17323,26.92913 0,-26.92913 m 14.17323,26.92913 -14.17323,0 m 14.17323,26.92914 0,-26.92914 m -44.54433,26.92914 44.54433,0 m -44.54433,-14.17323 0,14.17323 m -30.37146,-14.17323 30.37146,0 m -30.37146,14.17323 0,-14.17323 m -30.37107,14.17323 30.37107,0 m -30.37107,-14.17323 0,14.17323 m -30.37121,-14.17323 30.37121,0 m -30.37121,14.17323 0,-14.17323 m -30.37103,14.17323 30.37103,0 m -30.37103,-14.17323 0,14.17323 m -30.37145,-14.17323 30.37145,0 m 244.93111,28.34646 0,-14.17323 m -31.25729,14.17323 31.25729,0 m -31.25729,-14.17323 0,14.17323 m -29.92818,-14.17323 29.92818,0 m -29.92818,-29.92819 0,29.92819 m -14.17323,-29.92819 14.17323,0 m -14.17323,-31.25728 0,31.25728 m 14.17323,-31.25728 -14.17323,0 m 14.17323,-29.48528 0,29.48528 m -14.17323,-29.48528 14.17323,0 m -14.17323,-31.25693 0,31.25693 m 14.17323,-31.25693 -14.17323,0 m 14.17323,-29.48527 0,29.48527 m -14.17323,-29.48527 14.17323,0 m -14.17323,-31.25729 0,31.25729 m 14.17323,-31.25729 -14.17323,0 m 14.17323,-29.92819 0,29.92819 m 29.92818,-29.92819 -29.92818,0 m 29.92818,-14.17323 0,14.17323 m 31.25729,-14.17323 -31.25729,0 m 31.25729,14.17323 0,-14.17323 m 29.48527,14.17323 -29.48527,0 m 29.48527,-14.17323 0,14.17323 m 31.25693,-14.17323 -31.25693,0 m 31.25693,14.17323 0,-14.17323 m 29.48528,14.17323 -29.48528,0 m 29.48528,-14.17323 0,14.17323 m 31.25728,-14.17323 -31.25728,0 m 31.25728,14.17323 0,-14.17323 m 29.92819,14.17323 -29.92819,0 m 29.92819,29.92819 0,-29.92819 m 14.17323,29.92819 -14.17323,0 m 14.17323,31.25729 0,-31.25729 m -14.17323,31.25729 14.17323,0 m -14.17323,29.48527 0,-29.48527 m 14.17323,29.48527 -14.17323,0 m 14.17323,31.25693 0,-31.25693 m -14.17323,31.25693 14.17323,0 m -14.17323,29.48528 0,-29.48528 m 14.17323,29.48528 -14.17323,0 m 14.17323,31.25728 0,-31.25728 m -14.17323,31.25728 14.17323,0 m -14.17323,29.92819 0,-29.92819 m -29.92819,29.92819 29.92819,0 m -29.92819,14.17323 0,-14.17323 m -31.25728,14.17323 31.25728,0 m -31.25728,-14.17323 0,14.17323 m -29.48528,-14.17323 29.48528,0 m -29.48528,14.17323 0,-14.17323 m -31.25693,14.17323 31.25693,0 m -31.25693,-14.17323 0,14.17323 m -29.48527,-14.17323 29.48527,0"
       inkscape:connector-curvature="0" />
  </g>
</svg>
