<?xml version="1.0" encoding="UTF-8" standalone="no"?>
<svg
   xmlns:dc="http://purl.org/dc/elements/1.1/"
   xmlns:cc="http://creativecommons.org/ns#"
   xmlns:rdf="http://www.w3.org/1999/02/22-rdf-syntax-ns#"
   xmlns:svg="http://www.w3.org/2000/svg"
   xmlns="http://www.w3.org/2000/svg"
   xmlns:sodipodi="http://sodipodi.sourceforge.net/DTD/sodipodi-0.dtd"
   xmlns:inkscape="http://www.inkscape.org/namespaces/inkscape"
   width="120"
   height="120"
   viewBox="-60 -60 120 120"
   version="1.1"
   id="svg2"
   inkscape:version="0.91 r13725"
   sodipodi:docname="press.svg">
  <metadata
     id="metadata12">
    <rdf:RDF>
      <cc:Work
         rdf:about="">
        <dc:format>image/svg+xml</dc:format>
        <dc:type
           rdf:resource="http://purl.org/dc/dcmitype/StillImage" />
      </cc:Work>
    </rdf:RDF>
  </metadata>
  <defs
     id="defs10" />
  <sodipodi:namedview
     pagecolor="#ffffff"
     bordercolor="#666666"
     borderopacity="1"
     objecttolerance="10"
     gridtolerance="10"
     guidetolerance="10"
     inkscape:pageopacity="0"
     inkscape:pageshadow="2"
     inkscape:window-width="1920"
     inkscape:window-height="1015"
     id="namedview8"
     showgrid="false"
     inkscape:zoom="3.9333333"
     inkscape:cx="74.018967"
     inkscape:cy="64.842688"
     inkscape:window-x="0"
     inkscape:window-y="0"
     inkscape:window-maximized="1"
     inkscape:current-layer="svg2" />
  <title
     id="title4">OpenSCAD Model</title>
  <path
     d=" M -13.8036,-39.9 L -4.76787,-39.9 L -4.76787,-36.7 L 4.76785,-36.7 L 4.76785,-39.9 L 13.8036,-39.9  L 13.8036,-36.7 L 23.3393,-36.7 L 23.3393,-39.9 L 32.5,-39.9 L 32.5,-43.775 L 35.7,-43.775  L 35.7,-48.025 L 32.5,-48.025 L 32.5,-51.775 L 35.7,-51.775 L 35.7,-56.025 L 32.5,-56.025  L 32.5,-59.9 L -35.7,-59.9 L -35.7,-55.9 L -32.5,-55.9 L -32.5,-51.9 L -35.7,-51.9  L -35.7,-47.9 L -32.5,-47.9 L -32.5,-43.9 L -35.7,-43.9 L -35.7,-39.9 L -23.3393,-39.9  L -23.3393,-36.7 L -13.8036,-36.7 z M -23.2143,35.7 L -23.2143,32.5 L -13.9286,32.5 L -13.9286,35.7 L -4.64287,35.7 L -4.64287,32.5  L 4.64285,32.5 L 4.64285,35.7 L 13.9286,35.7 L 13.9286,32.5 L 23.2143,32.5 L 23.2143,35.7  L 32.5,35.7 L 32.5,32.5 L 35.7,32.5 L 35.7,23.2143 L 32.5,23.2143 L 32.5,13.9286  L 35.7,13.9286 L 35.7,4.64287 L 32.5,4.64287 L 32.5,-4.64285 L 35.7,-4.64285 L 35.7,-13.9286  L 32.5,-13.9286 L 32.5,-23.2143 L 35.7,-23.2143 L 35.7,-32.5 L 32.5,-32.5 L 32.5,-35.7  L 23.2143,-35.7 L 23.2143,-32.5 L 13.9286,-32.5 L 13.9286,-35.7 L 4.64285,-35.7 L 4.64285,-32.5  L -4.64287,-32.5 L -4.64287,-35.7 L -13.9286,-35.7 L -13.9286,-32.5 L -23.2143,-32.5 L -23.2143,-35.7  L -32.5,-35.7 L -32.5,-32.5 L -35.7,-32.5 L -35.7,-23.2143 L -32.5,-23.2143 L -32.5,-13.9286  L -35.7,-13.9286 L -35.7,-4.64285 L -32.5,-4.64285 L -32.5,4.64287 L -35.7,4.64287 L -35.7,13.9286  L -32.5,13.9286 L -32.5,23.2143 L -35.7,23.2143 L -35.7,32.5 L -32.5,32.5 L -32.5,35.7  z M 48.025,32.5 L 51.775,32.5 L 51.775,35.7 L 56.025,35.7 L 56.025,32.5 L 59.9,32.5  L 59.9,-35.7 L 55.9,-35.7 L 55.9,-32.5 L 51.9,-32.5 L 51.9,-35.7 L 47.9,-35.7  L 47.9,-32.5 L 43.9,-32.5 L 43.9,-35.7 L 39.9,-35.7 L 39.9,-23.3393 L 36.7,-23.3393  L 36.7,-13.8036 L 39.9,-13.8036 L 39.9,-4.76787 L 36.7,-4.76787 L 36.7,4.76784 L 39.9,4.76784  L 39.9,13.8035 L 36.7,13.8035 L 36.7,23.3393 L 39.9,23.3393 L 39.9,32.5 L 43.775,32.5  L 43.775,35.7 L 48.025,35.7 z M -55.8999,32.5 L -51.8999,32.5 L -51.8999,35.7 L -47.9,35.7 L -47.9,32.5 L -43.9,32.5  L -43.9,35.7 L -39.9,35.7 L -39.9,23.3393 L -36.7,23.3393 L -36.7,13.8036 L -39.8999,13.8036  L -39.8999,4.76785 L -36.7,4.76785 L -36.7,-4.76782 L -39.8999,-4.76782 L -39.8999,-13.8035 L -36.7,-13.8035  L -36.7,-23.3392 L -39.9,-23.3392 L -39.9,-32.5 L -43.775,-32.5 L -43.775,-35.7 L -48.0249,-35.7  L -48.0249,-32.5 L -51.7749,-32.5 L -51.7749,-35.7 L -56.0249,-35.7 L -56.0249,-32.5 L -59.8999,-32.5  L -59.8999,35.7 L -55.8999,35.7 z M 35.7,55.9 L 32.5,55.9 L 32.5,51.9 L 35.7,51.9 L 35.7,47.9 L 32.5,47.9  L 32.5,43.9 L 35.7,43.9 L 35.7,39.9 L 23.3393,39.9 L 23.3393,36.7 L 13.8036,36.7  L 13.8036,39.9 L 4.76785,39.9 L 4.76785,36.7 L -4.76784,36.7 L -4.76784,39.9 L -13.8035,39.9  L -13.8035,36.7 L -23.3393,36.7 L -23.3393,39.9 L -32.5,39.9 L -32.5,43.775 L -35.7,43.775  L -35.7,48.025 L -32.5,48.025 L -32.5,51.775 L -35.7,51.775 L -35.7,56.025 L -32.5,56.025  L -32.5,59.9 L 35.7,59.9 z "
     stroke="black"
     fill="lightgray"
     stroke-width="0.5"
     id="path6"
     style="fill:none;stroke:#ff0000;stroke-opacity:1" />
</svg>
