<?xml version="1.0" encoding="UTF-8" standalone="no"?>
<svg
   xmlns:dc="http://purl.org/dc/elements/1.1/"
   xmlns:cc="http://creativecommons.org/ns#"
   xmlns:rdf="http://www.w3.org/1999/02/22-rdf-syntax-ns#"
   xmlns:svg="http://www.w3.org/2000/svg"
   xmlns="http://www.w3.org/2000/svg"
   xmlns:sodipodi="http://sodipodi.sourceforge.net/DTD/sodipodi-0.dtd"
   xmlns:inkscape="http://www.inkscape.org/namespaces/inkscape"
   width="211.3793"
   height="213.5984"
   id="svg2"
   version="1.1"
   inkscape:version="0.91 r13725"
   sodipodi:docname="link.svg">
  <metadata
     id="metadata222">
    <rdf:RDF>
      <cc:Work
         rdf:about="">
        <dc:format>image/svg+xml</dc:format>
        <dc:type
           rdf:resource="http://purl.org/dc/dcmitype/StillImage" />
        <dc:title></dc:title>
      </cc:Work>
    </rdf:RDF>
  </metadata>
  <sodipodi:namedview
     pagecolor="#ffffff"
     bordercolor="#666666"
     borderopacity="1"
     objecttolerance="10"
     gridtolerance="10"
     guidetolerance="10"
     inkscape:pageopacity="0"
     inkscape:pageshadow="2"
     inkscape:window-width="1920"
     inkscape:window-height="1012"
     id="namedview220"
     showgrid="false"
     fit-margin-top="0"
     fit-margin-left="0"
     fit-margin-right="0"
     fit-margin-bottom="0"
     inkscape:zoom="2.5371828"
     inkscape:cx="161.54601"
     inkscape:cy="98.360571"
     inkscape:window-x="0"
     inkscape:window-y="0"
     inkscape:window-maximized="1"
     inkscape:current-layer="g18" />
  <desc
     id="desc4">/home/sibu/fab/pressfit kit/link.dxf - scale = 1.000000, origin = (0.000000, 0.000000), auto = False</desc>
  <defs
     id="defs6">
    <marker
       id="DistanceX"
       orient="auto"
       refX="0"
       refY="0"
       style="overflow:visible">
      <path
         d="M 3,-3 -3,3 M 0,-5 0,5"
         style="stroke:#000000;stroke-width:0.5"
         id="path9"
         inkscape:connector-curvature="0" />
    </marker>
    <pattern
       height="8"
       id="Hatch"
       patternUnits="userSpaceOnUse"
       width="8"
       x="0"
       y="0">
      <path
         d="M8 4 l-4,4"
         linecap="square"
         stroke="#000000"
         stroke-width="0.25"
         id="path12" />
      <path
         d="M6 2 l-4,4"
         linecap="square"
         stroke="#000000"
         stroke-width="0.25"
         id="path14" />
      <path
         d="M4 0 l-4,4"
         linecap="square"
         stroke="#000000"
         stroke-width="0.25"
         id="path16" />
    </pattern>
  </defs>
  <g
     inkscape:groupmode="layer"
     inkscape:label="0"
     id="g18"
     transform="translate(60.73622,-945.56299)">
    <g
       id="g4360">
      <path
         sodipodi:nodetypes="ccccccccccccc"
         inkscape:connector-curvature="0"
         id="path20"
         style="fill:none;stroke:#ff0000;stroke-opacity:1"
         d="m -37.73622,1148.0315 0,10.6299 12.93307,0 0,-212.59841 -12.93307,0 0,10.62992 -9.56693,0 0,-10.62992 -12.93307,0 0,212.59841 12.93307,0 0,-10.6299 z" />
      <path
         sodipodi:nodetypes="ccccccccccccc"
         inkscape:connector-curvature="0"
         id="path58"
         style="fill:none;stroke:#ff0000;stroke-opacity:1"
         d="m 37.73622,981.49606 -12.93307,0 0,141.73224 12.93307,0 0,-10.6299 9.56693,0 0,10.6299 12.93307,0 0,-141.73224 -12.93307,0 0,10.62992 -9.56693,0 z" />
      <g
         id="g4356">
        <path
           d="m 65.837126,1070.3771 4.629685,8.0189 1.43752,1.5963 7.210275,-7.2103 6.764882,6.7648 -7.197519,7.1975 5.471574,3.9753 8.458937,3.7661 8.90327,1.8925 0,-10.3546 9.56693,0 0,10.3546 8.90327,-1.8925 8.45893,-3.7661 5.47158,-3.9753 -7.19752,-7.1975 6.76488,-6.7648 7.21027,7.2103 1.43752,-1.5963 4.62969,-8.0189 2.86122,-8.8062 0.46524,-4.4253 -10.12713,0 0,-9.5668 10.12713,0 -0.46524,-4.4253 -2.86122,-8.8062 -4.62969,-8.0189 -1.43752,-1.5963 -7.21027,7.2103 -6.76488,-6.7648 7.19752,-7.1975 -5.47158,-3.9753 -8.45893,-3.7661 -8.90327,-1.8925 0,10.3546 -9.56693,0 0,-10.3546 -8.90327,1.8925 -8.458937,3.7661 -5.471574,3.9753 7.197519,7.1975 -6.764882,6.7648 -7.210275,-7.2103 -1.43752,1.5963 -4.629685,8.0189 -2.86122,8.8062 -0.465237,4.4253 10.127126,0 0,9.5668 -10.127126,0 0.465237,4.4253 z"
           style="fill:none;stroke:#ff0000;stroke-opacity:1"
           id="path146"
           inkscape:connector-curvature="0"
           sodipodi:nodetypes="ccccccccccccccccccccccccccccccccccccccccccccccccccccc" />
        <path
           d="m 101.51575,1057.1456 -12.933073,0 0,-9.5668 12.933073,0 0,-12.9331 9.56693,0 0,12.9331 12.93307,0 0,9.5668 -12.93307,0 0,12.9331 -9.56693,0 z"
           style="fill:none;stroke:#ff0000;stroke-opacity:1"
           id="path172"
           inkscape:connector-curvature="0"
           sodipodi:nodetypes="ccccccccccccc" />
      </g>
      <path
         sodipodi:nodetypes="ccccccccccccc"
         inkscape:connector-curvature="0"
         id="path202"
         style="fill:none;stroke:#ff0000;stroke-opacity:1"
         d="m 17.716535,1016.9291 -12.933106,0 0,10.63 -9.566858,0 0,-10.63 -12.933106,0 0,70.8662 12.933106,0 0,-10.6299 9.566858,0 0,10.6299 12.933106,0 z" />
    </g>
  </g>
</svg>
