<?xml version="1.0" encoding="UTF-8" standalone="no"?>
<svg
   xmlns:dc="http://purl.org/dc/elements/1.1/"
   xmlns:cc="http://creativecommons.org/ns#"
   xmlns:rdf="http://www.w3.org/1999/02/22-rdf-syntax-ns#"
   xmlns:svg="http://www.w3.org/2000/svg"
   xmlns="http://www.w3.org/2000/svg"
   xmlns:sodipodi="http://sodipodi.sourceforge.net/DTD/sodipodi-0.dtd"
   xmlns:inkscape="http://www.inkscape.org/namespaces/inkscape"
   width="1250mm"
   height="630mm"
   id="svg2"
   version="1.1"
   inkscape:version="0.91 r13725"
   sodipodi:docname="sarath-mod.svg">
  <metadata
     id="metadata1138">
    <rdf:RDF>
      <cc:Work
         rdf:about="">
        <dc:format>image/svg+xml</dc:format>
        <dc:type
           rdf:resource="http://purl.org/dc/dcmitype/StillImage" />
        <dc:title></dc:title>
      </cc:Work>
    </rdf:RDF>
  </metadata>
  <sodipodi:namedview
     pagecolor="#ffffff"
     bordercolor="#666666"
     borderopacity="1"
     objecttolerance="10"
     gridtolerance="10"
     guidetolerance="10"
     inkscape:pageopacity="0"
     inkscape:pageshadow="2"
     inkscape:window-width="1920"
     inkscape:window-height="1047"
     id="namedview1136"
     showgrid="false"
     inkscape:document-units="mm"
     units="mm"
     inkscape:zoom="0.1121287"
     inkscape:cx="686.62792"
     inkscape:cy="-1224.9926"
     inkscape:window-x="0"
     inkscape:window-y="0"
     inkscape:window-maximized="1"
     inkscape:current-layer="g18" />
  <desc
     id="desc4">/home/sibu/Documents/sarath-mod.dxf - scale = 1.000000, origin = (0.000000, 0.000000), auto = False</desc>
  <defs
     id="defs6">
    <marker
       id="DistanceX"
       orient="auto"
       refX="0"
       refY="0"
       style="overflow:visible">
      <path
         d="M 3,-3 -3,3 M 0,-5 0,5"
         style="stroke:#000000;stroke-width:0.5"
         id="path9"
         inkscape:connector-curvature="0" />
    </marker>
    <pattern
       height="8"
       id="Hatch"
       patternUnits="userSpaceOnUse"
       width="8"
       x="0"
       y="0">
      <path
         d="M8 4 l-4,4"
         linecap="square"
         stroke="#000000"
         stroke-width="0.25"
         id="path12" />
      <path
         d="M6 2 l-4,4"
         linecap="square"
         stroke="#000000"
         stroke-width="0.25"
         id="path14" />
      <path
         d="M4 0 l-4,4"
         linecap="square"
         stroke="#000000"
         stroke-width="0.25"
         id="path16" />
    </pattern>
  </defs>
  <g
     inkscape:groupmode="layer"
     inkscape:label="0"
     id="g18"
     transform="translate(0,1179.9212)">
    <path
       id="path1134"
       style="fill:none;stroke:#ff0000;stroke-width:5;stroke-miterlimit:4;stroke-dasharray:none;stroke-opacity:1"
       d="m 61.395245,-677.19203 0.067,-1.35461 m 3e-4,2.70921 -0.067,-1.3546 m 0.2654,2.69575 -0.1984,-1.34115 m 0.528,2.65677 -0.3296,-1.31562 m 0.7867,2.59263 -0.4571,-1.27701 m 1.0382,2.50264 -0.5811,-1.22563 m 1.2755,2.3889 -0.6944,-1.16327 m 1.5023,2.25248 -0.8079,-1.08921 m 1.7186,2.09409 -0.9107,-1.00488 m 1.917,1.91552 -1.0063,-0.91064 m 2.094,1.71851 -1.0877,-0.80787 m 2.2535,1.50519 -1.1658,-0.69732 m 2.3918,1.27701 -1.226,-0.57969 m 2.5016,1.03677 -1.2756,-0.45708 m 2.5901,0.78661 -1.3145,-0.32953 m 2.6574,0.52831 -1.3429,-0.19878 m 2.6965,0.2654 -1.3536,-0.0666 m 2.7071,-2e-5 -1.3535,0.0666 m 2.6964,-0.26538 -1.3429,0.19878 m 2.6575,-0.52831 -1.3146,0.32953 m 2.5902,-0.78661 -1.2756,0.45708 m 2.5016,-1.03677 -1.226,0.57969 m 2.3917,-1.27701 -1.1657,0.69732 m 2.2535,-1.50519 -1.0878,0.80787 m 2.0941,-1.71851 -1.0063,0.91064 m 1.917,-1.91552 -0.9107,1.00488 m 1.7185,-2.09409 -0.8078,1.08921 m 1.5023,-2.25248 -0.6945,1.16327 m 1.2756,-2.3889 -0.5811,1.22563 m 1.0382,-2.50264 -0.4571,1.27701 m 0.7866,-2.59263 -0.3295,1.31562 m 0.528,-2.65677 -0.1985,1.34115 m 0.2658,-2.69575 -0.067,1.3546 m -3e-4,-2.70921 0.067,1.35461 m -0.2655,-2.69575 0.1985,1.34114 m -0.528,-2.65677 0.3295,1.31563 m -0.7866,-2.59264 0.4571,1.27701 m -1.0382,-2.50264 0.5811,1.22563 m -1.2756,-2.3889 0.6945,1.16327 m -1.5023,-2.25248 0.8078,1.08921 m -1.7185,-2.09409 0.9107,1.00488 m -1.917,-1.91551 1.0063,0.91063 m -2.0941,-1.71851 1.0878,0.80788 m -2.2535,-1.5052 1.1657,0.69732 m -2.3917,-1.277 1.226,0.57968 m -2.5016,-1.03677 1.2756,0.45709 m -2.5902,-0.78662 1.3146,0.32953 m -2.6575,-0.52831 1.3429,0.19878 m -2.6964,-0.26539 1.3535,0.0666 m -2.7071,1e-5 1.3536,-0.0666 m -2.6965,0.26538 1.3429,-0.19878 m -2.6574,0.52831 1.3145,-0.32953 m -2.5901,0.78662 1.2756,-0.45709 m -2.5016,1.03677 1.226,-0.57968 m -2.3918,1.277 1.1658,-0.69732 m -2.2535,1.5052 1.0877,-0.80788 m -2.094,1.71851 1.0063,-0.91063 m -1.917,1.91551 0.9107,-1.00488 m -1.7186,2.09409 0.8079,-1.08921 m -1.5023,2.25248 0.6944,-1.16327 m -1.2755,2.3889 0.5811,-1.22563 m -1.0382,2.50264 0.4571,-1.27701 m -0.7867,2.59264 0.3296,-1.31563 m -0.528,2.65677 0.1984,-1.34114 m 360.443005,473.95559 0,-109.84252 m 21.2598,109.84252 -21.2598,0 m 21.2598,-109.84252 0,109.84252 m -21.2598,-109.84252 21.2598,0 m -21.2598,-109.84252 0,-109.84252 m 21.2598,109.84252 -21.2598,0 m 21.2598,-109.84252 0,109.84252 m -21.2598,-109.84252 21.2598,0 m -409.606305,-141.73228 0.1984,4.06346 m 0,-8.12693 -0.1984,4.06347 m 0.7972,-8.0876 -0.5988,4.02413 m 1.5874,-7.97067 -0.9886,3.94654 m 2.3599,-7.77721 -1.3713,3.83067 m 3.111,-7.50826 -1.7397,3.67759 m 3.8303,-7.1674 -2.0906,3.48981 m 4.5142,-6.75745 -2.4236,3.26764 m 5.1555,-6.28193 -2.7319,3.01429 m 5.7473,-5.74653 -3.0154,2.73224 m 6.2823,-5.15586 -3.2669,2.42362 m 6.7571,-4.51524 -3.4902,2.09162 m 7.1681,-3.83103 -3.6779,1.73941 m 7.5082,-3.10996 -3.8303,1.37055 m 7.774,-2.35913 -3.9437,0.98858 m 7.9689,-1.58527 -4.0252,0.59669 m 8.0894,-0.79654 -4.0642,0.19985 m 8.1284,0 -4.0642,-0.19985 m 8.0894,0.79654 -4.0252,-0.59669 m 7.9689,1.58527 -3.9437,-0.98858 m 7.774,2.35913 -3.8303,-1.37055 m 7.5082,3.10996 -3.6779,-1.73941 m 7.1681,3.83103 -3.4902,-2.09162 m 6.757105,4.51524 -3.266905,-2.42362 m 6.282305,5.15586 -3.0154,-2.73224 m 5.7473,5.74653 -2.7319,-3.01429 m 5.1555,6.28193 -2.4236,-3.26764 m 4.5141,6.75745 -2.0905,-3.48981 m 3.8303,7.1674 -1.7398,-3.67759 m 3.1111,7.50826 -1.3713,-3.83067 m 2.3598,7.77721 -0.9885,-3.94654 m 1.5874,7.97067 -0.5989,-4.02413 m 0.7973,8.0876 -0.1984,-4.06347 m 0,8.12693 0.1984,-4.06346 m -0.7973,8.0876 0.5989,-4.02414 m -1.2367,6.56646 0.6378,-2.54232 m 38.9622,2.54232 -39.6,0 m 39.6,21.25984 0,-21.25984 m 65.8063,21.25984 -65.8063,0 m 65.8063,-21.25984 0,21.25984 m 65.8028,-21.25984 -65.8028,0 m 65.8028,21.25984 0,-21.25984 m 65.8063,21.25984 -65.8063,0 m 65.8063,-21.25984 0,21.25984 m 65.8028,-21.25984 -65.8028,0 m 65.8028,21.25984 0,-21.25984 m 65.8063,21.25984 -65.8063,0 m 65.8063,-21.25984 0,21.25984 m 65.8027,-21.25984 -65.8027,0 m 65.8027,591.732263 0,-591.732263 m -65.8027,591.732263 65.8027,0 m -65.8027,-21.2598 0,21.2598 m -65.8063,-21.2598 65.8063,0 m -65.8063,21.2598 0,-21.2598 m -65.8028,21.2598 65.8028,0 m -65.8028,-21.2598 0,21.2598 m -65.8063,-21.2598 65.8063,0 m -65.8063,21.2598 0,-21.2598 m -65.8028,21.2598 65.8028,0 m -65.8028,-21.2598 0,21.2598 m -65.8063,-21.2598 65.8063,0 m -65.8063,21.2598 0,-21.2598 m -65.802705,21.2598 65.802705,0 m -65.802705,-563.329113 0,563.329113 m -1.7858,-562.690613 1.7858,-0.6385 m -5.7295,1.62708 3.9437,-0.98858 m -7.9689,1.58528 4.0252,-0.5967 m -8.0894,0.79654 4.0642,-0.19984 m -8.1284,0 4.0642,0.19984 m -8.0894,-0.79654 4.0252,0.5967 m -7.9689,-1.58528 3.9437,0.98858 m -7.774,-2.35913 3.8303,1.37055 m -7.5082,-3.10996 3.6779,1.73941 m -7.1681,-3.83102 3.4902,2.09161 m -6.7571,-4.51523 3.2669,2.42362 m -6.2823,-5.15587 3.0154,2.73225 m -5.7473,-5.74654 2.7319,3.01429 m -5.1555,-6.28193 2.4236,3.26764 m -4.5142,-6.75744 2.0906,3.4898 m -3.8303,-7.1674 1.7397,3.6776 m -3.111,-7.50827 1.3713,3.83067 m -2.3599,-7.7772 0.9886,3.94653 m -1.5874,-7.97067 0.5988,4.02414 m 715.556705,746.636783 0,-21.2598 m 154.389,21.2598 -154.389,0 m 154.389,-21.2598 0,21.2598 m -154.389,-21.2598 154.389,0 m 154.38535,21.2598 0,-21.2598 m 154.389,21.2598 -154.389,0 m 154.389,-21.2598 0,21.2598 m -154.389,-21.2598 154.389,0 m 154.3855,21.2598 0,-21.2598 m 154.3889,21.2598 -154.3889,0 m 154.3889,-21.2598 0,21.2598 m -154.3889,-21.2598 154.3889,0 m 154.3855,21.2598 0,-21.2598 m 154.3854,21.2598 -154.3854,0 m 154.3854,-21.2598 0,21.2598 m -154.3854,-21.2598 154.3854,0 m 154.3886,21.2598 0,-21.2598 m 154.3869,21.2598 -154.3869,0 m 154.3869,-21.2598 0,21.2598 m -154.3869,-21.2598 154.3869,0 m 154.3868,21.2598 0,-21.2598 m 154.3869,21.2598 -154.3869,0 m 154.3869,-21.2598 0,21.2598 m -154.3869,-21.2598 154.3869,0 m 154.3886,21.2598 0,-21.2598 m 154.3854,21.2598 -154.3854,0 m 154.3854,-21.2598 0,21.2598 m -154.3854,-21.2598 154.3854,0 m 154.3854,21.2598 0,-21.2598 m 154.389,21.2598 -154.389,0 m 154.389,-21.2598 0,21.2598 m -154.389,-21.2598 154.389,0 m 154.3854,21.2598 0,-21.2598 m 154.389,21.2598 -154.389,0 m 154.389,-21.2598 0,21.2598 m -154.389,-21.2598 154.389,0 m 154.3855,21.2598 0,-21.2598 m 154.3889,21.2598 -154.3889,0 m 154.3889,-21.2598 0,21.2598 m -154.3889,-21.2598 154.3889,0 m -3109.00025,25.3098 21.2598,0 m -21.2598,-65.8063 0,65.8063 m 21.2598,-65.8063 -21.2598,0 m 21.2598,-65.8027 0,65.8027 m 3242.12595,-65.8027 -3242.12595,0 m 3242.12595,65.8027 0,-65.8027 m 21.2598,65.8027 -21.2598,0 m 21.2598,65.8063 0,-65.8063 m -21.2598,65.8063 21.2598,0 m -21.2598,65.802797 0,-65.802797 m 21.2598,65.802797 -21.2598,0 m 21.2598,65.8063 0,-65.8063 m -21.2598,65.8063 21.2598,0 m -21.2598,65.8027 0,-65.8027 m 21.2598,65.8027 -21.2598,0 m 21.2598,65.8063 0,-65.8063 m -21.2598,65.8063 21.2598,0 m -21.2598,65.8028 0,-65.8028 m -3242.12595,65.8028 3242.12595,0 m -3242.12595,-65.8028 0,65.8028 m -21.2598,-65.8028 21.2598,0 m -21.2598,-65.8063 0,65.8063 m 21.2598,-65.8063 -21.2598,0 m 21.2598,-65.8027 0,65.8027 m -21.2598,-65.8027 21.2598,0 m -21.2598,-65.8063 0,65.8063 m 21.2598,-65.8063 -21.2598,0 m 21.2598,-65.802797 0,65.802797 m 154.3854,-945.04962 0,-21.25985 m 154.389,21.25985 -154.389,0 m 154.389,-21.25985 0,21.25985 m -154.389,-21.25985 154.389,0 m 154.38535,21.25985 0,-21.25985 m 154.389,21.25985 -154.389,0 m 154.389,-21.25985 0,21.25985 m -154.389,-21.25985 154.389,0 m 154.3855,21.25985 0,-21.25985 m 154.3889,21.25985 -154.3889,0 m 154.3889,-21.25985 0,21.25985 m -154.3889,-21.25985 154.3889,0 m 154.3855,21.25985 0,-21.25985 m 154.3854,21.25985 -154.3854,0 m 154.3854,-21.25985 0,21.25985 m -154.3854,-21.25985 154.3854,0 m 154.3886,21.25985 0,-21.25985 m 154.3869,21.25985 -154.3869,0 m 154.3869,-21.25985 0,21.25985 m -154.3869,-21.25985 154.3869,0 m 154.3868,21.25985 0,-21.25985 m 154.3869,21.25985 -154.3869,0 m 154.3869,-21.25985 0,21.25985 m -154.3869,-21.25985 154.3869,0 m 154.3886,21.25985 0,-21.25985 m 154.3854,21.25985 -154.3854,0 m 154.3854,-21.25985 0,21.25985 m -154.3854,-21.25985 154.3854,0 m 154.3854,21.25985 0,-21.25985 m 154.389,21.25985 -154.389,0 m 154.389,-21.25985 0,21.25985 m -154.389,-21.25985 154.389,0 m 154.3854,21.25985 0,-21.25985 m 154.389,21.25985 -154.389,0 m 154.389,-21.25985 0,21.25985 m -154.389,-21.25985 154.389,0 m 154.3855,21.25985 0,-21.25985 m 154.3889,21.25985 -154.3889,0 m 154.3889,-21.25985 0,21.25985 m -154.3889,-21.25985 154.3889,0 m -3109.00025,-201.46178 21.2598,0 m -21.2598,-65.8063 0,65.8063 m 21.2598,-65.8063 -21.2598,0 m 21.2598,-65.8028 0,65.8028 m 3242.12595,-65.8028 -3242.12595,0 m 3242.12595,65.8028 0,-65.8028 m 21.2598,65.8028 -21.2598,0 m 21.2598,65.8063 0,-65.8063 m -21.2598,65.8063 21.2598,0 m -21.2598,65.80273 0,-65.80273 m 21.2598,65.80273 -21.2598,0 m 21.2598,65.8063 0,-65.8063 m -21.2598,65.8063 21.2598,0 m -21.2598,65.80275 0,-65.80275 m 21.2598,65.80275 -21.2598,0 m 21.2598,65.8063 0,-65.8063 m -21.2598,65.8063 21.2598,0 m -21.2598,65.80276 0,-65.80276 m -3242.12595,65.80276 3242.12595,0 m -3242.12595,-65.80276 0,65.80276 m -21.2598,-65.80276 21.2598,0 m -21.2598,-65.8063 0,65.8063 m 21.2598,-65.8063 -21.2598,0 m 21.2598,-65.80275 0,65.80275 m -21.2598,-65.80275 21.2598,0 m -21.2598,-65.8063 0,65.8063 m 21.2598,-65.8063 -21.2598,0 m 21.2598,-65.80273 0,65.80273 m -21.2598,1389.98972 21.2598,0 m -21.2598,-21.2598 0,21.2598 m 3284.64555,-21.2598 -3284.64555,0 m 3284.64555,21.2598 0,-21.2598 m -21.2598,21.2598 21.2598,0 m -21.2598,28.3465 0,-28.3465 m 21.2598,28.3465 -21.2598,0 m 21.2598,563.38585 0,-563.38585 m -3284.64555,563.38585 3284.64555,0 M 574.46615,463.75285 l 0,563.38585 m 21.2598,-563.38585 -21.2598,0 m 21.2598,-28.3465 0,28.3465 m -21.2598,-999.2126 0,109.84252 m 21.2598,-109.84252 -21.2598,0 m 21.2598,-109.84252 0,109.84252 m 154.3854,-109.84252 -154.3854,0 m 154.3854,-21.25984 0,21.25984 m 154.389,-21.25984 -154.389,0 m 154.389,21.25984 0,-21.25984 m 154.38535,21.25984 -154.38535,0 m 154.38535,-21.25984 0,21.25984 m 154.389,-21.25984 -154.389,0 m 154.389,21.25984 0,-21.25984 m 154.3855,21.25984 -154.3855,0 m 154.3855,-21.25984 0,21.25984 m 154.3889,-21.25984 -154.3889,0 m 154.3889,21.25984 0,-21.25984 m 154.3855,21.25984 -154.3855,0 m 154.3855,-21.25984 0,21.25984 m 154.3854,-21.25984 -154.3854,0 m 154.3854,21.25984 0,-21.25984 m 154.3886,21.25984 -154.3886,0 m 154.3886,-21.25984 0,21.25984 m 154.3869,-21.25984 -154.3869,0 m 154.3869,21.25984 0,-21.25984 m 154.3868,21.25984 -154.3868,0 m 154.3868,-21.25984 0,21.25984 m 154.3869,-21.25984 -154.3869,0 m 154.3869,21.25984 0,-21.25984 m 154.3886,21.25984 -154.3886,0 m 154.3886,-21.25984 0,21.25984 m 154.3854,-21.25984 -154.3854,0 m 154.3854,21.25984 0,-21.25984 m 154.3854,21.25984 -154.3854,0 m 154.3854,-21.25984 0,21.25984 m 154.389,-21.25984 -154.389,0 m 154.389,21.25984 0,-21.25984 m 154.3854,21.25984 -154.3854,0 m 154.3854,-21.25984 0,21.25984 m 154.389,-21.25984 -154.389,0 m 154.389,21.25984 0,-21.25984 m 154.3855,21.25984 -154.3855,0 m 154.3855,-21.25984 0,21.25984 m 154.3889,-21.25984 -154.3889,0 m 154.3889,21.25984 0,-21.25984 m 154.3855,21.25984 -154.3855,0 m 154.3855,109.84252 0,-109.84252 m 21.2598,109.84252 -21.2598,0 m 21.2598,109.84252 0,-109.84252 m -21.2598,109.84252 21.2598,0 m -21.2598,109.84252 0,-109.84252 m 21.2598,109.84252 -21.2598,0 m 21.2598,109.84252 0,-109.84252 m -21.2598,109.84252 21.2598,0 m -21.2598,109.842543 0,-109.842543 m -154.3855,109.842543 154.3855,0 m -154.3855,21.2598 0,-21.2598 m -154.3889,21.2598 154.3889,0 m -154.3889,-21.2598 0,21.2598 m -154.3855,-21.2598 154.3855,0 m -154.3855,21.2598 0,-21.2598 m -154.389,21.2598 154.389,0 m -154.389,-21.2598 0,21.2598 m -154.3854,-21.2598 154.3854,0 m -154.3854,21.2598 0,-21.2598 m -154.389,21.2598 154.389,0 m -154.389,-21.2598 0,21.2598 m -154.3854,-21.2598 154.3854,0 m -154.3854,21.2598 0,-21.2598 m -154.3854,21.2598 154.3854,0 m -154.3854,-21.2598 0,21.2598 m -154.3886,-21.2598 154.3886,0 m -154.3886,21.2598 0,-21.2598 m -154.3869,21.2598 154.3869,0 m -154.3869,-21.2598 0,21.2598 m -154.3868,-21.2598 154.3868,0 m -154.3868,21.2598 0,-21.2598 m -154.3869,21.2598 154.3869,0 m -154.3869,-21.2598 0,21.2598 m -154.3886,-21.2598 154.3886,0 m -154.3886,21.2598 0,-21.2598 m -154.3854,21.2598 154.3854,0 m -154.3854,-21.2598 0,21.2598 m -154.3855,-21.2598 154.3855,0 m -154.3855,21.2598 0,-21.2598 m -154.3889,21.2598 154.3889,0 m -154.3889,-21.2598 0,21.2598 m -154.3855,-21.2598 154.3855,0 m -154.3855,21.2598 0,-21.2598 m -154.389,21.2598 154.389,0 m -154.389,-21.2598 0,21.2598 m -154.38535,-21.2598 154.38535,0 m -154.38535,21.2598 0,-21.2598 m -154.389,21.2598 154.389,0 m -154.389,-21.2598 0,21.2598 m -154.3854,-21.2598 154.3854,0 m -154.3854,-109.842543 0,109.842543 m -21.2598,-109.842543 21.2598,0 m -21.2598,-109.84252 0,109.84252 m 21.2598,-109.84252 -21.2598,0 m 21.2598,-109.84252 0,109.84252 m -21.2598,-109.84252 21.2598,0 m 3394.48815,219.68504 0,-109.84252 m 21.2598,109.84252 -21.2598,0 m 21.2598,-109.84252 0,109.84252 m -21.2598,-109.84252 21.2598,0 m -21.2598,-109.84252 0,-109.84252 m 21.2598,109.84252 -21.2598,0 m 21.2598,-109.84252 0,109.84252 m -21.2598,-109.84252 21.2598,0 m 333.0709,-141.73228 0.067,-1.35461 m 3e-4,2.70921 -0.067,-1.3546 m 0.2654,2.69575 -0.1984,-1.34115 m 0.528,2.65677 -0.3296,-1.31562 m 0.7867,2.59263 -0.4571,-1.27701 m 1.0382,2.50264 -0.5811,-1.22563 m 1.2756,2.3889 -0.6945,-1.16327 m 1.5023,2.25248 -0.8078,-1.08921 m 1.7185,2.09409 -0.9107,-1.00488 m 1.917,1.91552 -1.0063,-0.91064 m 2.0941,1.71851 -1.0878,-0.80787 m 2.2535,1.50519 -1.1657,-0.69732 m 2.3917,1.27701 -1.226,-0.57969 m 2.5016,1.03677 -1.2756,-0.45708 m 2.5901,0.78661 -1.3145,-0.32953 m 2.6575,0.52831 -1.343,-0.19878 m 2.6965,0.2654 -1.3535,-0.0666 m 2.707,-2e-5 -1.3535,0.0666 m 2.6965,-0.26538 -1.343,0.19878 m 2.6575,-0.52831 -1.3145,0.32953 m 2.5901,-0.78661 -1.2756,0.45708 m 2.5016,-1.03677 -1.226,0.57969 m 2.3917,-1.27701 -1.1657,0.69732 m 2.2535,-1.50519 -1.0878,0.80787 m 2.0941,-1.71851 -1.0063,0.91064 m 1.917,-1.91552 -0.9107,1.00488 m 1.7185,-2.09409 -0.8078,1.08921 m 1.5023,-2.25248 -0.6945,1.16327 m 1.2756,-2.3889 -0.5811,1.22563 m 1.0382,-2.50264 -0.4571,1.27701 m 0.7866,-2.59263 -0.3295,1.31562 m 0.528,-2.65677 -0.1985,1.34115 m 0.2658,-2.69575 -0.067,1.3546 m -3e-4,-2.70921 0.067,1.35461 m -0.2655,-2.69575 0.1985,1.34114 m -0.528,-2.65677 0.3295,1.31563 m -0.7866,-2.59264 0.4571,1.27701 m -1.0382,-2.50264 0.5811,1.22563 m -1.2756,-2.3889 0.6945,1.16327 m -1.5023,-2.25248 0.8078,1.08921 m -1.7185,-2.09409 0.9107,1.00488 m -1.917,-1.91551 1.0063,0.91063 m -2.0941,-1.71851 1.0878,0.80788 m -2.2535,-1.5052 1.1657,0.69732 m -2.3917,-1.277 1.226,0.57968 m -2.5016,-1.03677 1.2756,0.45709 m -2.5901,-0.78662 1.3145,0.32953 m -2.6575,-0.52831 1.343,0.19878 m -2.6965,-0.26539 1.3535,0.0666 m -2.707,1e-5 1.3535,-0.0666 m -2.6965,0.26538 1.343,-0.19878 m -2.6575,0.52831 1.3145,-0.32953 m -2.5901,0.78662 1.2756,-0.45709 m -2.5016,1.03677 1.226,-0.57968 m -2.3917,1.277 1.1657,-0.69732 m -2.2535,1.5052 1.0878,-0.80788 m -2.0941,1.71851 1.0063,-0.91063 m -1.917,1.91551 0.9107,-1.00488 m -1.7185,2.09409 0.8078,-1.08921 m -1.5023,2.25248 0.6945,-1.16327 m -1.2756,2.3889 0.5811,-1.22563 m -1.0382,2.50264 0.4571,-1.27701 m -0.7867,2.59264 0.3296,-1.31563 m -0.528,2.65677 0.1984,-1.34114 m -460.8956,605.057933 65.8027,0 m -65.8027,-591.732263 0,591.732263 m 65.8027,-591.732263 -65.8027,0 m 65.8027,21.25984 0,-21.25984 m 65.8063,21.25984 -65.8063,0 m 65.8063,-21.25984 0,21.25984 m 65.8028,-21.25984 -65.8028,0 m 65.8028,21.25984 0,-21.25984 m 65.8063,21.25984 -65.8063,0 m 65.8063,-21.25984 0,21.25984 m 65.8027,-21.25984 -65.8027,0 m 65.8027,21.25984 0,-21.25984 m 65.8063,21.25984 -65.8063,0 m 65.8063,-21.25984 0,21.25984 m 39.6,-21.25984 -39.6,0 m 38.9623,-2.54232 0.6377,2.54232 m -1.2366,-6.56646 0.5989,4.02414 m -0.7973,-8.0876 0.1984,4.06346 m 0,-8.12693 -0.1984,4.06347 m 0.7973,-8.0876 -0.5989,4.02413 m 1.5874,-7.97067 -0.9885,3.94654 m 2.3598,-7.77721 -1.3713,3.83067 m 3.1111,-7.50826 -1.7398,3.67759 m 3.8303,-7.1674 -2.0905,3.48981 m 4.5141,-6.75745 -2.4236,3.26764 m 5.1555,-6.28193 -2.7319,3.01429 m 5.7473,-5.74653 -3.0154,2.73224 m 6.2823,-5.15586 -3.2669,2.42362 m 6.7571,-4.51524 -3.4902,2.09162 m 7.1681,-3.83103 -3.6779,1.73941 m 7.5082,-3.10996 -3.8303,1.37055 m 7.774,-2.35913 -3.9437,0.98858 m 7.9689,-1.58527 -4.0252,0.59669 m 8.0894,-0.79654 -4.0642,0.19985 m 8.1284,0 -4.0642,-0.19985 m 8.0894,0.79654 -4.0252,-0.59669 m 7.9689,1.58527 -3.9437,-0.98858 m 7.774,2.35913 -3.8303,-1.37055 m 7.5082,3.10996 -3.6779,-1.73941 m 7.1681,3.83103 -3.4902,-2.09162 m 6.7571,4.51524 -3.2669,-2.42362 m 6.2823,5.15586 -3.0154,-2.73224 m 5.7473,5.74653 -2.7319,-3.01429 m 5.1555,6.28193 -2.4236,-3.26764 m 4.5141,6.75745 -2.0905,-3.48981 m 3.8303,7.1674 -1.7398,-3.67759 m 3.1111,7.50826 -1.3713,-3.83067 m 2.3598,7.77721 -0.9885,-3.94654 m 1.5874,7.97067 -0.5989,-4.02413 m 0.7973,8.0876 -0.1984,-4.06347 m 0,8.12693 0.1984,-4.06346 m -0.7973,8.0876 0.5989,-4.02414 m -1.5874,7.97067 0.9885,-3.94653 m -2.3598,7.7772 1.3713,-3.83067 m -3.1111,7.50827 1.7398,-3.6776 m -3.8303,7.1674 2.0905,-3.4898 m -4.5141,6.75744 2.4236,-3.26764 m -5.1555,6.28193 2.7319,-3.01429 m -5.7473,5.74654 3.0154,-2.73225 m -6.2823,5.15587 3.2669,-2.42362 m -6.7571,4.51523 3.4902,-2.09161 m -7.1681,3.83102 3.6779,-1.73941 m -7.5082,3.10996 3.8303,-1.37055 m -7.774,2.35913 3.9437,-0.98858 m -7.9689,1.58528 4.0252,-0.5967 m -8.0894,0.79654 4.0642,-0.19984 m -8.1284,0 4.0642,0.19984 m -8.0894,-0.79654 4.0252,0.5967 m -7.9689,-1.58528 3.9437,0.98858 m -5.7295,-1.62708 1.7858,0.6385 m -1.7858,562.690613 0,-563.329113 m -65.8028,563.329113 65.8028,0 m -65.8028,-21.2598 0,21.2598 m -65.8063,-21.2598 65.8063,0 m -65.8063,21.2598 0,-21.2598 m -65.8027,21.2598 65.8027,0 m -65.8027,-21.2598 0,21.2598 m -65.8063,-21.2598 65.8063,0 m -65.8063,21.2598 0,-21.2598 m -65.8028,21.2598 65.8028,0 m -65.8028,-21.2598 0,21.2598 m -65.8063,-21.2598 65.8063,0 m -65.8063,21.2598 0,-21.2598"
       inkscape:connector-curvature="0" />
  </g>
</svg>
